G04 Layer_Physical_Order=1*
G04 Layer_Color=255*
%FSLAX44Y44*%
%MOMM*%
G71*
G01*
G75*
%ADD10C,0.2540*%
%ADD11C,1.7780*%
%ADD12R,1.7780X1.7780*%
G36*
X2287105Y1294895D02*
X1693895D01*
Y1885105D01*
X2287105D01*
Y1294895D01*
D02*
G37*
%LPC*%
G36*
X1954270Y1759361D02*
Y1749270D01*
X1964361D01*
X1964136Y1750984D01*
X1962984Y1753764D01*
X1961152Y1756152D01*
X1958764Y1757984D01*
X1955984Y1759136D01*
X1954270Y1759361D01*
D02*
G37*
G36*
X1951730D02*
X1950016Y1759136D01*
X1947236Y1757984D01*
X1944848Y1756152D01*
X1943016Y1753764D01*
X1941864Y1750984D01*
X1941639Y1749270D01*
X1951730D01*
Y1759361D01*
D02*
G37*
G36*
X2032270Y1758761D02*
Y1748670D01*
X2042361D01*
X2042136Y1750384D01*
X2040984Y1753164D01*
X2039152Y1755552D01*
X2036764Y1757384D01*
X2033984Y1758536D01*
X2032270Y1758761D01*
D02*
G37*
G36*
X2029730D02*
X2028016Y1758536D01*
X2025236Y1757384D01*
X2022848Y1755552D01*
X2021016Y1753164D01*
X2019864Y1750384D01*
X2019639Y1748670D01*
X2029730D01*
Y1758761D01*
D02*
G37*
G36*
X1964361Y1746730D02*
X1941639D01*
X1941864Y1745016D01*
X1943016Y1742236D01*
X1944848Y1739848D01*
X1947236Y1738016D01*
X1950016Y1736864D01*
X1950022Y1736863D01*
Y1733737D01*
X1950016Y1733736D01*
X1947236Y1732584D01*
X1944848Y1730752D01*
X1943016Y1728364D01*
X1941864Y1725584D01*
X1941639Y1723870D01*
X1964361D01*
X1964136Y1725584D01*
X1962984Y1728364D01*
X1961152Y1730752D01*
X1958764Y1732584D01*
X1955984Y1733736D01*
X1955977Y1733737D01*
Y1736863D01*
X1955984Y1736864D01*
X1958764Y1738016D01*
X1961152Y1739848D01*
X1962984Y1742236D01*
X1964136Y1745016D01*
X1964361Y1746730D01*
D02*
G37*
G36*
X2042361Y1746130D02*
X2019639D01*
X2019864Y1744416D01*
X2021016Y1741636D01*
X2022848Y1739248D01*
X2025236Y1737416D01*
X2028016Y1736264D01*
X2028022Y1736263D01*
Y1733137D01*
X2028016Y1733136D01*
X2025236Y1731984D01*
X2022848Y1730152D01*
X2021016Y1727764D01*
X2019864Y1724984D01*
X2019639Y1723270D01*
X2042361D01*
X2042136Y1724984D01*
X2040984Y1727764D01*
X2039152Y1730152D01*
X2036764Y1731984D01*
X2033984Y1733136D01*
X2033978Y1733137D01*
Y1736263D01*
X2033984Y1736264D01*
X2036764Y1737416D01*
X2039152Y1739248D01*
X2040984Y1741636D01*
X2042136Y1744416D01*
X2042361Y1746130D01*
D02*
G37*
G36*
X1964361Y1721330D02*
X1941639D01*
X1941864Y1719616D01*
X1943016Y1716836D01*
X1944848Y1714448D01*
X1947236Y1712616D01*
X1949375Y1711730D01*
X1948758Y1708630D01*
X1941570D01*
Y1698470D01*
X1964430D01*
Y1708630D01*
X1957242D01*
X1956626Y1711730D01*
X1958764Y1712616D01*
X1961152Y1714448D01*
X1962984Y1716836D01*
X1964136Y1719616D01*
X1964361Y1721330D01*
D02*
G37*
G36*
X2042361Y1720730D02*
X2019639D01*
X2019864Y1719016D01*
X2021016Y1716236D01*
X2022848Y1713848D01*
X2025236Y1712016D01*
X2027375Y1711130D01*
X2026758Y1708030D01*
X2019570D01*
Y1697870D01*
X2042430D01*
Y1708030D01*
X2035242D01*
X2034626Y1711130D01*
X2036764Y1712016D01*
X2039152Y1713848D01*
X2040984Y1716236D01*
X2042136Y1719016D01*
X2042361Y1720730D01*
D02*
G37*
G36*
X1964430Y1695930D02*
X1954270D01*
Y1685770D01*
X1964430D01*
Y1695930D01*
D02*
G37*
G36*
X1951730D02*
X1941570D01*
Y1685770D01*
X1951730D01*
Y1695930D01*
D02*
G37*
G36*
X2042430Y1695330D02*
X2032270D01*
Y1685170D01*
X2042430D01*
Y1695330D01*
D02*
G37*
G36*
X2029730D02*
X2019570D01*
Y1685170D01*
X2029730D01*
Y1695330D01*
D02*
G37*
G36*
X2032270Y1507761D02*
Y1497670D01*
X2042361D01*
X2042136Y1499384D01*
X2040984Y1502164D01*
X2039152Y1504552D01*
X2036764Y1506384D01*
X2033984Y1507536D01*
X2032270Y1507761D01*
D02*
G37*
G36*
X2029730D02*
X2028016Y1507536D01*
X2025236Y1506384D01*
X2022848Y1504552D01*
X2021016Y1502164D01*
X2019864Y1499384D01*
X2019639Y1497670D01*
X2029730D01*
Y1507761D01*
D02*
G37*
G36*
X1953270Y1506361D02*
Y1496270D01*
X1963361D01*
X1963136Y1497984D01*
X1961984Y1500764D01*
X1960152Y1503152D01*
X1957764Y1504984D01*
X1954984Y1506136D01*
X1953270Y1506361D01*
D02*
G37*
G36*
X1950730D02*
X1949016Y1506136D01*
X1946236Y1504984D01*
X1943848Y1503152D01*
X1942016Y1500764D01*
X1940864Y1497984D01*
X1940639Y1496270D01*
X1950730D01*
Y1506361D01*
D02*
G37*
G36*
X2042361Y1495130D02*
X2019639D01*
X2019864Y1493416D01*
X2021016Y1490636D01*
X2022848Y1488248D01*
X2025236Y1486416D01*
X2028016Y1485264D01*
X2028022Y1485263D01*
Y1482137D01*
X2028016Y1482136D01*
X2025236Y1480984D01*
X2022848Y1479152D01*
X2021016Y1476764D01*
X2019864Y1473984D01*
X2019639Y1472270D01*
X2042361D01*
X2042136Y1473984D01*
X2040984Y1476764D01*
X2039152Y1479152D01*
X2036764Y1480984D01*
X2033984Y1482136D01*
X2033978Y1482137D01*
Y1485263D01*
X2033984Y1485264D01*
X2036764Y1486416D01*
X2039152Y1488248D01*
X2040984Y1490636D01*
X2042136Y1493416D01*
X2042361Y1495130D01*
D02*
G37*
G36*
X1963361Y1493730D02*
X1940639D01*
X1940864Y1492016D01*
X1942016Y1489236D01*
X1943848Y1486848D01*
X1946236Y1485016D01*
X1949016Y1483864D01*
X1949023Y1483863D01*
Y1480737D01*
X1949016Y1480736D01*
X1946236Y1479584D01*
X1943848Y1477752D01*
X1942016Y1475364D01*
X1940864Y1472584D01*
X1940639Y1470870D01*
X1963361D01*
X1963136Y1472584D01*
X1961984Y1475364D01*
X1960152Y1477752D01*
X1957764Y1479584D01*
X1954984Y1480736D01*
X1954978Y1480737D01*
Y1483863D01*
X1954984Y1483864D01*
X1957764Y1485016D01*
X1960152Y1486848D01*
X1961984Y1489236D01*
X1963136Y1492016D01*
X1963361Y1493730D01*
D02*
G37*
G36*
X2042361Y1469730D02*
X2019639D01*
X2019864Y1468016D01*
X2021016Y1465236D01*
X2022848Y1462848D01*
X2025236Y1461016D01*
X2027375Y1460130D01*
X2026758Y1457030D01*
X2019570D01*
Y1446870D01*
X2042430D01*
Y1457030D01*
X2035242D01*
X2034626Y1460130D01*
X2036764Y1461016D01*
X2039152Y1462848D01*
X2040984Y1465236D01*
X2042136Y1468016D01*
X2042361Y1469730D01*
D02*
G37*
G36*
X1963361Y1468330D02*
X1940639D01*
X1940864Y1466616D01*
X1942016Y1463836D01*
X1943848Y1461448D01*
X1946236Y1459616D01*
X1948374Y1458730D01*
X1947758Y1455630D01*
X1940570D01*
Y1445470D01*
X1963430D01*
Y1455630D01*
X1956242D01*
X1955625Y1458730D01*
X1957764Y1459616D01*
X1960152Y1461448D01*
X1961984Y1463836D01*
X1963136Y1466616D01*
X1963361Y1468330D01*
D02*
G37*
G36*
X2042430Y1444330D02*
X2032270D01*
Y1434170D01*
X2042430D01*
Y1444330D01*
D02*
G37*
G36*
X2029730D02*
X2019570D01*
Y1434170D01*
X2029730D01*
Y1444330D01*
D02*
G37*
G36*
X1963430Y1442930D02*
X1953270D01*
Y1432770D01*
X1963430D01*
Y1442930D01*
D02*
G37*
G36*
X1950730D02*
X1940570D01*
Y1432770D01*
X1950730D01*
Y1442930D01*
D02*
G37*
G36*
X2000000Y1850895D02*
X1984000D01*
X1982509Y1850598D01*
X1981246Y1849754D01*
X1980402Y1848490D01*
X1980105Y1847000D01*
X1980304Y1846000D01*
X1980105Y1845000D01*
Y1341000D01*
X1980402Y1339509D01*
X1981246Y1338246D01*
X1982509Y1337402D01*
X1984000Y1337105D01*
X2000000D01*
X2001490Y1337402D01*
X2002754Y1338246D01*
X2003598Y1339509D01*
X2003895Y1341000D01*
Y1568000D01*
Y1847000D01*
X2003598Y1848490D01*
X2002754Y1849754D01*
X2001490Y1850598D01*
X2000000Y1850895D01*
D02*
G37*
%LPD*%
D10*
X1992802Y1863000D02*
X1994802Y1865000D01*
X1982000Y1863000D02*
X1992802D01*
X1963450Y1844450D02*
X1982000Y1863000D01*
X1953000Y1823198D02*
X1963450Y1833649D01*
Y1844450D01*
X1994802Y1865000D02*
X2013000D01*
X1952000Y1696200D02*
X1953000Y1697200D01*
X1952000Y1495000D02*
Y1696200D01*
X2031000Y1496400D02*
Y1696600D01*
Y1445600D02*
X2130600Y1346000D01*
X2241000D01*
X2031000Y1445600D02*
Y1471000D01*
Y1496400D01*
X1953000Y1748000D02*
Y1823198D01*
X2013000Y1865000D02*
X2031000Y1847000D01*
Y1747400D02*
Y1847000D01*
Y1696600D02*
Y1722000D01*
Y1747400D01*
X1953000Y1697200D02*
Y1722600D01*
Y1748000D01*
X2031000Y1747400D02*
X2138600Y1855000D01*
X2255000D01*
X1846000D02*
X1953000Y1748000D01*
X1725000Y1855000D02*
X1846000D01*
X1952000Y1469600D02*
Y1495000D01*
Y1444200D02*
Y1469600D01*
X1832800Y1325000D02*
X1952000Y1444200D01*
X1725000Y1325000D02*
X1832800D01*
D11*
X2031000Y1747400D02*
D03*
Y1722000D02*
D03*
X1953000Y1748000D02*
D03*
Y1722600D02*
D03*
X2031000Y1496400D02*
D03*
Y1471000D02*
D03*
X1952000Y1495000D02*
D03*
Y1469600D02*
D03*
D12*
X2031000Y1696600D02*
D03*
X1953000Y1697200D02*
D03*
X2031000Y1445600D02*
D03*
X1952000Y1444200D02*
D03*
M02*
