G04 Layer_Color=16711935*
%FSLAX44Y44*%
%MOMM*%
G71*
G01*
G75*
%ADD14C,0.1270*%
%ADD15R,4.8260X2.4130*%
D14*
X3075590Y1649058D02*
X3309270D01*
Y1624928D02*
Y1649058D01*
X3075590Y1624928D02*
Y1649058D01*
Y1624928D02*
X3309270D01*
X3141630Y1641943D02*
Y1631785D01*
Y1641943D02*
X3145984D01*
X3147435Y1641460D01*
X3147918Y1640976D01*
X3148402Y1640009D01*
Y1639041D01*
X3147918Y1638074D01*
X3147435Y1637590D01*
X3145984Y1637106D01*
X3141630D02*
X3145984D01*
X3147435Y1636623D01*
X3147918Y1636139D01*
X3148402Y1635172D01*
Y1633720D01*
X3147918Y1632753D01*
X3147435Y1632269D01*
X3145984Y1631785D01*
X3141630D01*
X3153578Y1641943D02*
X3152610Y1641460D01*
X3151643Y1640492D01*
X3151159Y1639525D01*
X3150676Y1638074D01*
Y1635655D01*
X3151159Y1634204D01*
X3151643Y1633237D01*
X3152610Y1632269D01*
X3153578Y1631785D01*
X3155513D01*
X3156480Y1632269D01*
X3157448Y1633237D01*
X3157931Y1634204D01*
X3158415Y1635655D01*
Y1638074D01*
X3157931Y1639525D01*
X3157448Y1640492D01*
X3156480Y1641460D01*
X3155513Y1641943D01*
X3153578D01*
X3168524Y1631785D02*
X3164655Y1641943D01*
X3160785Y1631785D01*
X3162236Y1635172D02*
X3167073D01*
X3170894Y1641943D02*
Y1631785D01*
Y1641943D02*
X3175248D01*
X3176699Y1641460D01*
X3177183Y1640976D01*
X3177666Y1640009D01*
Y1639041D01*
X3177183Y1638074D01*
X3176699Y1637590D01*
X3175248Y1637106D01*
X3170894D01*
X3174280D02*
X3177666Y1631785D01*
X3179940Y1641943D02*
Y1631785D01*
Y1641943D02*
X3183326D01*
X3184777Y1641460D01*
X3185744Y1640492D01*
X3186228Y1639525D01*
X3186712Y1638074D01*
Y1635655D01*
X3186228Y1634204D01*
X3185744Y1633237D01*
X3184777Y1632269D01*
X3183326Y1631785D01*
X3179940D01*
X3199868Y1641943D02*
X3198901Y1641460D01*
X3197934Y1640492D01*
X3197450Y1639525D01*
X3196966Y1638074D01*
Y1635655D01*
X3197450Y1634204D01*
X3197934Y1633237D01*
X3198901Y1632269D01*
X3199868Y1631785D01*
X3201803D01*
X3202771Y1632269D01*
X3203738Y1633237D01*
X3204222Y1634204D01*
X3204706Y1635655D01*
Y1638074D01*
X3204222Y1639525D01*
X3203738Y1640492D01*
X3202771Y1641460D01*
X3201803Y1641943D01*
X3199868D01*
X3207076D02*
Y1634688D01*
X3207560Y1633237D01*
X3208527Y1632269D01*
X3209978Y1631785D01*
X3210945D01*
X3212397Y1632269D01*
X3213364Y1633237D01*
X3213847Y1634688D01*
Y1641943D01*
X3220039D02*
Y1631785D01*
X3216653Y1641943D02*
X3223425D01*
X3224634D02*
Y1631785D01*
X3230439D01*
X3231551Y1641943D02*
Y1631785D01*
X3233680Y1641943D02*
Y1631785D01*
Y1641943D02*
X3240451Y1631785D01*
Y1641943D02*
Y1631785D01*
X3249545Y1641943D02*
X3243257D01*
Y1631785D01*
X3249545D01*
X3243257Y1637106D02*
X3247126D01*
D15*
X3099720Y1636993D02*
D03*
M02*
