G04 Layer_Color=0*
%FSLAX44Y44*%
%MOMM*%
G71*
G01*
G75*
%ADD10C,0.2540*%
%ADD13C,0.2032*%
%ADD14C,0.1270*%
%ADD20C,0.3048*%
%ADD22C,0.2997*%
%ADD24C,0.5080*%
%ADD30C,0.0762*%
%ADD31C,0.3810*%
%ADD32C,0.3000*%
%ADD33R,19.9898X2.0066*%
%ADD34R,0.9906X110.9980*%
D10*
X2461920Y269355D02*
X2461951Y519345D01*
X2461920Y269355D02*
X4111920D01*
X5951920Y219355D02*
Y319355D01*
X2311981Y219396D02*
X6022650D01*
Y219146D02*
Y519105D01*
X5101920Y369355D02*
Y419355D01*
X5231920Y369355D02*
Y419355D01*
X5401920Y369355D02*
Y419355D01*
X5571921Y369355D02*
Y419355D01*
X5741920Y369355D02*
Y419355D01*
X4291920Y369355D02*
Y519355D01*
X4701920Y369355D02*
Y519355D01*
X3812210Y269355D02*
Y519355D01*
X3962070Y269355D02*
Y519355D01*
X4111911Y269297D02*
X4111930Y519355D01*
X4391920Y319355D02*
Y369355D01*
X5741921Y219105D02*
Y519105D01*
X2461920Y319355D02*
X4901920D01*
X2461920Y469355D02*
X4901920D01*
X2461920Y519355D02*
X6022650D01*
X2461920Y419355D02*
X6021650D01*
X2461920Y369355D02*
X5741900D01*
X5741921Y319105D02*
X6022150D01*
X2461951Y519345D02*
X2611950D01*
X2461951Y469345D02*
X2611950D01*
X2461951Y419345D02*
X2611950D01*
X2461951Y369345D02*
X2611950D01*
X2461951Y319345D02*
X2611950D01*
X2461951Y269345D02*
X2611950D01*
X2311920Y219457D02*
Y519457D01*
X2311950Y519345D02*
X2461951D01*
X2311950Y469345D02*
X2461951D01*
X2311950Y419345D02*
X2461951D01*
X2311950Y369345D02*
X2461951D01*
X2311950Y319345D02*
X2461951D01*
X2311950Y269345D02*
X2461951D01*
X4111920Y269338D02*
X5741400D01*
X4901920Y269642D02*
Y469355D01*
Y519305D01*
X2869870Y219396D02*
Y269355D01*
X6021200Y220397D02*
Y520356D01*
X2021262Y220397D02*
X6021200D01*
X3828690Y353146D02*
Y335370D01*
Y353146D02*
X3836309D01*
X3838848Y352300D01*
X3839695Y351453D01*
X3840541Y349760D01*
Y348068D01*
X3839695Y346375D01*
X3838848Y345528D01*
X3836309Y344682D01*
X3828690D02*
X3836309D01*
X3838848Y343835D01*
X3839695Y342989D01*
X3840541Y341296D01*
Y338756D01*
X3839695Y337063D01*
X3838848Y336217D01*
X3836309Y335370D01*
X3828690D01*
X3856370Y353146D02*
X3844519Y335370D01*
Y353146D02*
X3856370D01*
X3844519Y335370D02*
X3856370D01*
X2387327Y334860D02*
X2380555Y352637D01*
X2373783Y334860D01*
X2376323Y340786D02*
X2384787D01*
X2498493Y353657D02*
Y335881D01*
Y353657D02*
X2509498D01*
X2498493Y345192D02*
X2505265D01*
X2511529Y353657D02*
Y335881D01*
X2515254Y353657D02*
Y335881D01*
Y353657D02*
X2522872D01*
X2525411Y352810D01*
X2526258Y351964D01*
X2527104Y350271D01*
Y348578D01*
X2526258Y346885D01*
X2525411Y346038D01*
X2522872Y345192D01*
X2515254D01*
X2521179D02*
X2527104Y335881D01*
X2542934Y351117D02*
X2541241Y352810D01*
X2538701Y353657D01*
X2535315D01*
X2532776Y352810D01*
X2531083Y351117D01*
Y349424D01*
X2531929Y347731D01*
X2532776Y346885D01*
X2534469Y346038D01*
X2539548Y344346D01*
X2541241Y343499D01*
X2542087Y342653D01*
X2542934Y340960D01*
Y338420D01*
X2541241Y336727D01*
X2538701Y335881D01*
X2535315D01*
X2532776Y336727D01*
X2531083Y338420D01*
X2552838Y353657D02*
Y335881D01*
X2546912Y353657D02*
X2558763D01*
X2574846D02*
Y335881D01*
Y353657D02*
X2580771D01*
X2583311Y352810D01*
X2585004Y351117D01*
X2585851Y349424D01*
X2586697Y346885D01*
Y342653D01*
X2585851Y340113D01*
X2585004Y338420D01*
X2583311Y336727D01*
X2580771Y335881D01*
X2574846D01*
X2601680Y353657D02*
X2590675D01*
Y335881D01*
X2601680D01*
X2590675Y345192D02*
X2597447D01*
X2616493Y351117D02*
X2614800Y352810D01*
X2612261Y353657D01*
X2608875D01*
X2606335Y352810D01*
X2604642Y351117D01*
Y349424D01*
X2605489Y347731D01*
X2606335Y346885D01*
X2608028Y346038D01*
X2613107Y344346D01*
X2614800Y343499D01*
X2615647Y342653D01*
X2616493Y340960D01*
Y338420D01*
X2614800Y336727D01*
X2612261Y335881D01*
X2608875D01*
X2606335Y336727D01*
X2604642Y338420D01*
X2620472Y353657D02*
Y335881D01*
X2636894Y349424D02*
X2636047Y351117D01*
X2634354Y352810D01*
X2632661Y353657D01*
X2629275D01*
X2627582Y352810D01*
X2625889Y351117D01*
X2625043Y349424D01*
X2624196Y346885D01*
Y342653D01*
X2625043Y340113D01*
X2625889Y338420D01*
X2627582Y336727D01*
X2629275Y335881D01*
X2632661D01*
X2634354Y336727D01*
X2636047Y338420D01*
X2636894Y340113D01*
Y342653D01*
X2632661D02*
X2636894D01*
X2640957Y353657D02*
Y335881D01*
Y353657D02*
X2652807Y335881D01*
Y353657D02*
Y335881D01*
X2684381Y349424D02*
X2683535Y351117D01*
X2681842Y352810D01*
X2680149Y353657D01*
X2676763D01*
X2675070Y352810D01*
X2673377Y351117D01*
X2672531Y349424D01*
X2671684Y346885D01*
Y342653D01*
X2672531Y340113D01*
X2673377Y338420D01*
X2675070Y336727D01*
X2676763Y335881D01*
X2680149D01*
X2681842Y336727D01*
X2683535Y338420D01*
X2684381Y340113D01*
X2689376Y353657D02*
Y335881D01*
Y353657D02*
X2696994D01*
X2699533Y352810D01*
X2700380Y351964D01*
X2701227Y350271D01*
Y348578D01*
X2700380Y346885D01*
X2699533Y346038D01*
X2696994Y345192D01*
X2689376D01*
X2695301D02*
X2701227Y335881D01*
X2716209Y353657D02*
X2705205D01*
Y335881D01*
X2716209D01*
X2705205Y345192D02*
X2711977D01*
X2732715Y335881D02*
X2725944Y353657D01*
X2719172Y335881D01*
X2721711Y341806D02*
X2730176D01*
X2742789Y353657D02*
Y335881D01*
X2736863Y353657D02*
X2748714D01*
X2761835D02*
X2750830D01*
Y335881D01*
X2761835D01*
X2750830Y345192D02*
X2757602D01*
X2764797Y353657D02*
Y335881D01*
Y353657D02*
X2770723D01*
X2773262Y352810D01*
X2774955Y351117D01*
X2775802Y349424D01*
X2776648Y346885D01*
Y342653D01*
X2775802Y340113D01*
X2774955Y338420D01*
X2773262Y336727D01*
X2770723Y335881D01*
X2764797D01*
X2782320Y336727D02*
X2781473Y335881D01*
X2780627Y336727D01*
X2781473Y337574D01*
X2782320Y336727D01*
Y335034D01*
X2781473Y333341D01*
X2780627Y332495D01*
X3972400Y350250D02*
X3974093Y351097D01*
X3976632Y353636D01*
Y335860D01*
X3990515Y353636D02*
X3987975Y352790D01*
X3986282Y350250D01*
X3985436Y346018D01*
Y343478D01*
X3986282Y339246D01*
X3987975Y336706D01*
X3990515Y335860D01*
X3992208D01*
X3994747Y336706D01*
X3996440Y339246D01*
X3997286Y343478D01*
Y346018D01*
X3996440Y350250D01*
X3994747Y352790D01*
X3992208Y353636D01*
X3990515D01*
X4002112Y337553D02*
X4001265Y336706D01*
X4002112Y335860D01*
X4002958Y336706D01*
X4002112Y337553D01*
X4006852Y350250D02*
X4008545Y351097D01*
X4011084Y353636D01*
Y335860D01*
X4024967Y353636D02*
X4022427Y352790D01*
X4020734Y350250D01*
X4019888Y346018D01*
Y343478D01*
X4020734Y339246D01*
X4022427Y336706D01*
X4024967Y335860D01*
X4026660D01*
X4029199Y336706D01*
X4030892Y339246D01*
X4031739Y343478D01*
Y346018D01*
X4030892Y350250D01*
X4029199Y352790D01*
X4026660Y353636D01*
X4024967D01*
X4036563Y337553D02*
X4035717Y336706D01*
X4036563Y335860D01*
X4037410Y336706D01*
X4036563Y337553D01*
X4042150Y349404D02*
Y350250D01*
X4042997Y351943D01*
X4043843Y352790D01*
X4045536Y353636D01*
X4048922D01*
X4050615Y352790D01*
X4051461Y351943D01*
X4052308Y350250D01*
Y348557D01*
X4051461Y346864D01*
X4049769Y344325D01*
X4041304Y335860D01*
X4053155D01*
X4062212Y353636D02*
X4059673Y352790D01*
X4057979Y350250D01*
X4057133Y346018D01*
Y343478D01*
X4057979Y339246D01*
X4059673Y336706D01*
X4062212Y335860D01*
X4063905D01*
X4066444Y336706D01*
X4068137Y339246D01*
X4068984Y343478D01*
Y346018D01*
X4068137Y350250D01*
X4066444Y352790D01*
X4063905Y353636D01*
X4062212D01*
X4072962Y350250D02*
X4074655Y351097D01*
X4077195Y353636D01*
Y335860D01*
X4096156Y351097D02*
X4095309Y352790D01*
X4092770Y353636D01*
X4091077D01*
X4088538Y352790D01*
X4086845Y350250D01*
X4085998Y346018D01*
Y341785D01*
X4086845Y338399D01*
X4088538Y336706D01*
X4091077Y335860D01*
X4091924D01*
X4094463Y336706D01*
X4096156Y338399D01*
X4097003Y340939D01*
Y341785D01*
X4096156Y344325D01*
X4094463Y346018D01*
X4091924Y346864D01*
X4091077D01*
X4088538Y346018D01*
X4086845Y344325D01*
X4085998Y341785D01*
D13*
X281476Y200269D02*
Y410327D01*
X4648498Y170297D02*
Y221097D01*
X1092498Y170297D02*
Y221097D01*
X221014Y260179D02*
X341420Y260213D01*
X2524004Y233270D02*
X2517232Y251046D01*
X2510460Y233270D01*
X2513000Y239195D02*
X2521465D01*
X2528998Y246813D02*
Y247660D01*
X2529845Y249353D01*
X2530691Y250199D01*
X2532384Y251046D01*
X2535770D01*
X2537463Y250199D01*
X2538309Y249353D01*
X2539156Y247660D01*
Y245967D01*
X2538309Y244274D01*
X2536617Y241734D01*
X2528152Y233270D01*
X2540002D01*
X2543981Y227344D02*
X2557525D01*
X2559810Y251046D02*
Y233270D01*
Y251046D02*
X2570815D01*
X2559810Y242581D02*
X2566582D01*
X2574539Y251046D02*
X2575386Y250199D01*
X2576232Y251046D01*
X2575386Y251892D01*
X2574539Y251046D01*
X2575386Y245120D02*
Y233270D01*
X2579364Y245120D02*
Y233270D01*
Y240042D02*
X2580211Y242581D01*
X2581903Y244274D01*
X2583596Y245120D01*
X2586136D01*
X2587744D02*
Y233270D01*
Y241734D02*
X2590284Y244274D01*
X2591977Y245120D01*
X2594516D01*
X2596209Y244274D01*
X2597056Y241734D01*
Y233270D01*
Y241734D02*
X2599595Y244274D01*
X2601288Y245120D01*
X2603828D01*
X2605520Y244274D01*
X2606367Y241734D01*
Y233270D01*
X2611954Y245120D02*
X2615340Y233270D01*
X2618726Y245120D02*
X2615340Y233270D01*
X2618726Y245120D02*
X2622112Y233270D01*
X2625497Y245120D02*
X2622112Y233270D01*
X2639803Y245120D02*
Y233270D01*
Y242581D02*
X2638110Y244274D01*
X2636417Y245120D01*
X2633878D01*
X2632185Y244274D01*
X2630492Y242581D01*
X2629645Y240042D01*
Y238349D01*
X2630492Y235809D01*
X2632185Y234116D01*
X2633878Y233270D01*
X2636417D01*
X2638110Y234116D01*
X2639803Y235809D01*
X2644543Y245120D02*
X2649622Y233270D01*
X2654701Y245120D02*
X2649622Y233270D01*
X2657579Y240042D02*
X2667737D01*
Y241734D01*
X2666891Y243427D01*
X2666044Y244274D01*
X2664351Y245120D01*
X2661812D01*
X2660119Y244274D01*
X2658426Y242581D01*
X2657579Y240042D01*
Y238349D01*
X2658426Y235809D01*
X2660119Y234116D01*
X2661812Y233270D01*
X2664351D01*
X2666044Y234116D01*
X2667737Y235809D01*
X2341858Y250530D02*
Y232754D01*
X2335932Y250530D02*
X2347783D01*
X2360903D02*
X2349899D01*
Y232754D01*
X2360903D01*
X2349899Y242066D02*
X2356671D01*
X2363866Y250530D02*
Y232754D01*
Y250530D02*
X2370638Y232754D01*
X2377410Y250530D02*
X2370638Y232754D01*
X2377410Y250530D02*
Y232754D01*
X2382489Y241219D02*
X2390107D01*
X2392647Y242066D01*
X2393493Y242912D01*
X2394340Y244605D01*
Y247144D01*
X2393493Y248837D01*
X2392647Y249684D01*
X2390107Y250530D01*
X2382489D01*
Y232754D01*
X2398318Y250530D02*
Y232754D01*
X2408476D01*
X2423967D02*
X2417195Y250530D01*
X2410423Y232754D01*
X2412962Y238680D02*
X2421427D01*
X2434040Y250530D02*
Y232754D01*
X2428114Y250530D02*
X2439965D01*
X2453086D02*
X2442081D01*
Y232754D01*
X2453086D01*
X2442081Y242066D02*
X2448853D01*
X2456895Y244605D02*
X2456048Y243759D01*
X2456895Y242912D01*
X2457741Y243759D01*
X2456895Y244605D01*
Y234447D02*
X2456048Y233601D01*
X2456895Y232754D01*
X2457741Y233601D01*
X2456895Y234447D01*
X2335932Y302600D02*
Y284824D01*
Y302600D02*
X2343551D01*
X2346090Y301754D01*
X2346936Y300907D01*
X2347783Y299214D01*
Y297521D01*
X2346936Y295828D01*
X2346090Y294982D01*
X2343551Y294135D01*
X2335932D01*
X2341857D02*
X2347783Y284824D01*
X2362766Y302600D02*
X2351761D01*
Y284824D01*
X2362766D01*
X2351761Y294135D02*
X2358533D01*
X2365728Y302600D02*
X2372500Y284824D01*
X2379272Y302600D02*
X2372500Y284824D01*
X2381558Y302600D02*
Y284824D01*
X2397133Y300061D02*
X2395440Y301754D01*
X2392901Y302600D01*
X2389515D01*
X2386975Y301754D01*
X2385282Y300061D01*
Y298368D01*
X2386129Y296675D01*
X2386975Y295828D01*
X2388668Y294982D01*
X2393747Y293289D01*
X2395440Y292443D01*
X2396286Y291596D01*
X2397133Y289903D01*
Y287364D01*
X2395440Y285671D01*
X2392901Y284824D01*
X2389515D01*
X2386975Y285671D01*
X2385282Y287364D01*
X2401111Y302600D02*
Y284824D01*
X2409915Y302600D02*
X2408222Y301754D01*
X2406529Y300061D01*
X2405683Y298368D01*
X2404836Y295828D01*
Y291596D01*
X2405683Y289057D01*
X2406529Y287364D01*
X2408222Y285671D01*
X2409915Y284824D01*
X2413301D01*
X2414994Y285671D01*
X2416687Y287364D01*
X2417533Y289057D01*
X2418380Y291596D01*
Y295828D01*
X2417533Y298368D01*
X2416687Y300061D01*
X2414994Y301754D01*
X2413301Y302600D01*
X2409915D01*
X2422528D02*
Y284824D01*
Y302600D02*
X2434378Y284824D01*
Y302600D02*
Y284824D01*
X2930827Y250633D02*
X2929981Y252326D01*
X2928288Y254019D01*
X2926595Y254866D01*
X2923209D01*
X2921516Y254019D01*
X2919823Y252326D01*
X2918977Y250633D01*
X2918130Y248094D01*
Y243862D01*
X2918977Y241322D01*
X2919823Y239629D01*
X2921516Y237936D01*
X2923209Y237090D01*
X2926595D01*
X2928288Y237936D01*
X2929981Y239629D01*
X2930827Y241322D01*
X2936668Y248940D02*
X2935822Y248094D01*
X2936668Y247247D01*
X2937515Y248094D01*
X2936668Y248940D01*
Y238783D02*
X2935822Y237936D01*
X2936668Y237090D01*
X2937515Y237936D01*
X2936668Y238783D01*
X2941408Y254866D02*
X2953259Y234550D01*
X2954444Y254866D02*
Y242169D01*
X2955291Y239629D01*
X2956984Y237936D01*
X2959523Y237090D01*
X2961216D01*
X2963756Y237936D01*
X2965449Y239629D01*
X2966295Y242169D01*
Y254866D01*
X2980516Y246401D02*
X2979669Y248094D01*
X2977130Y248940D01*
X2974591D01*
X2972051Y248094D01*
X2971205Y246401D01*
X2972051Y244708D01*
X2973744Y243862D01*
X2977977Y243015D01*
X2979669Y242169D01*
X2980516Y240476D01*
Y239629D01*
X2979669Y237936D01*
X2977130Y237090D01*
X2974591D01*
X2972051Y237936D01*
X2971205Y239629D01*
X2984241Y243862D02*
X2994398D01*
Y245554D01*
X2993552Y247247D01*
X2992705Y248094D01*
X2991013Y248940D01*
X2988473D01*
X2986780Y248094D01*
X2985087Y246401D01*
X2984241Y243862D01*
Y242169D01*
X2985087Y239629D01*
X2986780Y237936D01*
X2988473Y237090D01*
X2991013D01*
X2992705Y237936D01*
X2994398Y239629D01*
X2998208Y248940D02*
Y237090D01*
Y243862D02*
X2999054Y246401D01*
X3000747Y248094D01*
X3002440Y248940D01*
X3004980D01*
X3015899Y246401D02*
X3015053Y248094D01*
X3012513Y248940D01*
X3009974D01*
X3007434Y248094D01*
X3006588Y246401D01*
X3007434Y244708D01*
X3009127Y243862D01*
X3013360Y243015D01*
X3015053Y242169D01*
X3015899Y240476D01*
Y239629D01*
X3015053Y237936D01*
X3012513Y237090D01*
X3009974D01*
X3007434Y237936D01*
X3006588Y239629D01*
X3019624Y254866D02*
X3031475Y234550D01*
X3039431Y254866D02*
X3037739D01*
X3036046Y254019D01*
X3035199Y251480D01*
Y237090D01*
X3032660Y248940D02*
X3038585D01*
X3043664Y254866D02*
X3044510Y254019D01*
X3045357Y254866D01*
X3044510Y255712D01*
X3043664Y254866D01*
X3044510Y248940D02*
Y237090D01*
X3048489Y248940D02*
Y237090D01*
Y243862D02*
X3049335Y246401D01*
X3051028Y248094D01*
X3052721Y248940D01*
X3055261D01*
X3056869D02*
Y237090D01*
Y245554D02*
X3059409Y248094D01*
X3061101Y248940D01*
X3063641D01*
X3065334Y248094D01*
X3066180Y245554D01*
Y237090D01*
Y245554D02*
X3068720Y248094D01*
X3070413Y248940D01*
X3072952D01*
X3074645Y248094D01*
X3075492Y245554D01*
Y237090D01*
X3081078Y248940D02*
X3084464Y237090D01*
X3087850Y248940D02*
X3084464Y237090D01*
X3087850Y248940D02*
X3091236Y237090D01*
X3094622Y248940D02*
X3091236Y237090D01*
X3108928Y248940D02*
Y237090D01*
Y246401D02*
X3107235Y248094D01*
X3105542Y248940D01*
X3103003D01*
X3101310Y248094D01*
X3099616Y246401D01*
X3098770Y243862D01*
Y242169D01*
X3099616Y239629D01*
X3101310Y237936D01*
X3103003Y237090D01*
X3105542D01*
X3107235Y237936D01*
X3108928Y239629D01*
X3113668Y248940D02*
X3118747Y237090D01*
X3123826Y248940D02*
X3118747Y237090D01*
X3126704Y243862D02*
X3136862D01*
Y245554D01*
X3136015Y247247D01*
X3135169Y248094D01*
X3133476Y248940D01*
X3130937D01*
X3129243Y248094D01*
X3127550Y246401D01*
X3126704Y243862D01*
Y242169D01*
X3127550Y239629D01*
X3129243Y237936D01*
X3130937Y237090D01*
X3133476D01*
X3135169Y237936D01*
X3136862Y239629D01*
X3140671Y254866D02*
X3152522Y234550D01*
X3153707Y248940D02*
X3157093Y237090D01*
X3160479Y248940D02*
X3157093Y237090D01*
X3160479Y248940D02*
X3163865Y237090D01*
X3167251Y248940D02*
X3163865Y237090D01*
X3175631Y248940D02*
X3173938Y248094D01*
X3172245Y246401D01*
X3171399Y243862D01*
Y242169D01*
X3172245Y239629D01*
X3173938Y237936D01*
X3175631Y237090D01*
X3178170D01*
X3179863Y237936D01*
X3181556Y239629D01*
X3182403Y242169D01*
Y243862D01*
X3181556Y246401D01*
X3179863Y248094D01*
X3178170Y248940D01*
X3175631D01*
X3186297D02*
Y237090D01*
Y243862D02*
X3187143Y246401D01*
X3188836Y248094D01*
X3190529Y248940D01*
X3193069D01*
X3194677Y254866D02*
Y237090D01*
X3203142Y248940D02*
X3194677Y240476D01*
X3198063Y243862D02*
X3203988Y237090D01*
X3216093Y246401D02*
X3215246Y248094D01*
X3212707Y248940D01*
X3210168D01*
X3207628Y248094D01*
X3206782Y246401D01*
X3207628Y244708D01*
X3209321Y243862D01*
X3213553Y243015D01*
X3215246Y242169D01*
X3216093Y240476D01*
Y239629D01*
X3215246Y237936D01*
X3212707Y237090D01*
X3210168D01*
X3207628Y237936D01*
X3206782Y239629D01*
X3219818Y248940D02*
Y231164D01*
Y246401D02*
X3221510Y248094D01*
X3223203Y248940D01*
X3225743D01*
X3227436Y248094D01*
X3229129Y246401D01*
X3229975Y243862D01*
Y242169D01*
X3229129Y239629D01*
X3227436Y237936D01*
X3225743Y237090D01*
X3223203D01*
X3221510Y237936D01*
X3219818Y239629D01*
X3243942Y248940D02*
Y237090D01*
Y246401D02*
X3242249Y248094D01*
X3240556Y248940D01*
X3238017D01*
X3236324Y248094D01*
X3234631Y246401D01*
X3233784Y243862D01*
Y242169D01*
X3234631Y239629D01*
X3236324Y237936D01*
X3238017Y237090D01*
X3240556D01*
X3242249Y237936D01*
X3243942Y239629D01*
X3258840Y246401D02*
X3257148Y248094D01*
X3255454Y248940D01*
X3252915D01*
X3251222Y248094D01*
X3249529Y246401D01*
X3248683Y243862D01*
Y242169D01*
X3249529Y239629D01*
X3251222Y237936D01*
X3252915Y237090D01*
X3255454D01*
X3257148Y237936D01*
X3258840Y239629D01*
X3262650Y243862D02*
X3272807D01*
Y245554D01*
X3271961Y247247D01*
X3271115Y248094D01*
X3269421Y248940D01*
X3266882D01*
X3265189Y248094D01*
X3263496Y246401D01*
X3262650Y243862D01*
Y242169D01*
X3263496Y239629D01*
X3265189Y237936D01*
X3266882Y237090D01*
X3269421D01*
X3271115Y237936D01*
X3272807Y239629D01*
X3276617Y231164D02*
X3290160D01*
X3292446Y254866D02*
Y237090D01*
Y245554D02*
X3294985Y248094D01*
X3296678Y248940D01*
X3299218D01*
X3300911Y248094D01*
X3301757Y245554D01*
Y237090D01*
X3306413Y248940D02*
X3309799Y237090D01*
X3313185Y248940D02*
X3309799Y237090D01*
X3313185Y248940D02*
X3316571Y237090D01*
X3319957Y248940D02*
X3316571Y237090D01*
X3324104Y254866D02*
X3335955Y234550D01*
X3337140Y248940D02*
Y231164D01*
Y246401D02*
X3338833Y248094D01*
X3340526Y248940D01*
X3343065D01*
X3344759Y248094D01*
X3346452Y246401D01*
X3347298Y243862D01*
Y242169D01*
X3346452Y239629D01*
X3344759Y237936D01*
X3343065Y237090D01*
X3340526D01*
X3338833Y237936D01*
X3337140Y239629D01*
X3351107Y248940D02*
Y237090D01*
Y243862D02*
X3351954Y246401D01*
X3353647Y248094D01*
X3355340Y248940D01*
X3357879D01*
X3361180Y254866D02*
X3362027Y254019D01*
X3362874Y254866D01*
X3362027Y255712D01*
X3361180Y254866D01*
X3362027Y248940D02*
Y237090D01*
X3366005Y248940D02*
X3371084Y237090D01*
X3376163Y248940D02*
X3371084Y237090D01*
X3389199Y248940D02*
Y237090D01*
Y246401D02*
X3387506Y248094D01*
X3385813Y248940D01*
X3383274D01*
X3381581Y248094D01*
X3379888Y246401D01*
X3379041Y243862D01*
Y242169D01*
X3379888Y239629D01*
X3381581Y237936D01*
X3383274Y237090D01*
X3385813D01*
X3387506Y237936D01*
X3389199Y239629D01*
X3396479Y254866D02*
Y240476D01*
X3397325Y237936D01*
X3399018Y237090D01*
X3400711D01*
X3393940Y248940D02*
X3399865D01*
X3403251Y243862D02*
X3413409D01*
Y245554D01*
X3412562Y247247D01*
X3411716Y248094D01*
X3410023Y248940D01*
X3407483D01*
X3405790Y248094D01*
X3404097Y246401D01*
X3403251Y243862D01*
Y242169D01*
X3404097Y239629D01*
X3405790Y237936D01*
X3407483Y237090D01*
X3410023D01*
X3411716Y237936D01*
X3413409Y239629D01*
X3417218Y254866D02*
X3429069Y234550D01*
X3440411Y246401D02*
X3438718Y248094D01*
X3437025Y248940D01*
X3434486D01*
X3432793Y248094D01*
X3431100Y246401D01*
X3430254Y243862D01*
Y242169D01*
X3431100Y239629D01*
X3432793Y237936D01*
X3434486Y237090D01*
X3437025D01*
X3438718Y237936D01*
X3440411Y239629D01*
X3444221Y254866D02*
Y237090D01*
Y245554D02*
X3446760Y248094D01*
X3448453Y248940D01*
X3450992D01*
X3452686Y248094D01*
X3453532Y245554D01*
Y237090D01*
X3458188Y248940D02*
Y237090D01*
Y243862D02*
X3459034Y246401D01*
X3460727Y248094D01*
X3462420Y248940D01*
X3464959D01*
X3468261Y254866D02*
X3469107Y254019D01*
X3469954Y254866D01*
X3469107Y255712D01*
X3468261Y254866D01*
X3469107Y248940D02*
Y237090D01*
X3482397Y246401D02*
X3481551Y248094D01*
X3479011Y248940D01*
X3476472D01*
X3473932Y248094D01*
X3473086Y246401D01*
X3473932Y244708D01*
X3475625Y243862D01*
X3479857Y243015D01*
X3481551Y242169D01*
X3482397Y240476D01*
Y239629D01*
X3481551Y237936D01*
X3479011Y237090D01*
X3476472D01*
X3473932Y237936D01*
X3473086Y239629D01*
X3488661Y254866D02*
Y240476D01*
X3489507Y237936D01*
X3491201Y237090D01*
X3492893D01*
X3486122Y248940D02*
X3492047D01*
X3495433D02*
Y237090D01*
Y245554D02*
X3497972Y248094D01*
X3499666Y248940D01*
X3502205D01*
X3503898Y248094D01*
X3504744Y245554D01*
Y237090D01*
Y245554D02*
X3507284Y248094D01*
X3508977Y248940D01*
X3511516D01*
X3513209Y248094D01*
X3514055Y245554D01*
Y237090D01*
X3529800Y248940D02*
Y237090D01*
Y246401D02*
X3528107Y248094D01*
X3526414Y248940D01*
X3523875D01*
X3522182Y248094D01*
X3520489Y246401D01*
X3519642Y243862D01*
Y242169D01*
X3520489Y239629D01*
X3522182Y237936D01*
X3523875Y237090D01*
X3526414D01*
X3528107Y237936D01*
X3529800Y239629D01*
X3543852Y246401D02*
X3543005Y248094D01*
X3540466Y248940D01*
X3537927D01*
X3535387Y248094D01*
X3534541Y246401D01*
X3535387Y244708D01*
X3537080Y243862D01*
X3541312Y243015D01*
X3543005Y242169D01*
X3543852Y240476D01*
Y239629D01*
X3543005Y237936D01*
X3540466Y237090D01*
X3537927D01*
X3535387Y237936D01*
X3534541Y239629D01*
X3547576Y231164D02*
X3561120D01*
X3565945Y254866D02*
Y240476D01*
X3566792Y237936D01*
X3568484Y237090D01*
X3570178D01*
X3563406Y248940D02*
X3569331D01*
X3572717D02*
Y237090D01*
Y243862D02*
X3573564Y246401D01*
X3575256Y248094D01*
X3576949Y248940D01*
X3579489D01*
X3581097Y243862D02*
X3591255D01*
Y245554D01*
X3590409Y247247D01*
X3589562Y248094D01*
X3587869Y248940D01*
X3585330D01*
X3583637Y248094D01*
X3581944Y246401D01*
X3581097Y243862D01*
Y242169D01*
X3581944Y239629D01*
X3583637Y237936D01*
X3585330Y237090D01*
X3587869D01*
X3589562Y237936D01*
X3591255Y239629D01*
X3595064Y243862D02*
X3605222D01*
Y245554D01*
X3604376Y247247D01*
X3603529Y248094D01*
X3601836Y248940D01*
X3599297D01*
X3597604Y248094D01*
X3595911Y246401D01*
X3595064Y243862D01*
Y242169D01*
X3595911Y239629D01*
X3597604Y237936D01*
X3599297Y237090D01*
X3601836D01*
X3603529Y237936D01*
X3605222Y239629D01*
X3609031Y254866D02*
X3620882Y234550D01*
X3632225Y246401D02*
X3630532Y248094D01*
X3628839Y248940D01*
X3626299D01*
X3624607Y248094D01*
X3622914Y246401D01*
X3622067Y243862D01*
Y242169D01*
X3622914Y239629D01*
X3624607Y237936D01*
X3626299Y237090D01*
X3628839D01*
X3630532Y237936D01*
X3632225Y239629D01*
X3636034Y254866D02*
Y237090D01*
Y245554D02*
X3638574Y248094D01*
X3640266Y248940D01*
X3642806D01*
X3644499Y248094D01*
X3645345Y245554D01*
Y237090D01*
X3650001Y248940D02*
Y237090D01*
Y243862D02*
X3650847Y246401D01*
X3652541Y248094D01*
X3654233Y248940D01*
X3656773D01*
X3660074Y254866D02*
X3660921Y254019D01*
X3661767Y254866D01*
X3660921Y255712D01*
X3660074Y254866D01*
X3660921Y248940D02*
Y237090D01*
X3674211Y246401D02*
X3673364Y248094D01*
X3670825Y248940D01*
X3668285D01*
X3665746Y248094D01*
X3664899Y246401D01*
X3665746Y244708D01*
X3667439Y243862D01*
X3671671Y243015D01*
X3673364Y242169D01*
X3674211Y240476D01*
Y239629D01*
X3673364Y237936D01*
X3670825Y237090D01*
X3668285D01*
X3665746Y237936D01*
X3664899Y239629D01*
X3680475Y254866D02*
Y240476D01*
X3681321Y237936D01*
X3683014Y237090D01*
X3684707D01*
X3677935Y248940D02*
X3683860D01*
X3687246D02*
Y237090D01*
Y245554D02*
X3689786Y248094D01*
X3691479Y248940D01*
X3694018D01*
X3695711Y248094D01*
X3696558Y245554D01*
Y237090D01*
Y245554D02*
X3699097Y248094D01*
X3700790Y248940D01*
X3703330D01*
X3705023Y248094D01*
X3705869Y245554D01*
Y237090D01*
X3721614Y248940D02*
Y237090D01*
Y246401D02*
X3719921Y248094D01*
X3718228Y248940D01*
X3715688D01*
X3713995Y248094D01*
X3712303Y246401D01*
X3711456Y243862D01*
Y242169D01*
X3712303Y239629D01*
X3713995Y237936D01*
X3715688Y237090D01*
X3718228D01*
X3719921Y237936D01*
X3721614Y239629D01*
X3735665Y246401D02*
X3734819Y248094D01*
X3732279Y248940D01*
X3729740D01*
X3727201Y248094D01*
X3726354Y246401D01*
X3727201Y244708D01*
X3728893Y243862D01*
X3733126Y243015D01*
X3734819Y242169D01*
X3735665Y240476D01*
Y239629D01*
X3734819Y237936D01*
X3732279Y237090D01*
X3729740D01*
X3727201Y237936D01*
X3726354Y239629D01*
X3739390Y231164D02*
X3752934D01*
X3757759Y254866D02*
Y240476D01*
X3758605Y237936D01*
X3760298Y237090D01*
X3761991D01*
X3755219Y248940D02*
X3761145D01*
X3764531D02*
Y237090D01*
Y243862D02*
X3765377Y246401D01*
X3767070Y248094D01*
X3768763Y248940D01*
X3771302D01*
X3772911Y243862D02*
X3783069D01*
Y245554D01*
X3782222Y247247D01*
X3781376Y248094D01*
X3779683Y248940D01*
X3777143D01*
X3775450Y248094D01*
X3773757Y246401D01*
X3772911Y243862D01*
Y242169D01*
X3773757Y239629D01*
X3775450Y237936D01*
X3777143Y237090D01*
X3779683D01*
X3781376Y237936D01*
X3783069Y239629D01*
X3786878Y243862D02*
X3797036D01*
Y245554D01*
X3796189Y247247D01*
X3795343Y248094D01*
X3793650Y248940D01*
X3791110D01*
X3789417Y248094D01*
X3787724Y246401D01*
X3786878Y243862D01*
Y242169D01*
X3787724Y239629D01*
X3789417Y237936D01*
X3791110Y237090D01*
X3793650D01*
X3795343Y237936D01*
X3797036Y239629D01*
X3800845Y231164D02*
X3814388D01*
X3825985Y246401D02*
X3825139Y248094D01*
X3822599Y248940D01*
X3820060D01*
X3817520Y248094D01*
X3816674Y246401D01*
X3817520Y244708D01*
X3819214Y243862D01*
X3823446Y243015D01*
X3825139Y242169D01*
X3825985Y240476D01*
Y239629D01*
X3825139Y237936D01*
X3822599Y237090D01*
X3820060D01*
X3817520Y237936D01*
X3816674Y239629D01*
X3829710Y243862D02*
X3839868D01*
Y245554D01*
X3839021Y247247D01*
X3838175Y248094D01*
X3836482Y248940D01*
X3833942D01*
X3832249Y248094D01*
X3830556Y246401D01*
X3829710Y243862D01*
Y242169D01*
X3830556Y239629D01*
X3832249Y237936D01*
X3833942Y237090D01*
X3836482D01*
X3838175Y237936D01*
X3839868Y239629D01*
X3853835Y246401D02*
X3852142Y248094D01*
X3850449Y248940D01*
X3847909D01*
X3846216Y248094D01*
X3844523Y246401D01*
X3843677Y243862D01*
Y242169D01*
X3844523Y239629D01*
X3846216Y237936D01*
X3847909Y237090D01*
X3850449D01*
X3852142Y237936D01*
X3853835Y239629D01*
X3861876Y248940D02*
X3860183Y248094D01*
X3858490Y246401D01*
X3857644Y243862D01*
Y242169D01*
X3858490Y239629D01*
X3860183Y237936D01*
X3861876Y237090D01*
X3864416D01*
X3866109Y237936D01*
X3867802Y239629D01*
X3868648Y242169D01*
Y243862D01*
X3867802Y246401D01*
X3866109Y248094D01*
X3864416Y248940D01*
X3861876D01*
X3872542D02*
Y237090D01*
Y245554D02*
X3875081Y248094D01*
X3876775Y248940D01*
X3879314D01*
X3881007Y248094D01*
X3881853Y245554D01*
Y237090D01*
X3896667Y254866D02*
Y237090D01*
Y246401D02*
X3894974Y248094D01*
X3893281Y248940D01*
X3890742D01*
X3889048Y248094D01*
X3887356Y246401D01*
X3886509Y243862D01*
Y242169D01*
X3887356Y239629D01*
X3889048Y237936D01*
X3890742Y237090D01*
X3893281D01*
X3894974Y237936D01*
X3896667Y239629D01*
X3901407Y254866D02*
X3913258Y234550D01*
X3924601Y246401D02*
X3922908Y248094D01*
X3921215Y248940D01*
X3918676D01*
X3916982Y248094D01*
X3915290Y246401D01*
X3914443Y243862D01*
Y242169D01*
X3915290Y239629D01*
X3916982Y237936D01*
X3918676Y237090D01*
X3921215D01*
X3922908Y237936D01*
X3924601Y239629D01*
X3928410Y254866D02*
Y237090D01*
Y245554D02*
X3930949Y248094D01*
X3932643Y248940D01*
X3935182D01*
X3936875Y248094D01*
X3937721Y245554D01*
Y237090D01*
X3942377Y248940D02*
Y237090D01*
Y243862D02*
X3943224Y246401D01*
X3944916Y248094D01*
X3946609Y248940D01*
X3949149D01*
X3952450Y254866D02*
X3953297Y254019D01*
X3954143Y254866D01*
X3953297Y255712D01*
X3952450Y254866D01*
X3953297Y248940D02*
Y237090D01*
X3966587Y246401D02*
X3965740Y248094D01*
X3963201Y248940D01*
X3960661D01*
X3958122Y248094D01*
X3957275Y246401D01*
X3958122Y244708D01*
X3959815Y243862D01*
X3964047Y243015D01*
X3965740Y242169D01*
X3966587Y240476D01*
Y239629D01*
X3965740Y237936D01*
X3963201Y237090D01*
X3960661D01*
X3958122Y237936D01*
X3957275Y239629D01*
X3972851Y254866D02*
Y240476D01*
X3973697Y237936D01*
X3975390Y237090D01*
X3977083D01*
X3970311Y248940D02*
X3976236D01*
X3979622D02*
Y237090D01*
Y245554D02*
X3982162Y248094D01*
X3983855Y248940D01*
X3986394D01*
X3988087Y248094D01*
X3988934Y245554D01*
Y237090D01*
Y245554D02*
X3991473Y248094D01*
X3993166Y248940D01*
X3995706D01*
X3997399Y248094D01*
X3998245Y245554D01*
Y237090D01*
X4013990Y248940D02*
Y237090D01*
Y246401D02*
X4012297Y248094D01*
X4010604Y248940D01*
X4008064D01*
X4006371Y248094D01*
X4004678Y246401D01*
X4003832Y243862D01*
Y242169D01*
X4004678Y239629D01*
X4006371Y237936D01*
X4008064Y237090D01*
X4010604D01*
X4012297Y237936D01*
X4013990Y239629D01*
X4028041Y246401D02*
X4027195Y248094D01*
X4024655Y248940D01*
X4022116D01*
X4019576Y248094D01*
X4018730Y246401D01*
X4019576Y244708D01*
X4021270Y243862D01*
X4025502Y243015D01*
X4027195Y242169D01*
X4028041Y240476D01*
Y239629D01*
X4027195Y237936D01*
X4024655Y237090D01*
X4022116D01*
X4019576Y237936D01*
X4018730Y239629D01*
X4031766Y231164D02*
X4045309D01*
X4050135Y254866D02*
Y240476D01*
X4050981Y237936D01*
X4052674Y237090D01*
X4054367D01*
X4047595Y248940D02*
X4053521D01*
X4056906D02*
Y237090D01*
Y243862D02*
X4057753Y246401D01*
X4059446Y248094D01*
X4061139Y248940D01*
X4063678D01*
X4065287Y243862D02*
X4075445D01*
Y245554D01*
X4074598Y247247D01*
X4073752Y248094D01*
X4072059Y248940D01*
X4069519D01*
X4067826Y248094D01*
X4066133Y246401D01*
X4065287Y243862D01*
Y242169D01*
X4066133Y239629D01*
X4067826Y237936D01*
X4069519Y237090D01*
X4072059D01*
X4073752Y237936D01*
X4075445Y239629D01*
X4079254Y243862D02*
X4089412D01*
Y245554D01*
X4088565Y247247D01*
X4087719Y248094D01*
X4086026Y248940D01*
X4083486D01*
X4081793Y248094D01*
X4080100Y246401D01*
X4079254Y243862D01*
Y242169D01*
X4080100Y239629D01*
X4081793Y237936D01*
X4083486Y237090D01*
X4086026D01*
X4087719Y237936D01*
X4089412Y239629D01*
X4093221Y231164D02*
X4106765D01*
X4118361Y246401D02*
X4117515Y248094D01*
X4114975Y248940D01*
X4112436D01*
X4109897Y248094D01*
X4109050Y246401D01*
X4109897Y244708D01*
X4111589Y243862D01*
X4115822Y243015D01*
X4117515Y242169D01*
X4118361Y240476D01*
Y239629D01*
X4117515Y237936D01*
X4114975Y237090D01*
X4112436D01*
X4109897Y237936D01*
X4109050Y239629D01*
X4122086Y243862D02*
X4132244D01*
Y245554D01*
X4131397Y247247D01*
X4130551Y248094D01*
X4128858Y248940D01*
X4126318D01*
X4124625Y248094D01*
X4122932Y246401D01*
X4122086Y243862D01*
Y242169D01*
X4122932Y239629D01*
X4124625Y237936D01*
X4126318Y237090D01*
X4128858D01*
X4130551Y237936D01*
X4132244Y239629D01*
X4146211Y246401D02*
X4144518Y248094D01*
X4142825Y248940D01*
X4140285D01*
X4138592Y248094D01*
X4136899Y246401D01*
X4136053Y243862D01*
Y242169D01*
X4136899Y239629D01*
X4138592Y237936D01*
X4140285Y237090D01*
X4142825D01*
X4144518Y237936D01*
X4146211Y239629D01*
X4154252Y248940D02*
X4152559Y248094D01*
X4150866Y246401D01*
X4150020Y243862D01*
Y242169D01*
X4150866Y239629D01*
X4152559Y237936D01*
X4154252Y237090D01*
X4156792D01*
X4158485Y237936D01*
X4160178Y239629D01*
X4161024Y242169D01*
Y243862D01*
X4160178Y246401D01*
X4158485Y248094D01*
X4156792Y248940D01*
X4154252D01*
X4164918D02*
Y237090D01*
Y245554D02*
X4167458Y248094D01*
X4169150Y248940D01*
X4171690D01*
X4173383Y248094D01*
X4174229Y245554D01*
Y237090D01*
X4189043Y254866D02*
Y237090D01*
Y246401D02*
X4187350Y248094D01*
X4185657Y248940D01*
X4183117D01*
X4181425Y248094D01*
X4179731Y246401D01*
X4178885Y243862D01*
Y242169D01*
X4179731Y239629D01*
X4181425Y237936D01*
X4183117Y237090D01*
X4185657D01*
X4187350Y237936D01*
X4189043Y239629D01*
X4194630Y238783D02*
X4193783Y237936D01*
X4194630Y237090D01*
X4195476Y237936D01*
X4194630Y238783D01*
X4199370Y245554D02*
X4206988D01*
X4209528Y246401D01*
X4210374Y247247D01*
X4211221Y248940D01*
Y251480D01*
X4210374Y253173D01*
X4209528Y254019D01*
X4206988Y254866D01*
X4199370D01*
Y237090D01*
X4225357Y246401D02*
X4223664Y248094D01*
X4221971Y248940D01*
X4219431D01*
X4217739Y248094D01*
X4216046Y246401D01*
X4215199Y243862D01*
Y242169D01*
X4216046Y239629D01*
X4217739Y237936D01*
X4219431Y237090D01*
X4221971D01*
X4223664Y237936D01*
X4225357Y239629D01*
X4229166Y254866D02*
Y237090D01*
Y246401D02*
X4230859Y248094D01*
X4232552Y248940D01*
X4235092D01*
X4236785Y248094D01*
X4238477Y246401D01*
X4239324Y243862D01*
Y242169D01*
X4238477Y239629D01*
X4236785Y237936D01*
X4235092Y237090D01*
X4232552D01*
X4230859Y237936D01*
X4229166Y239629D01*
X4243133Y254866D02*
Y237090D01*
Y254866D02*
X4249059D01*
X4251598Y254019D01*
X4253291Y252326D01*
X4254138Y250633D01*
X4254984Y248094D01*
Y243862D01*
X4254138Y241322D01*
X4253291Y239629D01*
X4251598Y237936D01*
X4249059Y237090D01*
X4243133D01*
X4263195Y248940D02*
X4261502Y248094D01*
X4259809Y246401D01*
X4258962Y243862D01*
Y242169D01*
X4259809Y239629D01*
X4261502Y237936D01*
X4263195Y237090D01*
X4265734D01*
X4267427Y237936D01*
X4269120Y239629D01*
X4269967Y242169D01*
Y243862D01*
X4269120Y246401D01*
X4267427Y248094D01*
X4265734Y248940D01*
X4263195D01*
X4284019Y246401D02*
X4282325Y248094D01*
X4280633Y248940D01*
X4278093D01*
X4276400Y248094D01*
X4274707Y246401D01*
X4273860Y243862D01*
Y242169D01*
X4274707Y239629D01*
X4276400Y237936D01*
X4278093Y237090D01*
X4280633D01*
X4282325Y237936D01*
X4284019Y239629D01*
X5978635Y259110D02*
X5971017Y279106D01*
X5963400Y259110D01*
X5966256Y265775D02*
X5975778D01*
X5984252Y274345D02*
Y275297D01*
X5985204Y277201D01*
X5986157Y278153D01*
X5988062Y279106D01*
X5991870D01*
X5993774Y278153D01*
X5994727Y277201D01*
X5995679Y275297D01*
Y273393D01*
X5994727Y271488D01*
X5992822Y268632D01*
X5983300Y259110D01*
X5996631D01*
X5773771Y304342D02*
X5772078Y306035D01*
X5769539Y306881D01*
X5766153D01*
X5763613Y306035D01*
X5761921Y304342D01*
Y302649D01*
X5762767Y300956D01*
X5763613Y300109D01*
X5765306Y299263D01*
X5770385Y297570D01*
X5772078Y296723D01*
X5772925Y295877D01*
X5773771Y294184D01*
Y291644D01*
X5772078Y289951D01*
X5769539Y289105D01*
X5766153D01*
X5763613Y289951D01*
X5761921Y291644D01*
X5777750Y306881D02*
Y289105D01*
X5789601Y306881D02*
Y289105D01*
X5777750Y298416D02*
X5789601D01*
X5805515Y306881D02*
X5794510D01*
Y289105D01*
X5805515D01*
X5794510Y298416D02*
X5801282D01*
X5819481Y306881D02*
X5808477D01*
Y289105D01*
X5819481D01*
X5808477Y298416D02*
X5815249D01*
X5828370Y306881D02*
Y289105D01*
X5822444Y306881D02*
X5834295D01*
X4938842Y351862D02*
Y331547D01*
X4932071Y351862D02*
X4945614D01*
X4949968D02*
X4950935Y350895D01*
X4951902Y351862D01*
X4950935Y352830D01*
X4949968Y351862D01*
X4950935Y345090D02*
Y331547D01*
X4958384Y351862D02*
Y335416D01*
X4959352Y332514D01*
X4961286Y331547D01*
X4963221D01*
X4955482Y345090D02*
X4962254D01*
X4966123Y351862D02*
Y331547D01*
X4970380Y339286D02*
X4981989D01*
Y341221D01*
X4981021Y343156D01*
X4980054Y344123D01*
X4978119Y345090D01*
X4975217D01*
X4973282Y344123D01*
X4971347Y342188D01*
X4970380Y339286D01*
Y337351D01*
X4971347Y334449D01*
X4973282Y332514D01*
X4975217Y331547D01*
X4978119D01*
X4980054Y332514D01*
X4981989Y334449D01*
X4987310Y345090D02*
X4986342Y344123D01*
X4987310Y343156D01*
X4988277Y344123D01*
X4987310Y345090D01*
Y333482D02*
X4986342Y332514D01*
X4987310Y331547D01*
X4988277Y332514D01*
X4987310Y333482D01*
X4145201Y346127D02*
X4144355Y347820D01*
X4142662Y349513D01*
X4140969Y350360D01*
X4137583D01*
X4135890Y349513D01*
X4134197Y347820D01*
X4133351Y346127D01*
X4132504Y343588D01*
Y339356D01*
X4133351Y336816D01*
X4134197Y335123D01*
X4135890Y333430D01*
X4137583Y332584D01*
X4140969D01*
X4142662Y333430D01*
X4144355Y335123D01*
X4145201Y336816D01*
X4150196Y350360D02*
Y337663D01*
X4151042Y335123D01*
X4152735Y333430D01*
X4155275Y332584D01*
X4156967D01*
X4159507Y333430D01*
X4161200Y335123D01*
X4162047Y337663D01*
Y350360D01*
X4178807Y347820D02*
X4177114Y349513D01*
X4174575Y350360D01*
X4171188D01*
X4168649Y349513D01*
X4166956Y347820D01*
Y346127D01*
X4167803Y344434D01*
X4168649Y343588D01*
X4170342Y342741D01*
X4175421Y341048D01*
X4177114Y340202D01*
X4177961Y339356D01*
X4178807Y337663D01*
Y335123D01*
X4177114Y333430D01*
X4174575Y332584D01*
X4171188D01*
X4168649Y333430D01*
X4166956Y335123D01*
X4188711Y350360D02*
Y332584D01*
X4182785Y350360D02*
X4194636D01*
X4201831D02*
X4200138Y349513D01*
X4198445Y347820D01*
X4197599Y346127D01*
X4196752Y343588D01*
Y339356D01*
X4197599Y336816D01*
X4198445Y335123D01*
X4200138Y333430D01*
X4201831Y332584D01*
X4205217D01*
X4206910Y333430D01*
X4208603Y335123D01*
X4209450Y336816D01*
X4210296Y339356D01*
Y343588D01*
X4209450Y346127D01*
X4208603Y347820D01*
X4206910Y349513D01*
X4205217Y350360D01*
X4201831D01*
X4214444D02*
Y332584D01*
Y350360D02*
X4221216Y332584D01*
X4227988Y350360D02*
X4221216Y332584D01*
X4227988Y350360D02*
Y332584D01*
X4244071Y350360D02*
X4233067D01*
Y332584D01*
X4244071D01*
X4233067Y341895D02*
X4239839D01*
X4247034Y350360D02*
Y332584D01*
Y350360D02*
X4254652D01*
X4257191Y349513D01*
X4258038Y348667D01*
X4258884Y346974D01*
Y345281D01*
X4258038Y343588D01*
X4257191Y342741D01*
X4254652Y341895D01*
X4247034D01*
X4252959D02*
X4258884Y332584D01*
X4145684Y398761D02*
X4144837Y400454D01*
X4143144Y402147D01*
X4141451Y402993D01*
X4138065D01*
X4136372Y402147D01*
X4134679Y400454D01*
X4133833Y398761D01*
X4132986Y396221D01*
Y391989D01*
X4133833Y389449D01*
X4134679Y387756D01*
X4136372Y386063D01*
X4138065Y385217D01*
X4141451D01*
X4143144Y386063D01*
X4144837Y387756D01*
X4145684Y389449D01*
X4150678Y402993D02*
Y385217D01*
X4162529Y402993D02*
Y385217D01*
X4150678Y394528D02*
X4162529D01*
X4178443Y402993D02*
X4167438D01*
Y385217D01*
X4178443D01*
X4167438Y394528D02*
X4174210D01*
X4194103Y398761D02*
X4193256Y400454D01*
X4191563Y402147D01*
X4189870Y402993D01*
X4186484D01*
X4184791Y402147D01*
X4183098Y400454D01*
X4182252Y398761D01*
X4181405Y396221D01*
Y391989D01*
X4182252Y389449D01*
X4183098Y387756D01*
X4184791Y386063D01*
X4186484Y385217D01*
X4189870D01*
X4191563Y386063D01*
X4193256Y387756D01*
X4194103Y389449D01*
X4199097Y402993D02*
Y385217D01*
X4210948Y402993D02*
X4199097Y391142D01*
X4203329Y395375D02*
X4210948Y385217D01*
X4225930Y402993D02*
X4214926D01*
Y385217D01*
X4225930D01*
X4214926Y394528D02*
X4221698D01*
X4228893Y402993D02*
Y385217D01*
Y402993D02*
X4234819D01*
X4237358Y402147D01*
X4239051Y400454D01*
X4239897Y398761D01*
X4240744Y396221D01*
Y391989D01*
X4239897Y389449D01*
X4239051Y387756D01*
X4237358Y386063D01*
X4234819Y385217D01*
X4228893D01*
X4132986Y452269D02*
Y434493D01*
Y452269D02*
X4138912D01*
X4141451Y451423D01*
X4143144Y449730D01*
X4143991Y448037D01*
X4144837Y445497D01*
Y441265D01*
X4143991Y438725D01*
X4143144Y437032D01*
X4141451Y435339D01*
X4138912Y434493D01*
X4132986D01*
X4148816Y452269D02*
Y434493D01*
Y452269D02*
X4156434D01*
X4158974Y451423D01*
X4159820Y450576D01*
X4160667Y448883D01*
Y447190D01*
X4159820Y445497D01*
X4158974Y444651D01*
X4156434Y443804D01*
X4148816D01*
X4154741D02*
X4160667Y434493D01*
X4178189D02*
X4171417Y452269D01*
X4164645Y434493D01*
X4167184Y440418D02*
X4175649D01*
X4182337Y452269D02*
X4186569Y434493D01*
X4190801Y452269D02*
X4186569Y434493D01*
X4190801Y452269D02*
X4195034Y434493D01*
X4199266Y452269D02*
X4195034Y434493D01*
X4202821Y452269D02*
Y434493D01*
Y452269D02*
X4214672Y434493D01*
Y452269D02*
Y434493D01*
X4133445Y502465D02*
Y484689D01*
Y502465D02*
X4139370D01*
X4141909Y501619D01*
X4143602Y499926D01*
X4144449Y498233D01*
X4145295Y495693D01*
Y491461D01*
X4144449Y488921D01*
X4143602Y487228D01*
X4141909Y485536D01*
X4139370Y484689D01*
X4133445D01*
X4160278Y502465D02*
X4149274D01*
Y484689D01*
X4160278D01*
X4149274Y494000D02*
X4156046D01*
X4175092Y499926D02*
X4173399Y501619D01*
X4170859Y502465D01*
X4167473D01*
X4164934Y501619D01*
X4163241Y499926D01*
Y498233D01*
X4164087Y496540D01*
X4164934Y495693D01*
X4166627Y494847D01*
X4171706Y493154D01*
X4173399Y492307D01*
X4174245Y491461D01*
X4175092Y489768D01*
Y487228D01*
X4173399Y485536D01*
X4170859Y484689D01*
X4167473D01*
X4164934Y485536D01*
X4163241Y487228D01*
X4179070Y502465D02*
Y484689D01*
X4195492Y498233D02*
X4194645Y499926D01*
X4192952Y501619D01*
X4191259Y502465D01*
X4187874D01*
X4186180Y501619D01*
X4184488Y499926D01*
X4183641Y498233D01*
X4182794Y495693D01*
Y491461D01*
X4183641Y488921D01*
X4184488Y487228D01*
X4186180Y485536D01*
X4187874Y484689D01*
X4191259D01*
X4192952Y485536D01*
X4194645Y487228D01*
X4195492Y488921D01*
Y491461D01*
X4191259D02*
X4195492D01*
X4199555Y502465D02*
Y484689D01*
Y502465D02*
X4211406Y484689D01*
Y502465D02*
Y484689D01*
X4227320Y502465D02*
X4216315D01*
Y484689D01*
X4227320D01*
X4216315Y494000D02*
X4223087D01*
X4230282Y502465D02*
Y484689D01*
Y502465D02*
X4237901D01*
X4240440Y501619D01*
X4241287Y500772D01*
X4242133Y499079D01*
Y497386D01*
X4241287Y495693D01*
X4240440Y494847D01*
X4237901Y494000D01*
X4230282D01*
X4236208D02*
X4242133Y484689D01*
X4761636Y501291D02*
Y483515D01*
Y501291D02*
X4767562D01*
X4770101Y500445D01*
X4771794Y498752D01*
X4772641Y497059D01*
X4773487Y494519D01*
Y490287D01*
X4772641Y487747D01*
X4771794Y486054D01*
X4770101Y484361D01*
X4767562Y483515D01*
X4761636D01*
X4791010D02*
X4784238Y501291D01*
X4777466Y483515D01*
X4780005Y489440D02*
X4788470D01*
X4801083Y501291D02*
Y483515D01*
X4795157Y501291D02*
X4807008D01*
X4820128D02*
X4809124D01*
Y483515D01*
X4820128D01*
X4809124Y492826D02*
X4815896D01*
X4001891Y297733D02*
Y279957D01*
Y297733D02*
X4007816D01*
X4010355Y296887D01*
X4012048Y295194D01*
X4012895Y293501D01*
X4013741Y290961D01*
Y286729D01*
X4012895Y284189D01*
X4012048Y282496D01*
X4010355Y280804D01*
X4007816Y279957D01*
X4001891D01*
X4031263D02*
X4024492Y297733D01*
X4017720Y279957D01*
X4020259Y285882D02*
X4028724D01*
X4041337Y297733D02*
Y279957D01*
X4035411Y297733D02*
X4047262D01*
X4060383D02*
X4049378D01*
Y279957D01*
X4060383D01*
X4049378Y289268D02*
X4056150D01*
X3865434Y279386D02*
X3858662Y297162D01*
X3851891Y279386D01*
X3854430Y285311D02*
X3862895D01*
X3869582Y287850D02*
X3877200D01*
X3879740Y288697D01*
X3880586Y289543D01*
X3881433Y291236D01*
Y293776D01*
X3880586Y295469D01*
X3879740Y296315D01*
X3877200Y297162D01*
X3869582D01*
Y279386D01*
X3885411Y287850D02*
X3893030D01*
X3895569Y288697D01*
X3896416Y289543D01*
X3897262Y291236D01*
Y293776D01*
X3896416Y295469D01*
X3895569Y296315D01*
X3893030Y297162D01*
X3885411D01*
Y279386D01*
X3901241Y297162D02*
Y279386D01*
Y297162D02*
X3907166D01*
X3909706Y296315D01*
X3911398Y294622D01*
X3912245Y292929D01*
X3913091Y290390D01*
Y286157D01*
X3912245Y283618D01*
X3911398Y281925D01*
X3909706Y280232D01*
X3907166Y279386D01*
X3901241D01*
X3052720Y302600D02*
Y284824D01*
Y302600D02*
X3058646D01*
X3061185Y301754D01*
X3062878Y300061D01*
X3063724Y298368D01*
X3064571Y295828D01*
Y291596D01*
X3063724Y289057D01*
X3062878Y287364D01*
X3061185Y285671D01*
X3058646Y284824D01*
X3052720D01*
X3079554Y302600D02*
X3068549D01*
Y284824D01*
X3079554D01*
X3068549Y294135D02*
X3075321D01*
X3094367Y300061D02*
X3092674Y301754D01*
X3090135Y302600D01*
X3086749D01*
X3084209Y301754D01*
X3082516Y300061D01*
Y298368D01*
X3083363Y296675D01*
X3084209Y295828D01*
X3085902Y294982D01*
X3090981Y293289D01*
X3092674Y292443D01*
X3093521Y291596D01*
X3094367Y289903D01*
Y287364D01*
X3092674Y285671D01*
X3090135Y284824D01*
X3086749D01*
X3084209Y285671D01*
X3082516Y287364D01*
X3111043Y298368D02*
X3110197Y300061D01*
X3108503Y301754D01*
X3106811Y302600D01*
X3103425D01*
X3101732Y301754D01*
X3100039Y300061D01*
X3099192Y298368D01*
X3098346Y295828D01*
Y291596D01*
X3099192Y289057D01*
X3100039Y287364D01*
X3101732Y285671D01*
X3103425Y284824D01*
X3106811D01*
X3108503Y285671D01*
X3110197Y287364D01*
X3111043Y289057D01*
X3116037Y302600D02*
Y284824D01*
Y302600D02*
X3123656D01*
X3126195Y301754D01*
X3127042Y300907D01*
X3127888Y299214D01*
Y297521D01*
X3127042Y295828D01*
X3126195Y294982D01*
X3123656Y294135D01*
X3116037D01*
X3121963D02*
X3127888Y284824D01*
X3131866Y302600D02*
Y284824D01*
X3135591Y293289D02*
X3143210D01*
X3145749Y294135D01*
X3146595Y294982D01*
X3147442Y296675D01*
Y299214D01*
X3146595Y300907D01*
X3145749Y301754D01*
X3143210Y302600D01*
X3135591D01*
Y284824D01*
X3157346Y302600D02*
Y284824D01*
X3151420Y302600D02*
X3163271D01*
X3165387D02*
Y284824D01*
X3174191Y302600D02*
X3172498Y301754D01*
X3170805Y300061D01*
X3169958Y298368D01*
X3169112Y295828D01*
Y291596D01*
X3169958Y289057D01*
X3170805Y287364D01*
X3172498Y285671D01*
X3174191Y284824D01*
X3177577D01*
X3179270Y285671D01*
X3180963Y287364D01*
X3181809Y289057D01*
X3182656Y291596D01*
Y295828D01*
X3181809Y298368D01*
X3180963Y300061D01*
X3179270Y301754D01*
X3177577Y302600D01*
X3174191D01*
X3186803D02*
Y284824D01*
Y302600D02*
X3198654Y284824D01*
Y302600D02*
Y284824D01*
X3222610Y302600D02*
X3220917Y301754D01*
X3219224Y300061D01*
X3218377Y298368D01*
X3217531Y295828D01*
Y291596D01*
X3218377Y289057D01*
X3219224Y287364D01*
X3220917Y285671D01*
X3222610Y284824D01*
X3225996D01*
X3227689Y285671D01*
X3229382Y287364D01*
X3230228Y289057D01*
X3231075Y291596D01*
Y295828D01*
X3230228Y298368D01*
X3229382Y300061D01*
X3227689Y301754D01*
X3225996Y302600D01*
X3222610D01*
X3235222D02*
Y284824D01*
Y302600D02*
X3246227D01*
X3235222Y294135D02*
X3241994D01*
X3268151Y302600D02*
Y284824D01*
X3262225Y302600D02*
X3274076D01*
X3289736Y284824D02*
X3282964Y302600D01*
X3276192Y284824D01*
X3278732Y290750D02*
X3287196D01*
X3305735Y300061D02*
X3304042Y301754D01*
X3301502Y302600D01*
X3298116D01*
X3295577Y301754D01*
X3293884Y300061D01*
Y298368D01*
X3294730Y296675D01*
X3295577Y295828D01*
X3297270Y294982D01*
X3302349Y293289D01*
X3304042Y292443D01*
X3304888Y291596D01*
X3305735Y289903D01*
Y287364D01*
X3304042Y285671D01*
X3301502Y284824D01*
X3298116D01*
X3295577Y285671D01*
X3293884Y287364D01*
X3309713Y302600D02*
Y284824D01*
X3321564Y302600D02*
X3309713Y290750D01*
X3313946Y294982D02*
X3321564Y284824D01*
X3344588Y302600D02*
X3342895Y301754D01*
X3341202Y300061D01*
X3340356Y298368D01*
X3339509Y295828D01*
Y291596D01*
X3340356Y289057D01*
X3341202Y287364D01*
X3342895Y285671D01*
X3344588Y284824D01*
X3347974D01*
X3349667Y285671D01*
X3351360Y287364D01*
X3352207Y289057D01*
X3353053Y291596D01*
Y295828D01*
X3352207Y298368D01*
X3351360Y300061D01*
X3349667Y301754D01*
X3347974Y302600D01*
X3344588D01*
X3357201D02*
Y284824D01*
Y302600D02*
X3364819D01*
X3367359Y301754D01*
X3368205Y300907D01*
X3369052Y299214D01*
Y297521D01*
X3368205Y295828D01*
X3367359Y294982D01*
X3364819Y294135D01*
X3357201D01*
X3363126D02*
X3369052Y284824D01*
X3386997Y302600D02*
Y284824D01*
Y302600D02*
X3393769Y284824D01*
X3400541Y302600D02*
X3393769Y284824D01*
X3400541Y302600D02*
Y284824D01*
X3410699Y302600D02*
X3409006Y301754D01*
X3407313Y300061D01*
X3406466Y298368D01*
X3405620Y295828D01*
Y291596D01*
X3406466Y289057D01*
X3407313Y287364D01*
X3409006Y285671D01*
X3410699Y284824D01*
X3414085D01*
X3415778Y285671D01*
X3417471Y287364D01*
X3418317Y289057D01*
X3419164Y291596D01*
Y295828D01*
X3418317Y298368D01*
X3417471Y300061D01*
X3415778Y301754D01*
X3414085Y302600D01*
X3410699D01*
X3423311D02*
Y284824D01*
Y302600D02*
X3429237D01*
X3431776Y301754D01*
X3433469Y300061D01*
X3434315Y298368D01*
X3435162Y295828D01*
Y291596D01*
X3434315Y289057D01*
X3433469Y287364D01*
X3431776Y285671D01*
X3429237Y284824D01*
X3423311D01*
X3439141Y302600D02*
Y284824D01*
X3442865Y302600D02*
Y284824D01*
Y302600D02*
X3453869D01*
X3442865Y294135D02*
X3449637D01*
X3455901Y302600D02*
Y284824D01*
X3472323Y298368D02*
X3471476Y300061D01*
X3469783Y301754D01*
X3468091Y302600D01*
X3464704D01*
X3463011Y301754D01*
X3461318Y300061D01*
X3460472Y298368D01*
X3459626Y295828D01*
Y291596D01*
X3460472Y289057D01*
X3461318Y287364D01*
X3463011Y285671D01*
X3464704Y284824D01*
X3468091D01*
X3469783Y285671D01*
X3471476Y287364D01*
X3472323Y289057D01*
X3490861Y284824D02*
X3484089Y302600D01*
X3477317Y284824D01*
X3479857Y290750D02*
X3488322D01*
X3500934Y302600D02*
Y284824D01*
X3495009Y302600D02*
X3506859D01*
X3508976D02*
Y284824D01*
X3517779Y302600D02*
X3516086Y301754D01*
X3514393Y300061D01*
X3513546Y298368D01*
X3512700Y295828D01*
Y291596D01*
X3513546Y289057D01*
X3514393Y287364D01*
X3516086Y285671D01*
X3517779Y284824D01*
X3521165D01*
X3522858Y285671D01*
X3524551Y287364D01*
X3525397Y289057D01*
X3526244Y291596D01*
Y295828D01*
X3525397Y298368D01*
X3524551Y300061D01*
X3522858Y301754D01*
X3521165Y302600D01*
X3517779D01*
X3530392D02*
Y284824D01*
Y302600D02*
X3542242Y284824D01*
Y302600D02*
Y284824D01*
X4931334Y401922D02*
Y384146D01*
X4935059Y401922D02*
Y384146D01*
Y401922D02*
X4946909Y384146D01*
Y401922D02*
Y384146D01*
X4951819Y401922D02*
Y384146D01*
Y401922D02*
X4957744D01*
X4960284Y401075D01*
X4961977Y399382D01*
X4962823Y397689D01*
X4963670Y395150D01*
Y390918D01*
X4962823Y388378D01*
X4961977Y386685D01*
X4960284Y384992D01*
X4957744Y384146D01*
X4951819D01*
X4978653Y401922D02*
X4967648D01*
Y384146D01*
X4978653D01*
X4967648Y393457D02*
X4974420D01*
X4981615Y401922D02*
X4993466Y384146D01*
Y401922D02*
X4981615Y384146D01*
X5761040Y406881D02*
Y389105D01*
Y406881D02*
X5766965D01*
X5769505Y406035D01*
X5771198Y404342D01*
X5772045Y402649D01*
X5772891Y400109D01*
Y395877D01*
X5772045Y393337D01*
X5771198Y391644D01*
X5769505Y389951D01*
X5766965Y389105D01*
X5761040D01*
X5790413D02*
X5783641Y406881D01*
X5776870Y389105D01*
X5779409Y395030D02*
X5787874D01*
X5800486Y406881D02*
Y389105D01*
X5794561Y406881D02*
X5806412D01*
X5819532D02*
X5808528D01*
Y389105D01*
X5819532D01*
X5808528Y398416D02*
X5815300D01*
X5823342Y400956D02*
X5822495Y400109D01*
X5823342Y399263D01*
X5824188Y400109D01*
X5823342Y400956D01*
Y390798D02*
X5822495Y389951D01*
X5823342Y389105D01*
X5824188Y389951D01*
X5823342Y390798D01*
X5773653Y504342D02*
X5771960Y506035D01*
X5769421Y506881D01*
X5766035D01*
X5763495Y506035D01*
X5761802Y504342D01*
Y502649D01*
X5762648Y500956D01*
X5763495Y500109D01*
X5765188Y499263D01*
X5770267Y497570D01*
X5771960Y496723D01*
X5772806Y495877D01*
X5773653Y494184D01*
Y491644D01*
X5771960Y489951D01*
X5769421Y489105D01*
X5766035D01*
X5763495Y489951D01*
X5761802Y491644D01*
X5790329Y502649D02*
X5789482Y504342D01*
X5787789Y506035D01*
X5786096Y506881D01*
X5782711D01*
X5781017Y506035D01*
X5779324Y504342D01*
X5778478Y502649D01*
X5777631Y500109D01*
Y495877D01*
X5778478Y493337D01*
X5779324Y491644D01*
X5781017Y489951D01*
X5782711Y489105D01*
X5786096D01*
X5787789Y489951D01*
X5789482Y491644D01*
X5790329Y493337D01*
X5808867Y489105D02*
X5802095Y506881D01*
X5795323Y489105D01*
X5797863Y495030D02*
X5806327D01*
X5813015Y506881D02*
Y489105D01*
X5823172D01*
X5836124Y506881D02*
X5825119D01*
Y489105D01*
X5836124D01*
X5825119Y498416D02*
X5831891D01*
X5839933Y500956D02*
X5839086Y500109D01*
X5839933Y499263D01*
X5840779Y500109D01*
X5839933Y500956D01*
Y490798D02*
X5839086Y489951D01*
X5839933Y489105D01*
X5840779Y489951D01*
X5839933Y490798D01*
X318139Y1770243D02*
X331514D01*
X321961D02*
X319095Y1773109D01*
X318139Y1775020D01*
Y1777885D01*
X319095Y1779796D01*
X321961Y1780751D01*
X331514D01*
X321961D02*
X319095Y1783617D01*
X318139Y1785528D01*
Y1788394D01*
X319095Y1790305D01*
X321961Y1791260D01*
X331514D01*
X318139Y1797565D02*
X331514D01*
X321961D02*
X319095Y1800431D01*
X318139Y1802342D01*
Y1805208D01*
X319095Y1807118D01*
X321961Y1808074D01*
X331514D01*
X321961D02*
X319095Y1810939D01*
X318139Y1812850D01*
Y1815716D01*
X319095Y1817627D01*
X321961Y1818582D01*
X331514D01*
X311452Y746005D02*
X312407Y743139D01*
X315273Y741228D01*
X320050Y740273D01*
X322916D01*
X327692Y741228D01*
X330558Y743139D01*
X331514Y746005D01*
Y747915D01*
X330558Y750781D01*
X327692Y752692D01*
X322916Y753647D01*
X320050D01*
X315273Y752692D01*
X312407Y750781D01*
X311452Y747915D01*
Y746005D01*
X271316Y500239D02*
Y480177D01*
X275519Y500239D02*
Y480177D01*
Y500239D02*
X288894Y480177D01*
Y500239D02*
Y480177D01*
X236518Y620381D02*
Y600319D01*
Y620381D02*
X243205D01*
X246071Y619425D01*
X247982Y617515D01*
X248937Y615604D01*
X249892Y612738D01*
Y607962D01*
X248937Y605095D01*
X247982Y603185D01*
X246071Y601274D01*
X243205Y600319D01*
X236518D01*
X260114Y620381D02*
X258204Y619425D01*
X256293Y617515D01*
X255338Y615604D01*
X254382Y612738D01*
Y607962D01*
X255338Y605095D01*
X256293Y603185D01*
X258204Y601274D01*
X260114Y600319D01*
X263935D01*
X265846Y601274D01*
X267757Y603185D01*
X268712Y605095D01*
X269667Y607962D01*
Y612738D01*
X268712Y615604D01*
X267757Y617515D01*
X265846Y619425D01*
X263935Y620381D01*
X260114D01*
X290111D02*
Y600319D01*
Y620381D02*
X303486Y600319D01*
Y620381D02*
Y600319D01*
X314758Y620381D02*
X312848Y619425D01*
X310937Y617515D01*
X309982Y615604D01*
X309027Y612738D01*
Y607962D01*
X309982Y605095D01*
X310937Y603185D01*
X312848Y601274D01*
X314758Y600319D01*
X318580D01*
X320490Y601274D01*
X322401Y603185D01*
X323356Y605095D01*
X324312Y607962D01*
Y612738D01*
X323356Y615604D01*
X322401Y617515D01*
X320490Y619425D01*
X318580Y620381D01*
X314758D01*
X335680D02*
Y600319D01*
X328993Y620381D02*
X342367D01*
X254718Y582463D02*
X252808Y584373D01*
X249942Y585329D01*
X246120D01*
X243254Y584373D01*
X241344Y582463D01*
Y580552D01*
X242299Y578641D01*
X243254Y577686D01*
X245165Y576731D01*
X250897Y574820D01*
X252808Y573865D01*
X253763Y572910D01*
X254718Y570999D01*
Y568133D01*
X252808Y566222D01*
X249942Y565267D01*
X246120D01*
X243254Y566222D01*
X241344Y568133D01*
X273538Y580552D02*
X272583Y582463D01*
X270672Y584373D01*
X268761Y585329D01*
X264940D01*
X263029Y584373D01*
X261119Y582463D01*
X260163Y580552D01*
X259208Y577686D01*
Y572910D01*
X260163Y570043D01*
X261119Y568133D01*
X263029Y566222D01*
X264940Y565267D01*
X268761D01*
X270672Y566222D01*
X272583Y568133D01*
X273538Y570043D01*
X294459Y565267D02*
X286817Y585329D01*
X279174Y565267D01*
X282040Y571954D02*
X291593D01*
X299141Y585329D02*
Y565267D01*
X310604D01*
X325221Y585329D02*
X312802D01*
Y565267D01*
X325221D01*
X312802Y575775D02*
X320444D01*
X206292Y535291D02*
Y515229D01*
Y535291D02*
X212979D01*
X215845Y534335D01*
X217756Y532425D01*
X218711Y530514D01*
X219666Y527648D01*
Y522872D01*
X218711Y520005D01*
X217756Y518095D01*
X215845Y516184D01*
X212979Y515229D01*
X206292D01*
X224156Y535291D02*
Y515229D01*
X228360Y535291D02*
Y515229D01*
Y535291D02*
X236002Y515229D01*
X243645Y535291D02*
X236002Y515229D01*
X243645Y535291D02*
Y515229D01*
X261796Y535291D02*
X249377D01*
Y515229D01*
X261796D01*
X249377Y525737D02*
X257019D01*
X265139Y535291D02*
Y515229D01*
Y535291D02*
X278514Y515229D01*
Y535291D02*
Y515229D01*
X297429Y532425D02*
X295519Y534335D01*
X292653Y535291D01*
X288831D01*
X285965Y534335D01*
X284055Y532425D01*
Y530514D01*
X285010Y528603D01*
X285965Y527648D01*
X287876Y526693D01*
X293608Y524782D01*
X295519Y523827D01*
X296474Y522872D01*
X297429Y520961D01*
Y518095D01*
X295519Y516184D01*
X292653Y515229D01*
X288831D01*
X285965Y516184D01*
X284055Y518095D01*
X301919Y535291D02*
Y515229D01*
X311854Y535291D02*
X309944Y534335D01*
X308033Y532425D01*
X307078Y530514D01*
X306123Y527648D01*
Y522872D01*
X307078Y520005D01*
X308033Y518095D01*
X309944Y516184D01*
X311854Y515229D01*
X315676D01*
X317586Y516184D01*
X319497Y518095D01*
X320452Y520005D01*
X321408Y522872D01*
Y527648D01*
X320452Y530514D01*
X319497Y532425D01*
X317586Y534335D01*
X315676Y535291D01*
X311854D01*
X326089D02*
Y515229D01*
Y535291D02*
X339463Y515229D01*
Y535291D02*
Y515229D01*
X358379Y532425D02*
X356468Y534335D01*
X353602Y535291D01*
X349781D01*
X346915Y534335D01*
X345004Y532425D01*
Y530514D01*
X345959Y528603D01*
X346915Y527648D01*
X348825Y526693D01*
X354557Y524782D01*
X356468Y523827D01*
X357423Y522872D01*
X358379Y520961D01*
Y518095D01*
X356468Y516184D01*
X353602Y515229D01*
X349781D01*
X346915Y516184D01*
X345004Y518095D01*
X201466Y460361D02*
Y440299D01*
Y460361D02*
X209108Y440299D01*
X216751Y460361D02*
X209108Y440299D01*
X216751Y460361D02*
Y440299D01*
X222483Y460361D02*
Y440299D01*
X226686Y460361D02*
Y440299D01*
X238150D01*
X240347Y460361D02*
Y440299D01*
X251811D01*
X254008Y460361D02*
Y440299D01*
X258212Y460361D02*
Y440299D01*
Y460361D02*
X265854Y440299D01*
X273497Y460361D02*
X265854Y440299D01*
X273497Y460361D02*
Y440299D01*
X291648Y460361D02*
X279229D01*
Y440299D01*
X291648D01*
X279229Y450807D02*
X286871D01*
X301679Y460361D02*
Y440299D01*
X294991Y460361D02*
X308366D01*
X310754D02*
Y440299D01*
Y460361D02*
X319352D01*
X322218Y459405D01*
X323173Y458450D01*
X324129Y456539D01*
Y454629D01*
X323173Y452718D01*
X322218Y451763D01*
X319352Y450807D01*
X310754D01*
X317442D02*
X324129Y440299D01*
X341038Y460361D02*
X328619D01*
Y440299D01*
X341038D01*
X328619Y450807D02*
X336261D01*
X357756Y457495D02*
X355845Y459405D01*
X352979Y460361D01*
X349158D01*
X346292Y459405D01*
X344381Y457495D01*
Y455584D01*
X345337Y453673D01*
X346292Y452718D01*
X348203Y451763D01*
X353935Y449852D01*
X355845Y448897D01*
X356801Y447942D01*
X357756Y446031D01*
Y443165D01*
X355845Y441254D01*
X352979Y440299D01*
X349158D01*
X346292Y441254D01*
X344381Y443165D01*
D14*
X6022950Y218620D02*
Y523420D01*
X4879950Y218620D02*
X6022950D01*
X4524350D02*
X4879950D01*
D20*
X301288Y260213D02*
G03*
X301288Y260213I-19812J0D01*
G01*
X321354D02*
G03*
X321354Y260213I-39878J0D01*
G01*
X301288Y330317D02*
X321354Y400167D01*
X241344D02*
X261410Y330317D01*
X1092498Y4220327D02*
Y4271128D01*
X4648498Y4220327D02*
Y4271128D01*
X1803698Y4220327D02*
Y4271128D01*
X2514898Y4220327D02*
Y4271128D01*
X1803698Y170297D02*
Y221097D01*
X2514898Y170297D02*
Y221097D01*
X3226098Y170297D02*
Y221097D01*
X3937298Y170297D02*
Y221097D01*
X3226098Y4220327D02*
Y4271128D01*
X3937298Y4220327D02*
Y4271128D01*
X5359698Y4220327D02*
Y4271128D01*
Y170297D02*
Y221097D01*
X4648498Y170297D02*
Y221097D01*
X1092498Y170297D02*
Y221097D01*
X4648498Y4220327D02*
Y4271128D01*
X1092498Y4220327D02*
Y4271128D01*
X261410Y330317D02*
X301288D01*
X241344Y400167D02*
X321354D01*
X381298Y850255D02*
X431336D01*
X381298Y1530213D02*
X431336D01*
X381298Y2220331D02*
X431336D01*
X381298Y2900289D02*
X431336D01*
X381298Y3580247D02*
X431336D01*
X6021368Y2220331D02*
X6071406D01*
X6021368Y3580247D02*
X6071406D01*
X6021368Y2900289D02*
X6071406D01*
X6021368Y1530213D02*
X6071406D01*
D22*
X1442667Y203034D02*
Y204461D01*
X1444094Y207314D01*
X1445521Y208741D01*
X1448374Y210168D01*
X1454082D01*
X1456936Y208741D01*
X1458363Y207314D01*
X1459790Y204461D01*
Y201607D01*
X1458363Y198753D01*
X1455509Y194472D01*
X1441240Y180203D01*
X1461217D01*
X5011375Y210168D02*
X4997105Y180203D01*
X4991398Y210168D02*
X5011375D01*
X6036354Y3240389D02*
Y3210423D01*
Y3240389D02*
X6049196D01*
X6053477Y3238962D01*
X6054904Y3237535D01*
X6056331Y3234681D01*
Y3231827D01*
X6054904Y3228973D01*
X6053477Y3227546D01*
X6049196Y3226119D01*
X6036354D02*
X6049196D01*
X6053477Y3224692D01*
X6054904Y3223266D01*
X6056331Y3220412D01*
Y3216131D01*
X6054904Y3213277D01*
X6053477Y3211850D01*
X6049196Y3210423D01*
X6036354D01*
X6057758Y2583014D02*
X6056331Y2585868D01*
X6053477Y2588722D01*
X6050623Y2590149D01*
X6044915D01*
X6042062Y2588722D01*
X6039208Y2585868D01*
X6037781Y2583014D01*
X6036354Y2578733D01*
Y2571599D01*
X6037781Y2567318D01*
X6039208Y2564464D01*
X6042062Y2561610D01*
X6044915Y2560183D01*
X6050623D01*
X6053477Y2561610D01*
X6056331Y2564464D01*
X6057758Y2567318D01*
X6036354Y1900284D02*
Y1870319D01*
Y1900284D02*
X6046342D01*
X6050623Y1898858D01*
X6053477Y1896004D01*
X6054904Y1893150D01*
X6056331Y1888869D01*
Y1881734D01*
X6054904Y1877454D01*
X6053477Y1874600D01*
X6050623Y1871746D01*
X6046342Y1870319D01*
X6036354D01*
X721404Y204461D02*
X724258Y205888D01*
X728538Y210168D01*
Y180203D01*
X2865463Y210168D02*
X2851194Y190191D01*
X2872598D01*
X2865463Y210168D02*
Y180203D01*
X2164184Y210168D02*
X2179880D01*
X2171318Y198753D01*
X2175599D01*
X2178453Y197326D01*
X2179880Y195899D01*
X2181307Y191618D01*
Y188764D01*
X2179880Y184484D01*
X2177026Y181630D01*
X2172745Y180203D01*
X2168464D01*
X2164184Y181630D01*
X2162757Y183057D01*
X2161330Y185911D01*
X3588407Y210168D02*
X3574138D01*
X3572711Y197326D01*
X3574138Y198753D01*
X3578418Y200180D01*
X3582699D01*
X3586980Y198753D01*
X3589834Y195899D01*
X3591261Y191618D01*
Y188764D01*
X3589834Y184484D01*
X3586980Y181630D01*
X3582699Y180203D01*
X3578418D01*
X3574138Y181630D01*
X3572711Y183057D01*
X3571284Y185911D01*
X4288431Y205888D02*
X4287004Y208742D01*
X4282723Y210168D01*
X4279869D01*
X4275589Y208742D01*
X4272735Y204461D01*
X4271308Y197326D01*
Y190191D01*
X4272735Y184484D01*
X4275589Y181630D01*
X4279869Y180203D01*
X4281296D01*
X4285577Y181630D01*
X4288431Y184484D01*
X4289858Y188764D01*
Y190191D01*
X4288431Y194472D01*
X4285577Y197326D01*
X4281296Y198753D01*
X4279869D01*
X4275589Y197326D01*
X4272735Y194472D01*
X4271308Y190191D01*
X5738434Y210168D02*
X5734153Y208742D01*
X5732726Y205888D01*
Y203034D01*
X5734153Y200180D01*
X5737007Y198753D01*
X5742715Y197326D01*
X5746996Y195899D01*
X5749850Y193045D01*
X5751277Y190191D01*
Y185911D01*
X5749850Y183057D01*
X5748423Y181630D01*
X5744142Y180203D01*
X5738434D01*
X5734153Y181630D01*
X5732726Y183057D01*
X5731300Y185911D01*
Y190191D01*
X5732726Y193045D01*
X5735580Y195899D01*
X5739861Y197326D01*
X5745569Y198753D01*
X5748423Y200180D01*
X5749850Y203034D01*
Y205888D01*
X5748423Y208742D01*
X5744142Y210168D01*
X5738434D01*
X6036354Y535289D02*
Y505323D01*
Y535289D02*
X6054904D01*
X6036354Y521019D02*
X6047769D01*
X5011375Y4260199D02*
X4997105Y4230233D01*
X4991398Y4260199D02*
X5011375D01*
X5738434D02*
X5734153Y4258772D01*
X5732726Y4255918D01*
Y4253064D01*
X5734153Y4250210D01*
X5737007Y4248783D01*
X5742715Y4247356D01*
X5746996Y4245930D01*
X5749850Y4243076D01*
X5751277Y4240222D01*
Y4235941D01*
X5749850Y4233087D01*
X5748423Y4231660D01*
X5744142Y4230233D01*
X5738434D01*
X5734153Y4231660D01*
X5732726Y4233087D01*
X5731300Y4235941D01*
Y4240222D01*
X5732726Y4243076D01*
X5735580Y4245930D01*
X5739861Y4247356D01*
X5745569Y4248783D01*
X5748423Y4250210D01*
X5749850Y4253064D01*
Y4255918D01*
X5748423Y4258772D01*
X5744142Y4260199D01*
X5738434D01*
X6054105Y3910193D02*
X6042689Y3940159D01*
X6031274Y3910193D01*
X6035555Y3920182D02*
X6049824D01*
X4288431Y4255918D02*
X4287004Y4258772D01*
X4282723Y4260199D01*
X4279869D01*
X4275589Y4258772D01*
X4272735Y4254491D01*
X4271308Y4247356D01*
Y4240222D01*
X4272735Y4234514D01*
X4275589Y4231660D01*
X4279869Y4230233D01*
X4281296D01*
X4285577Y4231660D01*
X4288431Y4234514D01*
X4289858Y4238795D01*
Y4240222D01*
X4288431Y4244503D01*
X4285577Y4247356D01*
X4281296Y4248783D01*
X4279869D01*
X4275589Y4247356D01*
X4272735Y4244503D01*
X4271308Y4240222D01*
X3588407Y4260199D02*
X3574138D01*
X3572711Y4247356D01*
X3574138Y4248783D01*
X3578418Y4250210D01*
X3582699D01*
X3586980Y4248783D01*
X3589834Y4245930D01*
X3591261Y4241649D01*
Y4238795D01*
X3589834Y4234514D01*
X3586980Y4231660D01*
X3582699Y4230233D01*
X3578418D01*
X3574138Y4231660D01*
X3572711Y4233087D01*
X3571284Y4235941D01*
X2865463Y4260199D02*
X2851194Y4240222D01*
X2872598D01*
X2865463Y4260199D02*
Y4230233D01*
X2164184Y4260199D02*
X2179880D01*
X2171318Y4248783D01*
X2175599D01*
X2178453Y4247356D01*
X2179880Y4245930D01*
X2181307Y4241649D01*
Y4238795D01*
X2179880Y4234514D01*
X2177026Y4231660D01*
X2172745Y4230233D01*
X2168464D01*
X2164184Y4231660D01*
X2162757Y4233087D01*
X2161330Y4235941D01*
X1442667Y4253064D02*
Y4254491D01*
X1444094Y4257345D01*
X1445521Y4258772D01*
X1448374Y4260199D01*
X1454082D01*
X1456936Y4258772D01*
X1458363Y4257345D01*
X1459790Y4254491D01*
Y4251637D01*
X1458363Y4248783D01*
X1455509Y4244503D01*
X1441240Y4230233D01*
X1461217D01*
X721404Y4254491D02*
X724258Y4255918D01*
X728538Y4260199D01*
Y4230233D01*
X414035Y3910193D02*
X402619Y3940159D01*
X391204Y3910193D01*
X395485Y3920182D02*
X409754D01*
X396284Y3240389D02*
Y3210423D01*
Y3240389D02*
X409126D01*
X413407Y3238962D01*
X414834Y3237535D01*
X416261Y3234681D01*
Y3231827D01*
X414834Y3228973D01*
X413407Y3227546D01*
X409126Y3226119D01*
X396284D02*
X409126D01*
X413407Y3224692D01*
X414834Y3223266D01*
X416261Y3220412D01*
Y3216131D01*
X414834Y3213277D01*
X413407Y3211850D01*
X409126Y3210423D01*
X396284D01*
X417688Y2583014D02*
X416261Y2585868D01*
X413407Y2588722D01*
X410553Y2590149D01*
X404845D01*
X401992Y2588722D01*
X399138Y2585868D01*
X397711Y2583014D01*
X396284Y2578733D01*
Y2571599D01*
X397711Y2567318D01*
X399138Y2564464D01*
X401992Y2561610D01*
X404845Y2560183D01*
X410553D01*
X413407Y2561610D01*
X416261Y2564464D01*
X417688Y2567318D01*
X396284Y1900284D02*
Y1870319D01*
Y1900284D02*
X406272D01*
X410553Y1898858D01*
X413407Y1896004D01*
X414834Y1893150D01*
X416261Y1888869D01*
Y1881734D01*
X414834Y1877454D01*
X413407Y1874600D01*
X410553Y1871746D01*
X406272Y1870319D01*
X396284D01*
X414834Y1225153D02*
X396284D01*
Y1195187D01*
X414834D01*
X396284Y1210883D02*
X407699D01*
X396284Y535289D02*
Y505323D01*
Y535289D02*
X414834D01*
X396284Y521019D02*
X407699D01*
D24*
X6021368Y220335D02*
Y4220327D01*
X6071406Y170297D02*
Y4270366D01*
X431336Y220335D02*
Y4220327D01*
X381298Y4270366D02*
X6071406D01*
X431336Y220335D02*
X6021368D01*
X431336Y4220327D02*
X6021368D01*
X351326Y690235D02*
X371392D01*
X351326Y740273D02*
X371392D01*
X351326Y840349D02*
X371392D01*
X351326Y940171D02*
X371392D01*
X351326Y1040247D02*
X371392D01*
X351326Y1140323D02*
X371392D01*
X351326Y1240145D02*
X371392D01*
X351326Y1340221D02*
X371392D01*
X351326Y1440297D02*
X371392D01*
X351326Y1540373D02*
X371392D01*
X351326Y1640195D02*
X371392D01*
X351326Y1740271D02*
X381298D01*
Y170297D02*
Y4270366D01*
X379022Y170150D02*
X6070227D01*
X431336Y4057514D02*
X1160610Y4057263D01*
X431336Y4057514D02*
Y4220327D01*
X1160827Y4057006D02*
Y4220327D01*
X5776080Y468627D02*
X5773661Y471045D01*
X5770033Y472254D01*
X5765196D01*
X5761569Y471045D01*
X5759150Y468627D01*
Y466208D01*
X5760359Y463790D01*
X5761569Y462580D01*
X5763987Y461371D01*
X5771243Y458952D01*
X5773661Y457743D01*
X5774870Y456534D01*
X5776080Y454115D01*
Y450488D01*
X5773661Y448069D01*
X5770033Y446860D01*
X5765196D01*
X5761569Y448069D01*
X5759150Y450488D01*
X5799902Y466208D02*
X5798693Y468627D01*
X5796274Y471045D01*
X5793856Y472254D01*
X5789019D01*
X5786600Y471045D01*
X5784182Y468627D01*
X5782972Y466208D01*
X5781763Y462580D01*
Y456534D01*
X5782972Y452906D01*
X5784182Y450488D01*
X5786600Y448069D01*
X5789019Y446860D01*
X5793856D01*
X5796274Y448069D01*
X5798693Y450488D01*
X5799902Y452906D01*
X5826385Y446860D02*
X5816711Y472254D01*
X5807037Y446860D01*
X5810665Y455325D02*
X5822757D01*
X5832310Y472254D02*
Y446860D01*
X5846821D01*
X5865323Y472254D02*
X5849603D01*
Y446860D01*
X5865323D01*
X5849603Y460162D02*
X5859277D01*
X5870765Y463790D02*
X5869556Y462580D01*
X5870765Y461371D01*
X5871974Y462580D01*
X5870765Y463790D01*
Y449278D02*
X5869556Y448069D01*
X5870765Y446860D01*
X5871974Y448069D01*
X5870765Y449278D01*
X5897490Y467417D02*
X5899908Y468627D01*
X5903536Y472254D01*
Y446860D01*
X5917322Y449278D02*
X5916113Y448069D01*
X5917322Y446860D01*
X5918531Y448069D01*
X5917322Y449278D01*
X5931349Y472254D02*
X5927722Y471045D01*
X5925303Y467417D01*
X5924094Y461371D01*
Y457743D01*
X5925303Y451697D01*
X5927722Y448069D01*
X5931349Y446860D01*
X5933768D01*
X5937396Y448069D01*
X5939814Y451697D01*
X5941023Y457743D01*
Y461371D01*
X5939814Y467417D01*
X5937396Y471045D01*
X5933768Y472254D01*
X5931349D01*
X5953962D02*
X5950334Y471045D01*
X5947916Y467417D01*
X5946707Y461371D01*
Y457743D01*
X5947916Y451697D01*
X5950334Y448069D01*
X5953962Y446860D01*
X5956381D01*
X5960009Y448069D01*
X5962427Y451697D01*
X5963636Y457743D01*
Y461371D01*
X5962427Y467417D01*
X5960009Y471045D01*
X5956381Y472254D01*
X5953962D01*
X5758400Y371417D02*
X5760818Y372627D01*
X5764446Y376254D01*
Y350860D01*
X5779441Y376254D02*
X5792743D01*
X5785488Y366580D01*
X5789115D01*
X5791534Y365371D01*
X5792743Y364162D01*
X5793952Y360534D01*
Y358115D01*
X5792743Y354488D01*
X5790324Y352069D01*
X5786697Y350860D01*
X5783069D01*
X5779441Y352069D01*
X5778232Y353278D01*
X5777023Y355697D01*
X5799636Y347232D02*
X5816566Y376254D01*
X5818259Y371417D02*
X5820677Y372627D01*
X5824305Y376254D01*
Y350860D01*
X5838090Y370208D02*
Y371417D01*
X5839299Y373836D01*
X5840509Y375045D01*
X5842927Y376254D01*
X5847764D01*
X5850183Y375045D01*
X5851392Y373836D01*
X5852601Y371417D01*
Y368999D01*
X5851392Y366580D01*
X5848974Y362952D01*
X5836881Y350860D01*
X5853811D01*
X5859494Y347232D02*
X5876424Y376254D01*
X5879326Y370208D02*
Y371417D01*
X5880535Y373836D01*
X5881745Y375045D01*
X5884163Y376254D01*
X5889000D01*
X5891419Y375045D01*
X5892628Y373836D01*
X5893837Y371417D01*
Y368999D01*
X5892628Y366580D01*
X5890209Y362952D01*
X5878117Y350860D01*
X5895047D01*
X5907986Y376254D02*
X5904358Y375045D01*
X5901940Y371417D01*
X5900730Y365371D01*
Y361743D01*
X5901940Y355697D01*
X5904358Y352069D01*
X5907986Y350860D01*
X5910405D01*
X5914032Y352069D01*
X5916451Y355697D01*
X5917660Y361743D01*
Y365371D01*
X5916451Y371417D01*
X5914032Y375045D01*
X5910405Y376254D01*
X5907986D01*
X5923344Y371417D02*
X5925762Y372627D01*
X5929390Y376254D01*
Y350860D01*
X5956477Y372627D02*
X5955268Y375045D01*
X5951640Y376254D01*
X5949222D01*
X5945594Y375045D01*
X5943176Y371417D01*
X5941966Y365371D01*
Y359325D01*
X5943176Y354488D01*
X5945594Y352069D01*
X5949222Y350860D01*
X5950431D01*
X5954059Y352069D01*
X5956477Y354488D01*
X5957687Y358115D01*
Y359325D01*
X5956477Y362952D01*
X5954059Y365371D01*
X5950431Y366580D01*
X5949222D01*
X5945594Y365371D01*
X5943176Y362952D01*
X5941966Y359325D01*
X5759433Y272509D02*
X5762335Y273961D01*
X5766689Y278314D01*
Y247840D01*
X5869923Y272509D02*
X5872825Y273961D01*
X5877179Y278314D01*
Y247840D01*
X623353Y4134211D02*
X603040D01*
Y4103741D01*
X623353D01*
X603040Y4118976D02*
X613197D01*
X653823Y4134211D02*
Y4103741D01*
X638588D01*
X633510Y4108819D01*
Y4118976D01*
X638588Y4124054D01*
X653823D01*
X674137Y4093584D02*
X679215D01*
X684294Y4098662D01*
Y4124054D01*
X669059D01*
X663980Y4118976D01*
Y4108819D01*
X669059Y4103741D01*
X684294D01*
X709685D02*
X699529D01*
X694450Y4108819D01*
Y4118976D01*
X699529Y4124054D01*
X709685D01*
X714764Y4118976D01*
Y4113898D01*
X694450D01*
X745234Y4103741D02*
X724920D01*
X745234Y4124054D01*
Y4129133D01*
X740155Y4134211D01*
X729999D01*
X724920Y4129133D01*
X790939Y4124054D02*
X801096D01*
X806174Y4118976D01*
Y4103741D01*
X790939D01*
X785861Y4108819D01*
X790939Y4113898D01*
X806174D01*
X816331Y4103741D02*
Y4124054D01*
X831566D01*
X836644Y4118976D01*
Y4103741D01*
X867114Y4134211D02*
Y4103741D01*
X851879D01*
X846801Y4108819D01*
Y4118976D01*
X851879Y4124054D01*
X867114D01*
X928055Y4134211D02*
X907741D01*
Y4103741D01*
X928055D01*
X907741Y4118976D02*
X917898D01*
X958525Y4134211D02*
Y4103741D01*
X943290D01*
X938212Y4108819D01*
Y4118976D01*
X943290Y4124054D01*
X958525D01*
X978838Y4093584D02*
X983917D01*
X988995Y4098662D01*
Y4124054D01*
X973760D01*
X968682Y4118976D01*
Y4108819D01*
X973760Y4103741D01*
X988995D01*
X1014387D02*
X1004230D01*
X999152Y4108819D01*
Y4118976D01*
X1004230Y4124054D01*
X1014387D01*
X1019465Y4118976D01*
Y4113898D01*
X999152D01*
X1029622Y4129133D02*
X1034700Y4134211D01*
X1044857D01*
X1049935Y4129133D01*
Y4124054D01*
X1044857Y4118976D01*
X1039779D01*
X1044857D01*
X1049935Y4113898D01*
Y4108819D01*
X1044857Y4103741D01*
X1034700D01*
X1029622Y4108819D01*
D30*
X4955430Y487416D02*
X4979814D01*
X4953906Y486654D02*
X4979814D01*
X4952382Y485892D02*
X4979814D01*
X4951620Y485130D02*
X4979814D01*
X4987434D02*
X4990482D01*
X4951620Y484368D02*
X4979814D01*
X4986672D02*
X4992006D01*
X4950858Y483606D02*
X4979814D01*
X4985910D02*
X4992006D01*
X4950096Y482844D02*
X4979814D01*
X4985910D02*
X4992768D01*
X4950096Y482082D02*
X4979814D01*
X4985910D02*
X4992768D01*
X4949334Y481320D02*
X4956954D01*
X4985910D02*
X4992768D01*
X4949334Y480558D02*
X4956192D01*
X4985910D02*
X4992006D01*
X4949334Y479796D02*
X4956192D01*
X4986672D02*
X4991244D01*
X4949334Y479034D02*
X4955430D01*
X4987434D02*
X4990482D01*
X4949334Y478272D02*
X4955430D01*
X4949334Y477510D02*
X4955430D01*
X4949334Y476748D02*
X4955430D01*
X4949334Y475986D02*
X4955430D01*
X4949334Y475224D02*
X4955430D01*
X4978290D02*
X4979814D01*
X4949334Y474462D02*
X4955430D01*
X4976766D02*
X4979814D01*
X4949334Y473700D02*
X4955430D01*
X4975242D02*
X4979814D01*
X4949334Y472938D02*
X4955430D01*
X4973718D02*
X4979814D01*
X4949334Y472176D02*
X4955430D01*
X4972194D02*
X4979814D01*
X4985910D02*
X4992006D01*
X4998102D02*
X5003436D01*
X5011056D02*
X5014104D01*
X5032392D02*
X5036202D01*
X5050680D02*
X5055252D01*
X5101734D02*
X5107068D01*
X5117736D02*
X5123832D01*
X5156598D02*
X5161932D01*
X5174124D02*
X5178696D01*
X4949334Y471414D02*
X4955430D01*
X4970670D02*
X4979814D01*
X4985910D02*
X4992006D01*
X4997340D02*
X5004198D01*
X5008008D02*
X5015628D01*
X5020962D02*
X5024772D01*
X5030106D02*
X5038488D01*
X5048394D02*
X5058300D01*
X5068968D02*
X5072778D01*
X5084970D02*
X5088780D01*
X5100972D02*
X5107068D01*
X5113926D02*
X5126880D01*
X5136024D02*
X5139834D01*
X5155836D02*
X5161932D01*
X5171838D02*
X5181744D01*
X4949334Y470652D02*
X4955430D01*
X4969146D02*
X4979814D01*
X4985910D02*
X4992006D01*
X4997340D02*
X5004198D01*
X5006484D02*
X5015628D01*
X5020200D02*
X5025534D01*
X5028582D02*
X5040012D01*
X5046870D02*
X5059062D01*
X5068968D02*
X5073540D01*
X5084970D02*
X5089542D01*
X5100972D02*
X5106306D01*
X5111640D02*
X5128404D01*
X5135262D02*
X5140596D01*
X5155836D02*
X5161932D01*
X5169552D02*
X5183268D01*
X4949334Y469890D02*
X4955430D01*
X4967622D02*
X4979814D01*
X4985910D02*
X4992006D01*
X4997340D02*
X5004198D01*
X5005722D02*
X5015628D01*
X5020200D02*
X5025534D01*
X5027820D02*
X5040774D01*
X5045346D02*
X5060586D01*
X5068206D02*
X5073540D01*
X5084208D02*
X5089542D01*
X5100210D02*
X5106306D01*
X5110878D02*
X5129928D01*
X5135262D02*
X5140596D01*
X5155074D02*
X5161170D01*
X5168790D02*
X5184792D01*
X4949334Y469128D02*
X4955430D01*
X4966098D02*
X4979814D01*
X4985910D02*
X4992006D01*
X4997340D02*
X5003436D01*
X5004960D02*
X5015628D01*
X5020200D02*
X5026296D01*
X5027058D02*
X5041536D01*
X5044584D02*
X5061348D01*
X5068206D02*
X5074302D01*
X5084208D02*
X5090304D01*
X5100210D02*
X5106306D01*
X5110878D02*
X5130690D01*
X5135262D02*
X5141358D01*
X5155074D02*
X5161170D01*
X5168028D02*
X5185554D01*
X4949334Y468366D02*
X4955430D01*
X4963812D02*
X4979052D01*
X4985910D02*
X4992006D01*
X4997340D02*
X5003436D01*
X5004198D02*
X5015628D01*
X5020200D02*
X5042298D01*
X5043822D02*
X5062110D01*
X5068206D02*
X5074302D01*
X5084208D02*
X5090304D01*
X5100210D02*
X5105544D01*
X5111640D02*
X5131452D01*
X5135262D02*
X5141358D01*
X5154312D02*
X5160408D01*
X5166504D02*
X5186316D01*
X4949334Y467604D02*
X4955430D01*
X4962288D02*
X4977528D01*
X4985910D02*
X4992006D01*
X4997340D02*
X5014866D01*
X5020200D02*
X5043060D01*
X5043822D02*
X5062110D01*
X5068968D02*
X5074302D01*
X5083446D02*
X5090304D01*
X5099448D02*
X5105544D01*
X5111640D02*
X5132214D01*
X5136024D02*
X5142120D01*
X5154312D02*
X5160408D01*
X5166504D02*
X5187078D01*
X4949334Y466842D02*
X4955430D01*
X4960764D02*
X4976004D01*
X4985910D02*
X4992006D01*
X4997340D02*
X5012580D01*
X5020200D02*
X5031630D01*
X5033154D02*
X5050680D01*
X5052204D02*
X5062872D01*
X5068968D02*
X5075064D01*
X5083446D02*
X5091066D01*
X5099448D02*
X5104782D01*
X5112402D02*
X5116974D01*
X5123070D02*
X5132214D01*
X5136024D02*
X5142120D01*
X5153550D02*
X5159646D01*
X5165742D02*
X5174124D01*
X5178696D02*
X5187840D01*
X4949334Y466080D02*
X4955430D01*
X4959240D02*
X4973718D01*
X4985910D02*
X4992006D01*
X4997340D02*
X5008770D01*
X5020200D02*
X5029344D01*
X5036202D02*
X5048394D01*
X5055252D02*
X5062872D01*
X5069730D02*
X5075064D01*
X5083446D02*
X5091066D01*
X5099448D02*
X5104782D01*
X5112402D02*
X5113926D01*
X5125356D02*
X5132976D01*
X5136786D02*
X5142120D01*
X5153550D02*
X5159646D01*
X5164980D02*
X5172600D01*
X5180982D02*
X5187840D01*
X4949334Y465318D02*
X4955430D01*
X4957716D02*
X4972194D01*
X4985910D02*
X4992006D01*
X4997340D02*
X5007246D01*
X5020200D02*
X5028582D01*
X5036964D02*
X5047632D01*
X5056014D02*
X5063634D01*
X5069730D02*
X5075826D01*
X5082684D02*
X5091066D01*
X5098686D02*
X5104782D01*
X5126118D02*
X5132976D01*
X5136786D02*
X5142882D01*
X5153550D02*
X5158884D01*
X5164218D02*
X5171838D01*
X5181744D02*
X5188602D01*
X4949334Y464556D02*
X4955430D01*
X4956192D02*
X4970670D01*
X4985910D02*
X4992006D01*
X4997340D02*
X5006484D01*
X5020200D02*
X5027820D01*
X5037726D02*
X5046870D01*
X5056776D02*
X5063634D01*
X5069730D02*
X5075826D01*
X5082684D02*
X5091828D01*
X5098686D02*
X5104020D01*
X5126880D02*
X5132976D01*
X5136786D02*
X5142882D01*
X5152788D02*
X5158884D01*
X5164218D02*
X5171076D01*
X5182506D02*
X5188602D01*
X4949334Y463794D02*
X4969146D01*
X4985910D02*
X4992006D01*
X4997340D02*
X5005722D01*
X5020200D02*
X5027058D01*
X5037726D02*
X5046108D01*
X5056776D02*
X5063634D01*
X5070492D02*
X5075826D01*
X5082684D02*
X5091828D01*
X5097924D02*
X5104020D01*
X5126880D02*
X5132976D01*
X5137548D02*
X5143644D01*
X5152788D02*
X5158884D01*
X5163456D02*
X5170314D01*
X5183268D02*
X5189364D01*
X4949334Y463032D02*
X4967622D01*
X4985910D02*
X4992006D01*
X4997340D02*
X5004960D01*
X5020200D02*
X5026296D01*
X5038488D02*
X5045346D01*
X5057538D02*
X5063634D01*
X5070492D02*
X5076588D01*
X5081922D02*
X5091828D01*
X5097924D02*
X5104020D01*
X5126880D02*
X5132976D01*
X5137548D02*
X5143644D01*
X5152026D02*
X5158122D01*
X5163456D02*
X5169552D01*
X5183268D02*
X5189364D01*
X4949334Y462270D02*
X4966098D01*
X4985910D02*
X4992006D01*
X4997340D02*
X5004198D01*
X5020200D02*
X5026296D01*
X5038488D02*
X5045346D01*
X5057538D02*
X5063634D01*
X5070492D02*
X5076588D01*
X5081922D02*
X5092590D01*
X5097924D02*
X5103258D01*
X5127642D02*
X5132976D01*
X5138310D02*
X5144406D01*
X5152026D02*
X5158122D01*
X5163456D02*
X5169552D01*
X5184030D02*
X5190126D01*
X4949334Y461508D02*
X4964574D01*
X4985910D02*
X4992006D01*
X4997340D02*
X5004198D01*
X5020200D02*
X5026296D01*
X5038488D02*
X5045346D01*
X5057538D02*
X5063634D01*
X5071254D02*
X5076588D01*
X5081922D02*
X5092590D01*
X5097162D02*
X5103258D01*
X5114688D02*
X5123070D01*
X5127642D02*
X5133738D01*
X5138310D02*
X5144406D01*
X5151264D02*
X5157360D01*
X5162694D02*
X5169552D01*
X5184030D02*
X5190126D01*
X4949334Y460746D02*
X4963050D01*
X4985910D02*
X4992006D01*
X4997340D02*
X5004198D01*
X5020200D02*
X5026296D01*
X5038488D02*
X5045346D01*
X5057538D02*
X5063634D01*
X5071254D02*
X5077350D01*
X5081160D02*
X5092590D01*
X5097162D02*
X5102496D01*
X5113164D02*
X5125356D01*
X5127642D02*
X5133738D01*
X5139072D02*
X5145168D01*
X5151264D02*
X5157360D01*
X5162694D02*
X5169552D01*
X5184030D02*
X5190126D01*
X4949334Y459984D02*
X4961526D01*
X4985910D02*
X4992006D01*
X4997340D02*
X5004198D01*
X5020200D02*
X5026296D01*
X5039250D02*
X5045346D01*
X5057538D02*
X5063634D01*
X5072016D02*
X5077350D01*
X5081160D02*
X5086494D01*
X5087256D02*
X5093352D01*
X5097162D02*
X5102496D01*
X5111640D02*
X5126118D01*
X5127642D02*
X5133738D01*
X5139072D02*
X5145168D01*
X5150502D02*
X5156598D01*
X5162694D02*
X5190126D01*
X4949334Y459222D02*
X4960002D01*
X4985910D02*
X4992006D01*
X4997340D02*
X5004198D01*
X5020200D02*
X5026296D01*
X5039250D02*
X5045346D01*
X5057538D02*
X5063634D01*
X5072016D02*
X5078112D01*
X5081160D02*
X5086494D01*
X5088018D02*
X5093352D01*
X5096400D02*
X5102496D01*
X5110878D02*
X5133738D01*
X5139834D02*
X5145168D01*
X5150502D02*
X5156598D01*
X5162694D02*
X5190126D01*
X4949334Y458460D02*
X4958478D01*
X4985910D02*
X4992006D01*
X4997340D02*
X5004198D01*
X5020200D02*
X5026296D01*
X5039250D02*
X5045346D01*
X5057538D02*
X5063634D01*
X5072016D02*
X5078112D01*
X5080398D02*
X5086494D01*
X5088018D02*
X5093352D01*
X5096400D02*
X5101734D01*
X5110116D02*
X5133738D01*
X5139834D02*
X5145930D01*
X5150502D02*
X5155836D01*
X5162694D02*
X5190126D01*
X4949334Y457698D02*
X4956954D01*
X4985910D02*
X4992006D01*
X4997340D02*
X5004198D01*
X5020200D02*
X5026296D01*
X5039250D02*
X5045346D01*
X5057538D02*
X5063634D01*
X5072778D02*
X5078112D01*
X5080398D02*
X5085732D01*
X5088018D02*
X5094114D01*
X5095638D02*
X5101734D01*
X5110116D02*
X5133738D01*
X5140596D02*
X5145930D01*
X5149740D02*
X5155836D01*
X5162694D02*
X5190126D01*
X4949334Y456936D02*
X4956192D01*
X4985910D02*
X4992006D01*
X4997340D02*
X5004198D01*
X5020200D02*
X5026296D01*
X5039250D02*
X5045346D01*
X5057538D02*
X5063634D01*
X5072778D02*
X5078874D01*
X5080398D02*
X5085732D01*
X5088780D02*
X5094114D01*
X5095638D02*
X5101734D01*
X5109354D02*
X5117736D01*
X5123832D02*
X5133738D01*
X5140596D02*
X5146692D01*
X5149740D02*
X5155836D01*
X5162694D02*
X5189364D01*
X4949334Y456174D02*
X4955430D01*
X4985910D02*
X4992006D01*
X4997340D02*
X5004198D01*
X5020200D02*
X5026296D01*
X5039250D02*
X5045346D01*
X5057538D02*
X5063634D01*
X5072778D02*
X5078874D01*
X5079636D02*
X5085732D01*
X5088780D02*
X5094114D01*
X5095638D02*
X5100972D01*
X5109354D02*
X5116212D01*
X5125356D02*
X5133738D01*
X5140596D02*
X5146692D01*
X5148978D02*
X5155074D01*
X5162694D02*
X5168790D01*
X4949334Y455412D02*
X4955430D01*
X4985910D02*
X4992006D01*
X4997340D02*
X5004198D01*
X5020200D02*
X5026296D01*
X5039250D02*
X5045346D01*
X5057538D02*
X5063634D01*
X5073540D02*
X5078874D01*
X5079636D02*
X5084970D01*
X5088780D02*
X5100972D01*
X5109354D02*
X5115450D01*
X5126118D02*
X5133738D01*
X5141358D02*
X5147454D01*
X5148978D02*
X5155074D01*
X5162694D02*
X5168790D01*
X4949334Y454650D02*
X4955430D01*
X4985910D02*
X4992006D01*
X4997340D02*
X5004198D01*
X5020200D02*
X5026296D01*
X5039250D02*
X5045346D01*
X5057538D02*
X5063634D01*
X5073540D02*
X5084970D01*
X5089542D02*
X5100210D01*
X5108592D02*
X5114688D01*
X5126880D02*
X5133738D01*
X5141358D02*
X5147454D01*
X5148216D02*
X5154312D01*
X5163456D02*
X5169552D01*
X4949334Y453888D02*
X4955430D01*
X4985910D02*
X4992006D01*
X4997340D02*
X5004198D01*
X5020200D02*
X5026296D01*
X5039250D02*
X5045346D01*
X5057538D02*
X5063634D01*
X5074302D02*
X5084970D01*
X5089542D02*
X5100210D01*
X5108592D02*
X5114688D01*
X5126880D02*
X5133738D01*
X5142120D02*
X5154312D01*
X5163456D02*
X5169552D01*
X4949334Y453126D02*
X4955430D01*
X4985910D02*
X4992006D01*
X4997340D02*
X5004198D01*
X5020200D02*
X5026296D01*
X5039250D02*
X5045346D01*
X5057538D02*
X5063634D01*
X5074302D02*
X5084208D01*
X5089542D02*
X5100210D01*
X5108592D02*
X5114688D01*
X5126880D02*
X5133738D01*
X5142120D02*
X5153550D01*
X5163456D02*
X5169552D01*
X4949334Y452364D02*
X4955430D01*
X4985910D02*
X4992006D01*
X4997340D02*
X5004198D01*
X5020200D02*
X5026296D01*
X5039250D02*
X5045346D01*
X5057538D02*
X5063634D01*
X5074302D02*
X5084208D01*
X5090304D02*
X5099448D01*
X5108592D02*
X5114688D01*
X5126880D02*
X5133738D01*
X5142882D02*
X5153550D01*
X5164218D02*
X5170314D01*
X5184792D02*
X5185554D01*
X4949334Y451602D02*
X4955430D01*
X4985910D02*
X4992006D01*
X4997340D02*
X5004198D01*
X5020200D02*
X5026296D01*
X5039250D02*
X5045346D01*
X5057538D02*
X5063634D01*
X5075064D02*
X5084208D01*
X5090304D02*
X5099448D01*
X5108592D02*
X5114688D01*
X5126880D02*
X5133738D01*
X5142882D02*
X5152788D01*
X5164218D02*
X5171076D01*
X5184030D02*
X5186316D01*
X4949334Y450840D02*
X4955430D01*
X4985910D02*
X4992006D01*
X4997340D02*
X5004198D01*
X5020200D02*
X5026296D01*
X5039250D02*
X5045346D01*
X5057538D02*
X5063634D01*
X5075064D02*
X5083446D01*
X5090304D02*
X5099448D01*
X5109354D02*
X5115450D01*
X5126118D02*
X5133738D01*
X5143644D02*
X5152788D01*
X5164980D02*
X5171838D01*
X5182506D02*
X5186316D01*
X4949334Y450078D02*
X4955430D01*
X4985910D02*
X4992006D01*
X4997340D02*
X5004198D01*
X5020200D02*
X5026296D01*
X5039250D02*
X5045346D01*
X5057538D02*
X5063634D01*
X5075064D02*
X5083446D01*
X5091066D02*
X5098686D01*
X5109354D02*
X5116212D01*
X5125356D02*
X5133738D01*
X5143644D02*
X5152788D01*
X5164980D02*
X5173362D01*
X5181744D02*
X5187078D01*
X4949334Y449316D02*
X4955430D01*
X4985910D02*
X4992006D01*
X4997340D02*
X5004198D01*
X5020200D02*
X5026296D01*
X5039250D02*
X5045346D01*
X5057538D02*
X5063634D01*
X5075826D02*
X5083446D01*
X5091066D02*
X5098686D01*
X5109354D02*
X5117736D01*
X5123832D02*
X5133738D01*
X5143644D02*
X5152026D01*
X5165742D02*
X5174886D01*
X5178696D02*
X5187078D01*
X4949334Y448554D02*
X4955430D01*
X4985910D02*
X4992006D01*
X4997340D02*
X5004198D01*
X5020200D02*
X5026296D01*
X5039250D02*
X5045346D01*
X5057538D02*
X5063634D01*
X5075826D02*
X5082684D01*
X5091066D02*
X5097924D01*
X5110116D02*
X5133738D01*
X5144406D02*
X5152026D01*
X5166504D02*
X5187840D01*
X4949334Y447792D02*
X4955430D01*
X4985910D02*
X4992006D01*
X4997340D02*
X5004198D01*
X5020200D02*
X5026296D01*
X5039250D02*
X5045346D01*
X5057538D02*
X5063634D01*
X5076588D02*
X5082684D01*
X5091828D02*
X5097924D01*
X5110878D02*
X5133738D01*
X5144406D02*
X5151264D01*
X5167266D02*
X5187078D01*
X4949334Y447030D02*
X4955430D01*
X4985910D02*
X4992006D01*
X4997340D02*
X5003436D01*
X5020200D02*
X5026296D01*
X5039250D02*
X5045346D01*
X5057538D02*
X5063634D01*
X5076588D02*
X5082684D01*
X5091828D02*
X5097924D01*
X5111640D02*
X5126880D01*
X5127642D02*
X5133738D01*
X5145168D02*
X5151264D01*
X5168028D02*
X5186316D01*
X4949334Y446268D02*
X4955430D01*
X4985910D02*
X4992006D01*
X4998102D02*
X5003436D01*
X5020200D02*
X5026296D01*
X5039250D02*
X5044584D01*
X5057538D02*
X5063634D01*
X5076588D02*
X5081922D01*
X5091828D02*
X5097162D01*
X5112402D02*
X5126118D01*
X5127642D02*
X5132976D01*
X5145168D02*
X5150502D01*
X5168790D02*
X5185554D01*
X4950096Y445506D02*
X4954668D01*
X4986672D02*
X4991244D01*
X4998102D02*
X5003436D01*
X5020200D02*
X5026296D01*
X5039250D02*
X5044584D01*
X5057538D02*
X5063634D01*
X5077350D02*
X5081922D01*
X5092590D02*
X5097162D01*
X5113164D02*
X5124594D01*
X5127642D02*
X5132976D01*
X5145930D02*
X5150502D01*
X5170314D02*
X5184030D01*
X4950858Y444744D02*
X4953906D01*
X4987434D02*
X4990482D01*
X4998864D02*
X5002674D01*
X5019438D02*
X5026296D01*
X5040012D02*
X5043822D01*
X5057538D02*
X5064396D01*
X5078112D02*
X5081160D01*
X5093352D02*
X5096400D01*
X5114688D02*
X5123070D01*
X5128404D02*
X5132214D01*
X5146692D02*
X5149740D01*
X5171838D02*
X5181744D01*
D31*
X4950891Y307211D02*
X4951979Y303946D01*
Y310476D01*
X4950891Y307211D01*
X4948714Y309387D01*
X4945449Y310476D01*
X4943273D01*
X4940008Y309387D01*
X4937831Y307211D01*
X4936743Y305034D01*
X4935654Y301769D01*
Y296327D01*
X4936743Y293062D01*
X4937831Y290886D01*
X4940008Y288709D01*
X4943273Y287621D01*
X4945449D01*
X4948714Y288709D01*
X4950891Y290886D01*
X4951979Y293062D01*
X4943273Y310476D02*
X4941096Y309387D01*
X4938919Y307211D01*
X4937831Y305034D01*
X4936743Y301769D01*
Y296327D01*
X4937831Y293062D01*
X4938919Y290886D01*
X4941096Y288709D01*
X4943273Y287621D01*
X4958509Y310476D02*
Y287621D01*
X4959597Y310476D02*
Y287621D01*
Y299592D02*
X4961774Y301769D01*
X4965039Y302857D01*
X4967216D01*
X4970481Y301769D01*
X4971569Y299592D01*
Y287621D01*
X4967216Y302857D02*
X4969393Y301769D01*
X4970481Y299592D01*
Y287621D01*
X4955244Y310476D02*
X4959597D01*
X4955244Y287621D02*
X4962863D01*
X4967216D02*
X4974834D01*
X4981038Y302857D02*
Y287621D01*
X4982126Y302857D02*
Y287621D01*
Y296327D02*
X4983215Y299592D01*
X4985391Y301769D01*
X4987568Y302857D01*
X4990833D01*
X4991921Y301769D01*
Y300681D01*
X4990833Y299592D01*
X4989745Y300681D01*
X4990833Y301769D01*
X4977773Y302857D02*
X4982126D01*
X4977773Y287621D02*
X4985391D01*
X4998669Y310476D02*
X4997581Y309387D01*
X4998669Y308299D01*
X4999757Y309387D01*
X4998669Y310476D01*
Y302857D02*
Y287621D01*
X4999757Y302857D02*
Y287621D01*
X4995404Y302857D02*
X4999757D01*
X4995404Y287621D02*
X5003022D01*
X5018041Y300681D02*
X5019130Y302857D01*
Y298504D01*
X5018041Y300681D01*
X5016953Y301769D01*
X5014776Y302857D01*
X5010423D01*
X5008246Y301769D01*
X5007158Y300681D01*
Y298504D01*
X5008246Y297416D01*
X5010423Y296327D01*
X5015865Y294151D01*
X5018041Y293062D01*
X5019130Y291974D01*
X5007158Y299592D02*
X5008246Y298504D01*
X5010423Y297416D01*
X5015865Y295239D01*
X5018041Y294151D01*
X5019130Y293062D01*
Y289797D01*
X5018041Y288709D01*
X5015865Y287621D01*
X5011512D01*
X5009335Y288709D01*
X5008246Y289797D01*
X5007158Y291974D01*
Y287621D01*
X5008246Y289797D01*
X5029360Y287621D02*
X5028272Y288709D01*
X5027184Y291974D01*
Y310476D01*
X5026095D01*
Y291974D01*
X5027184Y288709D01*
X5029360Y287621D01*
X5031537D01*
X5033713Y288709D01*
X5034802Y290886D01*
X5022830Y302857D02*
X5031537D01*
X5041767D02*
Y287621D01*
X5042856Y302857D02*
Y287621D01*
Y299592D02*
X5045032Y301769D01*
X5048297Y302857D01*
X5050474D01*
X5053739Y301769D01*
X5054827Y299592D01*
Y287621D01*
X5050474Y302857D02*
X5052650Y301769D01*
X5053739Y299592D01*
Y287621D01*
X5054827Y299592D02*
X5057004Y301769D01*
X5060269Y302857D01*
X5062446D01*
X5065710Y301769D01*
X5066799Y299592D01*
Y287621D01*
X5062446Y302857D02*
X5064622Y301769D01*
X5065710Y299592D01*
Y287621D01*
X5038502Y302857D02*
X5042856D01*
X5038502Y287621D02*
X5046121D01*
X5050474D02*
X5058092D01*
X5062446D02*
X5070064D01*
X5073982Y300681D02*
Y299592D01*
X5072894D01*
Y300681D01*
X5073982Y301769D01*
X5076159Y302857D01*
X5080512D01*
X5082689Y301769D01*
X5083777Y300681D01*
X5084865Y298504D01*
Y290886D01*
X5085954Y288709D01*
X5087042Y287621D01*
X5083777Y300681D02*
Y290886D01*
X5084865Y288709D01*
X5087042Y287621D01*
X5088130D01*
X5083777Y298504D02*
X5082689Y297416D01*
X5076159Y296327D01*
X5072894Y295239D01*
X5071805Y293062D01*
Y290886D01*
X5072894Y288709D01*
X5076159Y287621D01*
X5079424D01*
X5081600Y288709D01*
X5083777Y290886D01*
X5076159Y296327D02*
X5073982Y295239D01*
X5072894Y293062D01*
Y290886D01*
X5073982Y288709D01*
X5076159Y287621D01*
X5102279Y300681D02*
X5103367Y302857D01*
Y298504D01*
X5102279Y300681D01*
X5101190Y301769D01*
X5099014Y302857D01*
X5094660D01*
X5092484Y301769D01*
X5091395Y300681D01*
Y298504D01*
X5092484Y297416D01*
X5094660Y296327D01*
X5100102Y294151D01*
X5102279Y293062D01*
X5103367Y291974D01*
X5091395Y299592D02*
X5092484Y298504D01*
X5094660Y297416D01*
X5100102Y295239D01*
X5102279Y294151D01*
X5103367Y293062D01*
Y289797D01*
X5102279Y288709D01*
X5100102Y287621D01*
X5095749D01*
X5093572Y288709D01*
X5092484Y289797D01*
X5091395Y291974D01*
Y287621D01*
X5092484Y289797D01*
X5135255Y310476D02*
Y287621D01*
X5136344Y310476D02*
Y287621D01*
X5128726Y310476D02*
X5127637Y303946D01*
Y310476D01*
X5143962D01*
Y303946D01*
X5142874Y310476D01*
X5131990Y287621D02*
X5139609D01*
X5150492Y302857D02*
Y287621D01*
X5151580Y302857D02*
Y287621D01*
Y296327D02*
X5152669Y299592D01*
X5154846Y301769D01*
X5157022Y302857D01*
X5160287D01*
X5161376Y301769D01*
Y300681D01*
X5160287Y299592D01*
X5159199Y300681D01*
X5160287Y301769D01*
X5147227Y302857D02*
X5151580D01*
X5147227Y287621D02*
X5154846D01*
X5165947Y296327D02*
X5179006D01*
Y298504D01*
X5177918Y300681D01*
X5176830Y301769D01*
X5174653Y302857D01*
X5171389D01*
X5168123Y301769D01*
X5165947Y299592D01*
X5164858Y296327D01*
Y294151D01*
X5165947Y290886D01*
X5168123Y288709D01*
X5171389Y287621D01*
X5173565D01*
X5176830Y288709D01*
X5179006Y290886D01*
X5177918Y296327D02*
Y299592D01*
X5176830Y301769D01*
X5171389Y302857D02*
X5169211Y301769D01*
X5167035Y299592D01*
X5165947Y296327D01*
Y294151D01*
X5167035Y290886D01*
X5169211Y288709D01*
X5171389Y287621D01*
X5183578Y296327D02*
X5196638D01*
Y298504D01*
X5195549Y300681D01*
X5194461Y301769D01*
X5192285Y302857D01*
X5189019D01*
X5185754Y301769D01*
X5183578Y299592D01*
X5182489Y296327D01*
Y294151D01*
X5183578Y290886D01*
X5185754Y288709D01*
X5189019Y287621D01*
X5191196D01*
X5194461Y288709D01*
X5196638Y290886D01*
X5195549Y296327D02*
Y299592D01*
X5194461Y301769D01*
X5189019Y302857D02*
X5186843Y301769D01*
X5184666Y299592D01*
X5183578Y296327D01*
Y294151D01*
X5184666Y290886D01*
X5186843Y288709D01*
X5189019Y287621D01*
X5223955Y310476D02*
Y287621D01*
X5225043Y310476D02*
Y287621D01*
X5220690Y310476D02*
X5233750D01*
X5237015Y309387D01*
X5238104Y308299D01*
X5239192Y306122D01*
Y302857D01*
X5238104Y300681D01*
X5237015Y299592D01*
X5233750Y298504D01*
X5225043D01*
X5233750Y310476D02*
X5235927Y309387D01*
X5237015Y308299D01*
X5238104Y306122D01*
Y302857D01*
X5237015Y300681D01*
X5235927Y299592D01*
X5233750Y298504D01*
X5220690Y287621D02*
X5228308D01*
X5244416Y300681D02*
Y299592D01*
X5243328D01*
Y300681D01*
X5244416Y301769D01*
X5246592Y302857D01*
X5250946D01*
X5253123Y301769D01*
X5254211Y300681D01*
X5255299Y298504D01*
Y290886D01*
X5256387Y288709D01*
X5257476Y287621D01*
X5254211Y300681D02*
Y290886D01*
X5255299Y288709D01*
X5257476Y287621D01*
X5258564D01*
X5254211Y298504D02*
X5253123Y297416D01*
X5246592Y296327D01*
X5243328Y295239D01*
X5242239Y293062D01*
Y290886D01*
X5243328Y288709D01*
X5246592Y287621D01*
X5249857D01*
X5252034Y288709D01*
X5254211Y290886D01*
X5246592Y296327D02*
X5244416Y295239D01*
X5243328Y293062D01*
Y290886D01*
X5244416Y288709D01*
X5246592Y287621D01*
X5265094Y302857D02*
Y287621D01*
X5266182Y302857D02*
Y287621D01*
Y296327D02*
X5267271Y299592D01*
X5269448Y301769D01*
X5271624Y302857D01*
X5274889D01*
X5275978Y301769D01*
Y300681D01*
X5274889Y299592D01*
X5273801Y300681D01*
X5274889Y301769D01*
X5261829Y302857D02*
X5266182D01*
X5261829Y287621D02*
X5269448D01*
X5285991D02*
X5284902Y288709D01*
X5283813Y291974D01*
Y310476D01*
X5282725D01*
Y291974D01*
X5283813Y288709D01*
X5285991Y287621D01*
X5288167D01*
X5290344Y288709D01*
X5291432Y290886D01*
X5279460Y302857D02*
X5288167D01*
X5316790Y306122D02*
X5317878Y305034D01*
X5316790Y303946D01*
X5315702Y305034D01*
Y306122D01*
X5316790Y308299D01*
X5317878Y309387D01*
X5321144Y310476D01*
X5325497D01*
X5328762Y309387D01*
X5329850Y308299D01*
X5330939Y306122D01*
Y303946D01*
X5329850Y301769D01*
X5326585Y299592D01*
X5321144Y297416D01*
X5318967Y296327D01*
X5316790Y294151D01*
X5315702Y290886D01*
Y287621D01*
X5325497Y310476D02*
X5327673Y309387D01*
X5328762Y308299D01*
X5329850Y306122D01*
Y303946D01*
X5328762Y301769D01*
X5325497Y299592D01*
X5321144Y297416D01*
X5315702Y289797D02*
X5316790Y290886D01*
X5318967D01*
X5324409Y288709D01*
X5327673D01*
X5329850Y289797D01*
X5330939Y290886D01*
Y293062D01*
X5318967Y290886D02*
X5324409Y287621D01*
X5328762D01*
X5329850Y288709D01*
X5330939Y290886D01*
X5814788Y268296D02*
X5812853Y267329D01*
X5810918Y265394D01*
X5809951Y263459D01*
X5808983Y260557D01*
Y255720D01*
X5809951Y252818D01*
X5810918Y250883D01*
X5812853Y248948D01*
X5814788Y247980D01*
X5818657D01*
X5820592Y248948D01*
X5822527Y250883D01*
X5823494Y252818D01*
X5824462Y255720D01*
Y260557D01*
X5823494Y263459D01*
X5822527Y265394D01*
X5820592Y267329D01*
X5818657Y268296D01*
X5814788D01*
X5829202D02*
Y247980D01*
Y268296D02*
X5841779D01*
X5829202Y258622D02*
X5836942D01*
D32*
X4448733Y352647D02*
Y334871D01*
Y352647D02*
X4459738D01*
X4448733Y344182D02*
X4455505D01*
X4463462Y352647D02*
X4464308Y351800D01*
X4465155Y352647D01*
X4464308Y353493D01*
X4463462Y352647D01*
X4464308Y346721D02*
Y334871D01*
X4468287Y346721D02*
Y334871D01*
Y341642D02*
X4469134Y344182D01*
X4470826Y345875D01*
X4472520Y346721D01*
X4475059D01*
X4476667D02*
Y334871D01*
Y343335D02*
X4479207Y345875D01*
X4480900Y346721D01*
X4483439D01*
X4485132Y345875D01*
X4485978Y343335D01*
Y334871D01*
Y343335D02*
X4488518Y345875D01*
X4490211Y346721D01*
X4492751D01*
X4494443Y345875D01*
X4495290Y343335D01*
Y334871D01*
X4500877Y346721D02*
X4504263Y334871D01*
X4507649Y346721D02*
X4504263Y334871D01*
X4507649Y346721D02*
X4511035Y334871D01*
X4514420Y346721D02*
X4511035Y334871D01*
X4528726Y346721D02*
Y334871D01*
Y344182D02*
X4527033Y345875D01*
X4525340Y346721D01*
X4522801D01*
X4521108Y345875D01*
X4519415Y344182D01*
X4518568Y341642D01*
Y339949D01*
X4519415Y337410D01*
X4521108Y335717D01*
X4522801Y334871D01*
X4525340D01*
X4527033Y335717D01*
X4528726Y337410D01*
X4533466Y346721D02*
X4538545Y334871D01*
X4543624Y346721D02*
X4538545Y334871D01*
X4546502Y341642D02*
X4556660D01*
Y343335D01*
X4555814Y345028D01*
X4554967Y345875D01*
X4553274Y346721D01*
X4550735D01*
X4549042Y345875D01*
X4547349Y344182D01*
X4546502Y341642D01*
Y339949D01*
X4547349Y337410D01*
X4549042Y335717D01*
X4550735Y334871D01*
X4553274D01*
X4554967Y335717D01*
X4556660Y337410D01*
X4574436Y352647D02*
Y334871D01*
X4584594D01*
X4589081Y352647D02*
Y338256D01*
X4589927Y335717D01*
X4591620Y334871D01*
X4593313D01*
X4586541Y346721D02*
X4592466D01*
X4606010Y352647D02*
Y334871D01*
Y344182D02*
X4604317Y345875D01*
X4602624Y346721D01*
X4600085D01*
X4598392Y345875D01*
X4596699Y344182D01*
X4595852Y341642D01*
Y339949D01*
X4596699Y337410D01*
X4598392Y335717D01*
X4600085Y334871D01*
X4602624D01*
X4604317Y335717D01*
X4606010Y337410D01*
X4611597Y336563D02*
X4610750Y335717D01*
X4611597Y334871D01*
X4612444Y335717D01*
X4611597Y336563D01*
X4360593Y503017D02*
Y485241D01*
Y503017D02*
X4368212D01*
X4370751Y502170D01*
X4371598Y501324D01*
X4372444Y499631D01*
Y497938D01*
X4371598Y496245D01*
X4370751Y495398D01*
X4368212Y494552D01*
X4360593D02*
X4368212D01*
X4370751Y493705D01*
X4371598Y492859D01*
X4372444Y491166D01*
Y488627D01*
X4371598Y486934D01*
X4370751Y486087D01*
X4368212Y485241D01*
X4360593D01*
X4389966D02*
X4383194Y503017D01*
X4376422Y485241D01*
X4378962Y491166D02*
X4387427D01*
X4394114Y503017D02*
Y485241D01*
Y503017D02*
X4401732D01*
X4404272Y502170D01*
X4405118Y501324D01*
X4405965Y499631D01*
Y497938D01*
X4405118Y496245D01*
X4404272Y495398D01*
X4401732Y494552D01*
X4394114D01*
X4400039D02*
X4405965Y485241D01*
X4415869Y503017D02*
Y485241D01*
X4409943Y503017D02*
X4421794D01*
X4428989D02*
X4427296Y502170D01*
X4425603Y500477D01*
X4424757Y498784D01*
X4423910Y496245D01*
Y492012D01*
X4424757Y489473D01*
X4425603Y487780D01*
X4427296Y486087D01*
X4428989Y485241D01*
X4432375D01*
X4434068Y486087D01*
X4435761Y487780D01*
X4436608Y489473D01*
X4437454Y492012D01*
Y496245D01*
X4436608Y498784D01*
X4435761Y500477D01*
X4434068Y502170D01*
X4432375Y503017D01*
X4428989D01*
X4453452Y500477D02*
X4451760Y502170D01*
X4449220Y503017D01*
X4445834D01*
X4443295Y502170D01*
X4441602Y500477D01*
Y498784D01*
X4442448Y497091D01*
X4443295Y496245D01*
X4444988Y495398D01*
X4450067Y493705D01*
X4451760Y492859D01*
X4452606Y492012D01*
X4453452Y490320D01*
Y487780D01*
X4451760Y486087D01*
X4449220Y485241D01*
X4445834D01*
X4443295Y486087D01*
X4441602Y487780D01*
X4469282Y503017D02*
X4457431Y485241D01*
Y503017D02*
X4469282D01*
X4457431Y485241D02*
X4469282D01*
X4499078Y503017D02*
X4487227Y485241D01*
Y503017D02*
X4499078D01*
X4487227Y485241D02*
X4499078D01*
X4503057Y503017D02*
Y485241D01*
X4511860Y503017D02*
X4510167Y502170D01*
X4508474Y500477D01*
X4507628Y498784D01*
X4506781Y496245D01*
Y492012D01*
X4507628Y489473D01*
X4508474Y487780D01*
X4510167Y486087D01*
X4511860Y485241D01*
X4515246D01*
X4516939Y486087D01*
X4518632Y487780D01*
X4519478Y489473D01*
X4520325Y492012D01*
Y496245D01*
X4519478Y498784D01*
X4518632Y500477D01*
X4516939Y502170D01*
X4515246Y503017D01*
X4511860D01*
X4524473D02*
Y485241D01*
X4534630D01*
X4547582Y503017D02*
X4536577D01*
Y485241D01*
X4547582D01*
X4536577Y494552D02*
X4543349D01*
X4550544Y503017D02*
Y485241D01*
X4562395Y503017D02*
X4550544Y491166D01*
X4554777Y495398D02*
X4562395Y485241D01*
X447252Y4195882D02*
X460106D01*
X464391Y4197310D01*
X465819Y4198738D01*
X467247Y4201595D01*
Y4205880D01*
X465819Y4208736D01*
X464391Y4210164D01*
X460106Y4211592D01*
X447252D01*
Y4181599D01*
X473960Y4211592D02*
Y4181599D01*
Y4211592D02*
X486814D01*
X491099Y4210164D01*
X492527Y4208736D01*
X493956Y4205880D01*
Y4203023D01*
X492527Y4200166D01*
X491099Y4198738D01*
X486814Y4197310D01*
X473960D01*
X483958D02*
X493956Y4181599D01*
X509238Y4211592D02*
X506382Y4210164D01*
X503525Y4207308D01*
X502097Y4204451D01*
X500668Y4200166D01*
Y4193025D01*
X502097Y4188741D01*
X503525Y4185884D01*
X506382Y4183027D01*
X509238Y4181599D01*
X514951D01*
X517808Y4183027D01*
X520664Y4185884D01*
X522092Y4188741D01*
X523521Y4193025D01*
Y4200166D01*
X522092Y4204451D01*
X520664Y4207308D01*
X517808Y4210164D01*
X514951Y4211592D01*
X509238D01*
X530519D02*
Y4181599D01*
Y4211592D02*
X540517D01*
X544802Y4210164D01*
X547658Y4207308D01*
X549086Y4204451D01*
X550515Y4200166D01*
Y4193025D01*
X549086Y4188741D01*
X547658Y4185884D01*
X544802Y4183027D01*
X540517Y4181599D01*
X530519D01*
X557228Y4211592D02*
Y4190168D01*
X558656Y4185884D01*
X561512Y4183027D01*
X565797Y4181599D01*
X568654D01*
X572938Y4183027D01*
X575795Y4185884D01*
X577223Y4190168D01*
Y4211592D01*
X606931Y4204451D02*
X605503Y4207308D01*
X602646Y4210164D01*
X599790Y4211592D01*
X594077D01*
X591220Y4210164D01*
X588364Y4207308D01*
X586935Y4204451D01*
X585507Y4200166D01*
Y4193025D01*
X586935Y4188741D01*
X588364Y4185884D01*
X591220Y4183027D01*
X594077Y4181599D01*
X599790D01*
X602646Y4183027D01*
X605503Y4185884D01*
X606931Y4188741D01*
X625356Y4211592D02*
Y4181599D01*
X615358Y4211592D02*
X635353D01*
X662490D02*
Y4181599D01*
Y4211592D02*
X681058D01*
X662490Y4197310D02*
X673916D01*
X707338Y4181599D02*
X695912Y4211592D01*
X684486Y4181599D01*
X688770Y4191597D02*
X703053D01*
X714336Y4211592D02*
Y4181599D01*
Y4211592D02*
X725762Y4181599D01*
X737188Y4211592D02*
X725762Y4181599D01*
X737188Y4211592D02*
Y4181599D01*
X745758Y4211592D02*
Y4181599D01*
X752042Y4211592D02*
Y4181599D01*
X769181D01*
X772466Y4211592D02*
X783893Y4197310D01*
Y4181599D01*
X795319Y4211592D02*
X783893Y4197310D01*
D33*
X281349Y180330D02*
D03*
D34*
X376345Y1185281D02*
D03*
M02*
