G04 Layer_Color=32896*
%FSLAX44Y44*%
%MOMM*%
G71*
G01*
G75*
%ADD14C,0.1270*%
%ADD15R,4.8260X2.4130*%
D14*
X3075590Y1768946D02*
X3309270D01*
Y1744816D02*
Y1768946D01*
X3075590Y1744816D02*
Y1768946D01*
Y1744816D02*
X3309270D01*
X3141630Y1761831D02*
Y1751673D01*
Y1761831D02*
X3145984D01*
X3147435Y1761348D01*
X3147918Y1760864D01*
X3148402Y1759897D01*
Y1758929D01*
X3147918Y1757962D01*
X3147435Y1757478D01*
X3145984Y1756994D01*
X3141630D02*
X3145984D01*
X3147435Y1756511D01*
X3147918Y1756027D01*
X3148402Y1755060D01*
Y1753608D01*
X3147918Y1752641D01*
X3147435Y1752157D01*
X3145984Y1751673D01*
X3141630D01*
X3153578Y1761831D02*
X3152610Y1761348D01*
X3151643Y1760380D01*
X3151159Y1759413D01*
X3150676Y1757962D01*
Y1755543D01*
X3151159Y1754092D01*
X3151643Y1753125D01*
X3152610Y1752157D01*
X3153578Y1751673D01*
X3155513D01*
X3156480Y1752157D01*
X3157448Y1753125D01*
X3157931Y1754092D01*
X3158415Y1755543D01*
Y1757962D01*
X3157931Y1759413D01*
X3157448Y1760380D01*
X3156480Y1761348D01*
X3155513Y1761831D01*
X3153578D01*
X3164171D02*
Y1751673D01*
X3160785Y1761831D02*
X3167557D01*
X3172152D02*
Y1751673D01*
X3168766Y1761831D02*
X3175538D01*
X3179649D02*
X3178682Y1761348D01*
X3177715Y1760380D01*
X3177231Y1759413D01*
X3176747Y1757962D01*
Y1755543D01*
X3177231Y1754092D01*
X3177715Y1753125D01*
X3178682Y1752157D01*
X3179649Y1751673D01*
X3181584D01*
X3182552Y1752157D01*
X3183519Y1753125D01*
X3184003Y1754092D01*
X3184487Y1755543D01*
Y1757962D01*
X3184003Y1759413D01*
X3183519Y1760380D01*
X3182552Y1761348D01*
X3181584Y1761831D01*
X3179649D01*
X3186857D02*
Y1751673D01*
Y1761831D02*
X3190726Y1751673D01*
X3194596Y1761831D02*
X3190726Y1751673D01*
X3194596Y1761831D02*
Y1751673D01*
X3208382Y1761831D02*
X3207414Y1761348D01*
X3206447Y1760380D01*
X3205963Y1759413D01*
X3205479Y1757962D01*
Y1755543D01*
X3205963Y1754092D01*
X3206447Y1753125D01*
X3207414Y1752157D01*
X3208382Y1751673D01*
X3210316D01*
X3211284Y1752157D01*
X3212251Y1753125D01*
X3212735Y1754092D01*
X3213219Y1755543D01*
Y1757962D01*
X3212735Y1759413D01*
X3212251Y1760380D01*
X3211284Y1761348D01*
X3210316Y1761831D01*
X3208382D01*
X3215589D02*
X3219459Y1751673D01*
X3223328Y1761831D02*
X3219459Y1751673D01*
X3230922Y1761831D02*
X3224634D01*
Y1751673D01*
X3230922D01*
X3224634Y1756994D02*
X3228504D01*
X3232615Y1761831D02*
Y1751673D01*
Y1761831D02*
X3236969D01*
X3238420Y1761348D01*
X3238904Y1760864D01*
X3239387Y1759897D01*
Y1758929D01*
X3238904Y1757962D01*
X3238420Y1757478D01*
X3236969Y1756994D01*
X3232615D01*
X3236001D02*
X3239387Y1751673D01*
X3241660Y1761831D02*
Y1751673D01*
X3247465D01*
X3256317D02*
X3252447Y1761831D01*
X3248578Y1751673D01*
X3250029Y1755060D02*
X3254866D01*
X3258687Y1761831D02*
X3262557Y1756994D01*
Y1751673D01*
X3266426Y1761831D02*
X3262557Y1756994D01*
D15*
X3099720Y1756881D02*
D03*
M02*
