G04 Layer_Color=26112*
%FSLAX44Y44*%
%MOMM*%
G71*
G01*
G75*
%ADD10C,0.2540*%
%ADD13C,0.2032*%
%ADD14C,0.1270*%
%ADD15R,4.8260X2.4130*%
%ADD20C,0.3048*%
%ADD21C,0.3050*%
%ADD22C,0.2997*%
D10*
X3050190Y1422998D02*
Y2021676D01*
X3337210D01*
Y1422998D02*
Y2021676D01*
X3050190Y1422998D02*
X3337210D01*
X3098450Y1965796D02*
X3294030D01*
D13*
X5751091Y783341D02*
X5986041D01*
D14*
X3075090Y1618113D02*
X3308770D01*
Y1593983D02*
Y1618113D01*
X3075090Y1593983D02*
X3308770D01*
X3075090D02*
Y1618113D01*
X3144516Y1610999D02*
Y1600842D01*
X3141130Y1610999D02*
X3147902D01*
X3155399D02*
X3149111D01*
Y1600842D01*
X3155399D01*
X3149111Y1606162D02*
X3152981D01*
X3164348Y1608581D02*
X3163864Y1609548D01*
X3162897Y1610516D01*
X3161930Y1610999D01*
X3159995D01*
X3159027Y1610516D01*
X3158060Y1609548D01*
X3157576Y1608581D01*
X3157093Y1607130D01*
Y1604711D01*
X3157576Y1603260D01*
X3158060Y1602293D01*
X3159027Y1601325D01*
X3159995Y1600842D01*
X3161930D01*
X3162897Y1601325D01*
X3163864Y1602293D01*
X3164348Y1603260D01*
X3167202Y1610999D02*
Y1600842D01*
X3173974Y1610999D02*
Y1600842D01*
X3167202Y1606162D02*
X3173974D01*
X3176779Y1610999D02*
Y1600842D01*
Y1610999D02*
X3183551Y1600842D01*
Y1610999D02*
Y1600842D01*
X3186357Y1610999D02*
Y1600842D01*
X3195741Y1608581D02*
X3195257Y1609548D01*
X3194290Y1610516D01*
X3193322Y1610999D01*
X3191387D01*
X3190420Y1610516D01*
X3189453Y1609548D01*
X3188969Y1608581D01*
X3188485Y1607130D01*
Y1604711D01*
X3188969Y1603260D01*
X3189453Y1602293D01*
X3190420Y1601325D01*
X3191387Y1600842D01*
X3193322D01*
X3194290Y1601325D01*
X3195257Y1602293D01*
X3195741Y1603260D01*
X3206334Y1600842D02*
X3202464Y1610999D01*
X3198594Y1600842D01*
X3200045Y1604227D02*
X3204883D01*
X3208704Y1610999D02*
Y1600842D01*
X3214508D01*
X3223602Y1610999D02*
Y1600842D01*
Y1610999D02*
X3226988D01*
X3228439Y1610516D01*
X3229407Y1609548D01*
X3229890Y1608581D01*
X3230374Y1607130D01*
Y1604711D01*
X3229890Y1603260D01*
X3229407Y1602293D01*
X3228439Y1601325D01*
X3226988Y1600842D01*
X3223602D01*
X3240387D02*
X3236517Y1610999D01*
X3232647Y1600842D01*
X3234099Y1604227D02*
X3238936D01*
X3246143Y1610999D02*
Y1600842D01*
X3242757Y1610999D02*
X3249529D01*
X3258477Y1600842D02*
X3254608Y1610999D01*
X3250738Y1600842D01*
X3252189Y1604227D02*
X3257026D01*
D15*
X3099220Y1606048D02*
D03*
D20*
X5176035Y3925917D02*
Y3908395D01*
Y3925917D02*
X5181876D01*
X5184379Y3925083D01*
X5186047Y3923414D01*
X5186882Y3921745D01*
X5187716Y3919242D01*
Y3915070D01*
X5186882Y3912567D01*
X5186047Y3910898D01*
X5184379Y3909229D01*
X5181876Y3908395D01*
X5176035D01*
X5203320Y3923414D02*
X5201650Y3925083D01*
X5199147Y3925917D01*
X5195810D01*
X5193307Y3925083D01*
X5191638Y3923414D01*
Y3921745D01*
X5192473Y3920076D01*
X5193307Y3919242D01*
X5194976Y3918408D01*
X5199982Y3916739D01*
X5201650Y3915904D01*
X5202485Y3915070D01*
X5203320Y3913401D01*
Y3910898D01*
X5201650Y3909229D01*
X5199147Y3908395D01*
X5195810D01*
X5193307Y3909229D01*
X5191638Y3910898D01*
X5256299Y2504151D02*
X5257968Y2504986D01*
X5260471Y2507489D01*
Y2489967D01*
X5269983Y2491635D02*
X5269149Y2490801D01*
X5269983Y2489967D01*
X5270817Y2490801D01*
X5269983Y2491635D01*
X5284668Y2507489D02*
X5276324D01*
X5275490Y2499979D01*
X5276324Y2500814D01*
X5278828Y2501648D01*
X5281331D01*
X5283834Y2500814D01*
X5285502Y2499145D01*
X5286337Y2496642D01*
Y2494973D01*
X5285502Y2492470D01*
X5283834Y2490801D01*
X5281331Y2489967D01*
X5278828D01*
X5276324Y2490801D01*
X5275490Y2491635D01*
X5274655Y2493304D01*
X5295265Y2507489D02*
X5292762Y2506654D01*
X5291093Y2504151D01*
X5290259Y2499979D01*
Y2497476D01*
X5291093Y2493304D01*
X5292762Y2490801D01*
X5295265Y2489967D01*
X5296934D01*
X5299437Y2490801D01*
X5301106Y2493304D01*
X5301940Y2497476D01*
Y2499979D01*
X5301106Y2504151D01*
X5299437Y2506654D01*
X5296934Y2507489D01*
X5295265D01*
X5305862Y2504151D02*
X5307531Y2504986D01*
X5310034Y2507489D01*
Y2489967D01*
X5318712Y2501648D02*
Y2489967D01*
Y2498311D02*
X5321215Y2500814D01*
X5322883Y2501648D01*
X5325386D01*
X5327055Y2500814D01*
X5327889Y2498311D01*
Y2489967D01*
Y2498311D02*
X5330393Y2500814D01*
X5332062Y2501648D01*
X5334565D01*
X5336234Y2500814D01*
X5337068Y2498311D01*
Y2489967D01*
X5342575Y2501648D02*
Y2489967D01*
Y2498311D02*
X5345078Y2500814D01*
X5346747Y2501648D01*
X5349250D01*
X5350919Y2500814D01*
X5351754Y2498311D01*
Y2489967D01*
Y2498311D02*
X5354257Y2500814D01*
X5355925Y2501648D01*
X5358428D01*
X5360097Y2500814D01*
X5360931Y2498311D01*
Y2489967D01*
X5208029Y2506727D02*
X5219711Y2489205D01*
Y2506727D02*
X5208029Y2489205D01*
X5137671Y3925409D02*
X5149352Y3907887D01*
Y3925409D02*
X5137671Y3907887D01*
X5810723Y2554225D02*
X5822405Y2536703D01*
Y2554225D02*
X5810723Y2536703D01*
X5858993Y2554987D02*
Y2537465D01*
Y2554987D02*
X5869840D01*
X5858993Y2546643D02*
X5865668D01*
X5871843Y2554987D02*
Y2537465D01*
Y2554987D02*
X5879352D01*
X5881855Y2554153D01*
X5882689Y2553318D01*
X5883524Y2551649D01*
Y2549981D01*
X5882689Y2548312D01*
X5881855Y2547477D01*
X5879352Y2546643D01*
X5871843D01*
X5877683D02*
X5883524Y2537465D01*
X5895790Y2554987D02*
X5887446Y2543306D01*
X5899962D01*
X5895790Y2554987D02*
Y2537465D01*
X5903049Y2544974D02*
X5918068D01*
X5928248Y2554987D02*
X5925744Y2554153D01*
X5924075Y2551649D01*
X5923241Y2547477D01*
Y2544974D01*
X5924075Y2540802D01*
X5925744Y2538299D01*
X5928248Y2537465D01*
X5929916D01*
X5932419Y2538299D01*
X5934088Y2540802D01*
X5934922Y2544974D01*
Y2547477D01*
X5934088Y2551649D01*
X5932419Y2554153D01*
X5929916Y2554987D01*
X5928248D01*
X5938844Y2551649D02*
X5940513Y2552484D01*
X5943016Y2554987D01*
Y2537465D01*
X5853040Y715536D02*
X5850536Y714702D01*
X5848868Y712199D01*
X5848033Y708027D01*
Y705524D01*
X5848868Y701352D01*
X5850536Y698848D01*
X5853040Y698014D01*
X5854709D01*
X5857212Y698848D01*
X5858881Y701352D01*
X5859715Y705524D01*
Y708027D01*
X5858881Y712199D01*
X5857212Y714702D01*
X5854709Y715536D01*
X5853040D01*
X5864471Y699683D02*
X5863636Y698848D01*
X5864471Y698014D01*
X5865305Y698848D01*
X5864471Y699683D01*
X5879156Y715536D02*
X5870812D01*
X5869978Y708027D01*
X5870812Y708861D01*
X5873315Y709696D01*
X5875818D01*
X5878322Y708861D01*
X5879991Y707192D01*
X5880825Y704689D01*
Y703020D01*
X5879991Y700517D01*
X5878322Y698848D01*
X5875818Y698014D01*
X5873315D01*
X5870812Y698848D01*
X5869978Y699683D01*
X5869144Y701352D01*
X5889753Y715536D02*
X5887250Y714702D01*
X5885581Y712199D01*
X5884747Y708027D01*
Y705524D01*
X5885581Y701352D01*
X5887250Y698848D01*
X5889753Y698014D01*
X5891422D01*
X5893925Y698848D01*
X5895594Y701352D01*
X5896428Y705524D01*
Y708027D01*
X5895594Y712199D01*
X5893925Y714702D01*
X5891422Y715536D01*
X5889753D01*
X5900350D02*
Y698014D01*
Y715536D02*
X5907025Y698014D01*
X5913700Y715536D02*
X5907025Y698014D01*
X5913700Y715536D02*
Y698014D01*
X5918707Y715536D02*
Y698014D01*
Y715536D02*
X5925381Y698014D01*
X5932057Y715536D02*
X5925381Y698014D01*
X5932057Y715536D02*
Y698014D01*
X5907123Y2623362D02*
X5908792Y2624196D01*
X5911295Y2626700D01*
Y2609178D01*
X4790826Y2627263D02*
Y2609741D01*
Y2627263D02*
X4796667D01*
X4799170Y2626429D01*
X4800839Y2624760D01*
X4801673Y2623091D01*
X4802507Y2620588D01*
Y2616416D01*
X4801673Y2613913D01*
X4800839Y2612244D01*
X4799170Y2610575D01*
X4796667Y2609741D01*
X4790826D01*
X4806429Y2627263D02*
Y2609741D01*
Y2627263D02*
X4813939D01*
X4816442Y2626429D01*
X4817276Y2625594D01*
X4818110Y2623925D01*
Y2622256D01*
X4817276Y2620588D01*
X4816442Y2619753D01*
X4813939Y2618919D01*
X4806429D01*
X4812270D02*
X4818110Y2609741D01*
X4822032Y2627263D02*
Y2609741D01*
X4825703Y2627263D02*
Y2609741D01*
X4835716D01*
X4837635Y2627263D02*
Y2609741D01*
X4847648D01*
X4863335Y2627263D02*
Y2609741D01*
Y2627263D02*
X4869175D01*
X4871678Y2626429D01*
X4873347Y2624760D01*
X4874182Y2623091D01*
X4875016Y2620588D01*
Y2616416D01*
X4874182Y2613913D01*
X4873347Y2612244D01*
X4871678Y2610575D01*
X4869175Y2609741D01*
X4863335D01*
X4878938Y2627263D02*
Y2609741D01*
Y2627263D02*
X4886447D01*
X4888951Y2626429D01*
X4889785Y2625594D01*
X4890619Y2623925D01*
Y2622256D01*
X4889785Y2620588D01*
X4888951Y2619753D01*
X4886447Y2618919D01*
X4878938D01*
X4884778D02*
X4890619Y2609741D01*
X4907891D02*
X4901216Y2627263D01*
X4894541Y2609741D01*
X4897044Y2615581D02*
X4905388D01*
X4911980Y2627263D02*
X4916152Y2609741D01*
X4920323Y2627263D02*
X4916152Y2609741D01*
X4920323Y2627263D02*
X4924496Y2609741D01*
X4928668Y2627263D02*
X4924496Y2609741D01*
X4932172Y2627263D02*
Y2609741D01*
X4935843Y2627263D02*
Y2609741D01*
Y2627263D02*
X4947525Y2609741D01*
Y2627263D02*
Y2609741D01*
X4964880Y2623091D02*
X4964046Y2624760D01*
X4962377Y2626429D01*
X4960708Y2627263D01*
X4957371D01*
X4955702Y2626429D01*
X4954033Y2624760D01*
X4953199Y2623091D01*
X4952364Y2620588D01*
Y2616416D01*
X4953199Y2613913D01*
X4954033Y2612244D01*
X4955702Y2610575D01*
X4957371Y2609741D01*
X4960708D01*
X4962377Y2610575D01*
X4964046Y2612244D01*
X4964880Y2613913D01*
Y2616416D01*
X4960708D02*
X4964880D01*
X5212863Y2609741D02*
X5206187Y2627263D01*
X5199512Y2609741D01*
X5202015Y2615581D02*
X5210359D01*
X5216951Y2618085D02*
X5224460D01*
X5226964Y2618919D01*
X5227798Y2619753D01*
X5228632Y2621422D01*
Y2623925D01*
X5227798Y2625594D01*
X5226964Y2626429D01*
X5224460Y2627263D01*
X5216951D01*
Y2609741D01*
X5243401Y2627263D02*
X5232554D01*
Y2609741D01*
X5243401D01*
X5232554Y2618919D02*
X5239229D01*
X5246321Y2627263D02*
Y2609741D01*
Y2627263D02*
X5253831D01*
X5256334Y2626429D01*
X5257169Y2625594D01*
X5258003Y2623925D01*
Y2622257D01*
X5257169Y2620588D01*
X5256334Y2619753D01*
X5253831Y2618919D01*
X5246321D01*
X5252162D02*
X5258003Y2609741D01*
X5267766Y2627263D02*
Y2609741D01*
X5261924Y2627263D02*
X5273606D01*
X5275692D02*
Y2614747D01*
X5276526Y2612244D01*
X5278195Y2610575D01*
X5280698Y2609741D01*
X5282367D01*
X5284871Y2610575D01*
X5286539Y2612244D01*
X5287374Y2614747D01*
Y2627263D01*
X5292213D02*
Y2609741D01*
Y2627263D02*
X5299723D01*
X5302226Y2626429D01*
X5303060Y2625594D01*
X5303895Y2623925D01*
Y2622257D01*
X5303060Y2620588D01*
X5302226Y2619753D01*
X5299723Y2618919D01*
X5292213D01*
X5298054D02*
X5303895Y2609741D01*
X5318663Y2627263D02*
X5307816D01*
Y2609741D01*
X5318663D01*
X5307816Y2618919D02*
X5314492D01*
X5341192Y2627263D02*
Y2609741D01*
X5335351Y2627263D02*
X5347032D01*
X5362469Y2609741D02*
X5355794Y2627263D01*
X5349119Y2609741D01*
X5351622Y2615581D02*
X5359966D01*
X5366558Y2627263D02*
Y2609741D01*
Y2627263D02*
X5374067D01*
X5376570Y2626429D01*
X5377405Y2625594D01*
X5378239Y2623925D01*
Y2622257D01*
X5377405Y2620588D01*
X5376570Y2619753D01*
X5374067Y2618919D01*
X5366558D02*
X5374067D01*
X5376570Y2618085D01*
X5377405Y2617250D01*
X5378239Y2615581D01*
Y2613078D01*
X5377405Y2611410D01*
X5376570Y2610575D01*
X5374067Y2609741D01*
X5366558D01*
X5382161Y2627263D02*
Y2609741D01*
X5392173D01*
X5404940Y2627263D02*
X5394092D01*
Y2609741D01*
X5404940D01*
X5394092Y2618919D02*
X5400768D01*
X5419542Y2624760D02*
X5417872Y2626429D01*
X5415369Y2627263D01*
X5412032D01*
X5409529Y2626429D01*
X5407860Y2624760D01*
Y2623091D01*
X5408694Y2621422D01*
X5409529Y2620588D01*
X5411198Y2619753D01*
X5416204Y2618085D01*
X5417872Y2617250D01*
X5418707Y2616416D01*
X5419542Y2614747D01*
Y2612244D01*
X5417872Y2610575D01*
X5415369Y2609741D01*
X5412032D01*
X5409529Y2610575D01*
X5407860Y2612244D01*
X5423463Y2627263D02*
X5435145Y2607238D01*
X5436313Y2627263D02*
Y2609741D01*
Y2627263D02*
X5447160D01*
X5436313Y2618919D02*
X5442988D01*
X5449163Y2627263D02*
Y2609741D01*
X5452834Y2627263D02*
Y2609741D01*
X5462847D01*
X5475613Y2627263D02*
X5464766D01*
Y2609741D01*
X5475613D01*
X5464766Y2618919D02*
X5471440D01*
X5490214Y2624760D02*
X5488546Y2626429D01*
X5486042Y2627263D01*
X5482705D01*
X5480202Y2626429D01*
X5478533Y2624760D01*
Y2623091D01*
X5479368Y2621422D01*
X5480202Y2620588D01*
X5481871Y2619753D01*
X5486877Y2618085D01*
X5488546Y2617250D01*
X5489380Y2616416D01*
X5490214Y2614747D01*
Y2612244D01*
X5488546Y2610575D01*
X5486042Y2609741D01*
X5482705D01*
X5480202Y2610575D01*
X5478533Y2612244D01*
X5521254Y2609741D02*
X5514579Y2627263D01*
X5507903Y2609741D01*
X5510407Y2615581D02*
X5518751D01*
X5525342Y2627263D02*
Y2609741D01*
Y2627263D02*
X5532852D01*
X5535355Y2626429D01*
X5536190Y2625594D01*
X5537024Y2623925D01*
Y2622257D01*
X5536190Y2620588D01*
X5535355Y2619753D01*
X5532852Y2618919D01*
X5525342D01*
X5531183D02*
X5537024Y2609741D01*
X5551793Y2627263D02*
X5540945D01*
Y2609741D01*
X5551793D01*
X5540945Y2618919D02*
X5547621D01*
X5579327Y2627263D02*
X5568480D01*
Y2609741D01*
X5579327D01*
X5568480Y2618919D02*
X5575156D01*
X5582248Y2627263D02*
Y2609741D01*
Y2627263D02*
X5588923Y2609741D01*
X5595598Y2627263D02*
X5588923Y2609741D01*
X5595598Y2627263D02*
Y2609741D01*
X5600605Y2627263D02*
Y2609741D01*
Y2627263D02*
X5608114D01*
X5610618Y2626429D01*
X5611451Y2625594D01*
X5612286Y2623925D01*
Y2622257D01*
X5611451Y2620588D01*
X5610618Y2619753D01*
X5608114Y2618919D01*
X5600605D02*
X5608114D01*
X5610618Y2618085D01*
X5611451Y2617250D01*
X5612286Y2615581D01*
Y2613078D01*
X5611451Y2611410D01*
X5610618Y2610575D01*
X5608114Y2609741D01*
X5600605D01*
X5627055Y2627263D02*
X5616208D01*
Y2609741D01*
X5627055D01*
X5616208Y2618919D02*
X5622883D01*
X5629976Y2627263D02*
Y2609741D01*
Y2627263D02*
X5635816D01*
X5638319Y2626429D01*
X5639988Y2624760D01*
X5640822Y2623091D01*
X5641657Y2620588D01*
Y2616416D01*
X5640822Y2613913D01*
X5639988Y2612244D01*
X5638319Y2610575D01*
X5635816Y2609741D01*
X5629976D01*
X5645579Y2627263D02*
Y2609741D01*
Y2627263D02*
X5651419D01*
X5653922Y2626429D01*
X5655591Y2624760D01*
X5656426Y2623091D01*
X5657260Y2620588D01*
Y2616416D01*
X5656426Y2613913D01*
X5655591Y2612244D01*
X5653922Y2610575D01*
X5651419Y2609741D01*
X5645579D01*
X5672029Y2627263D02*
X5661182D01*
Y2609741D01*
X5672029D01*
X5661182Y2618919D02*
X5667856D01*
X5674949Y2627263D02*
Y2609741D01*
Y2627263D02*
X5680790D01*
X5683293Y2626429D01*
X5684962Y2624760D01*
X5685796Y2623091D01*
X5686630Y2620588D01*
Y2616416D01*
X5685796Y2613913D01*
X5684962Y2612244D01*
X5683293Y2610575D01*
X5680790Y2609741D01*
X5674949D01*
X5501915Y711981D02*
Y712816D01*
X5502750Y714484D01*
X5503584Y715319D01*
X5505253Y716153D01*
X5508590D01*
X5510259Y715319D01*
X5511093Y714484D01*
X5511927Y712816D01*
Y711147D01*
X5511093Y709478D01*
X5509424Y706975D01*
X5501080Y698631D01*
X5512762D01*
X5542133Y713650D02*
X5540464Y715319D01*
X5537961Y716153D01*
X5534623D01*
X5532120Y715319D01*
X5530451Y713650D01*
Y711981D01*
X5531285Y710312D01*
X5532120Y709478D01*
X5533789Y708644D01*
X5538795Y706975D01*
X5540464Y706141D01*
X5541298Y705306D01*
X5542133Y703637D01*
Y701134D01*
X5540464Y699465D01*
X5537961Y698631D01*
X5534623D01*
X5532120Y699465D01*
X5530451Y701134D01*
X5546055Y716153D02*
Y698631D01*
X5549726Y716153D02*
Y698631D01*
Y716153D02*
X5555566D01*
X5558069Y715319D01*
X5559738Y713650D01*
X5560573Y711981D01*
X5561407Y709478D01*
Y705306D01*
X5560573Y702803D01*
X5559738Y701134D01*
X5558069Y699465D01*
X5555566Y698631D01*
X5549726D01*
X5576176Y716153D02*
X5565329D01*
Y698631D01*
X5576176D01*
X5565329Y707809D02*
X5572004D01*
X5590778Y713650D02*
X5589109Y715319D01*
X5586606Y716153D01*
X5583268D01*
X5580765Y715319D01*
X5579096Y713650D01*
Y711981D01*
X5579930Y710312D01*
X5580765Y709478D01*
X5582434Y708644D01*
X5587440Y706975D01*
X5589109Y706141D01*
X5589943Y705306D01*
X5590778Y703637D01*
Y701134D01*
X5589109Y699465D01*
X5586606Y698631D01*
X5583268D01*
X5580765Y699465D01*
X5579096Y701134D01*
X5076212Y2462657D02*
Y2445135D01*
X5079884Y2462657D02*
Y2445135D01*
Y2462657D02*
X5091565Y2445135D01*
Y2462657D02*
Y2445135D01*
X5123522D02*
X5116848Y2462657D01*
X5110172Y2445135D01*
X5112675Y2450976D02*
X5121019D01*
X5127611Y2442632D02*
X5139293Y2462657D01*
X5140461D02*
X5144633Y2445135D01*
X5148805Y2462657D02*
X5144633Y2445135D01*
X5148805Y2462657D02*
X5152977Y2445135D01*
X5157148Y2462657D02*
X5152977Y2445135D01*
X5187771D02*
X5181096Y2462657D01*
X5174421Y2445135D01*
X5176924Y2450976D02*
X5185268D01*
X5191859Y2462657D02*
Y2445135D01*
Y2462657D02*
X5203541Y2445135D01*
Y2462657D02*
Y2445135D01*
X5220062Y2460154D02*
X5218393Y2461823D01*
X5215890Y2462657D01*
X5212552D01*
X5210049Y2461823D01*
X5208380Y2460154D01*
Y2458485D01*
X5209214Y2456817D01*
X5210049Y2455982D01*
X5211718Y2455148D01*
X5216724Y2453479D01*
X5218393Y2452645D01*
X5219227Y2451810D01*
X5220062Y2450141D01*
Y2447638D01*
X5218393Y2445970D01*
X5215890Y2445135D01*
X5212552D01*
X5210049Y2445970D01*
X5208380Y2447638D01*
X5223984Y2462657D02*
Y2445135D01*
X5241422Y2462657D02*
Y2445135D01*
X5245093Y2453479D02*
X5252603D01*
X5255106Y2454313D01*
X5255941Y2455148D01*
X5256775Y2456817D01*
Y2459320D01*
X5255941Y2460988D01*
X5255106Y2461823D01*
X5252603Y2462657D01*
X5245093D01*
Y2445135D01*
X5273213Y2458485D02*
X5272378Y2460154D01*
X5270709Y2461823D01*
X5269041Y2462657D01*
X5265703D01*
X5264034Y2461823D01*
X5262366Y2460154D01*
X5261531Y2458485D01*
X5260696Y2455982D01*
Y2451810D01*
X5261531Y2449307D01*
X5262366Y2447638D01*
X5264034Y2445970D01*
X5265703Y2445135D01*
X5269041D01*
X5270709Y2445970D01*
X5272378Y2447638D01*
X5273213Y2449307D01*
X5278135Y2452645D02*
X5293154D01*
X5308340Y2460154D02*
X5307506Y2461823D01*
X5305003Y2462657D01*
X5303334D01*
X5300831Y2461823D01*
X5299162Y2459320D01*
X5298328Y2455148D01*
Y2450976D01*
X5299162Y2447638D01*
X5300831Y2445970D01*
X5303334Y2445135D01*
X5304169D01*
X5306672Y2445970D01*
X5308340Y2447638D01*
X5309175Y2450141D01*
Y2450976D01*
X5308340Y2453479D01*
X5306672Y2455148D01*
X5304169Y2455982D01*
X5303334D01*
X5300831Y2455148D01*
X5299162Y2453479D01*
X5298328Y2450976D01*
X5318019Y2462657D02*
X5315516Y2461823D01*
X5313848Y2459320D01*
X5313013Y2455148D01*
Y2452645D01*
X5313848Y2448473D01*
X5315516Y2445970D01*
X5318019Y2445135D01*
X5319688D01*
X5322192Y2445970D01*
X5323860Y2448473D01*
X5324695Y2452645D01*
Y2455148D01*
X5323860Y2459320D01*
X5322192Y2461823D01*
X5319688Y2462657D01*
X5318019D01*
X5328616Y2459320D02*
X5330285Y2460154D01*
X5332788Y2462657D01*
Y2445135D01*
X5342300Y2458485D02*
Y2459320D01*
X5343135Y2460988D01*
X5343969Y2461823D01*
X5345638Y2462657D01*
X5348975D01*
X5350645Y2461823D01*
X5351479Y2460988D01*
X5352313Y2459320D01*
Y2457651D01*
X5351479Y2455982D01*
X5349810Y2453479D01*
X5341466Y2445135D01*
X5353148D01*
X5376677Y2462657D02*
Y2445135D01*
X5370837Y2462657D02*
X5382518D01*
X5384604D02*
X5391279Y2454313D01*
Y2445135D01*
X5397954Y2462657D02*
X5391279Y2454313D01*
X5400207Y2453479D02*
X5407717D01*
X5410220Y2454313D01*
X5411054Y2455148D01*
X5411888Y2456817D01*
Y2459320D01*
X5411054Y2460988D01*
X5410220Y2461823D01*
X5407717Y2462657D01*
X5400207D01*
Y2445135D01*
X5426658Y2462657D02*
X5415811D01*
Y2445135D01*
X5426658D01*
X5415811Y2454313D02*
X5422485D01*
X5444180Y2458485D02*
Y2459320D01*
X5445014Y2460988D01*
X5445848Y2461823D01*
X5447517Y2462657D01*
X5450855D01*
X5452524Y2461823D01*
X5453358Y2460988D01*
X5454193Y2459320D01*
Y2457651D01*
X5453358Y2455982D01*
X5451689Y2453479D01*
X5443345Y2445135D01*
X5455027D01*
X5485232Y2458485D02*
X5484398Y2460154D01*
X5482729Y2461823D01*
X5481060Y2462657D01*
X5477722D01*
X5476053Y2461823D01*
X5474385Y2460154D01*
X5473550Y2458485D01*
X5472716Y2455982D01*
Y2451810D01*
X5473550Y2449307D01*
X5474385Y2447638D01*
X5476053Y2445970D01*
X5477722Y2445135D01*
X5481060D01*
X5482729Y2445970D01*
X5484398Y2447638D01*
X5485232Y2449307D01*
X5490155Y2462657D02*
Y2445135D01*
X5500167D01*
X5515437D02*
X5508762Y2462657D01*
X5502087Y2445135D01*
X5504590Y2450976D02*
X5512934D01*
X5531207Y2460154D02*
X5529538Y2461823D01*
X5527035Y2462657D01*
X5523698D01*
X5521194Y2461823D01*
X5519525Y2460154D01*
Y2458485D01*
X5520359Y2456817D01*
X5521194Y2455982D01*
X5522863Y2455148D01*
X5527869Y2453479D01*
X5529538Y2452645D01*
X5530372Y2451810D01*
X5531207Y2450141D01*
Y2447638D01*
X5529538Y2445970D01*
X5527035Y2445135D01*
X5523698D01*
X5521194Y2445970D01*
X5519525Y2447638D01*
X5546810Y2460154D02*
X5545142Y2461823D01*
X5542638Y2462657D01*
X5539301D01*
X5536797Y2461823D01*
X5535129Y2460154D01*
Y2458485D01*
X5535963Y2456817D01*
X5536797Y2455982D01*
X5538466Y2455148D01*
X5543472Y2453479D01*
X5545142Y2452645D01*
X5545975Y2451810D01*
X5546810Y2450141D01*
Y2447638D01*
X5545142Y2445970D01*
X5542638Y2445135D01*
X5539301D01*
X5536797Y2445970D01*
X5535129Y2447638D01*
X5565334Y2458485D02*
Y2459320D01*
X5566168Y2460988D01*
X5567003Y2461823D01*
X5568671Y2462657D01*
X5572009D01*
X5573677Y2461823D01*
X5574512Y2460988D01*
X5575346Y2459320D01*
Y2457651D01*
X5574512Y2455982D01*
X5572843Y2453479D01*
X5564499Y2445135D01*
X5576180D01*
X5451869Y713833D02*
X5463550Y696311D01*
Y713833D02*
X5451869Y696311D01*
X5076212Y2417699D02*
Y2400177D01*
X5079884Y2417699D02*
Y2400177D01*
Y2417699D02*
X5091565Y2400177D01*
Y2417699D02*
Y2400177D01*
X5123522D02*
X5116848Y2417699D01*
X5110172Y2400177D01*
X5112675Y2406018D02*
X5121019D01*
X5127611Y2397674D02*
X5139293Y2417699D01*
X5140461D02*
X5144633Y2400177D01*
X5148805Y2417699D02*
X5144633Y2400177D01*
X5148805Y2417699D02*
X5152977Y2400177D01*
X5157148Y2417699D02*
X5152977Y2400177D01*
X5187771D02*
X5181096Y2417699D01*
X5174421Y2400177D01*
X5176924Y2406018D02*
X5185268D01*
X5191859Y2417699D02*
Y2400177D01*
Y2417699D02*
X5203541Y2400177D01*
Y2417699D02*
Y2400177D01*
X5220062Y2415196D02*
X5218393Y2416865D01*
X5215890Y2417699D01*
X5212552D01*
X5210049Y2416865D01*
X5208380Y2415196D01*
Y2413527D01*
X5209214Y2411859D01*
X5210049Y2411024D01*
X5211718Y2410190D01*
X5216724Y2408521D01*
X5218393Y2407687D01*
X5219227Y2406852D01*
X5220062Y2405183D01*
Y2402680D01*
X5218393Y2401012D01*
X5215890Y2400177D01*
X5212552D01*
X5210049Y2401012D01*
X5208380Y2402680D01*
X5223984Y2417699D02*
Y2400177D01*
X5241422Y2417699D02*
Y2400177D01*
X5245093Y2408521D02*
X5252603D01*
X5255106Y2409355D01*
X5255941Y2410190D01*
X5256775Y2411859D01*
Y2414362D01*
X5255941Y2416030D01*
X5255106Y2416865D01*
X5252603Y2417699D01*
X5245093D01*
Y2400177D01*
X5273213Y2413527D02*
X5272378Y2415196D01*
X5270709Y2416865D01*
X5269041Y2417699D01*
X5265703D01*
X5264034Y2416865D01*
X5262366Y2415196D01*
X5261531Y2413527D01*
X5260696Y2411024D01*
Y2406852D01*
X5261531Y2404349D01*
X5262366Y2402680D01*
X5264034Y2401012D01*
X5265703Y2400177D01*
X5269041D01*
X5270709Y2401012D01*
X5272378Y2402680D01*
X5273213Y2404349D01*
X5278135Y2407687D02*
X5293154D01*
X5308340Y2415196D02*
X5307506Y2416865D01*
X5305003Y2417699D01*
X5303334D01*
X5300831Y2416865D01*
X5299162Y2414362D01*
X5298328Y2410190D01*
Y2406018D01*
X5299162Y2402680D01*
X5300831Y2401012D01*
X5303334Y2400177D01*
X5304169D01*
X5306672Y2401012D01*
X5308340Y2402680D01*
X5309175Y2405183D01*
Y2406018D01*
X5308340Y2408521D01*
X5306672Y2410190D01*
X5304169Y2411024D01*
X5303334D01*
X5300831Y2410190D01*
X5299162Y2408521D01*
X5298328Y2406018D01*
X5318019Y2417699D02*
X5315516Y2416865D01*
X5313848Y2414362D01*
X5313013Y2410190D01*
Y2407687D01*
X5313848Y2403515D01*
X5315516Y2401012D01*
X5318019Y2400177D01*
X5319688D01*
X5322192Y2401012D01*
X5323860Y2403515D01*
X5324695Y2407687D01*
Y2410190D01*
X5323860Y2414362D01*
X5322192Y2416865D01*
X5319688Y2417699D01*
X5318019D01*
X5328616Y2414362D02*
X5330285Y2415196D01*
X5332788Y2417699D01*
Y2400177D01*
X5342300Y2413527D02*
Y2414362D01*
X5343135Y2416030D01*
X5343969Y2416865D01*
X5345638Y2417699D01*
X5348975D01*
X5350645Y2416865D01*
X5351479Y2416030D01*
X5352313Y2414362D01*
Y2412693D01*
X5351479Y2411024D01*
X5349810Y2408521D01*
X5341466Y2400177D01*
X5353148D01*
X5376677Y2417699D02*
Y2400177D01*
X5370837Y2417699D02*
X5382518D01*
X5384604D02*
X5391279Y2409355D01*
Y2400177D01*
X5397954Y2417699D02*
X5391279Y2409355D01*
X5400207Y2408521D02*
X5407717D01*
X5410220Y2409355D01*
X5411054Y2410190D01*
X5411888Y2411859D01*
Y2414362D01*
X5411054Y2416030D01*
X5410220Y2416865D01*
X5407717Y2417699D01*
X5400207D01*
Y2400177D01*
X5426658Y2417699D02*
X5415811D01*
Y2400177D01*
X5426658D01*
X5415811Y2409355D02*
X5422485D01*
X5444180Y2413527D02*
Y2414362D01*
X5445014Y2416030D01*
X5445848Y2416865D01*
X5447517Y2417699D01*
X5450855D01*
X5452524Y2416865D01*
X5453358Y2416030D01*
X5454193Y2414362D01*
Y2412693D01*
X5453358Y2411024D01*
X5451689Y2408521D01*
X5443345Y2400177D01*
X5455027D01*
X5485232Y2413527D02*
X5484398Y2415196D01*
X5482729Y2416865D01*
X5481060Y2417699D01*
X5477722D01*
X5476053Y2416865D01*
X5474385Y2415196D01*
X5473550Y2413527D01*
X5472716Y2411024D01*
Y2406852D01*
X5473550Y2404349D01*
X5474385Y2402680D01*
X5476053Y2401012D01*
X5477722Y2400177D01*
X5481060D01*
X5482729Y2401012D01*
X5484398Y2402680D01*
X5485232Y2404349D01*
X5490155Y2417699D02*
Y2400177D01*
X5500167D01*
X5515437D02*
X5508762Y2417699D01*
X5502087Y2400177D01*
X5504590Y2406018D02*
X5512934D01*
X5531207Y2415196D02*
X5529538Y2416865D01*
X5527035Y2417699D01*
X5523698D01*
X5521194Y2416865D01*
X5519525Y2415196D01*
Y2413527D01*
X5520359Y2411859D01*
X5521194Y2411024D01*
X5522863Y2410190D01*
X5527869Y2408521D01*
X5529538Y2407687D01*
X5530372Y2406852D01*
X5531207Y2405183D01*
Y2402680D01*
X5529538Y2401012D01*
X5527035Y2400177D01*
X5523698D01*
X5521194Y2401012D01*
X5519525Y2402680D01*
X5546810Y2415196D02*
X5545142Y2416865D01*
X5542638Y2417699D01*
X5539301D01*
X5536797Y2416865D01*
X5535129Y2415196D01*
Y2413527D01*
X5535963Y2411859D01*
X5536797Y2411024D01*
X5538466Y2410190D01*
X5543472Y2408521D01*
X5545142Y2407687D01*
X5545975Y2406852D01*
X5546810Y2405183D01*
Y2402680D01*
X5545142Y2401012D01*
X5542638Y2400177D01*
X5539301D01*
X5536797Y2401012D01*
X5535129Y2402680D01*
X5565334Y2413527D02*
Y2414362D01*
X5566168Y2416030D01*
X5567003Y2416865D01*
X5568671Y2417699D01*
X5572009D01*
X5573677Y2416865D01*
X5574512Y2416030D01*
X5575346Y2414362D01*
Y2412693D01*
X5574512Y2411024D01*
X5572843Y2408521D01*
X5564499Y2400177D01*
X5576180D01*
X5076086Y1061847D02*
Y1044325D01*
X5079758Y1061847D02*
Y1044325D01*
Y1061847D02*
X5091439Y1044325D01*
Y1061847D02*
Y1044325D01*
X5123397D02*
X5116721Y1061847D01*
X5110046Y1044325D01*
X5112549Y1050166D02*
X5120894D01*
X5127485Y1041822D02*
X5139167Y1061847D01*
X5140335D02*
X5144507Y1044325D01*
X5148679Y1061847D02*
X5144507Y1044325D01*
X5148679Y1061847D02*
X5152851Y1044325D01*
X5157023Y1061847D02*
X5152851Y1044325D01*
X5187645D02*
X5180970Y1061847D01*
X5174294Y1044325D01*
X5176797Y1050166D02*
X5185142D01*
X5191733Y1061847D02*
Y1044325D01*
Y1061847D02*
X5203415Y1044325D01*
Y1061847D02*
Y1044325D01*
X5219936Y1059344D02*
X5218267Y1061013D01*
X5215764Y1061847D01*
X5212426D01*
X5209923Y1061013D01*
X5208254Y1059344D01*
Y1057675D01*
X5209089Y1056006D01*
X5209923Y1055172D01*
X5211592Y1054338D01*
X5216599Y1052669D01*
X5218267Y1051835D01*
X5219102Y1051000D01*
X5219936Y1049331D01*
Y1046828D01*
X5218267Y1045159D01*
X5215764Y1044325D01*
X5212426D01*
X5209923Y1045159D01*
X5208254Y1046828D01*
X5223857Y1061847D02*
Y1044325D01*
X5241296Y1061847D02*
Y1044325D01*
X5244968Y1052669D02*
X5252477D01*
X5254980Y1053503D01*
X5255815Y1054338D01*
X5256649Y1056006D01*
Y1058510D01*
X5255815Y1060179D01*
X5254980Y1061013D01*
X5252477Y1061847D01*
X5244968D01*
Y1044325D01*
X5273087Y1057675D02*
X5272252Y1059344D01*
X5270583Y1061013D01*
X5268915Y1061847D01*
X5265577D01*
X5263908Y1061013D01*
X5262239Y1059344D01*
X5261405Y1057675D01*
X5260571Y1055172D01*
Y1051000D01*
X5261405Y1048497D01*
X5262239Y1046828D01*
X5263908Y1045159D01*
X5265577Y1044325D01*
X5268915D01*
X5270583Y1045159D01*
X5272252Y1046828D01*
X5273087Y1048497D01*
X5278010Y1051835D02*
X5293029D01*
X5311552Y1044325D02*
X5304877Y1061847D01*
X5298202Y1044325D01*
X5300705Y1050166D02*
X5309049D01*
X5315641Y1051835D02*
X5330660D01*
X5345846Y1059344D02*
X5345012Y1061013D01*
X5342508Y1061847D01*
X5340839D01*
X5338336Y1061013D01*
X5336667Y1058510D01*
X5335833Y1054338D01*
Y1050166D01*
X5336667Y1046828D01*
X5338336Y1045159D01*
X5340839Y1044325D01*
X5341674D01*
X5344177Y1045159D01*
X5345846Y1046828D01*
X5346680Y1049331D01*
Y1050166D01*
X5345846Y1052669D01*
X5344177Y1054338D01*
X5341674Y1055172D01*
X5340839D01*
X5338336Y1054338D01*
X5336667Y1052669D01*
X5335833Y1050166D01*
X5355525Y1061847D02*
X5353021Y1061013D01*
X5351353Y1058510D01*
X5350518Y1054338D01*
Y1051835D01*
X5351353Y1047663D01*
X5353021Y1045159D01*
X5355525Y1044325D01*
X5357194D01*
X5359697Y1045159D01*
X5361365Y1047663D01*
X5362200Y1051835D01*
Y1054338D01*
X5361365Y1058510D01*
X5359697Y1061013D01*
X5357194Y1061847D01*
X5355525D01*
X5371128D02*
X5368625Y1061013D01*
X5366956Y1058510D01*
X5366121Y1054338D01*
Y1051835D01*
X5366956Y1047663D01*
X5368625Y1045159D01*
X5371128Y1044325D01*
X5372797D01*
X5375300Y1045159D01*
X5376968Y1047663D01*
X5377803Y1051835D01*
Y1054338D01*
X5376968Y1058510D01*
X5375300Y1061013D01*
X5372797Y1061847D01*
X5371128D01*
X5381725D02*
Y1044325D01*
Y1061847D02*
X5392571D01*
X5381725Y1053503D02*
X5388400D01*
X5382935Y2327149D02*
X5392114D01*
X5387108Y2320474D01*
X5389611D01*
X5391279Y2319640D01*
X5392114Y2318805D01*
X5392948Y2316302D01*
Y2314633D01*
X5392114Y2312130D01*
X5390445Y2310461D01*
X5387942Y2309627D01*
X5385438D01*
X5382935Y2310461D01*
X5382101Y2311296D01*
X5381266Y2312964D01*
X5406882Y2327149D02*
X5398538D01*
X5397704Y2319640D01*
X5398538Y2320474D01*
X5401042Y2321308D01*
X5403545D01*
X5406048Y2320474D01*
X5407717Y2318805D01*
X5408551Y2316302D01*
Y2314633D01*
X5407717Y2312130D01*
X5406048Y2310461D01*
X5403545Y2309627D01*
X5401042D01*
X5398538Y2310461D01*
X5397704Y2311296D01*
X5396870Y2312964D01*
X5412473Y2321308D02*
Y2312964D01*
X5413307Y2310461D01*
X5414976Y2309627D01*
X5417479D01*
X5419148Y2310461D01*
X5421651Y2312964D01*
Y2321308D02*
Y2309627D01*
X5426240Y2321308D02*
Y2309627D01*
Y2317971D02*
X5428743Y2320474D01*
X5430413Y2321308D01*
X5432916D01*
X5434584Y2320474D01*
X5435419Y2317971D01*
Y2309627D01*
Y2317971D02*
X5437922Y2320474D01*
X5439590Y2321308D01*
X5442094D01*
X5443762Y2320474D01*
X5444597Y2317971D01*
Y2309627D01*
X5469712Y2330487D02*
X5468043Y2328818D01*
X5466375Y2326315D01*
X5464706Y2322977D01*
X5463871Y2318805D01*
Y2315468D01*
X5464706Y2311296D01*
X5466375Y2307958D01*
X5468043Y2305455D01*
X5469712Y2303786D01*
X5468043Y2328818D02*
X5466375Y2325480D01*
X5465540Y2322977D01*
X5464706Y2318805D01*
Y2315468D01*
X5465540Y2311296D01*
X5466375Y2308793D01*
X5468043Y2305455D01*
X5473050Y2323812D02*
X5474719Y2324646D01*
X5477222Y2327149D01*
Y2309627D01*
X5490071Y2321308D02*
X5488403Y2320474D01*
X5486734Y2318805D01*
X5485900Y2316302D01*
Y2314633D01*
X5486734Y2312130D01*
X5488403Y2310461D01*
X5490071Y2309627D01*
X5492574D01*
X5494243Y2310461D01*
X5495912Y2312130D01*
X5496746Y2314633D01*
Y2316302D01*
X5495912Y2318805D01*
X5494243Y2320474D01*
X5492574Y2321308D01*
X5490071D01*
X5509763D02*
X5500585Y2309627D01*
Y2321308D02*
X5509763D01*
X5500585Y2309627D02*
X5509763D01*
X5513434Y2330487D02*
X5515103Y2328818D01*
X5516772Y2326315D01*
X5518441Y2322977D01*
X5519275Y2318805D01*
Y2315468D01*
X5518441Y2311296D01*
X5516772Y2307958D01*
X5515103Y2305455D01*
X5513434Y2303786D01*
X5515103Y2328818D02*
X5516772Y2325480D01*
X5517606Y2322977D01*
X5518441Y2318805D01*
Y2315468D01*
X5517606Y2311296D01*
X5516772Y2308793D01*
X5515103Y2305455D01*
X5482985Y1886551D02*
X5494667Y1869029D01*
Y1886551D02*
X5482985Y1869029D01*
X5544605Y1869191D02*
X5537930Y1886713D01*
X5531254Y1869191D01*
X5533758Y1875032D02*
X5542101D01*
X5560375Y1884210D02*
X5558706Y1885879D01*
X5556203Y1886713D01*
X5552866D01*
X5550362Y1885879D01*
X5548693Y1884210D01*
Y1882541D01*
X5549528Y1880872D01*
X5550362Y1880038D01*
X5552031Y1879203D01*
X5557037Y1877535D01*
X5558706Y1876700D01*
X5559540Y1875866D01*
X5560375Y1874197D01*
Y1871694D01*
X5558706Y1870025D01*
X5556203Y1869191D01*
X5552866D01*
X5550362Y1870025D01*
X5548693Y1871694D01*
X5589745Y1884210D02*
X5588077Y1885879D01*
X5585574Y1886713D01*
X5582236D01*
X5579733Y1885879D01*
X5578064Y1884210D01*
Y1882541D01*
X5578898Y1880872D01*
X5579733Y1880038D01*
X5581401Y1879203D01*
X5586408Y1877535D01*
X5588077Y1876700D01*
X5588911Y1875866D01*
X5589745Y1874197D01*
Y1871694D01*
X5588077Y1870025D01*
X5585574Y1869191D01*
X5582236D01*
X5579733Y1870025D01*
X5578064Y1871694D01*
X5593667Y1886713D02*
Y1869191D01*
X5605349Y1886713D02*
Y1869191D01*
X5593667Y1878369D02*
X5605349D01*
X5615195Y1886713D02*
X5613526Y1885879D01*
X5611857Y1884210D01*
X5611022Y1882541D01*
X5610188Y1880038D01*
Y1875866D01*
X5611022Y1873363D01*
X5611857Y1871694D01*
X5613526Y1870025D01*
X5615195Y1869191D01*
X5618532D01*
X5620201Y1870025D01*
X5621870Y1871694D01*
X5622704Y1873363D01*
X5623538Y1875866D01*
Y1880038D01*
X5622704Y1882541D01*
X5621870Y1884210D01*
X5620201Y1885879D01*
X5618532Y1886713D01*
X5615195D01*
X5627627D02*
X5631799Y1869191D01*
X5635971Y1886713D02*
X5631799Y1869191D01*
X5635971Y1886713D02*
X5640143Y1869191D01*
X5644315Y1886713D02*
X5640143Y1869191D01*
X5647819Y1886713D02*
Y1869191D01*
Y1886713D02*
X5659501Y1869191D01*
Y1886713D02*
Y1869191D01*
X5273053Y1181447D02*
X5284734Y1163925D01*
Y1181447D02*
X5273053Y1163925D01*
X5321323Y1181609D02*
Y1164087D01*
Y1181609D02*
X5333004Y1164087D01*
Y1181609D02*
Y1164087D01*
X5338678Y1165756D02*
X5337844Y1164921D01*
X5338678Y1164087D01*
X5339512Y1164921D01*
X5338678Y1165756D01*
X5355867Y1177437D02*
X5355032Y1179106D01*
X5353363Y1180775D01*
X5351694Y1181609D01*
X5348357D01*
X5346688Y1180775D01*
X5345020Y1179106D01*
X5344185Y1177437D01*
X5343350Y1174934D01*
Y1170762D01*
X5344185Y1168259D01*
X5345020Y1166590D01*
X5346688Y1164921D01*
X5348357Y1164087D01*
X5351694D01*
X5353363Y1164921D01*
X5355032Y1166590D01*
X5355867Y1168259D01*
X5361624Y1165756D02*
X5360789Y1164921D01*
X5361624Y1164087D01*
X5362458Y1164921D01*
X5361624Y1165756D01*
X5380064Y1181609D02*
Y1164087D01*
Y1181609D02*
X5387573D01*
X5390076Y1180775D01*
X5390911Y1179940D01*
X5391745Y1178271D01*
Y1176603D01*
X5390911Y1174934D01*
X5390076Y1174100D01*
X5387573Y1173265D01*
X5380064D01*
X5385905D02*
X5391745Y1164087D01*
X5400673Y1181609D02*
X5399005Y1180775D01*
X5397336Y1179106D01*
X5396501Y1177437D01*
X5395667Y1174934D01*
Y1170762D01*
X5396501Y1168259D01*
X5397336Y1166590D01*
X5399005Y1164921D01*
X5400673Y1164087D01*
X5404011D01*
X5405679Y1164921D01*
X5407349Y1166590D01*
X5408183Y1168259D01*
X5409017Y1170762D01*
Y1174934D01*
X5408183Y1177437D01*
X5407349Y1179106D01*
X5405679Y1180775D01*
X5404011Y1181609D01*
X5400673D01*
X5413105D02*
Y1169093D01*
X5413940Y1166590D01*
X5415609Y1164921D01*
X5418112Y1164087D01*
X5419781D01*
X5422284Y1164921D01*
X5423953Y1166590D01*
X5424787Y1169093D01*
Y1181609D01*
X5435468D02*
Y1164087D01*
X5429626Y1181609D02*
X5441308D01*
X5454241D02*
X5443394D01*
Y1164087D01*
X5454241D01*
X5443394Y1173265D02*
X5450070D01*
X5664619Y3673571D02*
X5657944Y3691093D01*
X5651268Y3673571D01*
X5653772Y3679412D02*
X5662115D01*
X5680389Y3688590D02*
X5678720Y3690259D01*
X5676217Y3691093D01*
X5672879D01*
X5670376Y3690259D01*
X5668707Y3688590D01*
Y3686921D01*
X5669542Y3685253D01*
X5670376Y3684418D01*
X5672045Y3683584D01*
X5677051Y3681915D01*
X5678720Y3681081D01*
X5679554Y3680246D01*
X5680389Y3678578D01*
Y3676074D01*
X5678720Y3674406D01*
X5676217Y3673571D01*
X5672879D01*
X5670376Y3674406D01*
X5668707Y3676074D01*
X5709760Y3688590D02*
X5708091Y3690259D01*
X5705588Y3691093D01*
X5702250D01*
X5699747Y3690259D01*
X5698078Y3688590D01*
Y3686921D01*
X5698912Y3685253D01*
X5699747Y3684418D01*
X5701415Y3683584D01*
X5706422Y3681915D01*
X5708091Y3681081D01*
X5708925Y3680246D01*
X5709760Y3678578D01*
Y3676074D01*
X5708091Y3674406D01*
X5705588Y3673571D01*
X5702250D01*
X5699747Y3674406D01*
X5698078Y3676074D01*
X5713681Y3691093D02*
Y3673571D01*
X5725363Y3691093D02*
Y3673571D01*
X5713681Y3682749D02*
X5725363D01*
X5735208Y3691093D02*
X5733539Y3690259D01*
X5731871Y3688590D01*
X5731036Y3686921D01*
X5730202Y3684418D01*
Y3680246D01*
X5731036Y3677743D01*
X5731871Y3676074D01*
X5733539Y3674406D01*
X5735208Y3673571D01*
X5738546D01*
X5740215Y3674406D01*
X5741884Y3676074D01*
X5742718Y3677743D01*
X5743552Y3680246D01*
Y3684418D01*
X5742718Y3686921D01*
X5741884Y3688590D01*
X5740215Y3690259D01*
X5738546Y3691093D01*
X5735208D01*
X5747641D02*
X5751813Y3673571D01*
X5755984Y3691093D02*
X5751813Y3673571D01*
X5755984Y3691093D02*
X5760157Y3673571D01*
X5764329Y3691093D02*
X5760157Y3673571D01*
X5767833Y3691093D02*
Y3673571D01*
Y3691093D02*
X5779515Y3673571D01*
Y3691093D02*
Y3673571D01*
X5242073Y3786089D02*
Y3768567D01*
X5236232Y3786089D02*
X5247914D01*
X5260847D02*
X5250000D01*
Y3768567D01*
X5260847D01*
X5250000Y3777745D02*
X5256675D01*
X5263768Y3786089D02*
Y3768567D01*
Y3786089D02*
X5275449Y3768567D01*
Y3786089D02*
Y3768567D01*
X5286129Y3786089D02*
Y3768567D01*
X5280289Y3786089D02*
X5291970D01*
X5304903D02*
X5294056D01*
Y3768567D01*
X5304903D01*
X5294056Y3777745D02*
X5300731D01*
X5307823Y3786089D02*
Y3768567D01*
Y3786089D02*
X5313664D01*
X5316168Y3785255D01*
X5317836Y3783586D01*
X5318671Y3781917D01*
X5319505Y3779414D01*
Y3775242D01*
X5318671Y3772739D01*
X5317836Y3771070D01*
X5316168Y3769402D01*
X5313664Y3768567D01*
X5307823D01*
X4945947Y3785201D02*
X4957628Y3767679D01*
Y3785201D02*
X4945947Y3767679D01*
X5616979Y2142617D02*
X5628660Y2125095D01*
Y2142617D02*
X5616979Y2125095D01*
X5679605Y2125349D02*
X5672930Y2142871D01*
X5666254Y2125349D01*
X5668758Y2131190D02*
X5677101D01*
X5695375Y2140368D02*
X5693706Y2142037D01*
X5691203Y2142871D01*
X5687866D01*
X5685362Y2142037D01*
X5683693Y2140368D01*
Y2138699D01*
X5684528Y2137031D01*
X5685362Y2136196D01*
X5687031Y2135362D01*
X5692037Y2133693D01*
X5693706Y2132859D01*
X5694540Y2132024D01*
X5695375Y2130356D01*
Y2127852D01*
X5693706Y2126184D01*
X5691203Y2125349D01*
X5687866D01*
X5685362Y2126184D01*
X5683693Y2127852D01*
X5724745Y2140368D02*
X5723077Y2142037D01*
X5720574Y2142871D01*
X5717236D01*
X5714733Y2142037D01*
X5713064Y2140368D01*
Y2138699D01*
X5713898Y2137031D01*
X5714733Y2136196D01*
X5716401Y2135362D01*
X5721408Y2133693D01*
X5723077Y2132859D01*
X5723911Y2132024D01*
X5724745Y2130356D01*
Y2127852D01*
X5723077Y2126184D01*
X5720574Y2125349D01*
X5717236D01*
X5714733Y2126184D01*
X5713064Y2127852D01*
X5728667Y2142871D02*
Y2125349D01*
X5740349Y2142871D02*
Y2125349D01*
X5728667Y2134527D02*
X5740349D01*
X5750195Y2142871D02*
X5748525Y2142037D01*
X5746857Y2140368D01*
X5746022Y2138699D01*
X5745188Y2136196D01*
Y2132024D01*
X5746022Y2129521D01*
X5746857Y2127852D01*
X5748525Y2126184D01*
X5750195Y2125349D01*
X5753532D01*
X5755201Y2126184D01*
X5756870Y2127852D01*
X5757704Y2129521D01*
X5758538Y2132024D01*
Y2136196D01*
X5757704Y2138699D01*
X5756870Y2140368D01*
X5755201Y2142037D01*
X5753532Y2142871D01*
X5750195D01*
X5762627D02*
X5766799Y2125349D01*
X5770971Y2142871D02*
X5766799Y2125349D01*
X5770971Y2142871D02*
X5775143Y2125349D01*
X5779315Y2142871D02*
X5775143Y2125349D01*
X5782819Y2142871D02*
Y2125349D01*
Y2142871D02*
X5794501Y2125349D01*
Y2142871D02*
Y2125349D01*
X5341389Y3641563D02*
X5353070Y3624041D01*
Y3641563D02*
X5341389Y3624041D01*
X5393782Y3637137D02*
X5392948Y3638806D01*
X5391279Y3640475D01*
X5389611Y3641310D01*
X5386273D01*
X5384604Y3640475D01*
X5382935Y3638806D01*
X5382101Y3637137D01*
X5381266Y3634634D01*
Y3630462D01*
X5382101Y3627959D01*
X5382935Y3626290D01*
X5384604Y3624622D01*
X5386273Y3623787D01*
X5389611D01*
X5391279Y3624622D01*
X5392948Y3626290D01*
X5393782Y3627959D01*
X5412056Y3623787D02*
X5405380Y3641310D01*
X5398705Y3623787D01*
X5401208Y3629628D02*
X5409553D01*
X5416144Y3641310D02*
Y3623787D01*
Y3641310D02*
X5421985D01*
X5424488Y3640475D01*
X5426157Y3638806D01*
X5426991Y3637137D01*
X5427825Y3634634D01*
Y3630462D01*
X5426991Y3627959D01*
X5426157Y3626290D01*
X5424488Y3624622D01*
X5421985Y3623787D01*
X5416144D01*
X5076212Y1741805D02*
X5080385Y1724283D01*
X5084557Y1741805D02*
X5080385Y1724283D01*
X5084557Y1741805D02*
X5088728Y1724283D01*
X5092900Y1741805D02*
X5088728Y1724283D01*
X5096405Y1741805D02*
Y1724283D01*
X5108086Y1741805D02*
Y1724283D01*
X5096405Y1733461D02*
X5108086D01*
X5112926Y1741805D02*
Y1724283D01*
X5122438Y1741805D02*
Y1724283D01*
X5116597Y1741805D02*
X5128279D01*
X5141212D02*
X5130364D01*
Y1724283D01*
X5141212D01*
X5130364Y1733461D02*
X5137040D01*
X5501155Y671449D02*
Y653927D01*
X5511167D01*
X5523934Y671449D02*
X5513087D01*
Y653927D01*
X5523934D01*
X5513087Y663105D02*
X5519761D01*
X5539370Y667278D02*
X5538535Y668946D01*
X5536866Y670615D01*
X5535198Y671449D01*
X5531860D01*
X5530192Y670615D01*
X5528522Y668946D01*
X5527688Y667278D01*
X5526854Y664774D01*
Y660602D01*
X5527688Y658099D01*
X5528522Y656430D01*
X5530192Y654762D01*
X5531860Y653927D01*
X5535198D01*
X5536866Y654762D01*
X5538535Y656430D01*
X5539370Y658099D01*
Y660602D01*
X5535198D02*
X5539370D01*
X5554222Y671449D02*
X5543375D01*
Y653927D01*
X5554222D01*
X5543375Y663105D02*
X5550050D01*
X5557142Y671449D02*
Y653927D01*
Y671449D02*
X5568824Y653927D01*
Y671449D02*
Y653927D01*
X5573663Y671449D02*
Y653927D01*
Y671449D02*
X5579504D01*
X5582007Y670615D01*
X5583676Y668946D01*
X5584510Y667278D01*
X5585345Y664774D01*
Y660602D01*
X5584510Y658099D01*
X5583676Y656430D01*
X5582007Y654762D01*
X5579504Y653927D01*
X5573663D01*
X5796302Y2022729D02*
Y2005207D01*
Y2022729D02*
X5807984Y2005207D01*
Y2022729D02*
Y2005207D01*
X5825339Y2018557D02*
X5824505Y2020226D01*
X5822836Y2021895D01*
X5821168Y2022729D01*
X5817830D01*
X5816161Y2021895D01*
X5814492Y2020226D01*
X5813658Y2018557D01*
X5812823Y2016054D01*
Y2011882D01*
X5813658Y2009379D01*
X5814492Y2007710D01*
X5816161Y2006042D01*
X5817830Y2005207D01*
X5821168D01*
X5822836Y2006042D01*
X5824505Y2007710D01*
X5825339Y2009379D01*
X5830262Y1999366D02*
X5843613D01*
X5859633Y2022729D02*
Y2005207D01*
Y2022729D02*
X5865474D01*
X5867977Y2021895D01*
X5869645Y2020226D01*
X5870480Y2018557D01*
X5871315Y2016054D01*
Y2011882D01*
X5870480Y2009379D01*
X5869645Y2007710D01*
X5867977Y2006042D01*
X5865474Y2005207D01*
X5859633D01*
X5875236Y2022729D02*
Y2005207D01*
Y2022729D02*
X5882745D01*
X5885249Y2021895D01*
X5886083Y2021061D01*
X5886918Y2019392D01*
Y2017723D01*
X5886083Y2016054D01*
X5885249Y2015220D01*
X5882745Y2014386D01*
X5875236D01*
X5881077D02*
X5886918Y2005207D01*
X5890839Y2022729D02*
Y2005207D01*
X5894510Y2022729D02*
Y2005207D01*
X5904523D01*
X5906442Y2022729D02*
Y2005207D01*
X5916455D01*
X5932142Y2022729D02*
Y2005207D01*
Y2022729D02*
X5942989D01*
X5932142Y2014386D02*
X5938817D01*
X5944991Y2022729D02*
Y2005207D01*
X5948663Y2022729D02*
Y2005207D01*
X5958676D01*
X5971442Y2022729D02*
X5960594D01*
Y2005207D01*
X5971442D01*
X5960594Y2014386D02*
X5967270D01*
X5986044Y2020226D02*
X5984375Y2021895D01*
X5981871Y2022729D01*
X5978534D01*
X5976031Y2021895D01*
X5974362Y2020226D01*
Y2018557D01*
X5975197Y2016889D01*
X5976031Y2016054D01*
X5977700Y2015220D01*
X5982706Y2013551D01*
X5984375Y2012717D01*
X5985209Y2011882D01*
X5986044Y2010213D01*
Y2007710D01*
X5984375Y2006042D01*
X5981871Y2005207D01*
X5978534D01*
X5976031Y2006042D01*
X5974362Y2007710D01*
X5076086Y896747D02*
Y879225D01*
Y896747D02*
X5087768Y879225D01*
Y896747D02*
Y879225D01*
X5097614Y896747D02*
X5095945Y895913D01*
X5094276Y894244D01*
X5093442Y892576D01*
X5092607Y890072D01*
Y885900D01*
X5093442Y883397D01*
X5094276Y881728D01*
X5095945Y880060D01*
X5097614Y879225D01*
X5100952D01*
X5102620Y880060D01*
X5104289Y881728D01*
X5105123Y883397D01*
X5105958Y885900D01*
Y890072D01*
X5105123Y892576D01*
X5104289Y894244D01*
X5102620Y895913D01*
X5100952Y896747D01*
X5097614D01*
X5110046D02*
Y879225D01*
Y896747D02*
X5121728Y879225D01*
Y896747D02*
Y879225D01*
X5137415Y896747D02*
X5126567D01*
Y879225D01*
X5137415D01*
X5126567Y888403D02*
X5133242D01*
X5906865Y847363D02*
Y848198D01*
X5907700Y849867D01*
X5908534Y850701D01*
X5910203Y851535D01*
X5913540D01*
X5915209Y850701D01*
X5916043Y849867D01*
X5916877Y848198D01*
Y846529D01*
X5916043Y844860D01*
X5914374Y842357D01*
X5906031Y834013D01*
X5917712D01*
X5286016Y626237D02*
Y608715D01*
X5301369Y623734D02*
X5299700Y625403D01*
X5297197Y626237D01*
X5293860D01*
X5291357Y625403D01*
X5289688Y623734D01*
Y622066D01*
X5290522Y620397D01*
X5291357Y619562D01*
X5293026Y618728D01*
X5298032Y617059D01*
X5299700Y616225D01*
X5300535Y615390D01*
X5301369Y613722D01*
Y611218D01*
X5299700Y609550D01*
X5297197Y608715D01*
X5293860D01*
X5291357Y609550D01*
X5289688Y611218D01*
X5310297Y626237D02*
X5307794Y625403D01*
X5306125Y622900D01*
X5305291Y618728D01*
Y616225D01*
X5306125Y612053D01*
X5307794Y609550D01*
X5310297Y608715D01*
X5311966D01*
X5314470Y609550D01*
X5316138Y612053D01*
X5316973Y616225D01*
Y618728D01*
X5316138Y622900D01*
X5314470Y625403D01*
X5311966Y626237D01*
X5310297D01*
X5331741Y620397D02*
X5330907Y617893D01*
X5329238Y616225D01*
X5326735Y615390D01*
X5325900D01*
X5323397Y616225D01*
X5321729Y617893D01*
X5320894Y620397D01*
Y621231D01*
X5321729Y623734D01*
X5323397Y625403D01*
X5325900Y626237D01*
X5326735D01*
X5329238Y625403D01*
X5330907Y623734D01*
X5331741Y620397D01*
Y616225D01*
X5330907Y612053D01*
X5329238Y609550D01*
X5326735Y608715D01*
X5325066D01*
X5322563Y609550D01*
X5321729Y611218D01*
X5341503Y626237D02*
X5339000Y625403D01*
X5337332Y622900D01*
X5336497Y618728D01*
Y616225D01*
X5337332Y612053D01*
X5339000Y609550D01*
X5341503Y608715D01*
X5343173D01*
X5345676Y609550D01*
X5347344Y612053D01*
X5348179Y616225D01*
Y618728D01*
X5347344Y622900D01*
X5345676Y625403D01*
X5343173Y626237D01*
X5341503D01*
X5357107D02*
X5354604Y625403D01*
X5352935Y622900D01*
X5352100Y618728D01*
Y616225D01*
X5352935Y612053D01*
X5354604Y609550D01*
X5357107Y608715D01*
X5358776D01*
X5361279Y609550D01*
X5362947Y612053D01*
X5363782Y616225D01*
Y618728D01*
X5362947Y622900D01*
X5361279Y625403D01*
X5358776Y626237D01*
X5357107D01*
X5367704Y622900D02*
X5369373Y623734D01*
X5371876Y626237D01*
Y608715D01*
X5380553Y606212D02*
X5392234Y626237D01*
X5406753Y608715D02*
X5400078Y626237D01*
X5393403Y608715D01*
X5395906Y614556D02*
X5404250D01*
X5422523Y623734D02*
X5420854Y625403D01*
X5418351Y626237D01*
X5415013D01*
X5412510Y625403D01*
X5410842Y623734D01*
Y622066D01*
X5411676Y620397D01*
X5412510Y619562D01*
X5414179Y618728D01*
X5419186Y617059D01*
X5420854Y616225D01*
X5421689Y615390D01*
X5422523Y613722D01*
Y611218D01*
X5420854Y609550D01*
X5418351Y608715D01*
X5415013D01*
X5412510Y609550D01*
X5410842Y611218D01*
X5428113Y626237D02*
X5437292D01*
X5432286Y619562D01*
X5434789D01*
X5436458Y618728D01*
X5437292Y617893D01*
X5438126Y615390D01*
Y613722D01*
X5437292Y611218D01*
X5435623Y609550D01*
X5433120Y608715D01*
X5430617D01*
X5428113Y609550D01*
X5427279Y610384D01*
X5426445Y612053D01*
X5452895Y620397D02*
X5452061Y617893D01*
X5450392Y616225D01*
X5447889Y615390D01*
X5447054D01*
X5444551Y616225D01*
X5442883Y617893D01*
X5442048Y620397D01*
Y621231D01*
X5442883Y623734D01*
X5444551Y625403D01*
X5447054Y626237D01*
X5447889D01*
X5450392Y625403D01*
X5452061Y623734D01*
X5452895Y620397D01*
Y616225D01*
X5452061Y612053D01*
X5450392Y609550D01*
X5447889Y608715D01*
X5446220D01*
X5443716Y609550D01*
X5442883Y611218D01*
X5462657Y626237D02*
X5460154Y625403D01*
X5458486Y622900D01*
X5457651Y618728D01*
Y616225D01*
X5458486Y612053D01*
X5460154Y609550D01*
X5462657Y608715D01*
X5464326D01*
X5466829Y609550D01*
X5468498Y612053D01*
X5469333Y616225D01*
Y618728D01*
X5468498Y622900D01*
X5466829Y625403D01*
X5464326Y626237D01*
X5462657D01*
X5473254Y622900D02*
X5474923Y623734D01*
X5477426Y626237D01*
Y608715D01*
X5382101Y1973345D02*
Y1974180D01*
X5382935Y1975849D01*
X5383770Y1976683D01*
X5385438Y1977517D01*
X5388776D01*
X5390445Y1976683D01*
X5391279Y1975849D01*
X5392114Y1974180D01*
Y1972511D01*
X5391279Y1970842D01*
X5389611Y1968339D01*
X5381266Y1959995D01*
X5392948D01*
X5401876Y1977517D02*
X5399373Y1976683D01*
X5397704Y1974180D01*
X5396870Y1970008D01*
Y1967505D01*
X5397704Y1963333D01*
X5399373Y1960830D01*
X5401876Y1959995D01*
X5403545D01*
X5406048Y1960830D01*
X5407717Y1963333D01*
X5408551Y1967505D01*
Y1970008D01*
X5407717Y1974180D01*
X5406048Y1976683D01*
X5403545Y1977517D01*
X5401876D01*
X5412473Y1971677D02*
Y1963333D01*
X5413307Y1960830D01*
X5414976Y1959995D01*
X5417479D01*
X5419148Y1960830D01*
X5421651Y1963333D01*
Y1971677D02*
Y1959995D01*
X5426240Y1971677D02*
Y1959995D01*
Y1968339D02*
X5428743Y1970842D01*
X5430413Y1971677D01*
X5432916D01*
X5434584Y1970842D01*
X5435419Y1968339D01*
Y1959995D01*
Y1968339D02*
X5437922Y1970842D01*
X5439590Y1971677D01*
X5442094D01*
X5443762Y1970842D01*
X5444597Y1968339D01*
Y1959995D01*
X4994217Y3786089D02*
Y3768567D01*
Y3786089D02*
X5005063D01*
X4994217Y3777745D02*
X5000892D01*
X5017913Y3786089D02*
X5007066D01*
Y3768567D01*
X5017913D01*
X5007066Y3777745D02*
X5013741D01*
X5031681Y3786089D02*
X5020834D01*
Y3768567D01*
X5031681D01*
X5020834Y3777745D02*
X5027509D01*
X5034601Y3786089D02*
Y3768567D01*
Y3786089D02*
X5040442D01*
X5042945Y3785255D01*
X5044614Y3783586D01*
X5045448Y3781917D01*
X5046283Y3779414D01*
Y3775242D01*
X5045448Y3772739D01*
X5044614Y3771070D01*
X5042945Y3769402D01*
X5040442Y3768567D01*
X5034601D01*
X5069813Y3786089D02*
Y3768567D01*
X5063972Y3786089D02*
X5075653D01*
X5077739D02*
Y3768567D01*
X5089421Y3786089D02*
Y3768567D01*
X5077739Y3777745D02*
X5089421D01*
X5094260Y3786089D02*
Y3768567D01*
Y3786089D02*
X5101770D01*
X5104273Y3785255D01*
X5105107Y3784420D01*
X5105942Y3782752D01*
Y3781083D01*
X5105107Y3779414D01*
X5104273Y3778580D01*
X5101770Y3777745D01*
X5094260D01*
X5100101D02*
X5105942Y3768567D01*
X5109863Y3786089D02*
Y3773574D01*
X5110698Y3771070D01*
X5112367Y3769402D01*
X5114870Y3768567D01*
X5116538D01*
X5119042Y3769402D01*
X5120710Y3771070D01*
X5121545Y3773574D01*
Y3786089D01*
X5127219Y3784420D02*
X5126384Y3785255D01*
X5127219Y3786089D01*
X5128053Y3785255D01*
Y3783586D01*
X5127219Y3781917D01*
X5126384Y3781083D01*
X4994217Y3736051D02*
Y3723535D01*
X4995051Y3721032D01*
X4996720Y3719363D01*
X4999223Y3718529D01*
X5000892D01*
X5003395Y3719363D01*
X5005063Y3721032D01*
X5005898Y3723535D01*
Y3736051D01*
X5010738D02*
Y3718529D01*
Y3736051D02*
X5022419Y3718529D01*
Y3736051D02*
Y3718529D01*
X5027258Y3736051D02*
Y3718529D01*
X5035936Y3736051D02*
X5034267Y3735217D01*
X5032599Y3733548D01*
X5031764Y3731879D01*
X5030930Y3729376D01*
Y3725204D01*
X5031764Y3722701D01*
X5032599Y3721032D01*
X5034267Y3719363D01*
X5035936Y3718529D01*
X5039274D01*
X5040942Y3719363D01*
X5042611Y3721032D01*
X5043446Y3722701D01*
X5044280Y3725204D01*
Y3729376D01*
X5043446Y3731879D01*
X5042611Y3733548D01*
X5040942Y3735217D01*
X5039274Y3736051D01*
X5035936D01*
X5038439Y3721867D02*
X5043446Y3716860D01*
X5048369Y3736051D02*
Y3723535D01*
X5049203Y3721032D01*
X5050872Y3719363D01*
X5053375Y3718529D01*
X5055044D01*
X5057547Y3719363D01*
X5059216Y3721032D01*
X5060050Y3723535D01*
Y3736051D01*
X5075737D02*
X5064890D01*
Y3718529D01*
X5075737D01*
X5064890Y3727708D02*
X5071565D01*
X5092425Y3736051D02*
Y3718529D01*
Y3736051D02*
X5098265D01*
X5100768Y3735217D01*
X5102437Y3733548D01*
X5103271Y3731879D01*
X5104106Y3729376D01*
Y3725204D01*
X5103271Y3722701D01*
X5102437Y3721032D01*
X5100768Y3719363D01*
X5098265Y3718529D01*
X5092425D01*
X5108028Y3736051D02*
Y3718529D01*
Y3736051D02*
X5115537D01*
X5118040Y3735217D01*
X5118875Y3734383D01*
X5119709Y3732714D01*
Y3731045D01*
X5118875Y3729376D01*
X5118040Y3728542D01*
X5115537Y3727708D01*
X5108028D01*
X5113868D02*
X5119709Y3718529D01*
X5123631Y3736051D02*
Y3718529D01*
X5127302Y3736051D02*
Y3718529D01*
X5137315D01*
X5139234Y3736051D02*
Y3718529D01*
X5149247D01*
X5089563Y2005207D02*
X5082888Y2022729D01*
X5076212Y2005207D01*
X5078716Y2011048D02*
X5087060D01*
X5105333Y2020226D02*
X5103664Y2021895D01*
X5101161Y2022729D01*
X5097823D01*
X5095320Y2021895D01*
X5093651Y2020226D01*
Y2018557D01*
X5094486Y2016889D01*
X5095320Y2016054D01*
X5096989Y2015220D01*
X5101995Y2013551D01*
X5103664Y2012717D01*
X5104498Y2011882D01*
X5105333Y2010213D01*
Y2007710D01*
X5103664Y2006042D01*
X5101161Y2005207D01*
X5097823D01*
X5095320Y2006042D01*
X5093651Y2007710D01*
X5134703Y2020226D02*
X5133035Y2021895D01*
X5130532Y2022729D01*
X5127194D01*
X5124691Y2021895D01*
X5123022Y2020226D01*
Y2018557D01*
X5123856Y2016889D01*
X5124691Y2016054D01*
X5126359Y2015220D01*
X5131366Y2013551D01*
X5133035Y2012717D01*
X5133869Y2011882D01*
X5134703Y2010213D01*
Y2007710D01*
X5133035Y2006042D01*
X5130532Y2005207D01*
X5127194D01*
X5124691Y2006042D01*
X5123022Y2007710D01*
X5138625Y2022729D02*
Y2005207D01*
X5150306Y2022729D02*
Y2005207D01*
X5138625Y2014386D02*
X5150306D01*
X5160153Y2022729D02*
X5158484Y2021895D01*
X5156815Y2020226D01*
X5155980Y2018557D01*
X5155146Y2016054D01*
Y2011882D01*
X5155980Y2009379D01*
X5156815Y2007710D01*
X5158484Y2006042D01*
X5160153Y2005207D01*
X5163490D01*
X5165159Y2006042D01*
X5166827Y2007710D01*
X5167662Y2009379D01*
X5168497Y2011882D01*
Y2016054D01*
X5167662Y2018557D01*
X5166827Y2020226D01*
X5165159Y2021895D01*
X5163490Y2022729D01*
X5160153D01*
X5172585D02*
X5176757Y2005207D01*
X5180929Y2022729D02*
X5176757Y2005207D01*
X5180929Y2022729D02*
X5185101Y2005207D01*
X5189272Y2022729D02*
X5185101Y2005207D01*
X5192777Y2022729D02*
Y2005207D01*
Y2022729D02*
X5204459Y2005207D01*
Y2022729D02*
Y2005207D01*
X5088728Y2063770D02*
X5087894Y2065438D01*
X5086225Y2067107D01*
X5084557Y2067941D01*
X5081219D01*
X5079550Y2067107D01*
X5077881Y2065438D01*
X5077047Y2063770D01*
X5076212Y2061266D01*
Y2057094D01*
X5077047Y2054591D01*
X5077881Y2052922D01*
X5079550Y2051254D01*
X5081219Y2050419D01*
X5084557D01*
X5086225Y2051254D01*
X5087894Y2052922D01*
X5088728Y2054591D01*
X5098658Y2067941D02*
X5096989Y2067107D01*
X5095320Y2065438D01*
X5094486Y2063770D01*
X5093651Y2061266D01*
Y2057094D01*
X5094486Y2054591D01*
X5095320Y2052922D01*
X5096989Y2051254D01*
X5098658Y2050419D01*
X5101995D01*
X5103664Y2051254D01*
X5105333Y2052922D01*
X5106167Y2054591D01*
X5107002Y2057094D01*
Y2061266D01*
X5106167Y2063770D01*
X5105333Y2065438D01*
X5103664Y2067107D01*
X5101995Y2067941D01*
X5098658D01*
X5111090D02*
Y2050419D01*
Y2067941D02*
X5117765Y2050419D01*
X5124440Y2067941D02*
X5117765Y2050419D01*
X5124440Y2067941D02*
Y2050419D01*
X5129447Y2058763D02*
X5136956D01*
X5139459Y2059597D01*
X5140294Y2060432D01*
X5141128Y2062101D01*
Y2064604D01*
X5140294Y2066273D01*
X5139459Y2067107D01*
X5136956Y2067941D01*
X5129447D01*
Y2050419D01*
X5150056Y2067941D02*
X5148387Y2067107D01*
X5146719Y2065438D01*
X5145884Y2063770D01*
X5145050Y2061266D01*
Y2057094D01*
X5145884Y2054591D01*
X5146719Y2052922D01*
X5148387Y2051254D01*
X5150056Y2050419D01*
X5153394D01*
X5155063Y2051254D01*
X5156732Y2052922D01*
X5157566Y2054591D01*
X5158400Y2057094D01*
Y2061266D01*
X5157566Y2063770D01*
X5156732Y2065438D01*
X5155063Y2067107D01*
X5153394Y2067941D01*
X5150056D01*
X5162488D02*
Y2050419D01*
Y2067941D02*
X5174170Y2050419D01*
Y2067941D02*
Y2050419D01*
X5189857Y2067941D02*
X5179009D01*
Y2050419D01*
X5189857D01*
X5179009Y2059597D02*
X5185685D01*
X5192777Y2067941D02*
Y2050419D01*
Y2067941D02*
X5204459Y2050419D01*
Y2067941D02*
Y2050419D01*
X5215139Y2067941D02*
Y2050419D01*
X5209298Y2067941D02*
X5220980D01*
X5248514Y2065438D02*
X5246846Y2067107D01*
X5244343Y2067941D01*
X5241005D01*
X5238502Y2067107D01*
X5236833Y2065438D01*
Y2063770D01*
X5237667Y2062101D01*
X5238502Y2061266D01*
X5240171Y2060432D01*
X5245177Y2058763D01*
X5246846Y2057929D01*
X5247680Y2057094D01*
X5248514Y2055426D01*
Y2052922D01*
X5246846Y2051254D01*
X5244343Y2050419D01*
X5241005D01*
X5238502Y2051254D01*
X5236833Y2052922D01*
X5252437Y2067941D02*
Y2050419D01*
X5256108Y2067941D02*
Y2050419D01*
Y2067941D02*
X5261948D01*
X5264451Y2067107D01*
X5266120Y2065438D01*
X5266955Y2063770D01*
X5267789Y2061266D01*
Y2057094D01*
X5266955Y2054591D01*
X5266120Y2052922D01*
X5264451Y2051254D01*
X5261948Y2050419D01*
X5256108D01*
X5282558Y2067941D02*
X5271711D01*
Y2050419D01*
X5282558D01*
X5271711Y2059597D02*
X5278386D01*
X5088729Y1312691D02*
X5087894Y1314360D01*
X5086226Y1316029D01*
X5084557Y1316863D01*
X5081219D01*
X5079550Y1316029D01*
X5077881Y1314360D01*
X5077047Y1312691D01*
X5076213Y1310188D01*
Y1306016D01*
X5077047Y1303513D01*
X5077881Y1301844D01*
X5079550Y1300175D01*
X5081219Y1299341D01*
X5084557D01*
X5086226Y1300175D01*
X5087894Y1301844D01*
X5088729Y1303513D01*
X5093652Y1316863D02*
Y1304348D01*
X5094486Y1301844D01*
X5096155Y1300175D01*
X5098658Y1299341D01*
X5100327D01*
X5102830Y1300175D01*
X5104499Y1301844D01*
X5105333Y1304348D01*
Y1316863D01*
X5116013D02*
Y1299341D01*
X5110173Y1316863D02*
X5121854D01*
X5151058Y1299341D02*
X5144383Y1316863D01*
X5137708Y1299341D01*
X5140211Y1305182D02*
X5148555D01*
X5155146Y1316863D02*
Y1299341D01*
Y1316863D02*
X5166828Y1299341D01*
Y1316863D02*
Y1299341D01*
X5171667Y1316863D02*
Y1299341D01*
Y1316863D02*
X5177508D01*
X5180012Y1316029D01*
X5181680Y1314360D01*
X5182515Y1312691D01*
X5183349Y1310188D01*
Y1306016D01*
X5182515Y1303513D01*
X5181680Y1301844D01*
X5180012Y1300175D01*
X5177508Y1299341D01*
X5171667D01*
X5206879Y1316863D02*
Y1299341D01*
X5201038Y1316863D02*
X5212720D01*
X5214805D02*
Y1299341D01*
Y1316863D02*
X5222315D01*
X5224818Y1316029D01*
X5225652Y1315195D01*
X5226487Y1313526D01*
Y1311857D01*
X5225652Y1310188D01*
X5224818Y1309354D01*
X5222315Y1308519D01*
X5214805D01*
X5220646D02*
X5226487Y1299341D01*
X5230408Y1316863D02*
Y1299341D01*
X5234080Y1316863D02*
Y1299341D01*
Y1316863D02*
X5240755Y1299341D01*
X5247430Y1316863D02*
X5240755Y1299341D01*
X5247430Y1316863D02*
Y1299341D01*
X5279554D02*
X5272879Y1316863D01*
X5266204Y1299341D01*
X5268707Y1305182D02*
X5277051D01*
X5296158Y1312691D02*
X5295324Y1314360D01*
X5293655Y1316029D01*
X5291987Y1316863D01*
X5288649D01*
X5286981Y1316029D01*
X5285312Y1314360D01*
X5284477Y1312691D01*
X5283643Y1310188D01*
Y1306016D01*
X5284477Y1303513D01*
X5285312Y1301844D01*
X5286981Y1300175D01*
X5288649Y1299341D01*
X5291987D01*
X5293655Y1300175D01*
X5295324Y1301844D01*
X5296158Y1303513D01*
X5313597Y1312691D02*
X5312763Y1314360D01*
X5311094Y1316029D01*
X5309426Y1316863D01*
X5306088D01*
X5304419Y1316029D01*
X5302750Y1314360D01*
X5301916Y1312691D01*
X5301082Y1310188D01*
Y1306016D01*
X5301916Y1303513D01*
X5302750Y1301844D01*
X5304419Y1300175D01*
X5306088Y1299341D01*
X5309426D01*
X5311094Y1300175D01*
X5312763Y1301844D01*
X5313597Y1303513D01*
X5323527Y1316863D02*
X5321858Y1316029D01*
X5320189Y1314360D01*
X5319355Y1312691D01*
X5318521Y1310188D01*
Y1306016D01*
X5319355Y1303513D01*
X5320189Y1301844D01*
X5321858Y1300175D01*
X5323527Y1299341D01*
X5326865D01*
X5328533Y1300175D01*
X5330202Y1301844D01*
X5331036Y1303513D01*
X5331871Y1306016D01*
Y1310188D01*
X5331036Y1312691D01*
X5330202Y1314360D01*
X5328533Y1316029D01*
X5326865Y1316863D01*
X5323527D01*
X5335959D02*
Y1299341D01*
Y1316863D02*
X5343469D01*
X5345972Y1316029D01*
X5346806Y1315195D01*
X5347641Y1313526D01*
Y1311857D01*
X5346806Y1310188D01*
X5345972Y1309354D01*
X5343469Y1308519D01*
X5335959D01*
X5341800D02*
X5347641Y1299341D01*
X5351562Y1316863D02*
Y1299341D01*
Y1316863D02*
X5357403D01*
X5359906Y1316029D01*
X5361575Y1314360D01*
X5362410Y1312691D01*
X5363244Y1310188D01*
Y1306016D01*
X5362410Y1303513D01*
X5361575Y1301844D01*
X5359906Y1300175D01*
X5357403Y1299341D01*
X5351562D01*
X5367166Y1316863D02*
Y1299341D01*
X5370837Y1316863D02*
Y1299341D01*
Y1316863D02*
X5382518Y1299341D01*
Y1316863D02*
Y1299341D01*
X5399874Y1312691D02*
X5399039Y1314360D01*
X5397371Y1316029D01*
X5395702Y1316863D01*
X5392365D01*
X5390695Y1316029D01*
X5389026Y1314360D01*
X5388192Y1312691D01*
X5387358Y1310188D01*
Y1306016D01*
X5388192Y1303513D01*
X5389026Y1301844D01*
X5390695Y1300175D01*
X5392365Y1299341D01*
X5395702D01*
X5397371Y1300175D01*
X5399039Y1301844D01*
X5399874Y1303513D01*
Y1306016D01*
X5395702D02*
X5399874D01*
X5423487Y1316863D02*
Y1299341D01*
X5417646Y1316863D02*
X5429328D01*
X5436420D02*
X5434752Y1316029D01*
X5433083Y1314360D01*
X5432248Y1312691D01*
X5431414Y1310188D01*
Y1306016D01*
X5432248Y1303513D01*
X5433083Y1301844D01*
X5434752Y1300175D01*
X5436420Y1299341D01*
X5439758D01*
X5441426Y1300175D01*
X5443095Y1301844D01*
X5443929Y1303513D01*
X5444764Y1306016D01*
Y1310188D01*
X5443929Y1312691D01*
X5443095Y1314360D01*
X5441426Y1316029D01*
X5439758Y1316863D01*
X5436420D01*
X5462620D02*
Y1299341D01*
X5472633D01*
X5487902D02*
X5481227Y1316863D01*
X5474552Y1299341D01*
X5477055Y1305182D02*
X5485399D01*
X5491991Y1316863D02*
X5498666Y1308519D01*
Y1299341D01*
X5505341Y1316863D02*
X5498666Y1308519D01*
X5518441Y1316863D02*
X5507594D01*
Y1299341D01*
X5518441D01*
X5507594Y1308519D02*
X5514269D01*
X5521361Y1316863D02*
Y1299341D01*
Y1316863D02*
X5528871D01*
X5531374Y1316029D01*
X5532208Y1315195D01*
X5533043Y1313526D01*
Y1311857D01*
X5532208Y1310188D01*
X5531374Y1309354D01*
X5528871Y1308519D01*
X5521361D01*
X5527202D02*
X5533043Y1299341D01*
X5550732Y1316863D02*
Y1299341D01*
Y1316863D02*
X5557407Y1299341D01*
X5564082Y1316863D02*
X5557407Y1299341D01*
X5564082Y1316863D02*
Y1299341D01*
X5579936Y1316863D02*
X5569089D01*
Y1299341D01*
X5579936D01*
X5569089Y1308519D02*
X5575764D01*
X5595372Y1312691D02*
X5594537Y1314360D01*
X5592869Y1316029D01*
X5591200Y1316863D01*
X5587863D01*
X5586194Y1316029D01*
X5584525Y1314360D01*
X5583691Y1312691D01*
X5582856Y1310188D01*
Y1306016D01*
X5583691Y1303513D01*
X5584525Y1301844D01*
X5586194Y1300175D01*
X5587863Y1299341D01*
X5591200D01*
X5592869Y1300175D01*
X5594537Y1301844D01*
X5595372Y1303513D01*
X5600295Y1316863D02*
Y1299341D01*
X5611976Y1316863D02*
Y1299341D01*
X5600295Y1308519D02*
X5611976D01*
X5630166Y1299341D02*
X5623491Y1316863D01*
X5616816Y1299341D01*
X5619319Y1305182D02*
X5627663D01*
X5634255Y1316863D02*
Y1299341D01*
Y1316863D02*
X5645936Y1299341D01*
Y1316863D02*
Y1299341D01*
X5650776Y1316863D02*
Y1299341D01*
X5666963Y1312691D02*
X5666129Y1314360D01*
X5664460Y1316029D01*
X5662791Y1316863D01*
X5659453D01*
X5657784Y1316029D01*
X5656116Y1314360D01*
X5655281Y1312691D01*
X5654447Y1310188D01*
Y1306016D01*
X5655281Y1303513D01*
X5656116Y1301844D01*
X5657784Y1300175D01*
X5659453Y1299341D01*
X5662791D01*
X5664460Y1300175D01*
X5666129Y1301844D01*
X5666963Y1303513D01*
X5685236Y1299341D02*
X5678561Y1316863D01*
X5671886Y1299341D01*
X5674389Y1305182D02*
X5682733D01*
X5689324Y1316863D02*
Y1299341D01*
X5699337D01*
X5715024Y1313526D02*
X5716693Y1314360D01*
X5719196Y1316863D01*
Y1299341D01*
X5747482Y1320201D02*
X5745813Y1318532D01*
X5744144Y1316029D01*
X5742476Y1312691D01*
X5741641Y1308519D01*
Y1305182D01*
X5742476Y1301010D01*
X5744144Y1297672D01*
X5745813Y1295169D01*
X5747482Y1293500D01*
X5745813Y1318532D02*
X5744144Y1315195D01*
X5743310Y1312691D01*
X5742476Y1308519D01*
Y1305182D01*
X5743310Y1301010D01*
X5744144Y1298507D01*
X5745813Y1295169D01*
X5750819Y1316863D02*
Y1299341D01*
Y1316863D02*
X5758329D01*
X5760832Y1316029D01*
X5761666Y1315195D01*
X5762501Y1313526D01*
Y1311857D01*
X5761666Y1310188D01*
X5760832Y1309354D01*
X5758329Y1308519D01*
X5750819D02*
X5758329D01*
X5760832Y1307685D01*
X5761666Y1306851D01*
X5762501Y1305182D01*
Y1302679D01*
X5761666Y1301010D01*
X5760832Y1300175D01*
X5758329Y1299341D01*
X5750819D01*
X5771429Y1316863D02*
X5769760Y1316029D01*
X5768091Y1314360D01*
X5767257Y1312691D01*
X5766423Y1310188D01*
Y1306016D01*
X5767257Y1303513D01*
X5768091Y1301844D01*
X5769760Y1300175D01*
X5771429Y1299341D01*
X5774766D01*
X5776435Y1300175D01*
X5778104Y1301844D01*
X5778939Y1303513D01*
X5779773Y1306016D01*
Y1310188D01*
X5778939Y1312691D01*
X5778104Y1314360D01*
X5776435Y1316029D01*
X5774766Y1316863D01*
X5771429D01*
X5797211Y1299341D02*
X5790536Y1316863D01*
X5783861Y1299341D01*
X5786364Y1305182D02*
X5794708D01*
X5801300Y1316863D02*
Y1299341D01*
Y1316863D02*
X5808810D01*
X5811313Y1316029D01*
X5812147Y1315195D01*
X5812982Y1313526D01*
Y1311857D01*
X5812147Y1310188D01*
X5811313Y1309354D01*
X5808810Y1308519D01*
X5801300D01*
X5807141D02*
X5812982Y1299341D01*
X5816903Y1316863D02*
Y1299341D01*
Y1316863D02*
X5822744D01*
X5825247Y1316029D01*
X5826916Y1314360D01*
X5827750Y1312691D01*
X5828585Y1310188D01*
Y1306016D01*
X5827750Y1303513D01*
X5826916Y1301844D01*
X5825247Y1300175D01*
X5822744Y1299341D01*
X5816903D01*
X5851280Y1316863D02*
X5849611Y1316029D01*
X5847943Y1314360D01*
X5847108Y1312691D01*
X5846274Y1310188D01*
Y1306016D01*
X5847108Y1303513D01*
X5847943Y1301844D01*
X5849611Y1300175D01*
X5851280Y1299341D01*
X5854618D01*
X5856287Y1300175D01*
X5857955Y1301844D01*
X5858790Y1303513D01*
X5859624Y1306016D01*
Y1310188D01*
X5858790Y1312691D01*
X5857955Y1314360D01*
X5856287Y1316029D01*
X5854618Y1316863D01*
X5851280D01*
X5863713D02*
Y1304348D01*
X5864547Y1301844D01*
X5866216Y1300175D01*
X5868719Y1299341D01*
X5870388D01*
X5872891Y1300175D01*
X5874560Y1301844D01*
X5875394Y1304348D01*
Y1316863D01*
X5886074D02*
Y1299341D01*
X5880234Y1316863D02*
X5891915D01*
X5894001D02*
Y1299341D01*
X5904014D01*
X5905933Y1316863D02*
Y1299341D01*
X5909604Y1316863D02*
Y1299341D01*
Y1316863D02*
X5921285Y1299341D01*
Y1316863D02*
Y1299341D01*
X5936972Y1316863D02*
X5926125D01*
Y1299341D01*
X5936972D01*
X5926125Y1308519D02*
X5932800D01*
X5939893Y1320201D02*
X5941561Y1318532D01*
X5943231Y1316029D01*
X5944899Y1312691D01*
X5945734Y1308519D01*
Y1305182D01*
X5944899Y1301010D01*
X5943231Y1297672D01*
X5941561Y1295169D01*
X5939893Y1293500D01*
X5941561Y1318532D02*
X5943231Y1315195D01*
X5944065Y1312691D01*
X5944899Y1308519D01*
Y1305182D01*
X5944065Y1301010D01*
X5943231Y1298507D01*
X5941561Y1295169D01*
X5542808Y1689518D02*
X5541139Y1691187D01*
X5538636Y1692021D01*
X5535298D01*
X5532795Y1691187D01*
X5531127Y1689518D01*
Y1687849D01*
X5531961Y1686181D01*
X5532795Y1685346D01*
X5534464Y1684512D01*
X5539470Y1682843D01*
X5541139Y1682009D01*
X5541974Y1681174D01*
X5542808Y1679505D01*
Y1677002D01*
X5541139Y1675334D01*
X5538636Y1674499D01*
X5535298D01*
X5532795Y1675334D01*
X5531127Y1677002D01*
X5559246Y1687849D02*
X5558411Y1689518D01*
X5556743Y1691187D01*
X5555074Y1692021D01*
X5551736D01*
X5550067Y1691187D01*
X5548398Y1689518D01*
X5547564Y1687849D01*
X5546730Y1685346D01*
Y1681174D01*
X5547564Y1678671D01*
X5548398Y1677002D01*
X5550067Y1675334D01*
X5551736Y1674499D01*
X5555074D01*
X5556743Y1675334D01*
X5558411Y1677002D01*
X5559246Y1678671D01*
X5564169Y1692021D02*
Y1674499D01*
Y1692021D02*
X5571678D01*
X5574181Y1691187D01*
X5575016Y1690353D01*
X5575850Y1688684D01*
Y1687015D01*
X5575016Y1685346D01*
X5574181Y1684512D01*
X5571678Y1683678D01*
X5564169D01*
X5570009D02*
X5575850Y1674499D01*
X5590619Y1692021D02*
X5579772D01*
Y1674499D01*
X5590619D01*
X5579772Y1683678D02*
X5586447D01*
X5604386Y1692021D02*
X5593539D01*
Y1674499D01*
X5604386D01*
X5593539Y1683678D02*
X5600214D01*
X5607307Y1692021D02*
Y1674499D01*
Y1692021D02*
X5618988Y1674499D01*
Y1692021D02*
Y1674499D01*
X5637595Y1682843D02*
X5645104D01*
X5647608Y1683678D01*
X5648442Y1684512D01*
X5649277Y1686181D01*
Y1688684D01*
X5648442Y1690353D01*
X5647608Y1691187D01*
X5645104Y1692021D01*
X5637595D01*
Y1674499D01*
X5653198Y1692021D02*
Y1674499D01*
Y1692021D02*
X5660707D01*
X5663211Y1691187D01*
X5664045Y1690353D01*
X5664880Y1688684D01*
Y1687015D01*
X5664045Y1685346D01*
X5663211Y1684512D01*
X5660707Y1683678D01*
X5653198D01*
X5659039D02*
X5664880Y1674499D01*
X5668801Y1692021D02*
Y1674499D01*
X5672473Y1692021D02*
Y1674499D01*
Y1692021D02*
X5684154Y1674499D01*
Y1692021D02*
Y1674499D01*
X5694835Y1692021D02*
Y1674499D01*
X5688994Y1692021D02*
X5700675D01*
X5543643Y1782592D02*
X5542808Y1784260D01*
X5541139Y1785929D01*
X5539470Y1786763D01*
X5536133D01*
X5534464Y1785929D01*
X5532795Y1784260D01*
X5531961Y1782592D01*
X5531127Y1780088D01*
Y1775916D01*
X5531961Y1773413D01*
X5532795Y1771744D01*
X5534464Y1770076D01*
X5536133Y1769241D01*
X5539470D01*
X5541139Y1770076D01*
X5542808Y1771744D01*
X5543643Y1773413D01*
X5553572Y1786763D02*
X5551903Y1785929D01*
X5550234Y1784260D01*
X5549399Y1782592D01*
X5548565Y1780088D01*
Y1775916D01*
X5549399Y1773413D01*
X5550234Y1771744D01*
X5551903Y1770076D01*
X5553572Y1769241D01*
X5556909D01*
X5558578Y1770076D01*
X5560247Y1771744D01*
X5561081Y1773413D01*
X5561916Y1775916D01*
Y1780088D01*
X5561081Y1782592D01*
X5560247Y1784260D01*
X5558578Y1785929D01*
X5556909Y1786763D01*
X5553572D01*
X5566004D02*
Y1769241D01*
Y1786763D02*
X5572679Y1769241D01*
X5579354Y1786763D02*
X5572679Y1769241D01*
X5579354Y1786763D02*
Y1769241D01*
X5584361Y1777585D02*
X5591870D01*
X5594374Y1778419D01*
X5595208Y1779254D01*
X5596042Y1780923D01*
Y1783426D01*
X5595208Y1785095D01*
X5594374Y1785929D01*
X5591870Y1786763D01*
X5584361D01*
Y1769241D01*
X5604970Y1786763D02*
X5603301Y1785929D01*
X5601633Y1784260D01*
X5600798Y1782592D01*
X5599964Y1780088D01*
Y1775916D01*
X5600798Y1773413D01*
X5601633Y1771744D01*
X5603301Y1770076D01*
X5604970Y1769241D01*
X5608307D01*
X5609977Y1770076D01*
X5611646Y1771744D01*
X5612480Y1773413D01*
X5613314Y1775916D01*
Y1780088D01*
X5612480Y1782592D01*
X5611646Y1784260D01*
X5609977Y1785929D01*
X5608307Y1786763D01*
X5604970D01*
X5617403D02*
Y1769241D01*
Y1786763D02*
X5629084Y1769241D01*
Y1786763D02*
Y1769241D01*
X5644771Y1786763D02*
X5633924D01*
Y1769241D01*
X5644771D01*
X5633924Y1778419D02*
X5640599D01*
X5647691Y1786763D02*
Y1769241D01*
Y1786763D02*
X5659373Y1769241D01*
Y1786763D02*
Y1769241D01*
X5670053Y1786763D02*
Y1769241D01*
X5664212Y1786763D02*
X5675894D01*
X5807984Y1784260D02*
X5806315Y1785929D01*
X5803812Y1786763D01*
X5800474D01*
X5797971Y1785929D01*
X5796302Y1784260D01*
Y1782592D01*
X5797137Y1780923D01*
X5797971Y1780088D01*
X5799640Y1779254D01*
X5804647Y1777585D01*
X5806315Y1776751D01*
X5807150Y1775916D01*
X5807984Y1774247D01*
Y1771744D01*
X5806315Y1770076D01*
X5803812Y1769241D01*
X5800474D01*
X5797971Y1770076D01*
X5796302Y1771744D01*
X5816912Y1786763D02*
X5815243Y1785929D01*
X5813574Y1784260D01*
X5812740Y1782592D01*
X5811906Y1780088D01*
Y1775916D01*
X5812740Y1773413D01*
X5813574Y1771744D01*
X5815243Y1770076D01*
X5816912Y1769241D01*
X5820250D01*
X5821918Y1770076D01*
X5823587Y1771744D01*
X5824421Y1773413D01*
X5825256Y1775916D01*
Y1780088D01*
X5824421Y1782592D01*
X5823587Y1784260D01*
X5821918Y1785929D01*
X5820250Y1786763D01*
X5816912D01*
X5829344D02*
Y1769241D01*
X5839357D01*
X5841276Y1786763D02*
Y1769241D01*
Y1786763D02*
X5847117D01*
X5849620Y1785929D01*
X5851289Y1784260D01*
X5852123Y1782592D01*
X5852958Y1780088D01*
Y1775916D01*
X5852123Y1773413D01*
X5851289Y1771744D01*
X5849620Y1770076D01*
X5847117Y1769241D01*
X5841276D01*
X5867726Y1786763D02*
X5856879D01*
Y1769241D01*
X5867726D01*
X5856879Y1778419D02*
X5863555D01*
X5870647Y1786763D02*
Y1769241D01*
Y1786763D02*
X5878157D01*
X5880660Y1785929D01*
X5881494Y1785095D01*
X5882328Y1783426D01*
Y1781757D01*
X5881494Y1780088D01*
X5880660Y1779254D01*
X5878157Y1778419D01*
X5870647D01*
X5876487D02*
X5882328Y1769241D01*
X5212007Y567275D02*
X5219517D01*
X5222020Y568110D01*
X5222854Y568944D01*
X5223688Y570613D01*
Y573116D01*
X5222854Y574785D01*
X5222020Y575619D01*
X5219517Y576453D01*
X5212007D01*
Y558931D01*
X5238457Y576453D02*
X5227610D01*
Y558931D01*
X5238457D01*
X5227610Y568110D02*
X5234285D01*
X5241378Y576453D02*
Y558931D01*
Y576453D02*
X5248887D01*
X5251390Y575619D01*
X5252225Y574785D01*
X5253059Y573116D01*
Y571447D01*
X5252225Y569778D01*
X5251390Y568944D01*
X5248887Y568110D01*
X5241378D01*
X5247218D02*
X5253059Y558931D01*
X5275754Y576453D02*
X5274086Y575619D01*
X5272417Y573950D01*
X5271583Y572281D01*
X5270748Y569778D01*
Y565606D01*
X5271583Y563103D01*
X5272417Y561434D01*
X5274086Y559766D01*
X5275754Y558931D01*
X5279092D01*
X5280760Y559766D01*
X5282429Y561434D01*
X5283264Y563103D01*
X5284099Y565606D01*
Y569778D01*
X5283264Y572281D01*
X5282429Y573950D01*
X5280760Y575619D01*
X5279092Y576453D01*
X5275754D01*
X5288187D02*
Y558931D01*
Y576453D02*
X5295696D01*
X5298199Y575619D01*
X5299034Y574785D01*
X5299868Y573116D01*
Y571447D01*
X5299034Y569778D01*
X5298199Y568944D01*
X5295696Y568110D01*
X5288187D01*
X5294028D02*
X5299868Y558931D01*
X5303790Y576453D02*
Y558931D01*
Y576453D02*
X5309631D01*
X5312134Y575619D01*
X5313802Y573950D01*
X5314637Y572281D01*
X5315472Y569778D01*
Y565606D01*
X5314637Y563103D01*
X5313802Y561434D01*
X5312134Y559766D01*
X5309631Y558931D01*
X5303790D01*
X5330240Y576453D02*
X5319393D01*
Y558931D01*
X5330240D01*
X5319393Y568110D02*
X5326068D01*
X5333160Y576453D02*
Y558931D01*
Y576453D02*
X5340670D01*
X5343173Y575619D01*
X5344008Y574785D01*
X5344842Y573116D01*
Y571447D01*
X5344008Y569778D01*
X5343173Y568944D01*
X5340670Y568110D01*
X5333160D01*
X5339001D02*
X5344842Y558931D01*
X5332997Y2326387D02*
X5344678Y2308865D01*
Y2326387D02*
X5332997Y2308865D01*
X5482857Y1690879D02*
X5494539Y1673357D01*
Y1690879D02*
X5482857Y1673357D01*
X5857761Y850393D02*
X5869443Y832871D01*
Y850393D02*
X5857761Y832871D01*
X5452885Y670307D02*
X5464567Y652785D01*
Y670307D02*
X5452885Y652785D01*
X5161968Y576707D02*
X5173650Y559185D01*
Y576707D02*
X5161968Y559185D01*
X5622900Y758632D02*
X5634581Y741110D01*
Y758632D02*
X5622900Y741110D01*
X5746519Y2023237D02*
X5758200Y2005715D01*
Y2023237D02*
X5746519Y2005715D01*
X5332499Y1977263D02*
X5344180Y1959741D01*
Y1977263D02*
X5332499Y1959741D01*
X5027699Y1317372D02*
X5039380Y1299849D01*
Y1317372D02*
X5027699Y1299849D01*
X5028081Y1063372D02*
X5039762Y1045849D01*
Y1063372D02*
X5028081Y1045849D01*
X5238519Y626237D02*
X5250200Y608715D01*
Y626237D02*
X5238519Y608715D01*
X5613169Y3691093D02*
X5624850Y3673571D01*
Y3691093D02*
X5613169Y3673571D01*
X5028099Y2462972D02*
X5039763Y2445475D01*
Y2462972D02*
X5028099Y2445475D01*
X5027699Y2417953D02*
X5039380Y2400431D01*
Y2417953D02*
X5027699Y2400431D01*
X5028969Y2067941D02*
X5040650Y2050419D01*
Y2067941D02*
X5028969Y2050419D01*
Y2023237D02*
X5040650Y2005715D01*
Y2023237D02*
X5028969Y2005715D01*
X5027519Y895238D02*
X5039200Y877716D01*
Y895238D02*
X5027519Y877716D01*
X5191274Y3785581D02*
X5202956Y3768059D01*
Y3785581D02*
X5191274Y3768059D01*
X4945911Y3735035D02*
X4957592Y3717513D01*
Y3735035D02*
X4945911Y3717513D01*
X5749059Y1787272D02*
X5760740Y1769749D01*
Y1787272D02*
X5749059Y1769749D01*
X5483882Y1787272D02*
X5495564Y1769749D01*
Y1787272D02*
X5483882Y1769749D01*
X5027130Y1741084D02*
X5038811Y1723562D01*
Y1741084D02*
X5027130Y1723562D01*
X5623519Y803857D02*
X5635200Y786335D01*
Y803857D02*
X5623519Y786335D01*
X5676087Y805943D02*
X5674418Y805109D01*
X5672749Y803440D01*
X5671915Y801771D01*
X5671080Y799268D01*
Y795096D01*
X5671915Y792593D01*
X5672749Y790924D01*
X5674418Y789255D01*
X5676087Y788421D01*
X5679424D01*
X5681093Y789255D01*
X5682762Y790924D01*
X5683596Y792593D01*
X5684431Y795096D01*
Y799268D01*
X5683596Y801771D01*
X5682762Y803440D01*
X5681093Y805109D01*
X5679424Y805943D01*
X5676087D01*
X5694360D02*
Y788421D01*
X5688519Y805943D02*
X5700201D01*
X5702287D02*
Y788421D01*
X5713969Y805943D02*
Y788421D01*
X5702287Y797599D02*
X5713969D01*
X5729655Y805943D02*
X5718808D01*
Y788421D01*
X5729655D01*
X5718808Y797599D02*
X5725483D01*
X5732575Y805943D02*
Y788421D01*
Y805943D02*
X5740085D01*
X5742588Y805109D01*
X5743422Y804274D01*
X5744257Y802606D01*
Y800937D01*
X5743422Y799268D01*
X5742588Y798434D01*
X5740085Y797599D01*
X5732575D01*
X5738416D02*
X5744257Y788421D01*
X5786133Y798763D02*
X5793643D01*
X5796146Y799597D01*
X5796980Y800431D01*
X5797814Y802100D01*
Y804603D01*
X5796980Y806272D01*
X5796146Y807106D01*
X5793643Y807941D01*
X5786133D01*
Y790418D01*
X5812584Y807941D02*
X5801736D01*
Y790418D01*
X5812584D01*
X5801736Y799597D02*
X5808411D01*
X5815504Y807941D02*
Y790418D01*
Y807941D02*
X5823013D01*
X5825516Y807106D01*
X5826351Y806272D01*
X5827185Y804603D01*
Y802934D01*
X5826351Y801266D01*
X5825516Y800431D01*
X5823013Y799597D01*
X5815504D01*
X5821345D02*
X5827185Y790418D01*
X5849881Y807941D02*
X5848212Y807106D01*
X5846543Y805438D01*
X5845709Y803769D01*
X5844874Y801266D01*
Y797094D01*
X5845709Y794591D01*
X5846543Y792922D01*
X5848212Y791253D01*
X5849881Y790418D01*
X5853218D01*
X5854887Y791253D01*
X5856556Y792922D01*
X5857390Y794591D01*
X5858224Y797094D01*
Y801266D01*
X5857390Y803769D01*
X5856556Y805438D01*
X5854887Y807106D01*
X5853218Y807941D01*
X5849881D01*
X5862313D02*
Y790418D01*
Y807941D02*
X5869823D01*
X5872326Y807106D01*
X5873160Y806272D01*
X5873995Y804603D01*
Y802934D01*
X5873160Y801266D01*
X5872326Y800431D01*
X5869823Y799597D01*
X5862313D01*
X5868154D02*
X5873995Y790418D01*
X5877916Y807941D02*
Y790418D01*
Y807941D02*
X5883757D01*
X5886260Y807106D01*
X5887929Y805438D01*
X5888763Y803769D01*
X5889598Y801266D01*
Y797094D01*
X5888763Y794591D01*
X5887929Y792922D01*
X5886260Y791253D01*
X5883757Y790418D01*
X5877916D01*
X5904366Y807941D02*
X5893519D01*
Y790418D01*
X5904366D01*
X5893519Y799597D02*
X5900195D01*
X5907287Y807941D02*
Y790418D01*
Y807941D02*
X5914797D01*
X5917300Y807106D01*
X5918134Y806272D01*
X5918969Y804603D01*
Y802934D01*
X5918134Y801266D01*
X5917300Y800431D01*
X5914797Y799597D01*
X5907287D01*
X5913127D02*
X5918969Y790418D01*
X5385239Y4124809D02*
X5386908Y4125643D01*
X5389411Y4128146D01*
Y4110624D01*
X5408936Y4122306D02*
X5408102Y4119802D01*
X5406433Y4118134D01*
X5403930Y4117299D01*
X5403096D01*
X5400592Y4118134D01*
X5398923Y4119802D01*
X5398089Y4122306D01*
Y4123140D01*
X5398923Y4125643D01*
X5400592Y4127312D01*
X5403096Y4128146D01*
X5403930D01*
X5406433Y4127312D01*
X5408102Y4125643D01*
X5408936Y4122306D01*
Y4118134D01*
X5408102Y4113961D01*
X5406433Y4111458D01*
X5403930Y4110624D01*
X5402261D01*
X5399758Y4111458D01*
X5398923Y4113127D01*
X5423705Y4125643D02*
X5422870Y4127312D01*
X5420367Y4128146D01*
X5418699D01*
X5416195Y4127312D01*
X5414526Y4124809D01*
X5413692Y4120637D01*
Y4116465D01*
X5414526Y4113127D01*
X5416195Y4111458D01*
X5418699Y4110624D01*
X5419533D01*
X5422036Y4111458D01*
X5423705Y4113127D01*
X5424539Y4115630D01*
Y4116465D01*
X5423705Y4118968D01*
X5422036Y4120637D01*
X5419533Y4121471D01*
X5418699D01*
X5416195Y4120637D01*
X5414526Y4118968D01*
X5413692Y4116465D01*
X5429212Y4112293D02*
X5428378Y4111458D01*
X5429212Y4110624D01*
X5430046Y4111458D01*
X5429212Y4112293D01*
X5438891Y4128146D02*
X5436387Y4127312D01*
X5434719Y4124809D01*
X5433884Y4120637D01*
Y4118134D01*
X5434719Y4113961D01*
X5436387Y4111458D01*
X5438891Y4110624D01*
X5440560D01*
X5443063Y4111458D01*
X5444731Y4113961D01*
X5445566Y4118134D01*
Y4120637D01*
X5444731Y4124809D01*
X5443063Y4127312D01*
X5440560Y4128146D01*
X5438891D01*
X5454494D02*
X5451991Y4127312D01*
X5450322Y4124809D01*
X5449487Y4120637D01*
Y4118134D01*
X5450322Y4113961D01*
X5451991Y4111458D01*
X5454494Y4110624D01*
X5456163D01*
X5458666Y4111458D01*
X5460334Y4113961D01*
X5461169Y4118134D01*
Y4120637D01*
X5460334Y4124809D01*
X5458666Y4127312D01*
X5456163Y4128146D01*
X5454494D01*
X5465091D02*
Y4110624D01*
Y4128146D02*
X5471766Y4110624D01*
X5478441Y4128146D02*
X5471766Y4110624D01*
X5478441Y4128146D02*
Y4110624D01*
X5483447Y4128146D02*
Y4110624D01*
Y4128146D02*
X5490123Y4110624D01*
X5496797Y4128146D02*
X5490123Y4110624D01*
X5496797Y4128146D02*
Y4110624D01*
X4727150Y4126869D02*
X4728769Y4127678D01*
X4731197Y4130106D01*
Y4113110D01*
X4741233Y4130106D02*
X4750135D01*
X4745279Y4123631D01*
X4747707D01*
X4749326Y4122822D01*
X4750135Y4122013D01*
X4750945Y4119585D01*
Y4117966D01*
X4750135Y4115538D01*
X4748517Y4113919D01*
X4746089Y4113110D01*
X4743661D01*
X4741233Y4113919D01*
X4740423Y4114728D01*
X4739614Y4116347D01*
X4765270Y4124441D02*
X4764461Y4122013D01*
X4762842Y4120394D01*
X4760414Y4119585D01*
X4759605D01*
X4757177Y4120394D01*
X4755558Y4122013D01*
X4754749Y4124441D01*
Y4125250D01*
X4755558Y4127678D01*
X4757177Y4129297D01*
X4759605Y4130106D01*
X4760414D01*
X4762842Y4129297D01*
X4764461Y4127678D01*
X4765270Y4124441D01*
Y4120394D01*
X4764461Y4116347D01*
X4762842Y4113919D01*
X4760414Y4113110D01*
X4758795D01*
X4756367Y4113919D01*
X4755558Y4115538D01*
X4781214Y4130106D02*
X4773121Y4113110D01*
X4769883Y4130106D02*
X4781214D01*
X5196240Y4124809D02*
X5197908Y4125643D01*
X5200411Y4128146D01*
Y4110624D01*
X5219936Y4122306D02*
X5219102Y4119802D01*
X5217433Y4118134D01*
X5214930Y4117299D01*
X5214095D01*
X5211592Y4118134D01*
X5209924Y4119802D01*
X5209089Y4122306D01*
Y4123140D01*
X5209924Y4125643D01*
X5211592Y4127312D01*
X5214095Y4128146D01*
X5214930D01*
X5217433Y4127312D01*
X5219102Y4125643D01*
X5219936Y4122306D01*
Y4118134D01*
X5219102Y4113961D01*
X5217433Y4111458D01*
X5214930Y4110624D01*
X5213261D01*
X5210758Y4111458D01*
X5209924Y4113127D01*
X5234705Y4128146D02*
X5226361D01*
X5225527Y4120637D01*
X5226361Y4121471D01*
X5228864Y4122306D01*
X5231367D01*
X5233871Y4121471D01*
X5235540Y4119802D01*
X5236374Y4117299D01*
Y4115630D01*
X5235540Y4113127D01*
X5233871Y4111458D01*
X5231367Y4110624D01*
X5228864D01*
X5226361Y4111458D01*
X5225527Y4112293D01*
X5224692Y4113961D01*
X5241130Y4112293D02*
X5240295Y4111458D01*
X5241130Y4110624D01*
X5241964Y4111458D01*
X5241130Y4112293D01*
X5250809Y4128146D02*
X5248306Y4127312D01*
X5246637Y4124809D01*
X5245803Y4120637D01*
Y4118134D01*
X5246637Y4113961D01*
X5248306Y4111458D01*
X5250809Y4110624D01*
X5252477D01*
X5254980Y4111458D01*
X5256650Y4113961D01*
X5257484Y4118134D01*
Y4120637D01*
X5256650Y4124809D01*
X5254980Y4127312D01*
X5252477Y4128146D01*
X5250809D01*
X5266412D02*
X5263909Y4127312D01*
X5262240Y4124809D01*
X5261406Y4120637D01*
Y4118134D01*
X5262240Y4113961D01*
X5263909Y4111458D01*
X5266412Y4110624D01*
X5268080D01*
X5270584Y4111458D01*
X5272253Y4113961D01*
X5273087Y4118134D01*
Y4120637D01*
X5272253Y4124809D01*
X5270584Y4127312D01*
X5268080Y4128146D01*
X5266412D01*
X5277009D02*
Y4110624D01*
Y4128146D02*
X5283684Y4110624D01*
X5290359Y4128146D02*
X5283684Y4110624D01*
X5290359Y4128146D02*
Y4110624D01*
X5295366Y4128146D02*
Y4110624D01*
Y4128146D02*
X5302040Y4110624D01*
X5308716Y4128146D02*
X5302040Y4110624D01*
X5308716Y4128146D02*
Y4110624D01*
X4896656Y4132382D02*
X4894153Y4131548D01*
X4892484Y4129044D01*
X4891650Y4124872D01*
Y4122369D01*
X4892484Y4118197D01*
X4894153Y4115694D01*
X4896656Y4114860D01*
X4898325D01*
X4900828Y4115694D01*
X4902497Y4118197D01*
X4903331Y4122369D01*
Y4124872D01*
X4902497Y4129044D01*
X4900828Y4131548D01*
X4898325Y4132382D01*
X4896656D01*
X5000469Y4120174D02*
X5015489D01*
X5020662D02*
X5035681D01*
X5040854D02*
X5055873D01*
X5568099Y1060498D02*
X5579780Y1042975D01*
Y1060498D02*
X5568099Y1042975D01*
X5607273Y1057675D02*
Y1058510D01*
X5608107Y1060179D01*
X5608942Y1061013D01*
X5610610Y1061847D01*
X5613948D01*
X5615617Y1061013D01*
X5616451Y1060179D01*
X5617286Y1058510D01*
Y1056841D01*
X5616451Y1055172D01*
X5614783Y1052669D01*
X5606439Y1044325D01*
X5618120D01*
X5027943Y1645667D02*
X5039625Y1628145D01*
Y1645667D02*
X5027943Y1628145D01*
X5088729Y1642257D02*
X5087894Y1643926D01*
X5086225Y1645595D01*
X5084557Y1646429D01*
X5081219D01*
X5079550Y1645595D01*
X5077881Y1643926D01*
X5077047Y1642257D01*
X5076212Y1639754D01*
Y1635582D01*
X5077047Y1633079D01*
X5077881Y1631410D01*
X5079550Y1629741D01*
X5081219Y1628907D01*
X5084557D01*
X5086225Y1629741D01*
X5087894Y1631410D01*
X5088729Y1633079D01*
Y1635582D01*
X5084557D02*
X5088729D01*
X5092733Y1646429D02*
Y1628907D01*
X5102746D01*
X5109672Y1646429D02*
X5108003Y1645595D01*
X5106334Y1643926D01*
X5105500Y1642257D01*
X5104666Y1639754D01*
Y1635582D01*
X5105500Y1633079D01*
X5106334Y1631410D01*
X5108003Y1629741D01*
X5109672Y1628907D01*
X5113009D01*
X5114678Y1629741D01*
X5116347Y1631410D01*
X5117181Y1633079D01*
X5118016Y1635582D01*
Y1639754D01*
X5117181Y1642257D01*
X5116347Y1643926D01*
X5114678Y1645595D01*
X5113009Y1646429D01*
X5109672D01*
X5133785Y1643926D02*
X5132117Y1645595D01*
X5129614Y1646429D01*
X5126276D01*
X5123773Y1645595D01*
X5122104Y1643926D01*
Y1642257D01*
X5122939Y1640588D01*
X5123773Y1639754D01*
X5125442Y1638920D01*
X5130448Y1637251D01*
X5132117Y1636416D01*
X5132951Y1635582D01*
X5133785Y1633913D01*
Y1631410D01*
X5132117Y1629741D01*
X5129614Y1628907D01*
X5126276D01*
X5123773Y1629741D01*
X5122104Y1631410D01*
X5149389Y1643926D02*
X5147720Y1645595D01*
X5145217Y1646429D01*
X5141879D01*
X5139376Y1645595D01*
X5137708Y1643926D01*
Y1642257D01*
X5138542Y1640588D01*
X5139376Y1639754D01*
X5141045Y1638920D01*
X5146051Y1637251D01*
X5147720Y1636416D01*
X5148555Y1635582D01*
X5149389Y1633913D01*
Y1631410D01*
X5147720Y1629741D01*
X5145217Y1628907D01*
X5141879D01*
X5139376Y1629741D01*
X5137708Y1631410D01*
X5483783Y1644417D02*
X5495464Y1626895D01*
Y1644417D02*
X5483783Y1626895D01*
X5028081Y1015371D02*
X5039762Y997849D01*
Y1015371D02*
X5028081Y997849D01*
D21*
X5543643Y1642257D02*
X5542808Y1643926D01*
X5541140Y1645595D01*
X5539471Y1646429D01*
X5536133D01*
X5534464Y1645595D01*
X5532795Y1643926D01*
X5531961Y1642257D01*
X5531127Y1639754D01*
Y1635582D01*
X5531961Y1633079D01*
X5532795Y1631410D01*
X5534464Y1629741D01*
X5536133Y1628907D01*
X5539471D01*
X5541140Y1629741D01*
X5542808Y1631410D01*
X5543643Y1633079D01*
Y1635582D01*
X5539471D02*
X5543643D01*
X5547648Y1646429D02*
Y1628907D01*
Y1646429D02*
X5555157D01*
X5557661Y1645595D01*
X5558495Y1644760D01*
X5559329Y1643092D01*
Y1641423D01*
X5558495Y1639754D01*
X5557661Y1638920D01*
X5555157Y1638085D01*
X5547648D01*
X5553488D02*
X5559329Y1628907D01*
X5574098Y1646429D02*
X5563251D01*
Y1628907D01*
X5574098D01*
X5563251Y1638085D02*
X5569926D01*
X5587866Y1646429D02*
X5577018D01*
Y1628907D01*
X5587866D01*
X5577018Y1638085D02*
X5583693D01*
X5590786Y1646429D02*
Y1628907D01*
Y1646429D02*
X5602467Y1628907D01*
Y1646429D02*
Y1628907D01*
X5076087Y1016255D02*
Y1003739D01*
X5076921Y1001236D01*
X5078590Y999567D01*
X5081093Y998733D01*
X5082762D01*
X5085265Y999567D01*
X5086934Y1001236D01*
X5087768Y1003739D01*
Y1016255D01*
X5092608D02*
Y998733D01*
X5102621D01*
X5130823Y1012083D02*
X5129988Y1013752D01*
X5128320Y1015421D01*
X5126651Y1016255D01*
X5123314D01*
X5121644Y1015421D01*
X5119976Y1013752D01*
X5119141Y1012083D01*
X5118307Y1009580D01*
Y1005408D01*
X5119141Y1002905D01*
X5119976Y1001236D01*
X5121644Y999567D01*
X5123314Y998733D01*
X5126651D01*
X5128320Y999567D01*
X5129988Y1001236D01*
X5130823Y1002905D01*
X5146593Y1016255D02*
X5135746D01*
Y998733D01*
X5146593D01*
X5135746Y1007911D02*
X5142421D01*
X5149513Y1016255D02*
Y998733D01*
Y1016255D02*
X5157023D01*
X5159526Y1015421D01*
X5160360Y1014586D01*
X5161194Y1012918D01*
Y1011249D01*
X5160360Y1009580D01*
X5159526Y1008746D01*
X5157023Y1007911D01*
X5149513D01*
X5155354D02*
X5161194Y998733D01*
X5170957Y1016255D02*
Y998733D01*
X5165117Y1016255D02*
X5176798D01*
X5178884D02*
Y998733D01*
X5182555Y1016255D02*
Y998733D01*
Y1016255D02*
X5193402D01*
X5182555Y1007911D02*
X5189230D01*
X5195405Y1016255D02*
Y998733D01*
X5211592Y1012083D02*
X5210757Y1013752D01*
X5209089Y1015421D01*
X5207420Y1016255D01*
X5204083D01*
X5202414Y1015421D01*
X5200745Y1013752D01*
X5199911Y1012083D01*
X5199076Y1009580D01*
Y1005408D01*
X5199911Y1002905D01*
X5200745Y1001236D01*
X5202414Y999567D01*
X5204083Y998733D01*
X5207420D01*
X5209089Y999567D01*
X5210757Y1001236D01*
X5211592Y1002905D01*
X5229865Y998733D02*
X5223190Y1016255D01*
X5216515Y998733D01*
X5219018Y1004574D02*
X5227362D01*
X5239794Y1016255D02*
Y998733D01*
X5233954Y1016255D02*
X5245635D01*
X5247722D02*
Y998733D01*
X5256399Y1016255D02*
X5254730Y1015421D01*
X5253062Y1013752D01*
X5252227Y1012083D01*
X5251393Y1009580D01*
Y1005408D01*
X5252227Y1002905D01*
X5253062Y1001236D01*
X5254730Y999567D01*
X5256399Y998733D01*
X5259736D01*
X5261405Y999567D01*
X5263074Y1001236D01*
X5263909Y1002905D01*
X5264743Y1005408D01*
Y1009580D01*
X5263909Y1012083D01*
X5263074Y1013752D01*
X5261405Y1015421D01*
X5259736Y1016255D01*
X5256399D01*
X5268831D02*
Y998733D01*
Y1016255D02*
X5280513Y998733D01*
Y1016255D02*
Y998733D01*
X5671081Y751807D02*
X5678590D01*
X5681093Y752641D01*
X5681928Y753476D01*
X5682762Y755144D01*
Y757648D01*
X5681928Y759316D01*
X5681093Y760151D01*
X5678590Y760985D01*
X5671081D01*
Y743463D01*
X5697531Y760985D02*
X5686684D01*
Y743463D01*
X5697531D01*
X5686684Y752641D02*
X5693359D01*
X5700451Y760985D02*
Y743463D01*
Y760985D02*
X5707961D01*
X5710464Y760151D01*
X5711298Y759316D01*
X5712133Y757648D01*
Y755979D01*
X5711298Y754310D01*
X5710464Y753476D01*
X5707961Y752641D01*
X5700451D01*
X5706292D02*
X5712133Y743463D01*
X5734828Y760985D02*
X5733160Y760151D01*
X5731490Y758482D01*
X5730656Y756813D01*
X5729822Y754310D01*
Y750138D01*
X5730656Y747635D01*
X5731490Y745966D01*
X5733160Y744297D01*
X5734828Y743463D01*
X5738166D01*
X5739835Y744297D01*
X5741503Y745966D01*
X5742338Y747635D01*
X5743172Y750138D01*
Y754310D01*
X5742338Y756813D01*
X5741503Y758482D01*
X5739835Y760151D01*
X5738166Y760985D01*
X5734828D01*
X5747261D02*
Y743463D01*
Y760985D02*
X5754771D01*
X5757274Y760151D01*
X5758108Y759316D01*
X5758942Y757648D01*
Y755979D01*
X5758108Y754310D01*
X5757274Y753476D01*
X5754771Y752641D01*
X5747261D01*
X5753101D02*
X5758942Y743463D01*
X5762864Y760985D02*
Y743463D01*
Y760985D02*
X5768705D01*
X5771208Y760151D01*
X5772877Y758482D01*
X5773711Y756813D01*
X5774545Y754310D01*
Y750138D01*
X5773711Y747635D01*
X5772877Y745966D01*
X5771208Y744297D01*
X5768705Y743463D01*
X5762864D01*
X5789314Y760985D02*
X5778467D01*
Y743463D01*
X5789314D01*
X5778467Y752641D02*
X5785142D01*
X5792234Y760985D02*
Y743463D01*
Y760985D02*
X5799744D01*
X5802247Y760151D01*
X5803082Y759316D01*
X5803916Y757648D01*
Y755979D01*
X5803082Y754310D01*
X5802247Y753476D01*
X5799744Y752641D01*
X5792234D01*
X5798075D02*
X5803916Y743463D01*
D22*
X3098450Y1993223D02*
Y1972908D01*
X3110059D01*
X3127763D02*
X3120023Y1993223D01*
X3112284Y1972908D01*
X3115186Y1979679D02*
X3124861D01*
X3132503Y1993223D02*
X3140243Y1983549D01*
Y1972908D01*
X3147982Y1993223D02*
X3140243Y1983549D01*
X3163170Y1993223D02*
X3150594D01*
Y1972908D01*
X3163170D01*
X3150594Y1983549D02*
X3158333D01*
X3166556Y1993223D02*
Y1972908D01*
Y1993223D02*
X3175263D01*
X3178165Y1992256D01*
X3179132Y1991288D01*
X3180100Y1989353D01*
Y1987419D01*
X3179132Y1985484D01*
X3178165Y1984516D01*
X3175263Y1983549D01*
X3166556D01*
X3173328D02*
X3180100Y1972908D01*
X3200609Y1993223D02*
Y1978712D01*
X3201577Y1975810D01*
X3203511Y1973875D01*
X3206413Y1972908D01*
X3208348D01*
X3211251Y1973875D01*
X3213185Y1975810D01*
X3214153Y1978712D01*
Y1993223D01*
X3233307Y1990321D02*
X3231373Y1992256D01*
X3228470Y1993223D01*
X3224601D01*
X3221699Y1992256D01*
X3219764Y1990321D01*
Y1988386D01*
X3220731Y1986451D01*
X3221699Y1985484D01*
X3223633Y1984516D01*
X3229438Y1982582D01*
X3231373Y1981614D01*
X3232340Y1980647D01*
X3233307Y1978712D01*
Y1975810D01*
X3231373Y1973875D01*
X3228470Y1972908D01*
X3224601D01*
X3221699Y1973875D01*
X3219764Y1975810D01*
X3253333Y1972908D02*
X3245594Y1993223D01*
X3237854Y1972908D01*
X3240757Y1979679D02*
X3250431D01*
X3272585Y1988386D02*
X3271617Y1990321D01*
X3269682Y1992256D01*
X3267747Y1993223D01*
X3263878D01*
X3261943Y1992256D01*
X3260008Y1990321D01*
X3259041Y1988386D01*
X3258073Y1985484D01*
Y1980647D01*
X3259041Y1977745D01*
X3260008Y1975810D01*
X3261943Y1973875D01*
X3263878Y1972908D01*
X3267747D01*
X3269682Y1973875D01*
X3271617Y1975810D01*
X3272585Y1977745D01*
Y1980647D01*
X3267747D02*
X3272585D01*
X3289804Y1993223D02*
X3277228D01*
Y1972908D01*
X3289804D01*
X3277228Y1983549D02*
X3284967D01*
M02*
