G04 Layer_Physical_Order=2*
G04 Layer_Color=16711680*
%FSLAX44Y44*%
%MOMM*%
G71*
G01*
G75*
%ADD11C,1.7780*%
%ADD12R,1.7780X1.7780*%
G36*
X2260876Y1354489D02*
X2264675Y1353471D01*
X2268308Y1351966D01*
X2271714Y1350000D01*
X2274834Y1347606D01*
X2277614Y1344825D01*
X2280008Y1341705D01*
X2281975Y1338300D01*
X2283480Y1334666D01*
X2284498Y1330868D01*
X2285011Y1326969D01*
Y1325002D01*
Y1323036D01*
X2284498Y1319137D01*
X2283480Y1315338D01*
X2281975Y1311705D01*
X2280008Y1308300D01*
X2277614Y1305180D01*
X2274834Y1302399D01*
X2271714Y1300005D01*
X2268308Y1298038D01*
X2264675Y1296534D01*
X2260876Y1295516D01*
X2256977Y1295002D01*
X2253044D01*
X2249146Y1295516D01*
X2245347Y1296534D01*
X2241714Y1298038D01*
X2238308Y1300005D01*
X2235188Y1302399D01*
X2232407Y1305180D01*
X2230013Y1308300D01*
X2228047Y1311705D01*
X2226542Y1315338D01*
X2225524Y1319137D01*
X2225011Y1323036D01*
Y1325002D01*
Y1326969D01*
X2225524Y1330868D01*
X2226542Y1334666D01*
X2228047Y1338300D01*
X2230013Y1341705D01*
X2232407Y1344825D01*
X2235188Y1347606D01*
X2238308Y1350000D01*
X2241714Y1351966D01*
X2245347Y1353471D01*
X2249146Y1354489D01*
X2253044Y1355002D01*
X2256977D01*
X2260876Y1354489D01*
D02*
G37*
G36*
X1730876D02*
X1734675Y1353471D01*
X1738308Y1351966D01*
X1741714Y1350000D01*
X1744834Y1347606D01*
X1747614Y1344825D01*
X1750008Y1341705D01*
X1751975Y1338300D01*
X1753480Y1334666D01*
X1754498Y1330868D01*
X1755011Y1326969D01*
Y1325002D01*
Y1325002D01*
Y1323036D01*
X1754498Y1319137D01*
X1753480Y1315339D01*
X1751975Y1311705D01*
X1750008Y1308300D01*
X1747614Y1305180D01*
X1744834Y1302399D01*
X1741714Y1300005D01*
X1738308Y1298038D01*
X1734675Y1296534D01*
X1730876Y1295516D01*
X1726977Y1295002D01*
X1723044D01*
X1719146Y1295516D01*
X1715347Y1296534D01*
X1711714Y1298038D01*
X1708308Y1300005D01*
X1705188Y1302399D01*
X1702407Y1305180D01*
X1700013Y1308300D01*
X1698047Y1311705D01*
X1696542Y1315339D01*
X1695524Y1319137D01*
X1695011Y1323036D01*
Y1325002D01*
Y1326969D01*
X1695524Y1330868D01*
X1696542Y1334666D01*
X1698047Y1338300D01*
X1700013Y1341705D01*
X1702407Y1344825D01*
X1705188Y1347606D01*
X1708308Y1350000D01*
X1711714Y1351966D01*
X1715347Y1353471D01*
X1719146Y1354489D01*
X1723044Y1355002D01*
X1726977D01*
X1730876Y1354489D01*
D02*
G37*
G36*
X2260876Y1884489D02*
X2264675Y1883471D01*
X2268308Y1881966D01*
X2271714Y1880000D01*
X2274834Y1877606D01*
X2277614Y1874825D01*
X2280008Y1871705D01*
X2281975Y1868300D01*
X2283480Y1864666D01*
X2284498Y1860868D01*
X2285011Y1856969D01*
Y1855002D01*
Y1855002D01*
Y1853036D01*
X2284498Y1849137D01*
X2283480Y1845339D01*
X2281975Y1841705D01*
X2280008Y1838300D01*
X2277614Y1835180D01*
X2274834Y1832399D01*
X2271714Y1830005D01*
X2268308Y1828038D01*
X2264675Y1826534D01*
X2260876Y1825516D01*
X2256977Y1825002D01*
X2253044D01*
X2249146Y1825516D01*
X2245347Y1826534D01*
X2241714Y1828038D01*
X2238308Y1830005D01*
X2235188Y1832399D01*
X2232407Y1835180D01*
X2230013Y1838300D01*
X2228047Y1841705D01*
X2226542Y1845339D01*
X2225524Y1849137D01*
X2225011Y1853036D01*
Y1855002D01*
Y1856969D01*
X2225524Y1860868D01*
X2226542Y1864666D01*
X2228047Y1868300D01*
X2230013Y1871705D01*
X2232407Y1874825D01*
X2235188Y1877606D01*
X2238308Y1880000D01*
X2241714Y1881966D01*
X2245347Y1883471D01*
X2249146Y1884489D01*
X2253044Y1885002D01*
X2256977D01*
X2260876Y1884489D01*
D02*
G37*
G36*
X1730876D02*
X1734675Y1883471D01*
X1738308Y1881966D01*
X1741714Y1880000D01*
X1744834Y1877606D01*
X1747614Y1874825D01*
X1750008Y1871705D01*
X1751975Y1868300D01*
X1753480Y1864666D01*
X1754498Y1860868D01*
X1755011Y1856969D01*
Y1855002D01*
Y1855002D01*
Y1853036D01*
X1754498Y1849137D01*
X1753480Y1845339D01*
X1751975Y1841705D01*
X1750008Y1838300D01*
X1747614Y1835180D01*
X1744834Y1832399D01*
X1741714Y1830005D01*
X1738308Y1828038D01*
X1734675Y1826534D01*
X1730876Y1825516D01*
X1726977Y1825002D01*
X1723044D01*
X1719146Y1825516D01*
X1715347Y1826534D01*
X1711714Y1828038D01*
X1708308Y1830005D01*
X1705188Y1832399D01*
X1702407Y1835180D01*
X1700013Y1838300D01*
X1698047Y1841705D01*
X1696542Y1845339D01*
X1695524Y1849137D01*
X1695011Y1853036D01*
Y1855002D01*
Y1856969D01*
X1695524Y1860868D01*
X1696542Y1864666D01*
X1698047Y1868300D01*
X1700013Y1871705D01*
X1702407Y1874825D01*
X1705188Y1877606D01*
X1708308Y1880000D01*
X1711714Y1881966D01*
X1715347Y1883471D01*
X1719146Y1884489D01*
X1723044Y1885002D01*
X1726977D01*
X1730876Y1884489D01*
D02*
G37*
D11*
X2031000Y1747400D02*
D03*
Y1722000D02*
D03*
X1953000Y1748000D02*
D03*
Y1722600D02*
D03*
X2031000Y1496400D02*
D03*
Y1471000D02*
D03*
X1952000Y1495000D02*
D03*
Y1469600D02*
D03*
D12*
X2031000Y1696600D02*
D03*
X1953000Y1697200D02*
D03*
X2031000Y1445600D02*
D03*
X1952000Y1444200D02*
D03*
M02*
