G04 Layer_Color=255*
%FSLAX44Y44*%
%MOMM*%
G71*
G01*
G75*
%ADD10R,1.2700X1.5240*%
%ADD11R,1.5240X1.2700*%
%ADD12R,1.5240X1.7780*%
%ADD13R,0.5000X0.6000*%
%ADD14R,0.6000X0.5000*%
%ADD15R,0.9000X0.9500*%
%ADD16R,2.3000X0.5000*%
%ADD17R,2.5000X2.0000*%
%ADD18R,0.8890X0.5080*%
G04:AMPARAMS|DCode=19|XSize=1.55mm|YSize=0.5mm|CornerRadius=0mm|HoleSize=0mm|Usage=FLASHONLY|Rotation=190.000|XOffset=0mm|YOffset=0mm|HoleType=Round|Shape=Rectangle|*
%AMROTATEDRECTD19*
4,1,4,0.7198,0.3808,0.8066,-0.1116,-0.7198,-0.3808,-0.8066,0.1116,0.7198,0.3808,0.0*
%
%ADD19ROTATEDRECTD19*%

G04:AMPARAMS|DCode=20|XSize=1.55mm|YSize=0.5mm|CornerRadius=0mm|HoleSize=0mm|Usage=FLASHONLY|Rotation=210.000|XOffset=0mm|YOffset=0mm|HoleType=Round|Shape=Rectangle|*
%AMROTATEDRECTD20*
4,1,4,0.5462,0.6040,0.7962,0.1710,-0.5462,-0.6040,-0.7962,-0.1710,0.5462,0.6040,0.0*
%
%ADD20ROTATEDRECTD20*%

G04:AMPARAMS|DCode=21|XSize=1.55mm|YSize=0.5mm|CornerRadius=0mm|HoleSize=0mm|Usage=FLASHONLY|Rotation=200.000|XOffset=0mm|YOffset=0mm|HoleType=Round|Shape=Rectangle|*
%AMROTATEDRECTD21*
4,1,4,0.6428,0.5000,0.8138,0.0301,-0.6428,-0.5000,-0.8138,-0.0301,0.6428,0.5000,0.0*
%
%ADD21ROTATEDRECTD21*%

%ADD22R,2.1590X2.7430*%
%ADD23R,3.0000X4.8000*%
%ADD24R,1.3500X0.3500*%
%ADD25R,7.7500X3.9500*%
%ADD26R,1.4000X1.2000*%
%ADD27R,1.2000X1.2000*%
%ADD28R,2.7430X2.1590*%
%ADD29O,0.6000X2.0000*%
%ADD30R,2.3000X2.3000*%
%ADD31R,0.5500X1.3000*%
%ADD32R,1.0000X0.8000*%
%ADD33R,0.7000X1.5000*%
%ADD34O,0.6000X2.2000*%
%ADD35R,2.2352X1.2446*%
%ADD36R,0.5588X1.2700*%
%ADD37O,1.8000X0.3000*%
%ADD38O,0.3000X1.8000*%
%ADD39R,1.5000X1.6000*%
%ADD40R,0.5080X0.8890*%
%ADD41R,0.3000X1.4600*%
%ADD42R,0.3000X1.1600*%
%ADD43R,0.7500X1.4000*%
%ADD55C,1.7780*%
%ADD56R,1.7780X1.7780*%
%ADD57R,1.7780X1.7780*%
%ADD58C,1.6000*%
%ADD59C,0.9000*%
%ADD60C,1.1080*%
%ADD61C,1.4732*%
%ADD62R,1.4732X1.4732*%
D10*
X778860Y1614000D02*
D03*
X756000D02*
D03*
X1865430Y1224000D02*
D03*
X1842570D02*
D03*
X1935570Y1593000D02*
D03*
X1958430D02*
D03*
X1919570Y1729000D02*
D03*
X1942430D02*
D03*
X1919140Y1702000D02*
D03*
X1942000D02*
D03*
X865430Y1639000D02*
D03*
X842570D02*
D03*
X866140Y1666000D02*
D03*
X889000D02*
D03*
X1510570Y1654000D02*
D03*
X1533430D02*
D03*
X1563860Y1762000D02*
D03*
X1541000D02*
D03*
X923570Y1683000D02*
D03*
X946430D02*
D03*
X1695430Y2038000D02*
D03*
X1672570D02*
D03*
X1475430Y1989000D02*
D03*
X1452570D02*
D03*
X1935570Y1235000D02*
D03*
X1958430D02*
D03*
X1914000Y1443000D02*
D03*
X1891140D02*
D03*
X1864430D02*
D03*
X1841570D02*
D03*
X1352570Y1760000D02*
D03*
X1375430D02*
D03*
X1840570Y1368000D02*
D03*
X1863430D02*
D03*
X1310570Y1713000D02*
D03*
X1333430D02*
D03*
X1630140Y1786000D02*
D03*
X1653000D02*
D03*
X1333430Y1735000D02*
D03*
X1310570D02*
D03*
X1667430Y1583000D02*
D03*
X1644570D02*
D03*
X1334000Y1688000D02*
D03*
X1311140D02*
D03*
X1670430Y1506000D02*
D03*
X1647570D02*
D03*
X1508430Y1537000D02*
D03*
X1485570D02*
D03*
X1670430Y1479000D02*
D03*
X1647570D02*
D03*
X1568430Y1728000D02*
D03*
X1545570D02*
D03*
X1358860Y1993000D02*
D03*
X1336000D02*
D03*
X908140Y1973000D02*
D03*
X931000D02*
D03*
X2059430Y1976000D02*
D03*
X2036570D02*
D03*
X2402430Y1315000D02*
D03*
X2379570D02*
D03*
X608140Y1270000D02*
D03*
X631000D02*
D03*
X1310570Y1662000D02*
D03*
X1333430D02*
D03*
X1913570Y1519000D02*
D03*
X1936430D02*
D03*
D11*
X1911000Y1289570D02*
D03*
Y1312430D02*
D03*
X1885000Y1289570D02*
D03*
Y1312430D02*
D03*
X1377000Y1812430D02*
D03*
Y1789570D02*
D03*
X1412000Y1688430D02*
D03*
Y1665570D02*
D03*
X1336000Y2042860D02*
D03*
Y2020000D02*
D03*
X1774000Y1389430D02*
D03*
Y1366570D02*
D03*
X1914000Y1494860D02*
D03*
Y1472000D02*
D03*
X1911000Y1265430D02*
D03*
Y1242570D02*
D03*
X1773000Y1298570D02*
D03*
Y1321430D02*
D03*
X1620000Y2028570D02*
D03*
Y2051430D02*
D03*
X1466000Y2018570D02*
D03*
Y2041430D02*
D03*
X1589000Y1917430D02*
D03*
Y1894570D02*
D03*
X1414000Y1921430D02*
D03*
Y1898570D02*
D03*
X1886000Y1520430D02*
D03*
Y1497570D02*
D03*
D12*
X1865970Y1251000D02*
D03*
X1838030D02*
D03*
X2027970Y1519000D02*
D03*
X2000030D02*
D03*
D13*
X1495000Y1818000D02*
D03*
Y1828000D02*
D03*
X1435000Y1813000D02*
D03*
Y1823000D02*
D03*
X1630000Y818000D02*
D03*
Y828000D02*
D03*
X1337000Y824000D02*
D03*
Y834000D02*
D03*
X1524000Y1818000D02*
D03*
Y1828000D02*
D03*
D14*
X1469000Y1838000D02*
D03*
X1459000D02*
D03*
D15*
X1460000Y1910000D02*
D03*
X1444000D02*
D03*
X1536000D02*
D03*
X1552000D02*
D03*
D16*
X1339000Y927000D02*
D03*
Y919000D02*
D03*
Y911000D02*
D03*
Y903000D02*
D03*
Y895000D02*
D03*
X1629000Y892000D02*
D03*
Y900000D02*
D03*
Y908000D02*
D03*
Y916000D02*
D03*
Y924000D02*
D03*
D17*
X1338000Y955500D02*
D03*
X1283000Y866500D02*
D03*
X1338000D02*
D03*
X1283000Y955500D02*
D03*
X1630000Y863500D02*
D03*
X1685000Y952500D02*
D03*
X1630000D02*
D03*
X1685000Y863500D02*
D03*
D18*
X1712300Y1366160D02*
D03*
Y1356000D02*
D03*
Y1345840D02*
D03*
X1737700D02*
D03*
Y1356000D02*
D03*
Y1366160D02*
D03*
D19*
X823902Y1702625D02*
D03*
X827722Y1680960D02*
D03*
X772200Y1693509D02*
D03*
X776020Y1671843D02*
D03*
D20*
X898000Y1740000D02*
D03*
X909000Y1720948D02*
D03*
X852534Y1713750D02*
D03*
X863533Y1694698D02*
D03*
D21*
X984920Y1774760D02*
D03*
X992444Y1754086D02*
D03*
X935586Y1756803D02*
D03*
X943110Y1736130D02*
D03*
X732919Y1679759D02*
D03*
X740444Y1659086D02*
D03*
X683586Y1661803D02*
D03*
X691110Y1641130D02*
D03*
D22*
X2016100Y1355000D02*
D03*
X1971900D02*
D03*
D23*
X1496000Y2100000D02*
D03*
X1318000D02*
D03*
X1682000Y2097000D02*
D03*
D24*
X1466750Y2064250D02*
D03*
Y2090250D02*
D03*
Y2109750D02*
D03*
Y2083750D02*
D03*
Y2116250D02*
D03*
X1525250Y2109750D02*
D03*
X1466750Y2096750D02*
D03*
X1525250Y2070750D02*
D03*
Y2122750D02*
D03*
Y2077250D02*
D03*
Y2090250D02*
D03*
Y2064250D02*
D03*
Y2135750D02*
D03*
X1466750Y2103250D02*
D03*
Y2129250D02*
D03*
Y2077250D02*
D03*
Y2122750D02*
D03*
Y2070750D02*
D03*
X1525250Y2096750D02*
D03*
Y2103250D02*
D03*
Y2116250D02*
D03*
Y2129250D02*
D03*
Y2083750D02*
D03*
X1466750Y2135750D02*
D03*
X1288750Y2064250D02*
D03*
Y2090250D02*
D03*
Y2109750D02*
D03*
Y2083750D02*
D03*
Y2116250D02*
D03*
X1347250Y2109750D02*
D03*
X1288750Y2096750D02*
D03*
X1347250Y2070750D02*
D03*
Y2122750D02*
D03*
Y2077250D02*
D03*
Y2090250D02*
D03*
Y2064250D02*
D03*
Y2135750D02*
D03*
X1288750Y2103250D02*
D03*
Y2129250D02*
D03*
Y2077250D02*
D03*
Y2122750D02*
D03*
Y2070750D02*
D03*
X1347250Y2096750D02*
D03*
Y2103250D02*
D03*
Y2116250D02*
D03*
Y2129250D02*
D03*
Y2083750D02*
D03*
X1288750Y2135750D02*
D03*
X1652750Y2061250D02*
D03*
Y2087250D02*
D03*
Y2106750D02*
D03*
Y2080750D02*
D03*
Y2113250D02*
D03*
X1711250Y2106750D02*
D03*
X1652750Y2093750D02*
D03*
X1711250Y2067750D02*
D03*
Y2119750D02*
D03*
Y2074250D02*
D03*
Y2087250D02*
D03*
Y2061250D02*
D03*
Y2132750D02*
D03*
X1652750Y2100250D02*
D03*
Y2126250D02*
D03*
Y2074250D02*
D03*
Y2119750D02*
D03*
Y2067750D02*
D03*
X1711250Y2093750D02*
D03*
Y2100250D02*
D03*
Y2113250D02*
D03*
Y2126250D02*
D03*
Y2080750D02*
D03*
X1652750Y2132750D02*
D03*
D25*
X1970000Y1468500D02*
D03*
Y1413000D02*
D03*
D26*
X1473000Y1825500D02*
D03*
X1451000D02*
D03*
Y1808500D02*
D03*
X1473000D02*
D03*
D27*
X1676500Y1786000D02*
D03*
X1697500D02*
D03*
X1352000Y1811000D02*
D03*
Y1791000D02*
D03*
D28*
X1546000Y1415100D02*
D03*
Y1370900D02*
D03*
D29*
X1933950Y1262000D02*
D03*
X1946650D02*
D03*
X1959350D02*
D03*
X1972050D02*
D03*
X1933950Y1312000D02*
D03*
X1946650D02*
D03*
X1959350D02*
D03*
X1972050D02*
D03*
D30*
X1953000Y1287000D02*
D03*
D31*
X1714500Y1275000D02*
D03*
X1724000D02*
D03*
X1733500D02*
D03*
Y1299000D02*
D03*
X1724000D02*
D03*
X1714500D02*
D03*
D32*
X2047500Y1049350D02*
D03*
Y1068650D02*
D03*
X1974500D02*
D03*
Y1049350D02*
D03*
D33*
X2033500Y1076500D02*
D03*
X2018500D02*
D03*
X1988500D02*
D03*
D34*
X1929950Y1624000D02*
D03*
X1942650D02*
D03*
X1955350D02*
D03*
X1968050D02*
D03*
X1929950Y1672000D02*
D03*
X1942650D02*
D03*
X1955350D02*
D03*
X1968050D02*
D03*
D35*
X1676942Y1365600D02*
D03*
Y1416400D02*
D03*
X1589058D02*
D03*
Y1365600D02*
D03*
D36*
X1841602Y1313954D02*
D03*
X1851000D02*
D03*
X1860398D02*
D03*
Y1288046D02*
D03*
X1851000D02*
D03*
X1841602D02*
D03*
D37*
X1518500Y1744500D02*
D03*
Y1739500D02*
D03*
Y1734500D02*
D03*
Y1729500D02*
D03*
Y1724500D02*
D03*
Y1719500D02*
D03*
Y1714500D02*
D03*
Y1709500D02*
D03*
Y1704500D02*
D03*
Y1699500D02*
D03*
Y1694500D02*
D03*
Y1689500D02*
D03*
X1437500D02*
D03*
Y1694500D02*
D03*
Y1699500D02*
D03*
Y1704500D02*
D03*
Y1709500D02*
D03*
Y1714500D02*
D03*
Y1719500D02*
D03*
Y1724500D02*
D03*
Y1729500D02*
D03*
Y1734500D02*
D03*
Y1739500D02*
D03*
Y1744500D02*
D03*
D38*
X1505500Y1676500D02*
D03*
X1500500D02*
D03*
X1495500D02*
D03*
X1490500D02*
D03*
X1485500D02*
D03*
X1480500D02*
D03*
X1475500D02*
D03*
X1470500D02*
D03*
X1465500D02*
D03*
X1460500D02*
D03*
X1455500D02*
D03*
X1450500D02*
D03*
Y1757500D02*
D03*
X1455500D02*
D03*
X1460500D02*
D03*
X1465500D02*
D03*
X1470500D02*
D03*
X1475500D02*
D03*
X1480500D02*
D03*
X1485500D02*
D03*
X1490500D02*
D03*
X1495500D02*
D03*
X1500500D02*
D03*
X1505500D02*
D03*
D39*
X1319500Y1801000D02*
D03*
D40*
X1767840Y1227300D02*
D03*
X1778000D02*
D03*
X1788160D02*
D03*
Y1252700D02*
D03*
X1778000D02*
D03*
X1767840D02*
D03*
D41*
X1492000Y1585500D02*
D03*
X1482000D02*
D03*
Y1572500D02*
D03*
X1492000D02*
D03*
D42*
X1487000Y1587000D02*
D03*
Y1571000D02*
D03*
D43*
X1495700Y1800000D02*
D03*
X1510300D02*
D03*
D55*
X1336600Y763000D02*
D03*
X1362000D02*
D03*
X1121000Y2025000D02*
D03*
X1095600D02*
D03*
X955200Y2041000D02*
D03*
X980600D02*
D03*
X1336000Y2441000D02*
D03*
X1361400D02*
D03*
X2132600Y1626000D02*
D03*
X2158000D02*
D03*
X1486600Y2463000D02*
D03*
X1512000D02*
D03*
X1336200Y2399000D02*
D03*
X1361600D02*
D03*
X1141000Y1979400D02*
D03*
Y1954000D02*
D03*
X989000Y1232400D02*
D03*
Y1207000D02*
D03*
X1585000Y763000D02*
D03*
X1610400D02*
D03*
X1884000Y1564000D02*
D03*
X1909400D02*
D03*
D56*
X1387400Y763000D02*
D03*
X1070200Y2025000D02*
D03*
X1006000Y2041000D02*
D03*
X1386800Y2441000D02*
D03*
X2183400Y1626000D02*
D03*
X1537400Y2463000D02*
D03*
X1387000Y2399000D02*
D03*
X1635800Y763000D02*
D03*
X1934800Y1564000D02*
D03*
D57*
X1141000Y1928600D02*
D03*
X989000Y1181600D02*
D03*
D58*
X2101000Y1976300D02*
D03*
Y2001700D02*
D03*
X558000Y1268400D02*
D03*
Y1243000D02*
D03*
X862000Y1972300D02*
D03*
Y1997700D02*
D03*
X2412000Y1272700D02*
D03*
Y1247300D02*
D03*
D59*
X1313000Y889000D02*
D03*
Y933000D02*
D03*
X1655000Y930000D02*
D03*
Y886000D02*
D03*
D60*
X1499700Y1373000D02*
D03*
X1474300D02*
D03*
D61*
X1759000Y1479600D02*
D03*
X1733600D02*
D03*
X1759000Y1505000D02*
D03*
X1733600D02*
D03*
X1759000Y1530400D02*
D03*
X1733600D02*
D03*
X1759000Y1555800D02*
D03*
X1733600D02*
D03*
X1759000Y1581200D02*
D03*
X1733600D02*
D03*
X1759000Y1606600D02*
D03*
X1733600D02*
D03*
X1759000Y1632000D02*
D03*
X1733600D02*
D03*
X1759000Y1657400D02*
D03*
X1733600D02*
D03*
X1759000Y1682800D02*
D03*
X1733600D02*
D03*
X1759000Y1708200D02*
D03*
D62*
X1733600D02*
D03*
M02*
