G04 Layer_Color=16711935*
%FSLAX44Y44*%
%MOMM*%
G71*
G01*
G75*
%ADD53C,0.1270*%
%ADD54R,4.8260X2.4130*%
%ADD81R,1.4732X1.7272*%
%ADD82R,1.7272X1.4732*%
%ADD86R,1.0800X1.1300*%
%ADD100C,1.9812*%
%ADD101R,1.9812X1.9812*%
%ADD102R,1.9812X1.9812*%
%ADD103C,1.8032*%
%ADD104C,1.1032*%
%ADD105C,0.2032*%
%ADD106O,1.4532X1.0032*%
%ADD107O,1.0032X1.4532*%
G36*
X1761184Y1538551D02*
X1763219Y1537708D01*
X1764967Y1536367D01*
X1766308Y1534619D01*
X1767151Y1532584D01*
X1767438Y1530400D01*
X1767151Y1528216D01*
X1766308Y1526181D01*
X1764967Y1524433D01*
X1763219Y1523092D01*
X1761184Y1522249D01*
X1759000Y1521962D01*
X1756816Y1522249D01*
X1754781Y1523092D01*
X1753033Y1524433D01*
X1751692Y1526181D01*
X1750849Y1528216D01*
X1750562Y1530400D01*
X1750849Y1532584D01*
X1751692Y1534619D01*
X1753033Y1536367D01*
X1754781Y1537708D01*
X1756816Y1538551D01*
X1759000Y1538838D01*
X1761184Y1538551D01*
D02*
G37*
G36*
X1735784D02*
X1737819Y1537708D01*
X1739567Y1536367D01*
X1740908Y1534619D01*
X1741751Y1532584D01*
X1742038Y1530400D01*
X1741751Y1528216D01*
X1740908Y1526181D01*
X1739567Y1524433D01*
X1737819Y1523092D01*
X1735784Y1522249D01*
X1733600Y1521962D01*
X1731416Y1522249D01*
X1729381Y1523092D01*
X1727633Y1524433D01*
X1726292Y1526181D01*
X1725449Y1528216D01*
X1725162Y1530400D01*
X1725449Y1532584D01*
X1726292Y1534619D01*
X1727633Y1536367D01*
X1729381Y1537708D01*
X1731416Y1538551D01*
X1733600Y1538838D01*
X1735784Y1538551D01*
D02*
G37*
G36*
Y1563951D02*
X1737819Y1563108D01*
X1739567Y1561767D01*
X1740908Y1560019D01*
X1741751Y1557984D01*
X1742038Y1555800D01*
X1741751Y1553616D01*
X1740908Y1551581D01*
X1739567Y1549833D01*
X1737819Y1548492D01*
X1735784Y1547649D01*
X1733600Y1547362D01*
X1731416Y1547649D01*
X1729381Y1548492D01*
X1727633Y1549833D01*
X1726292Y1551581D01*
X1725449Y1553616D01*
X1725162Y1555800D01*
X1725449Y1557984D01*
X1726292Y1560019D01*
X1727633Y1561767D01*
X1729381Y1563108D01*
X1731416Y1563951D01*
X1733600Y1564238D01*
X1735784Y1563951D01*
D02*
G37*
G36*
Y1589351D02*
X1737819Y1588508D01*
X1739567Y1587167D01*
X1740908Y1585419D01*
X1741751Y1583384D01*
X1742038Y1581200D01*
X1741751Y1579016D01*
X1740908Y1576981D01*
X1739567Y1575233D01*
X1737819Y1573892D01*
X1735784Y1573049D01*
X1733600Y1572762D01*
X1731416Y1573049D01*
X1729381Y1573892D01*
X1727633Y1575233D01*
X1726292Y1576981D01*
X1725449Y1579016D01*
X1725162Y1581200D01*
X1725449Y1583384D01*
X1726292Y1585419D01*
X1727633Y1587167D01*
X1729381Y1588508D01*
X1731416Y1589351D01*
X1733600Y1589638D01*
X1735784Y1589351D01*
D02*
G37*
G36*
X1761184Y1563951D02*
X1763219Y1563108D01*
X1764967Y1561767D01*
X1766308Y1560019D01*
X1767151Y1557984D01*
X1767438Y1555800D01*
X1767151Y1553616D01*
X1766308Y1551581D01*
X1764967Y1549833D01*
X1763219Y1548492D01*
X1761184Y1547649D01*
X1759000Y1547362D01*
X1756816Y1547649D01*
X1754781Y1548492D01*
X1753033Y1549833D01*
X1751692Y1551581D01*
X1750849Y1553616D01*
X1750562Y1555800D01*
X1750849Y1557984D01*
X1751692Y1560019D01*
X1753033Y1561767D01*
X1754781Y1563108D01*
X1756816Y1563951D01*
X1759000Y1564238D01*
X1761184Y1563951D01*
D02*
G37*
G36*
Y1513151D02*
X1763219Y1512308D01*
X1764967Y1510967D01*
X1766308Y1509219D01*
X1767151Y1507184D01*
X1767438Y1505000D01*
X1767151Y1502816D01*
X1766308Y1500781D01*
X1764967Y1499033D01*
X1763219Y1497692D01*
X1761184Y1496849D01*
X1759000Y1496562D01*
X1756816Y1496849D01*
X1754781Y1497692D01*
X1753033Y1499033D01*
X1751692Y1500781D01*
X1750849Y1502816D01*
X1750562Y1505000D01*
X1750849Y1507184D01*
X1751692Y1509219D01*
X1753033Y1510967D01*
X1754781Y1512308D01*
X1756816Y1513151D01*
X1759000Y1513438D01*
X1761184Y1513151D01*
D02*
G37*
G36*
X1501407Y1379372D02*
X1502998Y1378713D01*
X1504364Y1377664D01*
X1505413Y1376298D01*
X1506072Y1374707D01*
X1506296Y1373000D01*
X1506072Y1371293D01*
X1505413Y1369702D01*
X1504364Y1368336D01*
X1502998Y1367287D01*
X1501407Y1366628D01*
X1499700Y1366404D01*
X1497993Y1366628D01*
X1496402Y1367287D01*
X1495036Y1368336D01*
X1493987Y1369702D01*
X1493328Y1371293D01*
X1493104Y1373000D01*
X1493328Y1374707D01*
X1493987Y1376298D01*
X1495036Y1377664D01*
X1496402Y1378713D01*
X1497993Y1379372D01*
X1499700Y1379596D01*
X1501407Y1379372D01*
D02*
G37*
G36*
X1476007D02*
X1477598Y1378713D01*
X1478964Y1377664D01*
X1480013Y1376298D01*
X1480672Y1374707D01*
X1480896Y1373000D01*
X1480672Y1371293D01*
X1480013Y1369702D01*
X1478964Y1368336D01*
X1477598Y1367287D01*
X1476007Y1366628D01*
X1474300Y1366404D01*
X1472593Y1366628D01*
X1471002Y1367287D01*
X1469636Y1368336D01*
X1468587Y1369702D01*
X1467928Y1371293D01*
X1467704Y1373000D01*
X1467928Y1374707D01*
X1468587Y1376298D01*
X1469636Y1377664D01*
X1471002Y1378713D01*
X1472593Y1379372D01*
X1474300Y1379596D01*
X1476007Y1379372D01*
D02*
G37*
G36*
X1735784Y1487751D02*
X1737819Y1486908D01*
X1739567Y1485567D01*
X1740908Y1483819D01*
X1741751Y1481784D01*
X1742038Y1479600D01*
X1741751Y1477416D01*
X1740908Y1475381D01*
X1739567Y1473633D01*
X1737819Y1472292D01*
X1735784Y1471449D01*
X1733600Y1471162D01*
X1731416Y1471449D01*
X1729381Y1472292D01*
X1727633Y1473633D01*
X1726292Y1475381D01*
X1725449Y1477416D01*
X1725162Y1479600D01*
X1725449Y1481784D01*
X1726292Y1483819D01*
X1727633Y1485567D01*
X1729381Y1486908D01*
X1731416Y1487751D01*
X1733600Y1488038D01*
X1735784Y1487751D01*
D02*
G37*
G36*
Y1513151D02*
X1737819Y1512308D01*
X1739567Y1510967D01*
X1740908Y1509219D01*
X1741751Y1507184D01*
X1742038Y1505000D01*
X1741751Y1502816D01*
X1740908Y1500781D01*
X1739567Y1499033D01*
X1737819Y1497692D01*
X1735784Y1496849D01*
X1733600Y1496562D01*
X1731416Y1496849D01*
X1729381Y1497692D01*
X1727633Y1499033D01*
X1726292Y1500781D01*
X1725449Y1502816D01*
X1725162Y1505000D01*
X1725449Y1507184D01*
X1726292Y1509219D01*
X1727633Y1510967D01*
X1729381Y1512308D01*
X1731416Y1513151D01*
X1733600Y1513438D01*
X1735784Y1513151D01*
D02*
G37*
G36*
X1761184Y1487751D02*
X1763219Y1486908D01*
X1764967Y1485567D01*
X1766308Y1483819D01*
X1767151Y1481784D01*
X1767438Y1479600D01*
X1767151Y1477416D01*
X1766308Y1475381D01*
X1764967Y1473633D01*
X1763219Y1472292D01*
X1761184Y1471449D01*
X1759000Y1471162D01*
X1756816Y1471449D01*
X1754781Y1472292D01*
X1753033Y1473633D01*
X1751692Y1475381D01*
X1750849Y1477416D01*
X1750562Y1479600D01*
X1750849Y1481784D01*
X1751692Y1483819D01*
X1753033Y1485567D01*
X1754781Y1486908D01*
X1756816Y1487751D01*
X1759000Y1488038D01*
X1761184Y1487751D01*
D02*
G37*
G36*
X1735784Y1690951D02*
X1737819Y1690108D01*
X1739567Y1688767D01*
X1740908Y1687019D01*
X1741751Y1684984D01*
X1742038Y1682800D01*
X1741751Y1680616D01*
X1740908Y1678581D01*
X1739567Y1676833D01*
X1737819Y1675492D01*
X1735784Y1674649D01*
X1733600Y1674362D01*
X1731416Y1674649D01*
X1729381Y1675492D01*
X1727633Y1676833D01*
X1726292Y1678581D01*
X1725449Y1680616D01*
X1725162Y1682800D01*
X1725449Y1684984D01*
X1726292Y1687019D01*
X1727633Y1688767D01*
X1729381Y1690108D01*
X1731416Y1690951D01*
X1733600Y1691238D01*
X1735784Y1690951D01*
D02*
G37*
G36*
X1761184Y1665551D02*
X1763219Y1664708D01*
X1764967Y1663367D01*
X1766308Y1661619D01*
X1767151Y1659584D01*
X1767438Y1657400D01*
X1767151Y1655216D01*
X1766308Y1653181D01*
X1764967Y1651433D01*
X1763219Y1650092D01*
X1761184Y1649249D01*
X1759000Y1648962D01*
X1756816Y1649249D01*
X1754781Y1650092D01*
X1753033Y1651433D01*
X1751692Y1653181D01*
X1750849Y1655216D01*
X1750562Y1657400D01*
X1750849Y1659584D01*
X1751692Y1661619D01*
X1753033Y1663367D01*
X1754781Y1664708D01*
X1756816Y1665551D01*
X1759000Y1665838D01*
X1761184Y1665551D01*
D02*
G37*
G36*
Y1690951D02*
X1763219Y1690108D01*
X1764967Y1688767D01*
X1766308Y1687019D01*
X1767151Y1684984D01*
X1767438Y1682800D01*
X1767151Y1680616D01*
X1766308Y1678581D01*
X1764967Y1676833D01*
X1763219Y1675492D01*
X1761184Y1674649D01*
X1759000Y1674362D01*
X1756816Y1674649D01*
X1754781Y1675492D01*
X1753033Y1676833D01*
X1751692Y1678581D01*
X1750849Y1680616D01*
X1750562Y1682800D01*
X1750849Y1684984D01*
X1751692Y1687019D01*
X1753033Y1688767D01*
X1754781Y1690108D01*
X1756816Y1690951D01*
X1759000Y1691238D01*
X1761184Y1690951D01*
D02*
G37*
G36*
X1741966Y1699834D02*
X1725234D01*
Y1716566D01*
X1741966D01*
Y1699834D01*
D02*
G37*
G36*
X1761184Y1716351D02*
X1763219Y1715508D01*
X1764967Y1714167D01*
X1766308Y1712419D01*
X1767151Y1710384D01*
X1767438Y1708200D01*
X1767151Y1706016D01*
X1766308Y1703981D01*
X1764967Y1702233D01*
X1763219Y1700892D01*
X1761184Y1700049D01*
X1759000Y1699762D01*
X1756816Y1700049D01*
X1754781Y1700892D01*
X1753033Y1702233D01*
X1751692Y1703981D01*
X1750849Y1706016D01*
X1750562Y1708200D01*
X1750849Y1710384D01*
X1751692Y1712419D01*
X1753033Y1714167D01*
X1754781Y1715508D01*
X1756816Y1716351D01*
X1759000Y1716638D01*
X1761184Y1716351D01*
D02*
G37*
G36*
X1735784Y1665551D02*
X1737819Y1664708D01*
X1739567Y1663367D01*
X1740908Y1661619D01*
X1741751Y1659584D01*
X1742038Y1657400D01*
X1741751Y1655216D01*
X1740908Y1653181D01*
X1739567Y1651433D01*
X1737819Y1650092D01*
X1735784Y1649249D01*
X1733600Y1648962D01*
X1731416Y1649249D01*
X1729381Y1650092D01*
X1727633Y1651433D01*
X1726292Y1653181D01*
X1725449Y1655216D01*
X1725162Y1657400D01*
X1725449Y1659584D01*
X1726292Y1661619D01*
X1727633Y1663367D01*
X1729381Y1664708D01*
X1731416Y1665551D01*
X1733600Y1665838D01*
X1735784Y1665551D01*
D02*
G37*
G36*
Y1614751D02*
X1737819Y1613908D01*
X1739567Y1612567D01*
X1740908Y1610819D01*
X1741751Y1608784D01*
X1742038Y1606600D01*
X1741751Y1604416D01*
X1740908Y1602381D01*
X1739567Y1600633D01*
X1737819Y1599292D01*
X1735784Y1598449D01*
X1733600Y1598162D01*
X1731416Y1598449D01*
X1729381Y1599292D01*
X1727633Y1600633D01*
X1726292Y1602381D01*
X1725449Y1604416D01*
X1725162Y1606600D01*
X1725449Y1608784D01*
X1726292Y1610819D01*
X1727633Y1612567D01*
X1729381Y1613908D01*
X1731416Y1614751D01*
X1733600Y1615038D01*
X1735784Y1614751D01*
D02*
G37*
G36*
X1761184Y1589351D02*
X1763219Y1588508D01*
X1764967Y1587167D01*
X1766308Y1585419D01*
X1767151Y1583384D01*
X1767438Y1581200D01*
X1767151Y1579016D01*
X1766308Y1576981D01*
X1764967Y1575233D01*
X1763219Y1573892D01*
X1761184Y1573049D01*
X1759000Y1572762D01*
X1756816Y1573049D01*
X1754781Y1573892D01*
X1753033Y1575233D01*
X1751692Y1576981D01*
X1750849Y1579016D01*
X1750562Y1581200D01*
X1750849Y1583384D01*
X1751692Y1585419D01*
X1753033Y1587167D01*
X1754781Y1588508D01*
X1756816Y1589351D01*
X1759000Y1589638D01*
X1761184Y1589351D01*
D02*
G37*
G36*
Y1614751D02*
X1763219Y1613908D01*
X1764967Y1612567D01*
X1766308Y1610819D01*
X1767151Y1608784D01*
X1767438Y1606600D01*
X1767151Y1604416D01*
X1766308Y1602381D01*
X1764967Y1600633D01*
X1763219Y1599292D01*
X1761184Y1598449D01*
X1759000Y1598162D01*
X1756816Y1598449D01*
X1754781Y1599292D01*
X1753033Y1600633D01*
X1751692Y1602381D01*
X1750849Y1604416D01*
X1750562Y1606600D01*
X1750849Y1608784D01*
X1751692Y1610819D01*
X1753033Y1612567D01*
X1754781Y1613908D01*
X1756816Y1614751D01*
X1759000Y1615038D01*
X1761184Y1614751D01*
D02*
G37*
G36*
Y1640151D02*
X1763219Y1639308D01*
X1764967Y1637967D01*
X1766308Y1636219D01*
X1767151Y1634184D01*
X1767438Y1632000D01*
X1767151Y1629816D01*
X1766308Y1627781D01*
X1764967Y1626033D01*
X1763219Y1624692D01*
X1761184Y1623849D01*
X1759000Y1623562D01*
X1756816Y1623849D01*
X1754781Y1624692D01*
X1753033Y1626033D01*
X1751692Y1627781D01*
X1750849Y1629816D01*
X1750562Y1632000D01*
X1750849Y1634184D01*
X1751692Y1636219D01*
X1753033Y1637967D01*
X1754781Y1639308D01*
X1756816Y1640151D01*
X1759000Y1640438D01*
X1761184Y1640151D01*
D02*
G37*
G36*
X1735784D02*
X1737819Y1639308D01*
X1739567Y1637967D01*
X1740908Y1636219D01*
X1741751Y1634184D01*
X1742038Y1632000D01*
X1741751Y1629816D01*
X1740908Y1627781D01*
X1739567Y1626033D01*
X1737819Y1624692D01*
X1735784Y1623849D01*
X1733600Y1623562D01*
X1731416Y1623849D01*
X1729381Y1624692D01*
X1727633Y1626033D01*
X1726292Y1627781D01*
X1725449Y1629816D01*
X1725162Y1632000D01*
X1725449Y1634184D01*
X1726292Y1636219D01*
X1727633Y1637967D01*
X1729381Y1639308D01*
X1731416Y1640151D01*
X1733600Y1640438D01*
X1735784Y1640151D01*
D02*
G37*
D53*
X2932290Y1787828D02*
X3165970D01*
X2932290D02*
Y1811958D01*
X3165970Y1787828D02*
Y1811958D01*
X2932290D02*
X3165970D01*
X2998330Y1804843D02*
Y1794686D01*
Y1804843D02*
X3002684D01*
X3004135Y1804360D01*
X3004619Y1803876D01*
X3005102Y1802909D01*
Y1801941D01*
X3004619Y1800974D01*
X3004135Y1800490D01*
X3002684Y1800006D01*
X2998330D02*
X3002684D01*
X3004135Y1799523D01*
X3004619Y1799039D01*
X3005102Y1798072D01*
Y1796620D01*
X3004619Y1795653D01*
X3004135Y1795169D01*
X3002684Y1794686D01*
X2998330D01*
X3010278Y1804843D02*
X3009311Y1804360D01*
X3008343Y1803392D01*
X3007859Y1802425D01*
X3007376Y1800974D01*
Y1798555D01*
X3007859Y1797104D01*
X3008343Y1796137D01*
X3009311Y1795169D01*
X3010278Y1794686D01*
X3012213D01*
X3013180Y1795169D01*
X3014148Y1796137D01*
X3014631Y1797104D01*
X3015115Y1798555D01*
Y1800974D01*
X3014631Y1802425D01*
X3014148Y1803392D01*
X3013180Y1804360D01*
X3012213Y1804843D01*
X3010278D01*
X3020871D02*
Y1794686D01*
X3017485Y1804843D02*
X3024257D01*
X3028852D02*
Y1794686D01*
X3025466Y1804843D02*
X3032238D01*
X3036350D02*
X3035382Y1804360D01*
X3034415Y1803392D01*
X3033931Y1802425D01*
X3033447Y1800974D01*
Y1798555D01*
X3033931Y1797104D01*
X3034415Y1796137D01*
X3035382Y1795169D01*
X3036350Y1794686D01*
X3038285D01*
X3039252Y1795169D01*
X3040219Y1796137D01*
X3040703Y1797104D01*
X3041187Y1798555D01*
Y1800974D01*
X3040703Y1802425D01*
X3040219Y1803392D01*
X3039252Y1804360D01*
X3038285Y1804843D01*
X3036350D01*
X3043557D02*
Y1794686D01*
Y1804843D02*
X3047426Y1794686D01*
X3051296Y1804843D02*
X3047426Y1794686D01*
X3051296Y1804843D02*
Y1794686D01*
X3068951Y1803392D02*
X3067984Y1804360D01*
X3066533Y1804843D01*
X3064598D01*
X3063147Y1804360D01*
X3062180Y1803392D01*
Y1802425D01*
X3062663Y1801458D01*
X3063147Y1800974D01*
X3064114Y1800490D01*
X3067017Y1799523D01*
X3067984Y1799039D01*
X3068468Y1798555D01*
X3068951Y1797588D01*
Y1796137D01*
X3067984Y1795169D01*
X3066533Y1794686D01*
X3064598D01*
X3063147Y1795169D01*
X3062180Y1796137D01*
X3074127Y1804843D02*
X3073160Y1804360D01*
X3072192Y1803392D01*
X3071709Y1802425D01*
X3071225Y1800974D01*
Y1798555D01*
X3071709Y1797104D01*
X3072192Y1796137D01*
X3073160Y1795169D01*
X3074127Y1794686D01*
X3076062D01*
X3077029Y1795169D01*
X3077997Y1796137D01*
X3078481Y1797104D01*
X3078964Y1798555D01*
Y1800974D01*
X3078481Y1802425D01*
X3077997Y1803392D01*
X3077029Y1804360D01*
X3076062Y1804843D01*
X3074127D01*
X3081334D02*
Y1794686D01*
X3087139D01*
X3088251Y1804843D02*
Y1794686D01*
Y1804843D02*
X3091637D01*
X3093088Y1804360D01*
X3094056Y1803392D01*
X3094539Y1802425D01*
X3095023Y1800974D01*
Y1798555D01*
X3094539Y1797104D01*
X3094056Y1796137D01*
X3093088Y1795169D01*
X3091637Y1794686D01*
X3088251D01*
X3103585Y1804843D02*
X3097296D01*
Y1794686D01*
X3103585D01*
X3097296Y1800006D02*
X3101166D01*
X3105278Y1804843D02*
Y1794686D01*
Y1804843D02*
X3109631D01*
X3111082Y1804360D01*
X3111566Y1803876D01*
X3112050Y1802909D01*
Y1801941D01*
X3111566Y1800974D01*
X3111082Y1800490D01*
X3109631Y1800006D01*
X3105278D01*
X3108664D02*
X3112050Y1794686D01*
X3122304Y1804843D02*
Y1794686D01*
Y1804843D02*
X3126174Y1794686D01*
X3130044Y1804843D02*
X3126174Y1794686D01*
X3130044Y1804843D02*
Y1794686D01*
X3140685D02*
X3136815Y1804843D01*
X3132946Y1794686D01*
X3134397Y1798072D02*
X3139234D01*
X3149827Y1803392D02*
X3148860Y1804360D01*
X3147408Y1804843D01*
X3145474D01*
X3144023Y1804360D01*
X3143055Y1803392D01*
Y1802425D01*
X3143539Y1801458D01*
X3144023Y1800974D01*
X3144990Y1800490D01*
X3147892Y1799523D01*
X3148860Y1799039D01*
X3149343Y1798555D01*
X3149827Y1797588D01*
Y1796137D01*
X3148860Y1795169D01*
X3147408Y1794686D01*
X3145474D01*
X3144023Y1795169D01*
X3143055Y1796137D01*
X3152101Y1804843D02*
Y1794686D01*
X3158872Y1804843D02*
X3152101Y1798072D01*
X3154519Y1800490D02*
X3158872Y1794686D01*
D54*
X2956420Y1799893D02*
D03*
D81*
X910860Y1115000D02*
D03*
X888000D02*
D03*
X2046570Y1154000D02*
D03*
X2069430D02*
D03*
X1237570Y2289000D02*
D03*
X1260430D02*
D03*
X993570Y1970000D02*
D03*
X1016430D02*
D03*
X785570Y1267000D02*
D03*
X808430D02*
D03*
X678570Y1268000D02*
D03*
X701430D02*
D03*
X888570Y1269000D02*
D03*
X911430D02*
D03*
X772570Y1556000D02*
D03*
X795430D02*
D03*
X2170430Y1599000D02*
D03*
X2147570D02*
D03*
X2234430Y1292000D02*
D03*
X2211570D02*
D03*
X2129430Y1294000D02*
D03*
X2106570D02*
D03*
X1701430Y2370000D02*
D03*
X1678570D02*
D03*
X1902860Y2033000D02*
D03*
X1880000D02*
D03*
X2020430Y2036000D02*
D03*
X1997570D02*
D03*
D82*
X1022000Y1916430D02*
D03*
Y1893570D02*
D03*
X1558000Y2514570D02*
D03*
Y2537430D02*
D03*
X1114000Y1971140D02*
D03*
Y1994000D02*
D03*
X1462000Y2549860D02*
D03*
Y2527000D02*
D03*
X2346000Y1268570D02*
D03*
Y1291430D02*
D03*
X1447000Y2392430D02*
D03*
Y2369570D02*
D03*
X1736000Y2262860D02*
D03*
Y2240000D02*
D03*
X1231000Y2254430D02*
D03*
Y2231570D02*
D03*
D86*
X1774000Y2262000D02*
D03*
X1758000D02*
D03*
X1188965Y2255000D02*
D03*
X1204965D02*
D03*
D100*
X1336600Y763000D02*
D03*
X1362000D02*
D03*
X1121000Y2025000D02*
D03*
X1095600D02*
D03*
X955200Y2041000D02*
D03*
X980600D02*
D03*
X1336000Y2441000D02*
D03*
X1361400D02*
D03*
X2132600Y1626000D02*
D03*
X2158000D02*
D03*
X1486600Y2463000D02*
D03*
X1512000D02*
D03*
X1336200Y2399000D02*
D03*
X1361600D02*
D03*
X1141000Y1979400D02*
D03*
Y1954000D02*
D03*
X989000Y1232400D02*
D03*
Y1207000D02*
D03*
X1585000Y763000D02*
D03*
X1610400D02*
D03*
X1884000Y1564000D02*
D03*
X1909400D02*
D03*
D101*
X1387400Y763000D02*
D03*
X1070200Y2025000D02*
D03*
X1006000Y2041000D02*
D03*
X1386800Y2441000D02*
D03*
X2183400Y1626000D02*
D03*
X1537400Y2463000D02*
D03*
X1387000Y2399000D02*
D03*
X1635800Y763000D02*
D03*
X1934800Y1564000D02*
D03*
D102*
X1141000Y1928600D02*
D03*
X989000Y1181600D02*
D03*
D103*
X2101000Y1976300D02*
D03*
Y2001700D02*
D03*
X558000Y1268400D02*
D03*
Y1243000D02*
D03*
X862000Y1972300D02*
D03*
Y1997700D02*
D03*
X2412000Y1272700D02*
D03*
Y1247300D02*
D03*
D104*
X1313000Y889000D02*
D03*
Y933000D02*
D03*
X1655000Y930000D02*
D03*
Y886000D02*
D03*
D105*
X2026000Y1059000D02*
D03*
X1996000D02*
D03*
D106*
X1183500Y2311000D02*
D03*
Y2301000D02*
D03*
Y2291000D02*
D03*
X1152500D02*
D03*
Y2301000D02*
D03*
Y2311000D02*
D03*
X714500Y1590000D02*
D03*
Y1580000D02*
D03*
Y1570000D02*
D03*
X683500D02*
D03*
Y1580000D02*
D03*
Y1590000D02*
D03*
X2250500Y1570000D02*
D03*
Y1580000D02*
D03*
Y1590000D02*
D03*
X2281500D02*
D03*
Y1580000D02*
D03*
Y1570000D02*
D03*
X1762000Y2295000D02*
D03*
Y2305000D02*
D03*
Y2315000D02*
D03*
X1793000D02*
D03*
Y2305000D02*
D03*
Y2295000D02*
D03*
D107*
X945000Y1968500D02*
D03*
X955000D02*
D03*
X965000D02*
D03*
Y1937500D02*
D03*
X955000D02*
D03*
X945000D02*
D03*
X1060000Y1968500D02*
D03*
X1070000D02*
D03*
X1080000D02*
D03*
Y1937500D02*
D03*
X1070000D02*
D03*
X1060000D02*
D03*
X652000Y1223500D02*
D03*
X662000D02*
D03*
X672000D02*
D03*
Y1192500D02*
D03*
X662000D02*
D03*
X652000D02*
D03*
X761000Y1223500D02*
D03*
X771000D02*
D03*
X781000D02*
D03*
Y1192500D02*
D03*
X771000D02*
D03*
X761000D02*
D03*
X863000Y1223500D02*
D03*
X873000D02*
D03*
X883000D02*
D03*
Y1192500D02*
D03*
X873000D02*
D03*
X863000D02*
D03*
X2106000Y1223500D02*
D03*
X2116000D02*
D03*
X2126000D02*
D03*
Y1192500D02*
D03*
X2116000D02*
D03*
X2106000D02*
D03*
X2212000Y1223500D02*
D03*
X2222000D02*
D03*
X2232000D02*
D03*
Y1192500D02*
D03*
X2222000D02*
D03*
X2212000D02*
D03*
X2321000Y1223500D02*
D03*
X2331000D02*
D03*
X2341000D02*
D03*
Y1192500D02*
D03*
X2331000D02*
D03*
X2321000D02*
D03*
X2002000Y1968500D02*
D03*
X2012000D02*
D03*
X2022000D02*
D03*
Y1937500D02*
D03*
X2012000D02*
D03*
X2002000D02*
D03*
X1881000Y1968500D02*
D03*
X1891000D02*
D03*
X1901000D02*
D03*
Y1937500D02*
D03*
X1891000D02*
D03*
X1881000D02*
D03*
X1495000Y2394000D02*
D03*
X1485000D02*
D03*
X1475000D02*
D03*
Y2425000D02*
D03*
X1485000D02*
D03*
X1495000D02*
D03*
X1495000Y2603500D02*
D03*
X1485000D02*
D03*
X1475000D02*
D03*
Y2634500D02*
D03*
X1485000D02*
D03*
X1495000D02*
D03*
M02*
