G04 Layer_Color=16711935*
%FSLAX44Y44*%
%MOMM*%
G71*
G01*
G75*
%ADD68C,0.2000*%
%ADD70C,0.1000*%
D68*
X2079410Y1967410D02*
Y2010590D01*
X2122590D01*
Y1967410D02*
Y2010590D01*
X2079410Y1967410D02*
X2122590D01*
X526250Y1287450D02*
X589750D01*
X526250Y1227760D02*
Y1287450D01*
Y1227760D02*
X589750D01*
Y1287450D01*
X840410Y1963410D02*
Y2006590D01*
X883590D01*
Y1963410D02*
Y2006590D01*
X840410Y1963410D02*
X883590D01*
X2380250Y1291750D02*
X2443750D01*
X2380250Y1232060D02*
Y1291750D01*
Y1232060D02*
X2443750D01*
Y1291750D01*
D70*
X1974000Y1298000D02*
G03*
X1974000Y1298000I-5000J0D01*
G01*
X1938000Y1637000D02*
G03*
X1938000Y1637000I-5000J0D01*
G01*
X1509000Y1743000D02*
G03*
X1509000Y1743000I-5000J0D01*
G01*
X1492000Y1817500D02*
Y1828500D01*
X1498000Y1817500D02*
Y1828500D01*
X1492000Y1817500D02*
X1498000D01*
X1492000Y1828500D02*
X1498000D01*
X1458500Y1835000D02*
X1469500D01*
X1458500Y1841000D02*
X1469500D01*
Y1835000D02*
Y1841000D01*
X1458500Y1835000D02*
Y1841000D01*
X1432000Y1812500D02*
Y1823500D01*
X1438000Y1812500D02*
Y1823500D01*
X1432000Y1812500D02*
X1438000D01*
X1432000Y1823500D02*
X1438000D01*
X1627000Y817500D02*
Y828500D01*
X1633000Y817500D02*
Y828500D01*
X1627000Y817500D02*
X1633000D01*
X1627000Y828500D02*
X1633000D01*
X1334000Y823500D02*
Y834500D01*
X1340000Y823500D02*
Y834500D01*
X1334000Y823500D02*
X1340000D01*
X1334000Y834500D02*
X1340000D01*
X1521000Y1817500D02*
Y1828500D01*
X1527000Y1817500D02*
Y1828500D01*
X1521000Y1817500D02*
X1527000D01*
X1521000Y1828500D02*
X1527000D01*
X2009000Y1399150D02*
Y1482350D01*
X1931000Y1399150D02*
Y1482350D01*
X2009000D01*
X1931000Y1399150D02*
X2009000D01*
X1978000Y1267000D02*
Y1307000D01*
X1928000Y1267000D02*
X1978000D01*
X1928000Y1307000D02*
X1978000D01*
X1928000Y1267000D02*
Y1307000D01*
X1709500Y1278250D02*
X1738500D01*
X1709500Y1295750D02*
X1738500D01*
X1709500Y1278250D02*
Y1295750D01*
X1738500Y1278250D02*
Y1295750D01*
X1924000Y1628000D02*
X1974000D01*
X1924000Y1668000D02*
X1974000D01*
X1924000Y1628000D02*
Y1668000D01*
X1974000Y1628000D02*
Y1668000D01*
X1443000Y1682000D02*
Y1752000D01*
X1513000Y1682000D02*
Y1752000D01*
X1443000Y1682000D02*
X1513000D01*
X1443000Y1752000D02*
X1513000D01*
M02*
