G04 Layer_Color=16711935*
%FSLAX44Y44*%
%MOMM*%
G71*
G01*
G75*
%ADD44C,0.2032*%
%ADD45C,0.2540*%
%ADD53C,0.1270*%
%ADD54R,4.8260X2.4130*%
%ADD67C,0.2500*%
%ADD68C,0.2000*%
%ADD69C,0.0000*%
%ADD70C,0.1000*%
%ADD71C,0.1524*%
%ADD73C,0.0500*%
%ADD111C,0.0254*%
%ADD113C,1.2378*%
%ADD114C,0.0024*%
D44*
X2015600Y1337200D02*
Y1372800D01*
X1972400Y1337200D02*
Y1372800D01*
X1528200Y1414600D02*
X1563800D01*
X1528200Y1371400D02*
X1563800D01*
D45*
X1499700Y1587890D02*
G03*
X1499700Y1587890I-1270J0D01*
G01*
X1479000Y1585000D02*
X1494730D01*
X1479000Y1573000D02*
X1495000D01*
D53*
X1344500Y1801000D02*
G03*
X1344500Y1801000I-10500J0D01*
G01*
X1352000D02*
G03*
X1352000Y1801000I-18000J0D01*
G01*
X2932290Y1662098D02*
X3165970D01*
Y1637968D02*
Y1662098D01*
X2932290Y1637968D02*
Y1662098D01*
Y1637968D02*
X3165970D01*
X1356500Y851000D02*
Y971000D01*
X1256500Y851000D02*
X1356500D01*
X1256500D02*
Y971000D01*
X1356500D01*
X1611500Y848000D02*
Y968000D01*
X1711500D01*
X1711500Y848000D02*
X1711500Y968000D01*
X1611500Y848000D02*
X1711500D01*
X1308000Y1778000D02*
X1362500D01*
X1308000D02*
Y1822000D01*
X1362500D01*
Y1778000D02*
Y1822000D01*
X1341000Y1786000D02*
X1354000D01*
Y1816000D01*
X1341000D02*
X1354000D01*
X1314000Y1790000D02*
Y1812000D01*
X1513000Y1794000D02*
Y1806000D01*
X1505000D02*
X1513000D01*
X1493000D02*
X1501000D01*
X1493000Y1794000D02*
Y1806000D01*
Y1794000D02*
X1501000D01*
X1505000D02*
X1513000D01*
X2998330Y1654984D02*
Y1644826D01*
Y1654984D02*
X3002684D01*
X3004135Y1654500D01*
X3004619Y1654016D01*
X3005102Y1653049D01*
Y1652081D01*
X3004619Y1651114D01*
X3004135Y1650630D01*
X3002684Y1650146D01*
X2998330D02*
X3002684D01*
X3004135Y1649663D01*
X3004619Y1649179D01*
X3005102Y1648212D01*
Y1646761D01*
X3004619Y1645793D01*
X3004135Y1645309D01*
X3002684Y1644826D01*
X2998330D01*
X3010278Y1654984D02*
X3009311Y1654500D01*
X3008343Y1653532D01*
X3007859Y1652565D01*
X3007376Y1651114D01*
Y1648695D01*
X3007859Y1647244D01*
X3008343Y1646277D01*
X3009311Y1645309D01*
X3010278Y1644826D01*
X3012213D01*
X3013180Y1645309D01*
X3014148Y1646277D01*
X3014631Y1647244D01*
X3015115Y1648695D01*
Y1651114D01*
X3014631Y1652565D01*
X3014148Y1653532D01*
X3013180Y1654500D01*
X3012213Y1654984D01*
X3010278D01*
X3025225Y1644826D02*
X3021355Y1654984D01*
X3017485Y1644826D01*
X3018936Y1648212D02*
X3023773D01*
X3027595Y1654984D02*
Y1644826D01*
Y1654984D02*
X3031948D01*
X3033399Y1654500D01*
X3033883Y1654016D01*
X3034366Y1653049D01*
Y1652081D01*
X3033883Y1651114D01*
X3033399Y1650630D01*
X3031948Y1650146D01*
X3027595D01*
X3030981D02*
X3034366Y1644826D01*
X3036640Y1654984D02*
Y1644826D01*
Y1654984D02*
X3040026D01*
X3041477Y1654500D01*
X3042444Y1653532D01*
X3042928Y1652565D01*
X3043412Y1651114D01*
Y1648695D01*
X3042928Y1647244D01*
X3042444Y1646277D01*
X3041477Y1645309D01*
X3040026Y1644826D01*
X3036640D01*
X3056569Y1654984D02*
X3055601Y1654500D01*
X3054634Y1653532D01*
X3054150Y1652565D01*
X3053666Y1651114D01*
Y1648695D01*
X3054150Y1647244D01*
X3054634Y1646277D01*
X3055601Y1645309D01*
X3056569Y1644826D01*
X3058503D01*
X3059471Y1645309D01*
X3060438Y1646277D01*
X3060922Y1647244D01*
X3061406Y1648695D01*
Y1651114D01*
X3060922Y1652565D01*
X3060438Y1653532D01*
X3059471Y1654500D01*
X3058503Y1654984D01*
X3056569D01*
X3063776D02*
Y1647728D01*
X3064260Y1646277D01*
X3065227Y1645309D01*
X3066678Y1644826D01*
X3067645D01*
X3069097Y1645309D01*
X3070064Y1646277D01*
X3070548Y1647728D01*
Y1654984D01*
X3076739D02*
Y1644826D01*
X3073353Y1654984D02*
X3080125D01*
X3081334D02*
Y1644826D01*
X3087139D01*
X3088251Y1654984D02*
Y1644826D01*
X3090380Y1654984D02*
Y1644826D01*
Y1654984D02*
X3097151Y1644826D01*
Y1654984D02*
Y1644826D01*
X3106245Y1654984D02*
X3099957D01*
Y1644826D01*
X3106245D01*
X3099957Y1650146D02*
X3103827D01*
D54*
X2956420Y1650033D02*
D03*
D67*
X1733082Y1045671D02*
G03*
X1732280Y1036320I15416J-6033D01*
G01*
X1850279Y1047769D02*
G03*
X1913476Y1040343I158977J1080352D01*
G01*
X1506000Y2697000D02*
G03*
X1467294Y2696174I-18214J-53787D01*
G01*
X697000Y1682000D02*
G03*
X734751Y1692795I-11237601J39371284D01*
G01*
X1732280Y1036320D02*
G03*
X1735566Y773435I350664J-127080D01*
G01*
X1233170Y773430D02*
G03*
X1236456Y1036315I-375878J136161D01*
G01*
X502975Y1267597D02*
G03*
X504079Y1267500I557J2D01*
G01*
X508222Y1283570D02*
G03*
X504079Y1267500I107110J-36184D01*
G01*
X514563Y1298239D02*
G03*
X508222Y1283570I85854J-45814D01*
G01*
X523346Y1311921D02*
G03*
X514563Y1298239I80352J-61247D01*
G01*
X534786Y1325043D02*
G03*
X523347Y1311921I94001J-93493D01*
G01*
X541679Y1331714D02*
G03*
X534786Y1325043I171254J-183852D01*
G01*
X546848Y1336040D02*
G03*
X541679Y1331714I38199J-50885D01*
G01*
X552143Y1339551D02*
G03*
X546847Y1336041I27266J-46886D01*
G01*
X559310Y1343454D02*
G03*
X552143Y1339551I65890J-129527D01*
G01*
X569323Y1348267D02*
G03*
X559310Y1343454I102382J-225766D01*
G01*
X577224Y1351392D02*
G03*
X569323Y1348267I27783J-81809D01*
G01*
X585689Y1353836D02*
G03*
X577224Y1351392I22170J-92654D01*
G01*
X597668Y1356480D02*
G03*
X585689Y1353836I68766J-340094D01*
G01*
X597668Y1356480D02*
G03*
X613619Y1359731I-1005664J4973697D01*
G01*
Y1359732D02*
G03*
X628962Y1362914I-876345J4263630D01*
G01*
X628962Y1362914D02*
G03*
X643133Y1365908I-771063J3684246D01*
G01*
X643133Y1365908D02*
G03*
X655520Y1368588I-461557J2163785D01*
G01*
X655520D02*
G03*
X683091Y1375119I-181609J828102D01*
G01*
X683091Y1375119D02*
G03*
X715100Y1383628I-389083J1528159D01*
G01*
X715100Y1383628D02*
G03*
X747713Y1392729I-2478496J8944450D01*
G01*
X747713Y1392729D02*
G03*
X748117Y1394246I-247J878D01*
G01*
X748164Y1394480D02*
G03*
X748117Y1394246I55J-133D01*
G01*
X748889Y1394713D02*
G03*
X748164Y1394480I1032J-4452D01*
G01*
X750044Y1394912D02*
G03*
X748889Y1394713I1143J-10116D01*
G01*
X751530Y1395037D02*
G03*
X750044Y1394912I1462J-26219D01*
G01*
X751530Y1395037D02*
G03*
X753367Y1395267I-749J13441D01*
G01*
D02*
G03*
X755629Y1395793I-6316J32267D01*
G01*
X755629D02*
G03*
X757929Y1396502I-8991J33272D01*
G01*
D02*
G03*
X759904Y1397300I-6950J20038D01*
G01*
X759904Y1397300D02*
G03*
X762924Y1398708I-361326J779015D01*
G01*
X762924D02*
G03*
X763174Y1398952I-224J479D01*
G01*
X763174Y1398952D02*
G03*
X763076Y1399080I-81J40D01*
G01*
X763076Y1399081D02*
G03*
X760533Y1398572I63401J-323603D01*
G01*
X753826Y1397214D02*
G03*
X760533Y1398572I-414042J2063140D01*
G01*
X753428Y1397411D02*
G03*
X753826Y1397214I327J161D01*
G01*
X753570Y1397750D02*
G03*
X753428Y1397411I77J-232D01*
G01*
X759904Y1399851D02*
G03*
X753570Y1397750I598390J-1815013D01*
G01*
X763700Y1400990D02*
G03*
X759904Y1399851I19370J-71409D01*
G01*
X767304Y1401842D02*
G03*
X763700Y1400990I11185J-55370D01*
G01*
X770345Y1402363D02*
G03*
X767304Y1401842I7171J-51076D01*
G01*
X771852Y1402264D02*
G03*
X770345Y1402363I-990J-3577D01*
G01*
X771851Y1402264D02*
G03*
X772933Y1401991I6673J24114D01*
G01*
X772933Y1401991D02*
G03*
X773327Y1402024I144J629D01*
G01*
X773327Y1402024D02*
G03*
X773361Y1402216I-45J107D01*
G01*
Y1402216D02*
G03*
X772803Y1402663I-3733J-4090D01*
G01*
X772964Y1404057D02*
G03*
X772803Y1402663I296J-741D01*
G01*
X780034Y1406605D02*
G03*
X772964Y1404057I33703J-104600D01*
G01*
X787675Y1408768D02*
G03*
X780034Y1406605I26285J-107451D01*
G01*
X791364Y1408644D02*
G03*
X787675Y1408768I-2066J-6510D01*
G01*
X791364Y1408644D02*
G03*
X792394Y1408413I1828J5758D01*
G01*
Y1408414D02*
G03*
X793183Y1408467I263J1973D01*
G01*
Y1408467D02*
G03*
X793672Y1408789I-250J910D01*
G01*
X793672D02*
G03*
X793860Y1409328I-677J539D01*
G01*
X794017Y1409832D02*
G03*
X793860Y1409328I731J-503D01*
G01*
X794431Y1410155D02*
G03*
X794017Y1409832I305J-818D01*
G01*
X795062Y1410235D02*
G03*
X794431Y1410155I-143J-1390D01*
G01*
X795812Y1410056D02*
G03*
X795062Y1410235I-1050J-2735D01*
G01*
X795812Y1410056D02*
G03*
X796519Y1409843I1818J4740D01*
G01*
D02*
G03*
X796984Y1409861I198J880D01*
G01*
X796984Y1409862D02*
G03*
X797155Y1410082I-72J232D01*
G01*
X797154Y1410082D02*
G03*
X797061Y1410445I-632J31D01*
G01*
X797199Y1411027D02*
G03*
X797061Y1410445I221J-360D01*
G01*
X799061Y1412064D02*
G03*
X797199Y1411027I11165J-22235D01*
G01*
X801647Y1413213D02*
G03*
X799061Y1412064I10809J-27824D01*
G01*
X804856Y1414359D02*
G03*
X801647Y1413213I19338J-59191D01*
G01*
X804856Y1414359D02*
G03*
X808181Y1415486I-49642J151942D01*
G01*
Y1415486D02*
G03*
X811141Y1416576I-34529J98315D01*
G01*
X811141Y1416576D02*
G03*
X813590Y1417549I-46663J121017D01*
G01*
X813590Y1417549D02*
G03*
X814319Y1418008I-946J2312D01*
G01*
X814319D02*
G03*
X814223Y1418493I-193J214D01*
G01*
X814223D02*
G03*
X809366Y1420187I-110409J-308907D01*
G01*
X809366Y1420187D02*
G03*
X803391Y1422097I-55438J-163134D01*
G01*
X803391Y1422097D02*
G03*
X796102Y1424199I-105089J-350659D01*
G01*
X753238Y1438022D02*
G03*
X796102Y1424199I187854J509145D01*
G01*
X710855Y1455580D02*
G03*
X753238Y1438022I244597J530507D01*
G01*
X673698Y1474602D02*
G03*
X710855Y1455580I249679J441918D01*
G01*
X647465Y1492730D02*
G03*
X673698Y1474602I113100J135623D01*
G01*
X640654Y1499283D02*
G03*
X647465Y1492730I49476J44608D01*
G01*
X633452Y1507977D02*
G03*
X640654Y1499283I107182J81448D01*
G01*
X626800Y1517525D02*
G03*
X633452Y1507977I118829J75696D01*
G01*
X621638Y1526717D02*
G03*
X626800Y1517525I85346J41887D01*
G01*
X612088Y1555946D02*
G03*
X621638Y1526717I108127J19152D01*
G01*
X611142Y1586405D02*
G03*
X612088Y1555946I105325J-11971D01*
G01*
X618918Y1616084D02*
G03*
X611142Y1586405I99108J-41827D01*
G01*
X634858Y1643028D02*
G03*
X618918Y1616084I91322J-72212D01*
G01*
X645957Y1654912D02*
G03*
X634858Y1643028I66589J-73316D01*
G01*
X658852Y1664821D02*
G03*
X645957Y1654912I53707J-83238D01*
G01*
X673881Y1672941D02*
G03*
X658852Y1664821I44701J-100692D01*
G01*
X691363Y1679486D02*
G03*
X673881Y1672941I46104J-149776D01*
G01*
X698166Y1681577D02*
G03*
X691363Y1679486I2650254J-8634402D01*
G01*
X734751Y1692795D02*
G03*
X777152Y1706084I-1001954J3271210D01*
G01*
X777152D02*
G03*
X812856Y1717950I-539232J1682150D01*
G01*
Y1717950D02*
G03*
X845260Y1729536I-471326J1369289D01*
G01*
Y1729536D02*
G03*
X877494Y1741928I-510843J1376874D01*
G01*
X877494Y1741928D02*
G03*
X908825Y1754874I-481148J1208894D01*
G01*
X908825Y1754874D02*
G03*
X939690Y1768584I-504816J1178059D01*
G01*
Y1768584D02*
G03*
X967140Y1781678I-458063J995628D01*
G01*
X967140Y1781678D02*
G03*
X987537Y1792556I-165115J334150D01*
G01*
X987537Y1792556D02*
G03*
X1000884Y1800480I-260703J454297D01*
G01*
X1000884D02*
G03*
X1017374Y1810778I-667463J1087159D01*
G01*
Y1810778D02*
G03*
X1034737Y1821830I-5630042J8864388D01*
G01*
X1034738Y1821830D02*
G03*
X1035322Y1822906I-680J1066D01*
G01*
X1035322Y1822906D02*
G03*
X1035033Y1823324I-452J-3D01*
G01*
X1035033Y1823324D02*
G03*
X1023775Y1827672I-3592605J-9286524D01*
G01*
X1023775Y1827672D02*
G03*
X1011088Y1832485I-460261J-1194005D01*
G01*
X1011088Y1832485D02*
G03*
X996021Y1838055I-875167J-2344160D01*
G01*
X975625Y1845721D02*
G03*
X996021Y1838055I453023J1174247D01*
G01*
X958191Y1852719D02*
G03*
X975625Y1845721I268629J644101D01*
G01*
X941652Y1859894D02*
G03*
X958191Y1852719I260968J578911D01*
G01*
X924026Y1868081D02*
G03*
X941652Y1859894I369860J773167D01*
G01*
X898806Y1880629D02*
G03*
X924026Y1868081I417533J807556D01*
G01*
X881105Y1890694D02*
G03*
X898806Y1880629I135144J217086D01*
G01*
X867641Y1900103D02*
G03*
X881105Y1890694I95211J121903D01*
G01*
X856114Y1910359D02*
G03*
X867641Y1900103I85737J84759D01*
G01*
X832209Y1947828D02*
G03*
X856114Y1910359I99090J36858D01*
G01*
X825653Y1992010D02*
G03*
X832209Y1947828I107544J-6618D01*
G01*
X837578Y2035205D02*
G03*
X825653Y1992010I96419J-49862D01*
G01*
X865930Y2069870D02*
G03*
X837578Y2035205I67830J-84405D01*
G01*
X875857Y2076942D02*
G03*
X865929Y2069870I55922J-89011D01*
G01*
X886595Y2082863D02*
G03*
X875857Y2076941I46536J-97083D01*
G01*
X900606Y2088878D02*
G03*
X886595Y2082863I65502J-171898D01*
G01*
X921511Y2096512D02*
G03*
X900606Y2088878I263395J-753719D01*
G01*
X921511Y2096512D02*
G03*
X988381Y2120568I-1283934J3674030D01*
G01*
X988381Y2120568D02*
G03*
X1043096Y2141824I-632990J1710378D01*
G01*
X1043096Y2141824D02*
G03*
X1089831Y2161895I-505029J1240439D01*
G01*
X1089831D02*
G03*
X1132102Y2182252I-399749J884145D01*
G01*
X1132102Y2182252D02*
G03*
X1142076Y2187394I-851418J1663852D01*
G01*
X1142076D02*
G03*
X1150747Y2191946I-500854J964440D01*
G01*
X1150747Y2191946D02*
G03*
X1158156Y2195896I-1081391J2037245D01*
G01*
X1158156Y2195896D02*
G03*
X1159461Y2196775I-3702J6911D01*
G01*
X1159462D02*
G03*
X1159864Y2197612I-711J857D01*
G01*
X1159864Y2197612D02*
G03*
X1159511Y2198510I-1262J22D01*
G01*
X1159511Y2198510D02*
G03*
X1158096Y2199627I-4781J-4601D01*
G01*
X1158096Y2199627D02*
G03*
X1155124Y2201282I-36062J-61265D01*
G01*
X1137645Y2212744D02*
G03*
X1155124Y2201282I68075J84752D01*
G01*
X1122652Y2227356D02*
G03*
X1137645Y2212744I83520J70702D01*
G01*
X1110605Y2244685D02*
G03*
X1122652Y2227356I96973J54563D01*
G01*
X1101863Y2264199D02*
G03*
X1110605Y2244685I110881J37955D01*
G01*
X1099359Y2272155D02*
G03*
X1101863Y2264199I161330J46412D01*
G01*
X1098234Y2277641D02*
G03*
X1099359Y2272155I35690J4458D01*
G01*
X1097777Y2284175D02*
G03*
X1098234Y2277641I60307J942D01*
G01*
X1097666Y2297802D02*
G03*
X1097777Y2284175I908755J558D01*
G01*
X1097760Y2311351D02*
G03*
X1097666Y2297802I892695J-12998D01*
G01*
X1098207Y2317942D02*
G03*
X1097760Y2311351I61732J-7497D01*
G01*
X1099311Y2323470D02*
G03*
X1098207Y2317942I35684J-9995D01*
G01*
X1101744Y2331385D02*
G03*
X1099311Y2323470I155786J-52233D01*
G01*
X1109708Y2349270D02*
G03*
X1101744Y2331385I89439J-50543D01*
G01*
X1121142Y2365941D02*
G03*
X1109708Y2349270I90134J-74069D01*
G01*
X1135506Y2380663D02*
G03*
X1121142Y2365942I78969J-91419D01*
G01*
X1152175Y2392754D02*
G03*
X1135506Y2380663I62673J-103942D01*
G01*
X1152175Y2392754D02*
G03*
X1225860Y2443485I-382860J634968D01*
G01*
X1225860Y2443485D02*
G03*
X1289985Y2500980I-392441J502204D01*
G01*
X1289985Y2500980D02*
G03*
X1343046Y2563802I-415863J405067D01*
G01*
Y2563802D02*
G03*
X1383698Y2630448I-381377J278346D01*
G01*
X1391357Y2644451D02*
G03*
X1383698Y2630448I192881J-114598D01*
G01*
X1398861Y2655506D02*
G03*
X1391357Y2644450I87914J-67747D01*
G01*
X1407125Y2664884D02*
G03*
X1398861Y2655507I67027J-67397D01*
G01*
X1417054Y2673734D02*
G03*
X1407125Y2664884I75915J-95168D01*
G01*
X1428199Y2681398D02*
G03*
X1417054Y2673734I48355J-82255D01*
G01*
X1440962Y2687908D02*
G03*
X1428199Y2681398I48016J-109899D01*
G01*
X1454340Y2692820D02*
G03*
X1440962Y2687908I34174J-113750D01*
G01*
X1467328Y2695699D02*
G03*
X1454340Y2692820I13002J-89382D01*
G01*
X1467328Y2695699D02*
G03*
X1467294Y2696174I-34J236D01*
G01*
X1516904Y2691761D02*
G03*
X1503378Y2695133I-32545J-101741D01*
G01*
X1529877Y2686657D02*
G03*
X1516904Y2691761I-45542J-96707D01*
G01*
X1542195Y2679852D02*
G03*
X1529877Y2686657I-58742J-91776D01*
G01*
X1553763Y2671406D02*
G03*
X1542195Y2679852I-74591J-90020D01*
G01*
X1562109Y2663665D02*
G03*
X1553763Y2671406I-73383J-70748D01*
G01*
X1569288Y2655249D02*
G03*
X1562109Y2663665I-72662J-54715D01*
G01*
X1576054Y2645175D02*
G03*
X1569288Y2655249I-96636J-57598D01*
G01*
X1583184Y2632335D02*
G03*
X1576054Y2645175I-212894J-109805D01*
G01*
X1583184Y2632335D02*
G03*
X1597252Y2606345I658156J339457D01*
G01*
X1597252Y2606345D02*
G03*
X1610787Y2584018I393142J223062D01*
G01*
Y2584018D02*
G03*
X1625191Y2563135I355713J229946D01*
G01*
X1625191Y2563135D02*
G03*
X1641872Y2541547I456205J335265D01*
G01*
X1641872Y2541547D02*
G03*
X1663556Y2516240I488497J396614D01*
G01*
X1663556Y2516240D02*
G03*
X1686046Y2492738I423828J383070D01*
G01*
X1686046Y2492738D02*
G03*
X1710252Y2470142I416764J422198D01*
G01*
X1710252Y2470142D02*
G03*
X1737092Y2447553I494290J560068D01*
G01*
X1737092D02*
G03*
X1754854Y2433665I563596J702493D01*
G01*
X1754854D02*
G03*
X1771057Y2421765I345542J453511D01*
G01*
X1771057Y2421764D02*
G03*
X1787416Y2410625I317834J449154D01*
G01*
X1787416Y2410625D02*
G03*
X1805633Y2399051I425999J650411D01*
G01*
X1823792Y2387319D02*
G03*
X1805635Y2399050I-281486J-415753D01*
G01*
X1835812Y2378082D02*
G03*
X1823790Y2387320I-82841J-95358D01*
G01*
X1844883Y2368890D02*
G03*
X1835812Y2378081I-64292J-54375D01*
G01*
X1853264Y2357673D02*
G03*
X1844883Y2368890I-97058J-63783D01*
G01*
X1861281Y2343432D02*
G03*
X1853264Y2357674I-107511J-51143D01*
G01*
X1866796Y2328941D02*
G03*
X1861281Y2343432I-92737J-27000D01*
G01*
X1869941Y2313689D02*
G03*
X1866796Y2328941I-96774J-12008D01*
G01*
X1870878Y2297173D02*
G03*
X1869941Y2313689I-123962J1252D01*
G01*
X1870234Y2284446D02*
G03*
X1870878Y2297173I-156912J14317D01*
G01*
X1868551Y2273561D02*
G03*
X1870234Y2284446I-86265J18910D01*
G01*
X1865587Y2263273D02*
G03*
X1868551Y2273561I-77804J27994D01*
G01*
X1861059Y2252379D02*
G03*
X1865586Y2263273I-109936J52076D01*
G01*
X1852863Y2237237D02*
G03*
X1861059Y2252379I-136687J83775D01*
G01*
X1843990Y2225061D02*
G03*
X1852863Y2237237I-71612J61504D01*
G01*
X1822180Y2207111D02*
G03*
X1833929Y2215221I-42717J74453D01*
G01*
X1822180Y2207111D02*
G03*
X1818089Y2204745I354203J-617312D01*
G01*
X1818089Y2204745D02*
G03*
X1814280Y2202506I273742J-469885D01*
G01*
X1814280Y2202506D02*
G03*
X1811093Y2200599I279797J-471380D01*
G01*
X1811093Y2200599D02*
G03*
X1809694Y2199700I14812J-24574D01*
G01*
X1809694Y2199700D02*
G03*
X1809296Y2198475I596J-871D01*
G01*
D02*
G03*
X1810376Y2196944I3281J1169D01*
G01*
X1810376Y2196944D02*
G03*
X1813806Y2194520I19390J23786D01*
G01*
X1813806Y2194520D02*
G03*
X1822271Y2189448I359461J590370D01*
G01*
X1822270Y2189448D02*
G03*
X1837126Y2181260I149044J252835D01*
G01*
D02*
G03*
X1855554Y2172164I287074J558422D01*
G01*
X1855555Y2172164D02*
G03*
X1878640Y2161604I415596J877952D01*
G01*
D02*
G03*
X1908131Y2148805I997470J2257949D01*
G01*
D02*
G03*
X1932455Y2138748I472694J1108864D01*
G01*
X1932454Y2138748D02*
G03*
X1962035Y2127108I947740J2365128D01*
G01*
X1962035Y2127108D02*
G03*
X1991442Y2115959I908114J2350767D01*
G01*
X1991442Y2115959D02*
G03*
X2015118Y2107474I363055J975861D01*
G01*
X2043136Y2097700D02*
G03*
X2015118Y2107474I-1349338J-3822659D01*
G01*
X2063348Y2090352D02*
G03*
X2043136Y2097700I-403181J-1077597D01*
G01*
X2077881Y2084732D02*
G03*
X2063348Y2090352I-263017J-658513D01*
G01*
X2085458Y2081157D02*
G03*
X2077881Y2084732I-33138J-60422D01*
G01*
X2109344Y2063776D02*
G03*
X2085458Y2081157I-79776J-84526D01*
G01*
X2127246Y2041405D02*
G03*
X2109344Y2063776I-88670J-52609D01*
G01*
X2138286Y2014994D02*
G03*
X2127246Y2041405I-99520J-26087D01*
G01*
X2142052Y1985772D02*
G03*
X2138286Y2014994I-115249J-0D01*
G01*
X2140215Y1964457D02*
G03*
X2142052Y1985772I-122733J21315D01*
G01*
X2134750Y1945047D02*
G03*
X2140215Y1964457I-91615J36269D01*
G01*
X2125669Y1927741D02*
G03*
X2134750Y1945047I-76572J51216D01*
G01*
X2113108Y1912661D02*
G03*
X2125669Y1927741I-65288J67151D01*
G01*
X2091977Y1895150D02*
G03*
X2113108Y1912661I-99514J141596D01*
G01*
X2064265Y1877548D02*
G03*
X2091977Y1895150I-174437J305239D01*
G01*
X2031157Y1860419D02*
G03*
X2064265Y1877548I-188597J405081D01*
G01*
X1993546Y1844334D02*
G03*
X2031157Y1860419I-235524J602737D01*
G01*
X1982167Y1839908D02*
G03*
X1993546Y1844334I-1427727J3687328D01*
G01*
X1972377Y1836145D02*
G03*
X1982167Y1839908I-769408J2016149D01*
G01*
X1963791Y1832874D02*
G03*
X1972377Y1836145I-2835116J7454798D01*
G01*
X1962838Y1832615D02*
G03*
X1963791Y1832874I-830J4947D01*
G01*
X1962838Y1832615D02*
G03*
X1962245Y1832466I626J-3733D01*
G01*
D02*
G03*
X1961488Y1832178I3669J-10785D01*
G01*
X1961488Y1832177D02*
G03*
X1960702Y1831814I4816J-11428D01*
G01*
X1960703D02*
G03*
X1960009Y1831422I4022J-7940D01*
G01*
X1959404Y1831118D02*
G03*
X1960008Y1831422I-1337J3412D01*
G01*
X1958893Y1831027D02*
G03*
X1959404Y1831118I29J1321D01*
G01*
X1958558Y1831156D02*
G03*
X1958893Y1831027I346J400D01*
G01*
X1958417Y1831457D02*
G03*
X1958558Y1831156I409J8D01*
G01*
X1958417Y1831457D02*
G03*
X1958313Y1831685I-314J-6D01*
G01*
X1958313Y1831685D02*
G03*
X1958107Y1831708I-119J-133D01*
G01*
X1958107Y1831708D02*
G03*
X1957779Y1831431I545J-976D01*
G01*
X1957779Y1831430D02*
G03*
X1957387Y1830883I4810J-3850D01*
G01*
X1955909Y1829753D02*
G03*
X1957387Y1830883I-795J2572D01*
G01*
X1950871Y1828336D02*
G03*
X1955910Y1829753I-25055J98761D01*
G01*
X1943836Y1826760D02*
G03*
X1950871Y1828337I-24685J126618D01*
G01*
X1934058Y1824964D02*
G03*
X1943837Y1826760I-76986J446817D01*
G01*
X1937202Y1818750D02*
G03*
X1950667Y1810306I149123J222841D01*
G01*
X1950667D02*
G03*
X1967585Y1800751I300516J512347D01*
G01*
X1967584Y1800751D02*
G03*
X1985501Y1791385I300168J552393D01*
G01*
X1985501Y1791386D02*
G03*
X2002139Y1783463I195038J388184D01*
G01*
X2010457Y1779681D02*
G03*
X2002139Y1783463I-529210J-1152747D01*
G01*
X2017461Y1776415D02*
G03*
X2010458Y1779681I-278937J-589080D01*
G01*
X2023652Y1773478D02*
G03*
X2017461Y1776415I-1895878J-3987815D01*
G01*
X2023834Y1773191D02*
G03*
X2023652Y1773478I-318J-0D01*
G01*
X2023672Y1773026D02*
G03*
X2023834Y1773191I-3J164D01*
G01*
X2022818Y1773046D02*
G03*
X2023672Y1773027I684J11092D01*
G01*
X2021702Y1773166D02*
G03*
X2022818Y1773046I1884J12344D01*
G01*
X2020375Y1773404D02*
G03*
X2021702Y1773166I5213J25215D01*
G01*
X2020375Y1773404D02*
G03*
X2018405Y1773790I-19911J-96289D01*
G01*
Y1773790D02*
G03*
X2018305Y1773637I-18J-98D01*
G01*
X2018305Y1773637D02*
G03*
X2018672Y1773325I755J516D01*
G01*
X2018671Y1773325D02*
G03*
X2021247Y1772129I150805J321341D01*
G01*
Y1772129D02*
G03*
X2023030Y1771415I7995J17396D01*
G01*
X2023030Y1771416D02*
G03*
X2024807Y1770916I5304J15460D01*
G01*
X2024807Y1770916D02*
G03*
X2026347Y1770669I2881J13038D01*
G01*
X2026347Y1770669D02*
G03*
X2027286Y1770795I206J2037D01*
G01*
X2027900Y1770974D02*
G03*
X2027286Y1770795I783J-3819D01*
G01*
X2028291Y1770931D02*
G03*
X2027900Y1770974I-262J-588D01*
G01*
X2028426Y1770706D02*
G03*
X2028291Y1770931I-228J16D01*
G01*
X2028308Y1770339D02*
G03*
X2028426Y1770706I-686J424D01*
G01*
X2028308Y1770339D02*
G03*
X2028395Y1769350I706J-436D01*
G01*
X2028395D02*
G03*
X2029636Y1768488I2425J2168D01*
G01*
X2029635D02*
G03*
X2031452Y1768122I1953J4993D01*
G01*
Y1768122D02*
G03*
X2032945Y1768525I69J2708D01*
G01*
X2033420Y1768774D02*
G03*
X2032945Y1768525I1509J-3460D01*
G01*
X2033670Y1768753D02*
G03*
X2033420Y1768774I-145J-219D01*
G01*
X2033735Y1768553D02*
G03*
X2033670Y1768753I-159J59D01*
G01*
X2033533Y1768138D02*
G03*
X2033735Y1768553I-1978J1222D01*
G01*
X2033533Y1768138D02*
G03*
X2033795Y1767032I683J-422D01*
G01*
X2033795Y1767032D02*
G03*
X2037754Y1764772I36131J58676D01*
G01*
X2037754Y1764772D02*
G03*
X2043866Y1761797I48324J91534D01*
G01*
X2043866Y1761797D02*
G03*
X2053388Y1757655I216747J485269D01*
G01*
X2055980Y1756552D02*
G03*
X2053388Y1757655I-283654J-662670D01*
G01*
X2058568Y1755438D02*
G03*
X2055980Y1756552I-286290J-661699D01*
G01*
X2060824Y1754457D02*
G03*
X2058568Y1755438I-258226J-590627D01*
G01*
X2062192Y1753846D02*
G03*
X2060824Y1754457I-40104J-87985D01*
G01*
X2062192Y1753846D02*
G03*
X2081707Y1745449I206525J453117D01*
G01*
Y1745449D02*
G03*
X2107191Y1735422I508763J1255556D01*
G01*
X2107191Y1735422D02*
G03*
X2135672Y1724856I567986J1487407D01*
G01*
X2135672Y1724856D02*
G03*
X2164690Y1714706I565757J1570892D01*
G01*
Y1714706D02*
G03*
X2190885Y1706057I528996J1558210D01*
G01*
X2190884Y1706057D02*
G03*
X2226278Y1694837I1612372J5024672D01*
G01*
Y1694837D02*
G03*
X2260645Y1684179I1950826J6229612D01*
G01*
X2260645D02*
G03*
X2276620Y1679655I110802J360797D01*
G01*
X2289790Y1675133D02*
G03*
X2276620Y1679655I-35970J-83314D01*
G01*
X2302592Y1668518D02*
G03*
X2289790Y1675133I-54025J-88864D01*
G01*
X2314701Y1659988D02*
G03*
X2302592Y1668518I-69207J-85388D01*
G01*
X2325802Y1649755D02*
G03*
X2314701Y1659988I-85794J-81925D01*
G01*
X2331739Y1643217D02*
G03*
X2325802Y1649755I-133672J-115438D01*
G01*
X2335868Y1637870D02*
G03*
X2331739Y1643217I-50749J-34915D01*
G01*
X2339568Y1631857D02*
G03*
X2335868Y1637870I-60894J-33334D01*
G01*
X2344188Y1623029D02*
G03*
X2339568Y1631857I-237877J-118862D01*
G01*
X2350118Y1609935D02*
G03*
X2344188Y1623029I-174574J-71173D01*
G01*
X2353521Y1599247D02*
G03*
X2350118Y1609935I-69262J-16163D01*
G01*
X2355275Y1587896D02*
G03*
X2353521Y1599247I-75469J-5850D01*
G01*
X2355957Y1572594D02*
G03*
X2355275Y1587896I-233671J-2761D01*
G01*
X2355939Y1563389D02*
G03*
X2355957Y1572594I-333514J5268D01*
G01*
X2355585Y1557022D02*
G03*
X2355939Y1563389I-79651J7629D01*
G01*
X2354782Y1551542D02*
G03*
X2355584Y1557022I-54562J10784D01*
G01*
X2353356Y1545440D02*
G03*
X2354783Y1551542I-87750J23728D01*
G01*
X2348583Y1531796D02*
G03*
X2353356Y1545440I-91631J39711D01*
G01*
X2341809Y1518692D02*
G03*
X2348583Y1531796I-92547J56147D01*
G01*
X2333199Y1506438D02*
G03*
X2341809Y1518692I-86827J70156D01*
G01*
X2322952Y1495324D02*
G03*
X2333199Y1506437I-79857J83917D01*
G01*
X2307248Y1482711D02*
G03*
X2322952Y1495324I-67120J99648D01*
G01*
X2285980Y1469732D02*
G03*
X2307248Y1482711I-133971J243450D01*
G01*
X2261056Y1457328D02*
G03*
X2285980Y1469732I-137665J307861D01*
G01*
X2234081Y1446418D02*
G03*
X2261056Y1457328I-137239J378137D01*
G01*
X2234081Y1446418D02*
G03*
X2226231Y1443515I231845J-638824D01*
G01*
X2226231Y1443515D02*
G03*
X2217906Y1440328I308383J-818130D01*
G01*
X2217906Y1440328D02*
G03*
X2210302Y1437328I287695J-740304D01*
G01*
X2210302Y1437328D02*
G03*
X2204934Y1435091I78179J-195194D01*
G01*
X2199502Y1432927D02*
G03*
X2204934Y1435091I-34003J93245D01*
G01*
X2191662Y1430163D02*
G03*
X2199502Y1432927I-126044J369908D01*
G01*
X2183007Y1427314D02*
G03*
X2191662Y1430162I-130801J412097D01*
G01*
X2174766Y1424811D02*
G03*
X2183007Y1427314I-96186J331521D01*
G01*
X2174766Y1424811D02*
G03*
X2167263Y1422609I349833J-1205752D01*
G01*
X2167263Y1422609D02*
G03*
X2160864Y1420675I191665J-645555D01*
G01*
X2160864D02*
G03*
X2155249Y1418940I842300J-2737094D01*
G01*
X2155249Y1418940D02*
G03*
X2154792Y1418665I329J-1062D01*
G01*
X2154792Y1418665D02*
G03*
X2154948Y1417808I374J-374D01*
G01*
X2154948Y1417809D02*
G03*
X2164569Y1413515I436026J964170D01*
G01*
X2164569Y1413515D02*
G03*
X2173672Y1409688I118627J269427D01*
G01*
X2173672Y1409688D02*
G03*
X2179415Y1407824I16708J41687D01*
G01*
X2181483Y1407217D02*
G03*
X2179415Y1407824I-8878J-26440D01*
G01*
X2183226Y1406517D02*
G03*
X2181483Y1407217I-6898J-14647D01*
G01*
X2184513Y1405819D02*
G03*
X2183226Y1406516I-6766J-10941D01*
G01*
X2184812Y1405282D02*
G03*
X2184513Y1405819I-631J0D01*
G01*
X2184812Y1405282D02*
G03*
X2184906Y1404890I860J-0D01*
G01*
Y1404890D02*
G03*
X2185161Y1404663I422J216D01*
G01*
X2185161Y1404663D02*
G03*
X2185546Y1404642I226J602D01*
G01*
X2185547Y1404642D02*
G03*
X2186001Y1404835I-402J1580D01*
G01*
X2186907Y1404997D02*
G03*
X2186001Y1404834I-247J-1228D01*
G01*
X2190648Y1404198D02*
G03*
X2186907Y1404997I-35283J-156048D01*
G01*
X2195098Y1403090D02*
G03*
X2190648Y1404198I-27720J-101797D01*
G01*
X2200150Y1401635D02*
G03*
X2195098Y1403090I-52826J-174008D01*
G01*
X2200150Y1401635D02*
G03*
X2205891Y1399922I185797J611958D01*
G01*
X2205891Y1399922D02*
G03*
X2212442Y1398022I301945J1029167D01*
G01*
Y1398022D02*
G03*
X2218780Y1396228I283095J988100D01*
G01*
X2218780Y1396228D02*
G03*
X2223799Y1394860I108985J389834D01*
G01*
X2239788Y1390436D02*
G03*
X2223799Y1394860I-225327J-783238D01*
G01*
X2253564Y1386240D02*
G03*
X2239788Y1390436I-142091J-441823D01*
G01*
X2265409Y1382369D02*
G03*
X2253564Y1386240I-415132J-1250129D01*
G01*
X2265775Y1381360D02*
G03*
X2265409Y1382369I-582J360D01*
G01*
X2265775Y1381360D02*
G03*
X2265807Y1381017I244J-151D01*
G01*
X2265807Y1381017D02*
G03*
X2266206Y1380807I487J441D01*
G01*
X2266206Y1380807D02*
G03*
X2267053Y1380809I416J3085D01*
G01*
D02*
G03*
X2268202Y1381033I-1517J10849D01*
G01*
X2269486Y1381238D02*
G03*
X2268202Y1381033I529J-7425D01*
G01*
X2270674Y1381187D02*
G03*
X2269486Y1381238I-817J-5167D01*
G01*
X2271622Y1380901D02*
G03*
X2270674Y1381187I-1519J-3322D01*
G01*
X2272187Y1380404D02*
G03*
X2271622Y1380901I-1104J-682D01*
G01*
X2272187Y1380403D02*
G03*
X2272699Y1379921I1156J714D01*
G01*
Y1379921D02*
G03*
X2273508Y1379631I1372J2554D01*
G01*
X2273508Y1379631D02*
G03*
X2274477Y1379569I720J3636D01*
G01*
X2274477Y1379569D02*
G03*
X2275460Y1379755I-280J4167D01*
G01*
X2276537Y1380024D02*
G03*
X2275460Y1379755I1599J-8700D01*
G01*
X2277134Y1379938D02*
G03*
X2276537Y1380024I-426J-845D01*
G01*
X2277364Y1379557D02*
G03*
X2277134Y1379938I-418J8D01*
G01*
X2277229Y1378863D02*
G03*
X2277364Y1379557I-1915J732D01*
G01*
X2277229Y1378863D02*
G03*
X2278067Y1377203I1174J-449D01*
G01*
X2278067Y1377203D02*
G03*
X2291423Y1373649I181943J656775D01*
G01*
X2291423Y1373649D02*
G03*
X2310495Y1369126I141530J554324D01*
G01*
X2310495D02*
G03*
X2340759Y1362643I708984J3235598D01*
G01*
X2373303Y1355744D02*
G03*
X2340759Y1362643I-1380746J-6433197D01*
G01*
X2387085Y1352435D02*
G03*
X2373303Y1355744I-75132J-282539D01*
G01*
X2396096Y1349510D02*
G03*
X2387085Y1352435I-31591J-81987D01*
G01*
X2405096Y1345534D02*
G03*
X2396096Y1349510I-45731J-91352D01*
G01*
X2416548Y1339048D02*
G03*
X2405096Y1345534I-69062J-108594D01*
G01*
X2426352Y1331879D02*
G03*
X2416549Y1339048I-59972J-71715D01*
G01*
X2435213Y1323442D02*
G03*
X2426352Y1331878I-69823J-64462D01*
G01*
X2443830Y1313143D02*
G03*
X2435213Y1323442I-109750J-83070D01*
G01*
X2453287Y1298350D02*
G03*
X2443830Y1313143I-98067J-52276D01*
G01*
X2459981Y1282669D02*
G03*
X2453287Y1298350I-93980J-30848D01*
G01*
X2463938Y1265909D02*
G03*
X2459981Y1282669I-99967J-14755D01*
G01*
X2465244Y1247904D02*
G03*
X2463938Y1265909I-121892J209D01*
G01*
X2461285Y1218496D02*
G03*
X2465244Y1247904I-108668J29599D01*
G01*
X2449802Y1192294D02*
G03*
X2461285Y1218496I-82681J51851D01*
G01*
X2429349Y1167206D02*
G03*
X2449802Y1192294I-90535J94692D01*
G01*
X2398174Y1140955D02*
G03*
X2429349Y1167206I-192164J259844D01*
G01*
X2379451Y1128031D02*
G03*
X2398174Y1140955I-188730J293441D01*
G01*
X2358086Y1115020D02*
G03*
X2379451Y1128031I-254204J441470D01*
G01*
X2334752Y1102297D02*
G03*
X2358086Y1115020I-262005J508263D01*
G01*
X2310093Y1090236D02*
G03*
X2334752Y1102297I-273511J590485D01*
G01*
X2285798Y1080231D02*
G03*
X2310093Y1090236I-103765J286473D01*
G01*
X2254430Y1069638D02*
G03*
X2285798Y1080232I-227115J724201D01*
G01*
X2221179Y1059990D02*
G03*
X2254430Y1069638I-207738J778098D01*
G01*
X2190773Y1052817D02*
G03*
X2221179Y1059990I-107457J523541D01*
G01*
X2140468Y1044134D02*
G03*
X2190774Y1052817I-112510J801930D01*
G01*
X2090019Y1038701D02*
G03*
X2140468Y1044134I-59377J788237D01*
G01*
X2036850Y1036318D02*
G03*
X2090019Y1038701I-12610J875651D01*
G01*
X1978323Y1036814D02*
G03*
X2036850Y1036318I40104J1278810D01*
G01*
X1959136Y1037482D02*
G03*
X1978323Y1036814I105947J2765925D01*
G01*
X1941338Y1038241D02*
G03*
X1959136Y1037482I96354J2050073D01*
G01*
X1926408Y1038995D02*
G03*
X1941338Y1038241I115376J2136113D01*
G01*
X1920078Y1039551D02*
G03*
X1926408Y1038995I11418J93651D01*
G01*
X1920078Y1039551D02*
G03*
X1913476Y1040343I-209567J-1718903D01*
G01*
X1825656Y1050764D02*
G03*
X1850279Y1047769I342441J2712690D01*
G01*
X1801070Y1053981D02*
G03*
X1825656Y1050764I366435J2704882D01*
G01*
X1779639Y1056981D02*
G03*
X1801070Y1053981I348882J2414104D01*
G01*
X1766646Y1059099D02*
G03*
X1779639Y1056981I65155J358820D01*
G01*
X1766646Y1059099D02*
G03*
X1757254Y1060802I-2900480J-15972905D01*
G01*
X1757254Y1060802D02*
G03*
X1748805Y1062327I-1892087J-10455249D01*
G01*
X1748805Y1062327D02*
G03*
X1741701Y1063605I-2480082J-13766635D01*
G01*
X1741701Y1063605D02*
G03*
X1739466Y1063995I-41449J-230835D01*
G01*
X1739466Y1063995D02*
G03*
X1737495Y1063849I-689J-4062D01*
G01*
X1737495Y1063849D02*
G03*
X1736317Y1062769I602J-1839D01*
G01*
X1736317Y1062769D02*
G03*
X1735488Y1059984I11795J-5029D01*
G01*
X1735488Y1059984D02*
G03*
X1733967Y1051099I691621J-122923D01*
G01*
Y1051099D02*
G03*
X1733082Y1045671I1873685J-308265D01*
G01*
X1503471Y2696204D02*
G03*
X1503378Y2695133I3J-540D01*
G01*
X1236456Y1036315D02*
G03*
X1233555Y1049031I-520930J-112167D01*
G01*
X1233555Y1049031D02*
G03*
X1232777Y1048964I-384J-93D01*
G01*
X1232595Y1046348D02*
G03*
X1232777Y1048964I-383470J28102D01*
G01*
X1232436Y1046106D02*
G03*
X1232595Y1046348I-140J265D01*
G01*
X1232243Y1046185D02*
G03*
X1232436Y1046106I129J40D01*
G01*
X1231592Y1048335D02*
G03*
X1232243Y1046185I204703J60862D01*
G01*
X1231312Y1049695D02*
G03*
X1231592Y1048335I8018J941D01*
G01*
X1231243Y1051178D02*
G03*
X1231312Y1049695I10560J-252D01*
G01*
X1231377Y1052561D02*
G03*
X1231243Y1051178I9399J-1609D01*
G01*
X1231717Y1053598D02*
G03*
X1231377Y1052561I3327J-1665D01*
G01*
X1231717Y1053598D02*
G03*
X1232116Y1054530I-7655J3832D01*
G01*
X1232116Y1054530D02*
G03*
X1232440Y1055580I-11068J3983D01*
G01*
X1232440Y1055580D02*
G03*
X1232648Y1056586I-10414J2682D01*
G01*
X1232648Y1056586D02*
G03*
X1232689Y1057371I-3704J584D01*
G01*
X1232689Y1057371D02*
G03*
X1232561Y1057761I-789J-42D01*
G01*
X1232561Y1057760D02*
G03*
X1232325Y1057800I-137J-89D01*
G01*
X1232325Y1057800D02*
G03*
X1231978Y1057384I767J-992D01*
G01*
X1231978Y1057384D02*
G03*
X1231575Y1056510I9513J-4916D01*
G01*
X1230923Y1055029D02*
G03*
X1231575Y1056510I-26210J12429D01*
G01*
X1230571Y1054900D02*
G03*
X1230923Y1055029I111J243D01*
G01*
X1230241Y1055282D02*
G03*
X1230571Y1054900I581J169D01*
G01*
X1229659Y1057382D02*
G03*
X1230240Y1055282I81949J21568D01*
G01*
X1229378Y1058776D02*
G03*
X1229659Y1057382I11998J1690D01*
G01*
X1229271Y1060164D02*
G03*
X1229378Y1058776I11141J164D01*
G01*
X1229332Y1061360D02*
G03*
X1229271Y1060164I9029J-1060D01*
G01*
X1229589Y1062098D02*
G03*
X1229332Y1061360I1535J-949D01*
G01*
X1229589Y1062098D02*
G03*
X1229427Y1062908I-515J318D01*
G01*
X1229427Y1062908D02*
G03*
X1228299Y1063208I-959J-1334D01*
G01*
X1228299Y1063208D02*
G03*
X1224772Y1062687I4284J-41224D01*
G01*
X1224772Y1062688D02*
G03*
X1212655Y1060339I607583J-3166466D01*
G01*
X1186394Y1055993D02*
G03*
X1212655Y1060338I-60651J448110D01*
G01*
X1130850Y1048699D02*
G03*
X1186394Y1055994I-895588J7034568D01*
G01*
X1075174Y1041864D02*
G03*
X1130850Y1048699I-734274J6211714D01*
G01*
X1042874Y1038723D02*
G03*
X1075174Y1041864I-59633J780855D01*
G01*
X1026720Y1037722D02*
G03*
X1042874Y1038723I-26808J563552D01*
G01*
X1008606Y1037046D02*
G03*
X1026720Y1037722I-23995J885965D01*
G01*
X987123Y1036646D02*
G03*
X1008606Y1037046I-13048J1275294D01*
G01*
X960498Y1036492D02*
G03*
X987123Y1036646I-3857J2979628D01*
G01*
X923855Y1036756D02*
G03*
X960498Y1036492I33849J2158356D01*
G01*
X896266Y1037726D02*
G03*
X923855Y1036756I38712J708296D01*
G01*
X869273Y1039746D02*
G03*
X896266Y1037726I63758J670661D01*
G01*
X834734Y1043366D02*
G03*
X869273Y1039745I204875J1788130D01*
G01*
X820496Y1045413D02*
G03*
X834734Y1043366I42778J247031D01*
G01*
X796583Y1049716D02*
G03*
X820496Y1045413I338830J1814310D01*
G01*
X772507Y1054384D02*
G03*
X796583Y1049715I349859J1739760D01*
G01*
X756760Y1057928D02*
G03*
X772507Y1054384I85263J342131D01*
G01*
X736916Y1063406D02*
G03*
X756760Y1057928I118886J391954D01*
G01*
X706700Y1072814D02*
G03*
X736917Y1063406I654771J2049667D01*
G01*
X676964Y1082526D02*
G03*
X706700Y1072814I765392J2293124D01*
G01*
X661925Y1088223D02*
G03*
X676964Y1082526I78767J185232D01*
G01*
X626856Y1105040D02*
G03*
X661925Y1088223I204024J380504D01*
G01*
X593558Y1124894D02*
G03*
X626856Y1105040I234709J355779D01*
G01*
X563116Y1147085D02*
G03*
X593558Y1124894I252445J314329D01*
G01*
X536608Y1170896D02*
G03*
X563116Y1147085I228748J228003D01*
G01*
X526738Y1181000D02*
G03*
X536608Y1170896I505989J484402D01*
G01*
X521689Y1186870D02*
G03*
X526738Y1181000I57622J44460D01*
G01*
X518000Y1192437D02*
G03*
X521689Y1186870I40444J22792D01*
G01*
X513736Y1200540D02*
G03*
X518000Y1192437I143056J70114D01*
G01*
X509925Y1209052D02*
G03*
X513736Y1200540I124304J50543D01*
G01*
X507034Y1217168D02*
G03*
X509924Y1209052I93507J28730D01*
G01*
X504788Y1225759D02*
G03*
X507034Y1217169I102423J22187D01*
G01*
X502925Y1235724D02*
G03*
X504788Y1225759I175335J27615D01*
G01*
X502925Y1235724D02*
G03*
X502721Y1235708I-101J-16D01*
G01*
X1833929Y2215221D02*
G03*
X1843990Y2225061I-51453J62672D01*
G01*
X502721Y1235708D02*
Y1267343D01*
X1400000Y793000D02*
Y1329000D01*
Y793000D02*
X1572000D01*
Y1329000D01*
X1400000D02*
X1572000D01*
X1735566Y742204D02*
Y773435D01*
Y742204D02*
X1736090Y741680D01*
X1233170D02*
X1736090D01*
X1233170D02*
Y773430D01*
X1929173Y1824123D02*
X1934058Y1824965D01*
X1929173Y1824123D02*
X1937202Y1818750D01*
D68*
X1515606Y2067000D02*
G03*
X1515606Y2067000I-3605J0D01*
G01*
X1337606D02*
G03*
X1337606Y2067000I-3605J0D01*
G01*
X1701606Y2064000D02*
G03*
X1701606Y2064000I-3605J0D01*
G01*
X1518500Y2060500D02*
Y2139500D01*
X1473500Y2060500D02*
X1518500D01*
X1473500D02*
Y2139500D01*
X1518500D01*
X1340500Y2060500D02*
Y2139500D01*
X1295500Y2060500D02*
X1340500D01*
X1295500D02*
Y2139500D01*
X1340500D01*
X1704500Y2057500D02*
Y2136500D01*
X1659500Y2057500D02*
X1704500D01*
X1659500D02*
Y2136500D01*
X1704500D01*
D69*
X1636048Y1348328D02*
G03*
X1629952Y1348328I-3048J0D01*
G01*
X1836014Y1297952D02*
G03*
X1836014Y1304048I0J3048D01*
G01*
X1839062Y1309382D02*
Y1315986D01*
X1843888D01*
Y1309382D02*
Y1315986D01*
X1839062Y1309382D02*
X1843888D01*
X1836014D02*
X1839062D01*
X1848460D02*
Y1315986D01*
X1853540D01*
Y1309382D02*
Y1315986D01*
X1858112Y1309382D02*
Y1315986D01*
X1862938D01*
Y1309382D02*
Y1315986D01*
Y1286014D02*
Y1292618D01*
X1858112Y1286014D02*
X1862938D01*
X1858112D02*
Y1292618D01*
X1862938D01*
X1865986D01*
X1853540Y1286014D02*
Y1292618D01*
X1848460Y1286014D02*
X1853540D01*
X1848460D02*
Y1292618D01*
X1843888Y1286014D02*
Y1292618D01*
X1839062Y1286014D02*
X1843888D01*
X1839062D02*
Y1292618D01*
X1853540D02*
X1858112D01*
X1848460D02*
X1853540D01*
X1843888D02*
X1848460D01*
X1839062D02*
X1843888D01*
X1836014D02*
X1839062D01*
X1836014D02*
Y1297952D01*
Y1304048D01*
Y1309382D01*
X1843888D02*
X1848460D01*
X1853540D01*
X1858112D01*
X1862938D01*
X1865986D01*
Y1292618D02*
Y1309382D01*
D70*
X1446500Y1805000D02*
X1477500D01*
X1446500D02*
Y1829000D01*
X1477500D01*
Y1805000D02*
Y1829000D01*
D71*
X1502240Y1365380D02*
X1507200D01*
Y1380620D01*
X1502240D02*
X1507200D01*
X1497160D02*
X1502240D01*
X1492100D02*
X1497160D01*
X1492100Y1365380D02*
Y1380620D01*
Y1365380D02*
X1497160D01*
X1502240D01*
X1476840D02*
X1482100D01*
Y1380620D01*
X1476840D02*
X1482100D01*
X1471760D02*
X1476840D01*
X1466800D02*
X1471760D01*
Y1365380D02*
X1476840D01*
X1466800D02*
X1471760D01*
X1466800D02*
Y1380620D01*
X1665512Y1359504D02*
Y1371696D01*
Y1359504D02*
X1684562D01*
Y1371696D01*
X1665512D02*
X1684562D01*
X1665512Y1410304D02*
Y1422496D01*
Y1410304D02*
X1684562D01*
Y1422496D01*
X1665512D02*
X1684562D01*
X1600488Y1410304D02*
Y1422496D01*
X1581438D02*
X1600488D01*
X1581438Y1410304D02*
Y1422496D01*
Y1410304D02*
X1600488D01*
Y1359504D02*
Y1371696D01*
X1581438D02*
X1600488D01*
X1581438Y1359504D02*
Y1371696D01*
Y1359504D02*
X1600488D01*
Y1433672D02*
X1665512D01*
X1600488Y1348328D02*
Y1433672D01*
Y1348328D02*
X1629952D01*
X1636048D01*
X1665512D01*
Y1433672D01*
X1700580Y1428800D02*
X1792020D01*
X1700580Y1431340D02*
Y1759000D01*
X1792020D01*
Y1431340D02*
Y1759000D01*
X1700580Y1431340D02*
X1792020D01*
Y1428800D02*
Y1431340D01*
X1700580Y1428800D02*
Y1431340D01*
D73*
X1143500Y2321000D02*
X1192500D01*
X1143500Y2281000D02*
Y2321000D01*
Y2281000D02*
X1192500D01*
Y2321000D01*
X935000Y1928500D02*
Y1977500D01*
Y1928500D02*
X975000D01*
Y1977500D01*
X935000D02*
X975000D01*
X1050000Y1928500D02*
Y1977500D01*
Y1928500D02*
X1090000D01*
Y1977500D01*
X1050000D02*
X1090000D01*
X674500Y1600000D02*
X723500D01*
X674500Y1560000D02*
Y1600000D01*
Y1560000D02*
X723500D01*
Y1600000D01*
X642000Y1183500D02*
Y1232500D01*
Y1183500D02*
X682000D01*
Y1232500D01*
X642000D02*
X682000D01*
X751000Y1183500D02*
Y1232500D01*
Y1183500D02*
X791000D01*
Y1232500D01*
X751000D02*
X791000D01*
X853000Y1183500D02*
Y1232500D01*
Y1183500D02*
X893000D01*
Y1232500D01*
X853000D02*
X893000D01*
X2096000Y1183500D02*
Y1232500D01*
Y1183500D02*
X2136000D01*
Y1232500D01*
X2096000D02*
X2136000D01*
X2202000Y1183500D02*
Y1232500D01*
Y1183500D02*
X2242000D01*
Y1232500D01*
X2202000D02*
X2242000D01*
X2311000Y1183500D02*
Y1232500D01*
Y1183500D02*
X2351000D01*
Y1232500D01*
X2311000D02*
X2351000D01*
X2241500Y1560000D02*
X2290500D01*
Y1600000D01*
X2241500D02*
X2290500D01*
X2241500Y1560000D02*
Y1600000D01*
X1992000Y1928500D02*
Y1977500D01*
Y1928500D02*
X2032000D01*
Y1977500D01*
X1992000D02*
X2032000D01*
X1871000Y1928500D02*
Y1977500D01*
Y1928500D02*
X1911000D01*
Y1977500D01*
X1871000D02*
X1911000D01*
X1753000Y2285000D02*
X1802000D01*
Y2325000D01*
X1753000D02*
X1802000D01*
X1753000Y2285000D02*
Y2325000D01*
X1505000Y2385000D02*
Y2434000D01*
X1465000D02*
X1505000D01*
X1465000Y2385000D02*
Y2434000D01*
Y2385000D02*
X1505000D01*
X1677000Y1779750D02*
X1697000D01*
Y1792250D01*
X1677000D02*
X1697000D01*
X1677000Y1779750D02*
Y1792250D01*
X1505000Y2594500D02*
Y2643500D01*
X1465000D02*
X1505000D01*
X1465000Y2594500D02*
Y2643500D01*
Y2594500D02*
X1505000D01*
X1516500Y1790500D02*
Y1809500D01*
X1489500D02*
X1516500D01*
X1489500Y1790500D02*
Y1809500D01*
Y1790500D02*
X1516500D01*
D111*
X1826600Y1238300D02*
X1877400D01*
Y1263700D01*
X1826600D02*
X1877400D01*
X1826600Y1238300D02*
Y1263700D01*
X1988600Y1506300D02*
X2039400D01*
Y1531700D01*
X1988600D02*
X2039400D01*
X1988600Y1506300D02*
Y1531700D01*
D113*
X32701038Y6481285D02*
G03*
X32710349Y6484142I-14572556J47507808D01*
G01*
X32692515Y6478672D02*
G03*
X32700640Y6481163I-12450082J40617883D01*
G01*
X32684424Y6476193D02*
G03*
X32692566Y6478687I-12470137J40712297D01*
G01*
X-10873336Y1792313D02*
G03*
X-10860619Y1790814I5285078J44779448D01*
G01*
X-10860082Y1790751D02*
G03*
X-10838708Y1788239I6354271J53972490D01*
G01*
X-10838868Y1788257D02*
G03*
X-10829978Y1787216I3477413J29637456D01*
G01*
X5736207Y-43046006D02*
G03*
X5736562Y-43047734I4072504J837845D01*
G01*
D114*
X1446000Y1829500D02*
X1478000D01*
X1446000Y1804500D02*
Y1829500D01*
Y1804500D02*
X1478000D01*
Y1829500D01*
M02*
