G04 Layer_Color=32768*
%FSLAX44Y44*%
%MOMM*%
G71*
G01*
G75*
%ADD53C,0.1270*%
%ADD54R,4.8260X2.4130*%
D53*
X2931790Y1483136D02*
X3165470D01*
Y1507265D01*
X2931790D02*
X3165470D01*
X2931541Y1483136D02*
Y1507265D01*
X2998330Y1499595D02*
Y1489438D01*
X3000459Y1499595D02*
Y1489438D01*
Y1499595D02*
X3003845D01*
X3005296Y1499112D01*
X3006263Y1498144D01*
X3006747Y1497177D01*
X3007231Y1495726D01*
Y1493307D01*
X3006747Y1491856D01*
X3006263Y1490889D01*
X3005296Y1489921D01*
X3003845Y1489438D01*
X3000459D01*
X3015792Y1499595D02*
X3009504D01*
Y1489438D01*
X3015792D01*
X3009504Y1494758D02*
X3013374D01*
X3017485Y1499595D02*
Y1489438D01*
Y1499595D02*
X3024257Y1489438D01*
Y1499595D02*
Y1489438D01*
X3030449Y1499595D02*
Y1489438D01*
X3027062Y1499595D02*
X3033835D01*
X3035044D02*
Y1489438D01*
X3037172Y1499595D02*
Y1489438D01*
Y1499595D02*
X3043460D01*
X3037172Y1494758D02*
X3041042D01*
X3044621Y1499595D02*
Y1489438D01*
X3054005Y1497177D02*
X3053521Y1498144D01*
X3052554Y1499112D01*
X3051586Y1499595D01*
X3049651D01*
X3048684Y1499112D01*
X3047717Y1498144D01*
X3047233Y1497177D01*
X3046749Y1495726D01*
Y1493307D01*
X3047233Y1491856D01*
X3047717Y1490889D01*
X3048684Y1489921D01*
X3049651Y1489438D01*
X3051586D01*
X3052554Y1489921D01*
X3053521Y1490889D01*
X3054005Y1491856D01*
X3064598Y1489438D02*
X3060728Y1499595D01*
X3056859Y1489438D01*
X3058310Y1492824D02*
X3063147D01*
X3070354Y1499595D02*
Y1489438D01*
X3066968Y1499595D02*
X3073740D01*
X3074949D02*
Y1489438D01*
X3079980Y1499595D02*
X3079012Y1499112D01*
X3078045Y1498144D01*
X3077562Y1497177D01*
X3077078Y1495726D01*
Y1493307D01*
X3077562Y1491856D01*
X3078045Y1490889D01*
X3079012Y1489921D01*
X3079980Y1489438D01*
X3081915D01*
X3082882Y1489921D01*
X3083849Y1490889D01*
X3084333Y1491856D01*
X3084817Y1493307D01*
Y1495726D01*
X3084333Y1497177D01*
X3083849Y1498144D01*
X3082882Y1499112D01*
X3081915Y1499595D01*
X3079980D01*
X3087187D02*
Y1489438D01*
Y1499595D02*
X3093959Y1489438D01*
Y1499595D02*
Y1489438D01*
X3104746Y1499595D02*
Y1489438D01*
Y1499595D02*
X3108132D01*
X3109583Y1499112D01*
X3110550Y1498144D01*
X3111034Y1497177D01*
X3111518Y1495726D01*
Y1493307D01*
X3111034Y1491856D01*
X3110550Y1490889D01*
X3109583Y1489921D01*
X3108132Y1489438D01*
X3104746D01*
X3121530D02*
X3117661Y1499595D01*
X3113791Y1489438D01*
X3115242Y1492824D02*
X3120079D01*
X3127286Y1499595D02*
Y1489438D01*
X3123900Y1499595D02*
X3130672D01*
X3139621Y1489438D02*
X3135751Y1499595D01*
X3131882Y1489438D01*
X3133333Y1492824D02*
X3138170D01*
D54*
X2956420Y1494645D02*
D03*
M02*
