G04 Layer_Color=8388736*
%FSLAX44Y44*%
%MOMM*%
G71*
G01*
G75*
%ADD53C,0.1270*%
%ADD54R,4.8260X2.4130*%
%ADD81R,1.4732X1.7272*%
%ADD82R,1.7272X1.4732*%
%ADD83R,1.7272X1.9812*%
%ADD84R,0.7032X0.8032*%
%ADD85R,0.8032X0.7032*%
%ADD86R,1.0800X1.1300*%
G04:AMPARAMS|DCode=87|XSize=1.7532mm|YSize=0.7032mm|CornerRadius=0mm|HoleSize=0mm|Usage=FLASHONLY|Rotation=190.000|XOffset=0mm|YOffset=0mm|HoleType=Round|Shape=Rectangle|*
%AMROTATEDRECTD87*
4,1,4,0.8022,0.4985,0.9243,-0.1940,-0.8022,-0.4985,-0.9243,0.1940,0.8022,0.4985,0.0*
%
%ADD87ROTATEDRECTD87*%

G04:AMPARAMS|DCode=88|XSize=1.7532mm|YSize=0.7032mm|CornerRadius=0mm|HoleSize=0mm|Usage=FLASHONLY|Rotation=210.000|XOffset=0mm|YOffset=0mm|HoleType=Round|Shape=Rectangle|*
%AMROTATEDRECTD88*
4,1,4,0.5834,0.7428,0.9350,0.1338,-0.5834,-0.7428,-0.9350,-0.1338,0.5834,0.7428,0.0*
%
%ADD88ROTATEDRECTD88*%

G04:AMPARAMS|DCode=89|XSize=1.7532mm|YSize=0.7032mm|CornerRadius=0mm|HoleSize=0mm|Usage=FLASHONLY|Rotation=200.000|XOffset=0mm|YOffset=0mm|HoleType=Round|Shape=Rectangle|*
%AMROTATEDRECTD89*
4,1,4,0.7035,0.6302,0.9440,-0.0306,-0.7035,-0.6302,-0.9440,0.0306,0.7035,0.6302,0.0*
%
%ADD89ROTATEDRECTD89*%

%ADD90R,3.2032X5.0032*%
%ADD91R,7.9532X4.1532*%
%ADD92O,0.8032X2.2032*%
%ADD93R,2.5032X2.5032*%
%ADD94R,0.7532X1.5032*%
%ADD95R,1.2032X1.0032*%
%ADD96R,0.9032X1.7032*%
%ADD97O,0.8032X2.4032*%
%ADD98O,2.0032X0.5032*%
%ADD99O,0.5032X2.0032*%
%ADD100C,1.9812*%
%ADD101R,1.9812X1.9812*%
%ADD102R,1.9812X1.9812*%
%ADD103C,1.8032*%
%ADD104C,1.1032*%
%ADD105C,0.2032*%
G36*
X1761184Y1513151D02*
X1763219Y1512308D01*
X1764967Y1510967D01*
X1766308Y1509219D01*
X1767151Y1507184D01*
X1767438Y1505000D01*
X1767151Y1502816D01*
X1766308Y1500781D01*
X1764967Y1499033D01*
X1763219Y1497692D01*
X1761184Y1496849D01*
X1759000Y1496562D01*
X1756816Y1496849D01*
X1754781Y1497692D01*
X1753033Y1499033D01*
X1751692Y1500781D01*
X1750849Y1502816D01*
X1750562Y1505000D01*
X1750849Y1507184D01*
X1751692Y1509219D01*
X1753033Y1510967D01*
X1754781Y1512308D01*
X1756816Y1513151D01*
X1759000Y1513438D01*
X1761184Y1513151D01*
D02*
G37*
G36*
X1735784Y1538551D02*
X1737819Y1537708D01*
X1739567Y1536367D01*
X1740908Y1534619D01*
X1741751Y1532584D01*
X1742038Y1530400D01*
X1741751Y1528216D01*
X1740908Y1526181D01*
X1739567Y1524433D01*
X1737819Y1523092D01*
X1735784Y1522249D01*
X1733600Y1521962D01*
X1731416Y1522249D01*
X1729381Y1523092D01*
X1727633Y1524433D01*
X1726292Y1526181D01*
X1725449Y1528216D01*
X1725162Y1530400D01*
X1725449Y1532584D01*
X1726292Y1534619D01*
X1727633Y1536367D01*
X1729381Y1537708D01*
X1731416Y1538551D01*
X1733600Y1538838D01*
X1735784Y1538551D01*
D02*
G37*
G36*
X1761184Y1487751D02*
X1763219Y1486908D01*
X1764967Y1485567D01*
X1766308Y1483819D01*
X1767151Y1481784D01*
X1767438Y1479600D01*
X1767151Y1477416D01*
X1766308Y1475381D01*
X1764967Y1473633D01*
X1763219Y1472292D01*
X1761184Y1471449D01*
X1759000Y1471162D01*
X1756816Y1471449D01*
X1754781Y1472292D01*
X1753033Y1473633D01*
X1751692Y1475381D01*
X1750849Y1477416D01*
X1750562Y1479600D01*
X1750849Y1481784D01*
X1751692Y1483819D01*
X1753033Y1485567D01*
X1754781Y1486908D01*
X1756816Y1487751D01*
X1759000Y1488038D01*
X1761184Y1487751D01*
D02*
G37*
G36*
X1735784Y1513151D02*
X1737819Y1512308D01*
X1739567Y1510967D01*
X1740908Y1509219D01*
X1741751Y1507184D01*
X1742038Y1505000D01*
X1741751Y1502816D01*
X1740908Y1500781D01*
X1739567Y1499033D01*
X1737819Y1497692D01*
X1735784Y1496849D01*
X1733600Y1496562D01*
X1731416Y1496849D01*
X1729381Y1497692D01*
X1727633Y1499033D01*
X1726292Y1500781D01*
X1725449Y1502816D01*
X1725162Y1505000D01*
X1725449Y1507184D01*
X1726292Y1509219D01*
X1727633Y1510967D01*
X1729381Y1512308D01*
X1731416Y1513151D01*
X1733600Y1513438D01*
X1735784Y1513151D01*
D02*
G37*
G36*
X1761184Y1538551D02*
X1763219Y1537708D01*
X1764967Y1536367D01*
X1766308Y1534619D01*
X1767151Y1532584D01*
X1767438Y1530400D01*
X1767151Y1528216D01*
X1766308Y1526181D01*
X1764967Y1524433D01*
X1763219Y1523092D01*
X1761184Y1522249D01*
X1759000Y1521962D01*
X1756816Y1522249D01*
X1754781Y1523092D01*
X1753033Y1524433D01*
X1751692Y1526181D01*
X1750849Y1528216D01*
X1750562Y1530400D01*
X1750849Y1532584D01*
X1751692Y1534619D01*
X1753033Y1536367D01*
X1754781Y1537708D01*
X1756816Y1538551D01*
X1759000Y1538838D01*
X1761184Y1538551D01*
D02*
G37*
G36*
X1494500Y1577200D02*
Y1564200D01*
X1479500D01*
Y1577200D01*
Y1593800D01*
X1494500D01*
Y1577200D01*
D02*
G37*
G36*
X1735784Y1589351D02*
X1737819Y1588508D01*
X1739567Y1587167D01*
X1740908Y1585419D01*
X1741751Y1583384D01*
X1742038Y1581200D01*
X1741751Y1579016D01*
X1740908Y1576981D01*
X1739567Y1575233D01*
X1737819Y1573892D01*
X1735784Y1573049D01*
X1733600Y1572762D01*
X1731416Y1573049D01*
X1729381Y1573892D01*
X1727633Y1575233D01*
X1726292Y1576981D01*
X1725449Y1579016D01*
X1725162Y1581200D01*
X1725449Y1583384D01*
X1726292Y1585419D01*
X1727633Y1587167D01*
X1729381Y1588508D01*
X1731416Y1589351D01*
X1733600Y1589638D01*
X1735784Y1589351D01*
D02*
G37*
G36*
Y1563951D02*
X1737819Y1563108D01*
X1739567Y1561767D01*
X1740908Y1560019D01*
X1741751Y1557984D01*
X1742038Y1555800D01*
X1741751Y1553616D01*
X1740908Y1551581D01*
X1739567Y1549833D01*
X1737819Y1548492D01*
X1735784Y1547649D01*
X1733600Y1547362D01*
X1731416Y1547649D01*
X1729381Y1548492D01*
X1727633Y1549833D01*
X1726292Y1551581D01*
X1725449Y1553616D01*
X1725162Y1555800D01*
X1725449Y1557984D01*
X1726292Y1560019D01*
X1727633Y1561767D01*
X1729381Y1563108D01*
X1731416Y1563951D01*
X1733600Y1564238D01*
X1735784Y1563951D01*
D02*
G37*
G36*
X1761184D02*
X1763219Y1563108D01*
X1764967Y1561767D01*
X1766308Y1560019D01*
X1767151Y1557984D01*
X1767438Y1555800D01*
X1767151Y1553616D01*
X1766308Y1551581D01*
X1764967Y1549833D01*
X1763219Y1548492D01*
X1761184Y1547649D01*
X1759000Y1547362D01*
X1756816Y1547649D01*
X1754781Y1548492D01*
X1753033Y1549833D01*
X1751692Y1551581D01*
X1750849Y1553616D01*
X1750562Y1555800D01*
X1750849Y1557984D01*
X1751692Y1560019D01*
X1753033Y1561767D01*
X1754781Y1563108D01*
X1756816Y1563951D01*
X1759000Y1564238D01*
X1761184Y1563951D01*
D02*
G37*
G36*
X1743145Y1362620D02*
X1732255D01*
Y1369700D01*
X1743145D01*
Y1362620D01*
D02*
G37*
G36*
X1476007Y1379372D02*
X1477598Y1378713D01*
X1478964Y1377664D01*
X1480013Y1376298D01*
X1480672Y1374707D01*
X1480896Y1373000D01*
X1480672Y1371293D01*
X1480013Y1369702D01*
X1478964Y1368336D01*
X1477598Y1367287D01*
X1476007Y1366628D01*
X1474300Y1366404D01*
X1472593Y1366628D01*
X1471002Y1367287D01*
X1469636Y1368336D01*
X1468587Y1369702D01*
X1467928Y1371293D01*
X1467704Y1373000D01*
X1467928Y1374707D01*
X1468587Y1376298D01*
X1469636Y1377664D01*
X1471002Y1378713D01*
X1472593Y1379372D01*
X1474300Y1379596D01*
X1476007Y1379372D01*
D02*
G37*
G36*
X1560715Y1359105D02*
X1531285D01*
Y1382695D01*
X1560715D01*
Y1359105D01*
D02*
G37*
G36*
X1717745Y1362620D02*
X1706855D01*
Y1369700D01*
X1717745D01*
Y1362620D01*
D02*
G37*
G36*
X1501407Y1379372D02*
X1502998Y1378713D01*
X1504364Y1377664D01*
X1505413Y1376298D01*
X1506072Y1374707D01*
X1506296Y1373000D01*
X1506072Y1371293D01*
X1505413Y1369702D01*
X1504364Y1368336D01*
X1502998Y1367287D01*
X1501407Y1366628D01*
X1499700Y1366404D01*
X1497993Y1366628D01*
X1496402Y1367287D01*
X1495036Y1368336D01*
X1493987Y1369702D01*
X1493328Y1371293D01*
X1493104Y1373000D01*
X1493328Y1374707D01*
X1493987Y1376298D01*
X1495036Y1377664D01*
X1496402Y1378713D01*
X1497993Y1379372D01*
X1499700Y1379596D01*
X1501407Y1379372D01*
D02*
G37*
G36*
X1689118Y1409177D02*
X1664766D01*
Y1423623D01*
X1689118D01*
Y1409177D01*
D02*
G37*
G36*
X1735784Y1487751D02*
X1737819Y1486908D01*
X1739567Y1485567D01*
X1740908Y1483819D01*
X1741751Y1481784D01*
X1742038Y1479600D01*
X1741751Y1477416D01*
X1740908Y1475381D01*
X1739567Y1473633D01*
X1737819Y1472292D01*
X1735784Y1471449D01*
X1733600Y1471162D01*
X1731416Y1471449D01*
X1729381Y1472292D01*
X1727633Y1473633D01*
X1726292Y1475381D01*
X1725449Y1477416D01*
X1725162Y1479600D01*
X1725449Y1481784D01*
X1726292Y1483819D01*
X1727633Y1485567D01*
X1729381Y1486908D01*
X1731416Y1487751D01*
X1733600Y1488038D01*
X1735784Y1487751D01*
D02*
G37*
G36*
X1560715Y1403305D02*
X1531285D01*
Y1426895D01*
X1560715D01*
Y1403305D01*
D02*
G37*
G36*
X1601234Y1409177D02*
X1576882D01*
Y1423623D01*
X1601234D01*
Y1409177D01*
D02*
G37*
G36*
X1761184Y1589351D02*
X1763219Y1588508D01*
X1764967Y1587167D01*
X1766308Y1585419D01*
X1767151Y1583384D01*
X1767438Y1581200D01*
X1767151Y1579016D01*
X1766308Y1576981D01*
X1764967Y1575233D01*
X1763219Y1573892D01*
X1761184Y1573049D01*
X1759000Y1572762D01*
X1756816Y1573049D01*
X1754781Y1573892D01*
X1753033Y1575233D01*
X1751692Y1576981D01*
X1750849Y1579016D01*
X1750562Y1581200D01*
X1750849Y1583384D01*
X1751692Y1585419D01*
X1753033Y1587167D01*
X1754781Y1588508D01*
X1756816Y1589351D01*
X1759000Y1589638D01*
X1761184Y1589351D01*
D02*
G37*
G36*
X1704500Y1779000D02*
X1690500D01*
Y1793000D01*
X1704500D01*
Y1779000D01*
D02*
G37*
G36*
X1359000Y1784000D02*
X1345000D01*
Y1798000D01*
X1359000D01*
Y1784000D01*
D02*
G37*
G36*
X1741966Y1699834D02*
X1725234D01*
Y1716566D01*
X1741966D01*
Y1699834D01*
D02*
G37*
G36*
X1683500Y1779000D02*
X1669500D01*
Y1793000D01*
X1683500D01*
Y1779000D01*
D02*
G37*
G36*
X1328000Y1792000D02*
X1311000D01*
Y1810000D01*
X1328000D01*
Y1792000D01*
D02*
G37*
G36*
X1459000Y1801500D02*
X1443000D01*
Y1815500D01*
X1459000D01*
Y1801500D01*
D02*
G37*
G36*
X1481000D02*
X1465000D01*
Y1815500D01*
X1481000D01*
Y1801500D01*
D02*
G37*
G36*
X1500450Y1792000D02*
X1490950D01*
Y1808000D01*
X1500450D01*
Y1792000D01*
D02*
G37*
G36*
X1515050D02*
X1505550D01*
Y1808000D01*
X1515050D01*
Y1792000D01*
D02*
G37*
G36*
X1735784Y1640151D02*
X1737819Y1639308D01*
X1739567Y1637967D01*
X1740908Y1636219D01*
X1741751Y1634184D01*
X1742038Y1632000D01*
X1741751Y1629816D01*
X1740908Y1627781D01*
X1739567Y1626033D01*
X1737819Y1624692D01*
X1735784Y1623849D01*
X1733600Y1623562D01*
X1731416Y1623849D01*
X1729381Y1624692D01*
X1727633Y1626033D01*
X1726292Y1627781D01*
X1725449Y1629816D01*
X1725162Y1632000D01*
X1725449Y1634184D01*
X1726292Y1636219D01*
X1727633Y1637967D01*
X1729381Y1639308D01*
X1731416Y1640151D01*
X1733600Y1640438D01*
X1735784Y1640151D01*
D02*
G37*
G36*
X1761184D02*
X1763219Y1639308D01*
X1764967Y1637967D01*
X1766308Y1636219D01*
X1767151Y1634184D01*
X1767438Y1632000D01*
X1767151Y1629816D01*
X1766308Y1627781D01*
X1764967Y1626033D01*
X1763219Y1624692D01*
X1761184Y1623849D01*
X1759000Y1623562D01*
X1756816Y1623849D01*
X1754781Y1624692D01*
X1753033Y1626033D01*
X1751692Y1627781D01*
X1750849Y1629816D01*
X1750562Y1632000D01*
X1750849Y1634184D01*
X1751692Y1636219D01*
X1753033Y1637967D01*
X1754781Y1639308D01*
X1756816Y1640151D01*
X1759000Y1640438D01*
X1761184Y1640151D01*
D02*
G37*
G36*
X1735784Y1614751D02*
X1737819Y1613908D01*
X1739567Y1612567D01*
X1740908Y1610819D01*
X1741751Y1608784D01*
X1742038Y1606600D01*
X1741751Y1604416D01*
X1740908Y1602381D01*
X1739567Y1600633D01*
X1737819Y1599292D01*
X1735784Y1598449D01*
X1733600Y1598162D01*
X1731416Y1598449D01*
X1729381Y1599292D01*
X1727633Y1600633D01*
X1726292Y1602381D01*
X1725449Y1604416D01*
X1725162Y1606600D01*
X1725449Y1608784D01*
X1726292Y1610819D01*
X1727633Y1612567D01*
X1729381Y1613908D01*
X1731416Y1614751D01*
X1733600Y1615038D01*
X1735784Y1614751D01*
D02*
G37*
G36*
X1761184D02*
X1763219Y1613908D01*
X1764967Y1612567D01*
X1766308Y1610819D01*
X1767151Y1608784D01*
X1767438Y1606600D01*
X1767151Y1604416D01*
X1766308Y1602381D01*
X1764967Y1600633D01*
X1763219Y1599292D01*
X1761184Y1598449D01*
X1759000Y1598162D01*
X1756816Y1598449D01*
X1754781Y1599292D01*
X1753033Y1600633D01*
X1751692Y1602381D01*
X1750849Y1604416D01*
X1750562Y1606600D01*
X1750849Y1608784D01*
X1751692Y1610819D01*
X1753033Y1612567D01*
X1754781Y1613908D01*
X1756816Y1614751D01*
X1759000Y1615038D01*
X1761184Y1614751D01*
D02*
G37*
G36*
X1735784Y1665551D02*
X1737819Y1664708D01*
X1739567Y1663367D01*
X1740908Y1661619D01*
X1741751Y1659584D01*
X1742038Y1657400D01*
X1741751Y1655216D01*
X1740908Y1653181D01*
X1739567Y1651433D01*
X1737819Y1650092D01*
X1735784Y1649249D01*
X1733600Y1648962D01*
X1731416Y1649249D01*
X1729381Y1650092D01*
X1727633Y1651433D01*
X1726292Y1653181D01*
X1725449Y1655216D01*
X1725162Y1657400D01*
X1725449Y1659584D01*
X1726292Y1661619D01*
X1727633Y1663367D01*
X1729381Y1664708D01*
X1731416Y1665551D01*
X1733600Y1665838D01*
X1735784Y1665551D01*
D02*
G37*
G36*
X1761184Y1690951D02*
X1763219Y1690108D01*
X1764967Y1688767D01*
X1766308Y1687019D01*
X1767151Y1684984D01*
X1767438Y1682800D01*
X1767151Y1680616D01*
X1766308Y1678581D01*
X1764967Y1676833D01*
X1763219Y1675492D01*
X1761184Y1674649D01*
X1759000Y1674362D01*
X1756816Y1674649D01*
X1754781Y1675492D01*
X1753033Y1676833D01*
X1751692Y1678581D01*
X1750849Y1680616D01*
X1750562Y1682800D01*
X1750849Y1684984D01*
X1751692Y1687019D01*
X1753033Y1688767D01*
X1754781Y1690108D01*
X1756816Y1690951D01*
X1759000Y1691238D01*
X1761184Y1690951D01*
D02*
G37*
G36*
Y1716351D02*
X1763219Y1715508D01*
X1764967Y1714167D01*
X1766308Y1712419D01*
X1767151Y1710384D01*
X1767438Y1708200D01*
X1767151Y1706016D01*
X1766308Y1703981D01*
X1764967Y1702233D01*
X1763219Y1700892D01*
X1761184Y1700049D01*
X1759000Y1699762D01*
X1756816Y1700049D01*
X1754781Y1700892D01*
X1753033Y1702233D01*
X1751692Y1703981D01*
X1750849Y1706016D01*
X1750562Y1708200D01*
X1750849Y1710384D01*
X1751692Y1712419D01*
X1753033Y1714167D01*
X1754781Y1715508D01*
X1756816Y1716351D01*
X1759000Y1716638D01*
X1761184Y1716351D01*
D02*
G37*
G36*
Y1665551D02*
X1763219Y1664708D01*
X1764967Y1663367D01*
X1766308Y1661619D01*
X1767151Y1659584D01*
X1767438Y1657400D01*
X1767151Y1655216D01*
X1766308Y1653181D01*
X1764967Y1651433D01*
X1763219Y1650092D01*
X1761184Y1649249D01*
X1759000Y1648962D01*
X1756816Y1649249D01*
X1754781Y1650092D01*
X1753033Y1651433D01*
X1751692Y1653181D01*
X1750849Y1655216D01*
X1750562Y1657400D01*
X1750849Y1659584D01*
X1751692Y1661619D01*
X1753033Y1663367D01*
X1754781Y1664708D01*
X1756816Y1665551D01*
X1759000Y1665838D01*
X1761184Y1665551D01*
D02*
G37*
G36*
X1735784Y1690951D02*
X1737819Y1690108D01*
X1739567Y1688767D01*
X1740908Y1687019D01*
X1741751Y1684984D01*
X1742038Y1682800D01*
X1741751Y1680616D01*
X1740908Y1678581D01*
X1739567Y1676833D01*
X1737819Y1675492D01*
X1735784Y1674649D01*
X1733600Y1674362D01*
X1731416Y1674649D01*
X1729381Y1675492D01*
X1727633Y1676833D01*
X1726292Y1678581D01*
X1725449Y1680616D01*
X1725162Y1682800D01*
X1725449Y1684984D01*
X1726292Y1687019D01*
X1727633Y1688767D01*
X1729381Y1690108D01*
X1731416Y1690951D01*
X1733600Y1691238D01*
X1735784Y1690951D01*
D02*
G37*
G36*
X1689118Y1358377D02*
X1664766D01*
Y1372823D01*
X1689118D01*
Y1358377D01*
D02*
G37*
G36*
X1351500Y915500D02*
X1326500D01*
Y922500D01*
X1351500D01*
Y915500D01*
D02*
G37*
G36*
X1641500Y920500D02*
X1616500D01*
Y927500D01*
X1641500D01*
X1641500Y920500D01*
D02*
G37*
G36*
X1351500Y907500D02*
X1326500D01*
Y914500D01*
X1351500D01*
Y907500D01*
D02*
G37*
G36*
X1641500Y912500D02*
X1616500Y912500D01*
Y919500D01*
X1641500D01*
Y912500D01*
D02*
G37*
G36*
X1351500Y923500D02*
X1326500D01*
Y930500D01*
X1351500D01*
Y923500D01*
D02*
G37*
G36*
X1296500Y944500D02*
X1269500D01*
Y966500D01*
X1296500D01*
Y944500D01*
D02*
G37*
G36*
X1351500D02*
X1324500D01*
Y966500D01*
X1351500D01*
Y944500D01*
D02*
G37*
G36*
X1643500Y963500D02*
Y941500D01*
X1616500Y941500D01*
Y963500D01*
X1643500Y963500D01*
D02*
G37*
G36*
X1698500Y941500D02*
X1671500D01*
Y963500D01*
X1698500D01*
Y941500D01*
D02*
G37*
G36*
X1296500Y855500D02*
X1269500D01*
Y877500D01*
X1296500D01*
Y855500D01*
D02*
G37*
G36*
X1351500D02*
X1324500D01*
Y877500D01*
X1351500D01*
Y855500D01*
D02*
G37*
G36*
X1643500Y852500D02*
X1616500D01*
Y874500D01*
X1643500D01*
Y852500D01*
D02*
G37*
G36*
X1698500D02*
X1671500D01*
Y874500D01*
X1698500Y874500D01*
Y852500D01*
D02*
G37*
G36*
X1641500Y888500D02*
X1616500D01*
Y895500D01*
X1641500D01*
Y888500D01*
D02*
G37*
G36*
X1351500Y899500D02*
X1326500D01*
Y906500D01*
X1351500D01*
Y899500D01*
D02*
G37*
G36*
X1641500Y904500D02*
X1616500D01*
Y911500D01*
X1641500D01*
X1641500Y904500D01*
D02*
G37*
G36*
X1351500Y891500D02*
X1326500D01*
Y898500D01*
X1351500D01*
Y891500D01*
D02*
G37*
G36*
X1641500Y896500D02*
X1616500D01*
Y903500D01*
X1641500D01*
X1641500Y896500D01*
D02*
G37*
G36*
X1771380Y1221855D02*
X1764300D01*
Y1232745D01*
X1771380D01*
Y1221855D01*
D02*
G37*
G36*
X1983695Y1340285D02*
X1960105D01*
Y1369715D01*
X1983695D01*
Y1340285D01*
D02*
G37*
G36*
X2027895D02*
X2004305D01*
Y1369715D01*
X2027895D01*
Y1340285D01*
D02*
G37*
G36*
X1854794Y1306604D02*
X1847206D01*
Y1321304D01*
X1854794D01*
Y1306604D01*
D02*
G37*
G36*
X1864192D02*
X1856604D01*
Y1321304D01*
X1864192D01*
Y1306604D01*
D02*
G37*
G36*
X1717745Y1342300D02*
X1706855D01*
Y1349380D01*
X1717745D01*
Y1342300D01*
D02*
G37*
G36*
X1743145Y1352460D02*
X1732255D01*
Y1359540D01*
X1743145D01*
Y1352460D01*
D02*
G37*
G36*
X1601234Y1358377D02*
X1576882D01*
Y1372823D01*
X1601234D01*
Y1358377D01*
D02*
G37*
G36*
X1743145Y1342300D02*
X1732255D01*
Y1349380D01*
X1743145D01*
Y1342300D01*
D02*
G37*
G36*
X1717745Y1352460D02*
X1706855D01*
Y1359540D01*
X1717745D01*
Y1352460D01*
D02*
G37*
G36*
X1771380Y1247255D02*
X1764300D01*
Y1258145D01*
X1771380D01*
Y1247255D01*
D02*
G37*
G36*
X1781540D02*
X1774460D01*
Y1258145D01*
X1781540D01*
Y1247255D01*
D02*
G37*
G36*
Y1221855D02*
X1774460D01*
Y1232745D01*
X1781540D01*
Y1221855D01*
D02*
G37*
G36*
X1791700D02*
X1784620D01*
Y1232745D01*
X1791700D01*
Y1221855D01*
D02*
G37*
G36*
Y1247255D02*
X1784620D01*
Y1258145D01*
X1791700D01*
Y1247255D01*
D02*
G37*
G36*
X1864192Y1280696D02*
X1856604D01*
Y1295396D01*
X1864192D01*
Y1280696D01*
D02*
G37*
G36*
X1845396Y1306604D02*
X1837808D01*
Y1321304D01*
X1845396D01*
Y1306604D01*
D02*
G37*
G36*
Y1280696D02*
X1837808D01*
Y1295396D01*
X1845396D01*
Y1280696D01*
D02*
G37*
G36*
X1854794D02*
X1847206D01*
Y1295396D01*
X1854794D01*
Y1280696D01*
D02*
G37*
G36*
X1474500Y2107000D02*
X1459000D01*
Y2112500D01*
X1474500D01*
Y2107000D01*
D02*
G37*
G36*
X1533000D02*
X1517500D01*
Y2112500D01*
X1533000D01*
Y2107000D01*
D02*
G37*
G36*
X1296500D02*
X1281000D01*
Y2112500D01*
X1296500D01*
Y2107000D01*
D02*
G37*
G36*
X1355000D02*
X1339500D01*
Y2112500D01*
X1355000D01*
Y2107000D01*
D02*
G37*
G36*
X1660500Y2110500D02*
X1645000D01*
Y2116000D01*
X1660500D01*
Y2110500D01*
D02*
G37*
G36*
X1355000Y2113500D02*
X1339500D01*
Y2119000D01*
X1355000D01*
Y2113500D01*
D02*
G37*
G36*
X1474500D02*
X1459000D01*
Y2119000D01*
X1474500D01*
Y2113500D01*
D02*
G37*
G36*
X1719000Y2110500D02*
X1703500D01*
Y2116000D01*
X1719000D01*
Y2110500D01*
D02*
G37*
G36*
X1296500Y2113500D02*
X1281000D01*
Y2119000D01*
X1296500D01*
Y2113500D01*
D02*
G37*
G36*
X1719000Y2104000D02*
X1703500D01*
Y2109500D01*
X1719000D01*
Y2104000D01*
D02*
G37*
G36*
X1660500Y2097500D02*
X1645000D01*
Y2103000D01*
X1660500D01*
Y2097500D01*
D02*
G37*
G36*
X1719000D02*
X1703500D01*
Y2103000D01*
X1719000D01*
Y2097500D01*
D02*
G37*
G36*
X1474500Y2094000D02*
X1459000D01*
Y2099500D01*
X1474500D01*
Y2094000D01*
D02*
G37*
G36*
X1533000D02*
X1517500D01*
Y2099500D01*
X1533000D01*
Y2094000D01*
D02*
G37*
G36*
X1296500Y2100500D02*
X1281000D01*
Y2106000D01*
X1296500D01*
Y2100500D01*
D02*
G37*
G36*
X1533000D02*
X1517500D01*
Y2106000D01*
X1533000D01*
Y2100500D01*
D02*
G37*
G36*
X1660500Y2104000D02*
X1645000D01*
Y2109500D01*
X1660500D01*
Y2104000D01*
D02*
G37*
G36*
X1355000Y2100500D02*
X1339500D01*
Y2106000D01*
X1355000D01*
Y2100500D01*
D02*
G37*
G36*
X1474500D02*
X1459000D01*
Y2106000D01*
X1474500D01*
Y2100500D01*
D02*
G37*
G36*
X1533000Y2126500D02*
X1517500D01*
Y2132000D01*
X1533000D01*
Y2126500D01*
D02*
G37*
G36*
X1660500Y2130000D02*
X1645000D01*
Y2135500D01*
X1660500D01*
Y2130000D01*
D02*
G37*
G36*
X1355000Y2126500D02*
X1339500D01*
Y2132000D01*
X1355000D01*
Y2126500D01*
D02*
G37*
G36*
X1474500D02*
X1459000D01*
Y2132000D01*
X1474500D01*
Y2126500D01*
D02*
G37*
G36*
X1719000Y2130000D02*
X1703500D01*
Y2135500D01*
X1719000D01*
Y2130000D01*
D02*
G37*
G36*
X1474500Y2133000D02*
X1459000D01*
Y2138500D01*
X1474500D01*
Y2133000D01*
D02*
G37*
G36*
X1533000D02*
X1517500D01*
Y2138500D01*
X1533000D01*
Y2133000D01*
D02*
G37*
G36*
X1296500D02*
X1281000D01*
Y2138500D01*
X1296500D01*
Y2133000D01*
D02*
G37*
G36*
X1355000D02*
X1339500D01*
Y2138500D01*
X1355000D01*
Y2133000D01*
D02*
G37*
G36*
X1296500Y2126500D02*
X1281000D01*
Y2132000D01*
X1296500D01*
Y2126500D01*
D02*
G37*
G36*
X1719000Y2117000D02*
X1703500D01*
Y2122500D01*
X1719000D01*
Y2117000D01*
D02*
G37*
G36*
X1296500Y2120000D02*
X1281000D01*
Y2125500D01*
X1296500D01*
Y2120000D01*
D02*
G37*
G36*
X1533000Y2113500D02*
X1517500D01*
Y2119000D01*
X1533000D01*
Y2113500D01*
D02*
G37*
G36*
X1660500Y2117000D02*
X1645000D01*
Y2122500D01*
X1660500D01*
Y2117000D01*
D02*
G37*
G36*
X1355000Y2120000D02*
X1339500D01*
Y2125500D01*
X1355000D01*
Y2120000D01*
D02*
G37*
G36*
X1660500Y2123500D02*
X1645000D01*
Y2129000D01*
X1660500D01*
Y2123500D01*
D02*
G37*
G36*
X1719000D02*
X1703500D01*
Y2129000D01*
X1719000D01*
Y2123500D01*
D02*
G37*
G36*
X1474500Y2120000D02*
X1459000D01*
Y2125500D01*
X1474500D01*
Y2120000D01*
D02*
G37*
G36*
X1533000D02*
X1517500D01*
Y2125500D01*
X1533000D01*
Y2120000D01*
D02*
G37*
G36*
X1296500Y2068000D02*
X1281000D01*
Y2073500D01*
X1296500D01*
Y2068000D01*
D02*
G37*
G36*
X1355000D02*
X1339500D01*
Y2073500D01*
X1355000D01*
Y2068000D01*
D02*
G37*
G36*
X1660500Y2065000D02*
X1645000D01*
Y2070500D01*
X1660500D01*
Y2065000D01*
D02*
G37*
G36*
X1719000D02*
X1703500D01*
Y2070500D01*
X1719000D01*
Y2065000D01*
D02*
G37*
G36*
X1474500Y2068000D02*
X1459000D01*
Y2073500D01*
X1474500D01*
Y2068000D01*
D02*
G37*
G36*
X1719000Y2071500D02*
X1703500D01*
Y2077000D01*
X1719000D01*
Y2071500D01*
D02*
G37*
G36*
X1296500Y2074500D02*
X1281000D01*
Y2080000D01*
X1296500D01*
Y2074500D01*
D02*
G37*
G36*
X1533000Y2068000D02*
X1517500D01*
Y2073500D01*
X1533000D01*
Y2068000D01*
D02*
G37*
G36*
X1660500Y2071500D02*
X1645000D01*
Y2077000D01*
X1660500D01*
Y2071500D01*
D02*
G37*
G36*
X1481000Y1818500D02*
X1465000D01*
Y1832500D01*
X1481000D01*
Y1818500D01*
D02*
G37*
G36*
X1660500Y2058500D02*
X1645000D01*
Y2064000D01*
X1660500D01*
Y2058500D01*
D02*
G37*
G36*
X1359000Y1804000D02*
X1345000D01*
Y1818000D01*
X1359000D01*
Y1804000D01*
D02*
G37*
G36*
X1459000Y1818500D02*
X1443000D01*
Y1832500D01*
X1459000D01*
Y1818500D01*
D02*
G37*
G36*
X1719000Y2058500D02*
X1703500D01*
Y2064000D01*
X1719000D01*
Y2058500D01*
D02*
G37*
G36*
X1474500Y2061500D02*
X1459000D01*
Y2067000D01*
X1474500D01*
Y2061500D01*
D02*
G37*
G36*
X1533000D02*
X1517500D01*
Y2067000D01*
X1533000D01*
Y2061500D01*
D02*
G37*
G36*
X1296500D02*
X1281000D01*
Y2067000D01*
X1296500D01*
Y2061500D01*
D02*
G37*
G36*
X1355000D02*
X1339500D01*
Y2067000D01*
X1355000D01*
Y2061500D01*
D02*
G37*
G36*
Y2074500D02*
X1339500D01*
Y2080000D01*
X1355000D01*
Y2074500D01*
D02*
G37*
G36*
Y2087500D02*
X1339500D01*
Y2093000D01*
X1355000D01*
Y2087500D01*
D02*
G37*
G36*
X1474500D02*
X1459000D01*
Y2093000D01*
X1474500D01*
Y2087500D01*
D02*
G37*
G36*
X1719000Y2084500D02*
X1703500D01*
Y2090000D01*
X1719000D01*
Y2084500D01*
D02*
G37*
G36*
X1296500Y2087500D02*
X1281000D01*
Y2093000D01*
X1296500D01*
Y2087500D01*
D02*
G37*
G36*
X1533000D02*
X1517500D01*
Y2093000D01*
X1533000D01*
Y2087500D01*
D02*
G37*
G36*
X1296500Y2094000D02*
X1281000D01*
Y2099500D01*
X1296500D01*
Y2094000D01*
D02*
G37*
G36*
X1355000D02*
X1339500D01*
Y2099500D01*
X1355000D01*
Y2094000D01*
D02*
G37*
G36*
X1660500Y2091000D02*
X1645000D01*
Y2096500D01*
X1660500D01*
Y2091000D01*
D02*
G37*
G36*
X1719000D02*
X1703500D01*
Y2096500D01*
X1719000D01*
Y2091000D01*
D02*
G37*
G36*
X1660500Y2084500D02*
X1645000D01*
Y2090000D01*
X1660500D01*
Y2084500D01*
D02*
G37*
G36*
Y2078000D02*
X1645000D01*
Y2083500D01*
X1660500D01*
Y2078000D01*
D02*
G37*
G36*
X1719000D02*
X1703500D01*
Y2083500D01*
X1719000D01*
Y2078000D01*
D02*
G37*
G36*
X1474500Y2074500D02*
X1459000D01*
Y2080000D01*
X1474500D01*
Y2074500D01*
D02*
G37*
G36*
X1533000D02*
X1517500D01*
Y2080000D01*
X1533000D01*
Y2074500D01*
D02*
G37*
G36*
X1474500Y2081000D02*
X1459000D01*
Y2086500D01*
X1474500D01*
Y2081000D01*
D02*
G37*
G36*
X1533000D02*
X1517500D01*
Y2086500D01*
X1533000D01*
Y2081000D01*
D02*
G37*
G36*
X1296500D02*
X1281000D01*
Y2086500D01*
X1296500D01*
Y2081000D01*
D02*
G37*
G36*
X1355000D02*
X1339500D01*
Y2086500D01*
X1355000D01*
Y2081000D01*
D02*
G37*
%LPC*%
G36*
X1489500Y1580200D02*
X1484500D01*
Y1577800D01*
X1489500D01*
Y1580200D01*
D02*
G37*
%LPD*%
D53*
X2932290Y1896032D02*
X3165970D01*
Y1871902D02*
Y1896032D01*
X2932290Y1871902D02*
Y1896032D01*
Y1871902D02*
X3165970D01*
X3001716Y1888918D02*
Y1878760D01*
X2998330Y1888918D02*
X3005102D01*
X3009214D02*
X3008246Y1888434D01*
X3007279Y1887466D01*
X3006795Y1886499D01*
X3006312Y1885048D01*
Y1882629D01*
X3006795Y1881178D01*
X3007279Y1880211D01*
X3008246Y1879243D01*
X3009214Y1878760D01*
X3011149D01*
X3012116Y1879243D01*
X3013083Y1880211D01*
X3013567Y1881178D01*
X3014051Y1882629D01*
Y1885048D01*
X3013567Y1886499D01*
X3013083Y1887466D01*
X3012116Y1888434D01*
X3011149Y1888918D01*
X3009214D01*
X3016421Y1883597D02*
X3020774D01*
X3022226Y1884080D01*
X3022709Y1884564D01*
X3023193Y1885532D01*
Y1886983D01*
X3022709Y1887950D01*
X3022226Y1888434D01*
X3020774Y1888918D01*
X3016421D01*
Y1878760D01*
X3040219Y1887466D02*
X3039252Y1888434D01*
X3037801Y1888918D01*
X3035866D01*
X3034415Y1888434D01*
X3033447Y1887466D01*
Y1886499D01*
X3033931Y1885532D01*
X3034415Y1885048D01*
X3035382Y1884564D01*
X3038285Y1883597D01*
X3039252Y1883113D01*
X3039736Y1882629D01*
X3040219Y1881662D01*
Y1880211D01*
X3039252Y1879243D01*
X3037801Y1878760D01*
X3035866D01*
X3034415Y1879243D01*
X3033447Y1880211D01*
X3045395Y1888918D02*
X3044427Y1888434D01*
X3043460Y1887466D01*
X3042976Y1886499D01*
X3042493Y1885048D01*
Y1882629D01*
X3042976Y1881178D01*
X3043460Y1880211D01*
X3044427Y1879243D01*
X3045395Y1878760D01*
X3047330D01*
X3048297Y1879243D01*
X3049265Y1880211D01*
X3049748Y1881178D01*
X3050232Y1882629D01*
Y1885048D01*
X3049748Y1886499D01*
X3049265Y1887466D01*
X3048297Y1888434D01*
X3047330Y1888918D01*
X3045395D01*
X3052602D02*
Y1878760D01*
X3058407D01*
X3059519Y1888918D02*
Y1878760D01*
Y1888918D02*
X3062905D01*
X3064356Y1888434D01*
X3065323Y1887466D01*
X3065807Y1886499D01*
X3066291Y1885048D01*
Y1882629D01*
X3065807Y1881178D01*
X3065323Y1880211D01*
X3064356Y1879243D01*
X3062905Y1878760D01*
X3059519D01*
X3074853Y1888918D02*
X3068564D01*
Y1878760D01*
X3074853D01*
X3068564Y1884080D02*
X3072434D01*
X3076546Y1888918D02*
Y1878760D01*
Y1888918D02*
X3080899D01*
X3082350Y1888434D01*
X3082834Y1887950D01*
X3083318Y1886983D01*
Y1886015D01*
X3082834Y1885048D01*
X3082350Y1884564D01*
X3080899Y1884080D01*
X3076546D01*
X3079932D02*
X3083318Y1878760D01*
X3093572Y1888918D02*
Y1878760D01*
Y1888918D02*
X3097442Y1878760D01*
X3101311Y1888918D02*
X3097442Y1878760D01*
X3101311Y1888918D02*
Y1878760D01*
X3111953D02*
X3108083Y1888918D01*
X3104214Y1878760D01*
X3105665Y1882146D02*
X3110502D01*
X3121095Y1887466D02*
X3120128Y1888434D01*
X3118676Y1888918D01*
X3116742D01*
X3115291Y1888434D01*
X3114323Y1887466D01*
Y1886499D01*
X3114807Y1885532D01*
X3115291Y1885048D01*
X3116258Y1884564D01*
X3119160Y1883597D01*
X3120128Y1883113D01*
X3120611Y1882629D01*
X3121095Y1881662D01*
Y1880211D01*
X3120128Y1879243D01*
X3118676Y1878760D01*
X3116742D01*
X3115291Y1879243D01*
X3114323Y1880211D01*
X3123368Y1888918D02*
Y1878760D01*
X3130140Y1888918D02*
X3123368Y1882146D01*
X3125787Y1884564D02*
X3130140Y1878760D01*
D54*
X2956420Y1883967D02*
D03*
D81*
X778860Y1614000D02*
D03*
X756000D02*
D03*
X1865430Y1224000D02*
D03*
X1842570D02*
D03*
X1935570Y1593000D02*
D03*
X1958430D02*
D03*
X1919570Y1729000D02*
D03*
X1942430D02*
D03*
X1919140Y1702000D02*
D03*
X1942000D02*
D03*
X865430Y1639000D02*
D03*
X842570D02*
D03*
X866140Y1666000D02*
D03*
X889000D02*
D03*
X1510570Y1654000D02*
D03*
X1533430D02*
D03*
X1563860Y1762000D02*
D03*
X1541000D02*
D03*
X923570Y1683000D02*
D03*
X946430D02*
D03*
X1695430Y2038000D02*
D03*
X1672570D02*
D03*
X1475430Y1989000D02*
D03*
X1452570D02*
D03*
X1935570Y1235000D02*
D03*
X1958430D02*
D03*
X1914000Y1443000D02*
D03*
X1891140D02*
D03*
X1864430D02*
D03*
X1841570D02*
D03*
X1352570Y1760000D02*
D03*
X1375430D02*
D03*
X1840570Y1368000D02*
D03*
X1863430D02*
D03*
X1310570Y1713000D02*
D03*
X1333430D02*
D03*
X1630140Y1786000D02*
D03*
X1653000D02*
D03*
X1333430Y1735000D02*
D03*
X1310570D02*
D03*
X1667430Y1583000D02*
D03*
X1644570D02*
D03*
X1334000Y1688000D02*
D03*
X1311140D02*
D03*
X1670430Y1506000D02*
D03*
X1647570D02*
D03*
X1508430Y1537000D02*
D03*
X1485570D02*
D03*
X1670430Y1479000D02*
D03*
X1647570D02*
D03*
X1568430Y1728000D02*
D03*
X1545570D02*
D03*
X1358860Y1993000D02*
D03*
X1336000D02*
D03*
X908140Y1973000D02*
D03*
X931000D02*
D03*
X2059430Y1976000D02*
D03*
X2036570D02*
D03*
X2402430Y1315000D02*
D03*
X2379570D02*
D03*
X608140Y1270000D02*
D03*
X631000D02*
D03*
X1310570Y1662000D02*
D03*
X1333430D02*
D03*
X1913570Y1519000D02*
D03*
X1936430D02*
D03*
D82*
X1911000Y1289570D02*
D03*
Y1312430D02*
D03*
X1885000Y1289570D02*
D03*
Y1312430D02*
D03*
X1377000Y1812430D02*
D03*
Y1789570D02*
D03*
X1412000Y1688430D02*
D03*
Y1665570D02*
D03*
X1336000Y2042860D02*
D03*
Y2020000D02*
D03*
X1774000Y1389430D02*
D03*
Y1366570D02*
D03*
X1914000Y1494860D02*
D03*
Y1472000D02*
D03*
X1911000Y1265430D02*
D03*
Y1242570D02*
D03*
X1773000Y1298570D02*
D03*
Y1321430D02*
D03*
X1620000Y2028570D02*
D03*
Y2051430D02*
D03*
X1466000Y2018570D02*
D03*
Y2041430D02*
D03*
X1589000Y1917430D02*
D03*
Y1894570D02*
D03*
X1414000Y1921430D02*
D03*
Y1898570D02*
D03*
X1886000Y1520430D02*
D03*
Y1497570D02*
D03*
D83*
X1865970Y1251000D02*
D03*
X1838030D02*
D03*
X2027970Y1519000D02*
D03*
X2000030D02*
D03*
D84*
X1495000Y1818000D02*
D03*
Y1828000D02*
D03*
X1435000Y1813000D02*
D03*
Y1823000D02*
D03*
X1630000Y818000D02*
D03*
Y828000D02*
D03*
X1337000Y824000D02*
D03*
Y834000D02*
D03*
X1524000Y1818000D02*
D03*
Y1828000D02*
D03*
D85*
X1469000Y1838000D02*
D03*
X1459000D02*
D03*
D86*
X1460000Y1910000D02*
D03*
X1444000D02*
D03*
X1536000D02*
D03*
X1552000D02*
D03*
D87*
X823902Y1702625D02*
D03*
X827722Y1680960D02*
D03*
X772200Y1693509D02*
D03*
X776020Y1671843D02*
D03*
D88*
X898000Y1740000D02*
D03*
X909000Y1720948D02*
D03*
X852534Y1713750D02*
D03*
X863533Y1694698D02*
D03*
D89*
X984920Y1774760D02*
D03*
X992444Y1754086D02*
D03*
X935586Y1756803D02*
D03*
X943110Y1736130D02*
D03*
X732919Y1679759D02*
D03*
X740444Y1659086D02*
D03*
X683586Y1661803D02*
D03*
X691110Y1641130D02*
D03*
D90*
X1496000Y2100000D02*
D03*
X1318000D02*
D03*
X1682000Y2097000D02*
D03*
D91*
X1970000Y1468500D02*
D03*
Y1413000D02*
D03*
D92*
X1933950Y1262000D02*
D03*
X1946650D02*
D03*
X1959350D02*
D03*
X1972050D02*
D03*
X1933950Y1312000D02*
D03*
X1946650D02*
D03*
X1959350D02*
D03*
X1972050D02*
D03*
D93*
X1953000Y1287000D02*
D03*
D94*
X1714500Y1275000D02*
D03*
X1724000D02*
D03*
X1733500D02*
D03*
Y1299000D02*
D03*
X1724000D02*
D03*
X1714500D02*
D03*
D95*
X2047500Y1049350D02*
D03*
Y1068650D02*
D03*
X1974500D02*
D03*
Y1049350D02*
D03*
D96*
X2033500Y1076500D02*
D03*
X2018500D02*
D03*
X1988500D02*
D03*
D97*
X1929950Y1624000D02*
D03*
X1942650D02*
D03*
X1955350D02*
D03*
X1968050D02*
D03*
X1929950Y1672000D02*
D03*
X1942650D02*
D03*
X1955350D02*
D03*
X1968050D02*
D03*
D98*
X1518500Y1744500D02*
D03*
Y1739500D02*
D03*
Y1734500D02*
D03*
Y1729500D02*
D03*
Y1724500D02*
D03*
Y1719500D02*
D03*
Y1714500D02*
D03*
Y1709500D02*
D03*
Y1704500D02*
D03*
Y1699500D02*
D03*
Y1694500D02*
D03*
Y1689500D02*
D03*
X1437500D02*
D03*
Y1694500D02*
D03*
Y1699500D02*
D03*
Y1704500D02*
D03*
Y1709500D02*
D03*
Y1714500D02*
D03*
Y1719500D02*
D03*
Y1724500D02*
D03*
Y1729500D02*
D03*
Y1734500D02*
D03*
Y1739500D02*
D03*
Y1744500D02*
D03*
D99*
X1505500Y1676500D02*
D03*
X1500500D02*
D03*
X1495500D02*
D03*
X1490500D02*
D03*
X1485500D02*
D03*
X1480500D02*
D03*
X1475500D02*
D03*
X1470500D02*
D03*
X1465500D02*
D03*
X1460500D02*
D03*
X1455500D02*
D03*
X1450500D02*
D03*
Y1757500D02*
D03*
X1455500D02*
D03*
X1460500D02*
D03*
X1465500D02*
D03*
X1470500D02*
D03*
X1475500D02*
D03*
X1480500D02*
D03*
X1485500D02*
D03*
X1490500D02*
D03*
X1495500D02*
D03*
X1500500D02*
D03*
X1505500D02*
D03*
D100*
X1336600Y763000D02*
D03*
X1362000D02*
D03*
X1121000Y2025000D02*
D03*
X1095600D02*
D03*
X955200Y2041000D02*
D03*
X980600D02*
D03*
X1336000Y2441000D02*
D03*
X1361400D02*
D03*
X2132600Y1626000D02*
D03*
X2158000D02*
D03*
X1486600Y2463000D02*
D03*
X1512000D02*
D03*
X1336200Y2399000D02*
D03*
X1361600D02*
D03*
X1141000Y1979400D02*
D03*
Y1954000D02*
D03*
X989000Y1232400D02*
D03*
Y1207000D02*
D03*
X1585000Y763000D02*
D03*
X1610400D02*
D03*
X1884000Y1564000D02*
D03*
X1909400D02*
D03*
D101*
X1387400Y763000D02*
D03*
X1070200Y2025000D02*
D03*
X1006000Y2041000D02*
D03*
X1386800Y2441000D02*
D03*
X2183400Y1626000D02*
D03*
X1537400Y2463000D02*
D03*
X1387000Y2399000D02*
D03*
X1635800Y763000D02*
D03*
X1934800Y1564000D02*
D03*
D102*
X1141000Y1928600D02*
D03*
X989000Y1181600D02*
D03*
D103*
X2101000Y1976300D02*
D03*
Y2001700D02*
D03*
X558000Y1268400D02*
D03*
Y1243000D02*
D03*
X862000Y1972300D02*
D03*
Y1997700D02*
D03*
X2412000Y1272700D02*
D03*
Y1247300D02*
D03*
D104*
X1313000Y889000D02*
D03*
Y933000D02*
D03*
X1655000Y930000D02*
D03*
Y886000D02*
D03*
D105*
X2026000Y1059000D02*
D03*
X1996000D02*
D03*
M02*
