G04 Layer_Color=26112*
%FSLAX44Y44*%
%MOMM*%
G71*
G01*
G75*
%ADD44C,0.1270*%
%ADD47C,0.3048*%
%ADD48C,0.2032*%
%ADD50C,0.2540*%
%ADD54R,4.8260X2.4130*%
%ADD117C,0.2560*%
%ADD118C,0.2997*%
%ADD119C,0.3050*%
D44*
X2931790Y1607023D02*
Y1631154D01*
Y1607023D02*
X3165470D01*
Y1631154D01*
X2931790D02*
X3165470D01*
X3001216Y1624039D02*
Y1613882D01*
X2997831Y1624039D02*
X3004602D01*
X3012100D02*
X3005811D01*
Y1613882D01*
X3012100D01*
X3005811Y1619202D02*
X3009681D01*
X3021048Y1621621D02*
X3020565Y1622588D01*
X3019597Y1623556D01*
X3018630Y1624039D01*
X3016695D01*
X3015728Y1623556D01*
X3014760Y1622588D01*
X3014276Y1621621D01*
X3013793Y1620170D01*
Y1617751D01*
X3014276Y1616300D01*
X3014760Y1615333D01*
X3015728Y1614365D01*
X3016695Y1613882D01*
X3018630D01*
X3019597Y1614365D01*
X3020565Y1615333D01*
X3021048Y1616300D01*
X3023902Y1624039D02*
Y1613882D01*
X3030674Y1624039D02*
Y1613882D01*
X3023902Y1619202D02*
X3030674D01*
X3033480Y1624039D02*
Y1613882D01*
Y1624039D02*
X3040251Y1613882D01*
Y1624039D02*
Y1613882D01*
X3043057Y1624039D02*
Y1613882D01*
X3052441Y1621621D02*
X3051957Y1622588D01*
X3050990Y1623556D01*
X3050022Y1624039D01*
X3048087D01*
X3047120Y1623556D01*
X3046153Y1622588D01*
X3045669Y1621621D01*
X3045185Y1620170D01*
Y1617751D01*
X3045669Y1616300D01*
X3046153Y1615333D01*
X3047120Y1614365D01*
X3048087Y1613882D01*
X3050022D01*
X3050990Y1614365D01*
X3051957Y1615333D01*
X3052441Y1616300D01*
X3063034Y1613882D02*
X3059164Y1624039D01*
X3055295Y1613882D01*
X3056746Y1617268D02*
X3061583D01*
X3065404Y1624039D02*
Y1613882D01*
X3071208D01*
X3080302Y1624039D02*
Y1613882D01*
Y1624039D02*
X3083688D01*
X3085139Y1623556D01*
X3086107Y1622588D01*
X3086590Y1621621D01*
X3087074Y1620170D01*
Y1617751D01*
X3086590Y1616300D01*
X3086107Y1615333D01*
X3085139Y1614365D01*
X3083688Y1613882D01*
X3080302D01*
X3097087D02*
X3093217Y1624039D01*
X3089348Y1613882D01*
X3090799Y1617268D02*
X3095636D01*
X3102843Y1624039D02*
Y1613882D01*
X3099457Y1624039D02*
X3106229D01*
X3115177Y1613882D02*
X3111308Y1624039D01*
X3107438Y1613882D01*
X3108889Y1617268D02*
X3113726D01*
D47*
X4884781Y1028412D02*
X4896462Y1010889D01*
Y1028412D02*
X4884781Y1010889D01*
X5340483Y1657457D02*
X5352165Y1639935D01*
Y1657457D02*
X5340483Y1639935D01*
X4945428Y1655297D02*
X4944594Y1656966D01*
X4942925Y1658635D01*
X4941257Y1659469D01*
X4937919D01*
X4936250Y1658635D01*
X4934582Y1656966D01*
X4933747Y1655297D01*
X4932913Y1652794D01*
Y1648622D01*
X4933747Y1646119D01*
X4934582Y1644450D01*
X4936250Y1642781D01*
X4937919Y1641947D01*
X4941257D01*
X4942925Y1642781D01*
X4944594Y1644450D01*
X4945428Y1646119D01*
Y1648622D01*
X4941257D02*
X4945428D01*
X4949434Y1659469D02*
Y1641947D01*
X4959446D01*
X4966372Y1659469D02*
X4964703Y1658635D01*
X4963034Y1656966D01*
X4962200Y1655297D01*
X4961365Y1652794D01*
Y1648622D01*
X4962200Y1646119D01*
X4963034Y1644450D01*
X4964703Y1642781D01*
X4966372Y1641947D01*
X4969709D01*
X4971378Y1642781D01*
X4973047Y1644450D01*
X4973882Y1646119D01*
X4974716Y1648622D01*
Y1652794D01*
X4973882Y1655297D01*
X4973047Y1656966D01*
X4971378Y1658635D01*
X4969709Y1659469D01*
X4966372D01*
X4990486Y1656966D02*
X4988817Y1658635D01*
X4986314Y1659469D01*
X4982976D01*
X4980473Y1658635D01*
X4978804Y1656966D01*
Y1655297D01*
X4979639Y1653629D01*
X4980473Y1652794D01*
X4982142Y1651960D01*
X4987148Y1650291D01*
X4988817Y1649457D01*
X4989651Y1648622D01*
X4990486Y1646953D01*
Y1644450D01*
X4988817Y1642781D01*
X4986314Y1641947D01*
X4982976D01*
X4980473Y1642781D01*
X4978804Y1644450D01*
X5006089Y1656966D02*
X5004420Y1658635D01*
X5001917Y1659469D01*
X4998579D01*
X4996076Y1658635D01*
X4994407Y1656966D01*
Y1655297D01*
X4995242Y1653629D01*
X4996076Y1652794D01*
X4997745Y1651960D01*
X5002751Y1650291D01*
X5004420Y1649457D01*
X5005255Y1648622D01*
X5006089Y1646953D01*
Y1644450D01*
X5004420Y1642781D01*
X5001917Y1641947D01*
X4998579D01*
X4996076Y1642781D01*
X4994407Y1644450D01*
X4884643Y1658707D02*
X4896325Y1641185D01*
Y1658707D02*
X4884643Y1641185D01*
X5463973Y1070715D02*
Y1071550D01*
X5464808Y1073219D01*
X5465642Y1074053D01*
X5467311Y1074887D01*
X5470648D01*
X5472317Y1074053D01*
X5473151Y1073219D01*
X5473986Y1071550D01*
Y1069881D01*
X5473151Y1068212D01*
X5471483Y1065709D01*
X5463138Y1057365D01*
X5474820D01*
X5424799Y1073538D02*
X5436480Y1056015D01*
Y1073538D02*
X5424799Y1056015D01*
X4857169Y4133214D02*
X4872189D01*
X4877362D02*
X4892381D01*
X4897554D02*
X4912573D01*
X4749184Y4141250D02*
Y4142085D01*
X4750019Y4143753D01*
X4750853Y4144588D01*
X4752522Y4145422D01*
X4755859D01*
X4757528Y4144588D01*
X4758363Y4143753D01*
X4759197Y4142085D01*
Y4140416D01*
X4758363Y4138747D01*
X4756694Y4136244D01*
X4748350Y4127900D01*
X4760031D01*
X4768959Y4145422D02*
X4766456Y4144588D01*
X4764788Y4142085D01*
X4763953Y4137913D01*
Y4135410D01*
X4764788Y4131237D01*
X4766456Y4128734D01*
X4768959Y4127900D01*
X4770628D01*
X4773131Y4128734D01*
X4774800Y4131237D01*
X4775634Y4135410D01*
Y4137913D01*
X4774800Y4142085D01*
X4773131Y4144588D01*
X4770628Y4145422D01*
X4768959D01*
X4779556Y4142085D02*
X4781225Y4142919D01*
X4783728Y4145422D01*
Y4127900D01*
X5052939Y4137849D02*
X5054608Y4138683D01*
X5057112Y4141187D01*
Y4123664D01*
X5076636Y4135345D02*
X5075802Y4132842D01*
X5074133Y4131174D01*
X5071630Y4130339D01*
X5070796D01*
X5068293Y4131174D01*
X5066624Y4132842D01*
X5065789Y4135345D01*
Y4136180D01*
X5066624Y4138683D01*
X5068293Y4140352D01*
X5070796Y4141187D01*
X5071630D01*
X5074133Y4140352D01*
X5075802Y4138683D01*
X5076636Y4135345D01*
Y4131174D01*
X5075802Y4127002D01*
X5074133Y4124499D01*
X5071630Y4123664D01*
X5069961D01*
X5067458Y4124499D01*
X5066624Y4126167D01*
X5091405Y4141187D02*
X5083061D01*
X5082227Y4133677D01*
X5083061Y4134511D01*
X5085564Y4135345D01*
X5088068D01*
X5090571Y4134511D01*
X5092239Y4132842D01*
X5093074Y4130339D01*
Y4128670D01*
X5092239Y4126167D01*
X5090571Y4124499D01*
X5088068Y4123664D01*
X5085564D01*
X5083061Y4124499D01*
X5082227Y4125333D01*
X5081393Y4127002D01*
X5097830Y4125333D02*
X5096996Y4124499D01*
X5097830Y4123664D01*
X5098664Y4124499D01*
X5097830Y4125333D01*
X5107509Y4141187D02*
X5105006Y4140352D01*
X5103337Y4137849D01*
X5102502Y4133677D01*
Y4131174D01*
X5103337Y4127002D01*
X5105006Y4124499D01*
X5107509Y4123664D01*
X5109178D01*
X5111681Y4124499D01*
X5113350Y4127002D01*
X5114184Y4131174D01*
Y4133677D01*
X5113350Y4137849D01*
X5111681Y4140352D01*
X5109178Y4141187D01*
X5107509D01*
X5123112D02*
X5120609Y4140352D01*
X5118940Y4137849D01*
X5118106Y4133677D01*
Y4131174D01*
X5118940Y4127002D01*
X5120609Y4124499D01*
X5123112Y4123664D01*
X5124781D01*
X5127284Y4124499D01*
X5128953Y4127002D01*
X5129787Y4131174D01*
Y4133677D01*
X5128953Y4137849D01*
X5127284Y4140352D01*
X5124781Y4141187D01*
X5123112D01*
X5133708D02*
Y4123664D01*
Y4141187D02*
X5140384Y4123664D01*
X5147059Y4141187D02*
X5140384Y4123664D01*
X5147059Y4141187D02*
Y4123664D01*
X5152065Y4141187D02*
Y4123664D01*
Y4141187D02*
X5158741Y4123664D01*
X5165416Y4141187D02*
X5158741Y4123664D01*
X5165416Y4141187D02*
Y4123664D01*
X4585469Y4143146D02*
X4594372D01*
X4589515Y4136671D01*
X4591943D01*
X4593562Y4135862D01*
X4594372Y4135053D01*
X4595181Y4132625D01*
Y4131006D01*
X4594372Y4128578D01*
X4592753Y4126960D01*
X4590325Y4126150D01*
X4587897D01*
X4585469Y4126960D01*
X4584659Y4127769D01*
X4583850Y4129388D01*
X4608697Y4140718D02*
X4607888Y4142337D01*
X4605460Y4143146D01*
X4603841D01*
X4601413Y4142337D01*
X4599794Y4139909D01*
X4598985Y4135862D01*
Y4131815D01*
X4599794Y4128578D01*
X4601413Y4126960D01*
X4603841Y4126150D01*
X4604650D01*
X4607078Y4126960D01*
X4608697Y4128578D01*
X4609507Y4131006D01*
Y4131815D01*
X4608697Y4134243D01*
X4607078Y4135862D01*
X4604650Y4136671D01*
X4603841D01*
X4601413Y4135862D01*
X4599794Y4134243D01*
X4598985Y4131815D01*
X4614848Y4143146D02*
X4623751D01*
X4618895Y4136671D01*
X4621323D01*
X4622942Y4135862D01*
X4623751Y4135053D01*
X4624560Y4132625D01*
Y4131006D01*
X4623751Y4128578D01*
X4622132Y4126960D01*
X4619704Y4126150D01*
X4617276D01*
X4614848Y4126960D01*
X4614039Y4127769D01*
X4613229Y4129388D01*
X4629174Y4139100D02*
Y4139909D01*
X4629983Y4141528D01*
X4630792Y4142337D01*
X4632411Y4143146D01*
X4635648D01*
X4637267Y4142337D01*
X4638076Y4141528D01*
X4638886Y4139909D01*
Y4138290D01*
X4638076Y4136671D01*
X4636458Y4134243D01*
X4628364Y4126150D01*
X4639695D01*
X4651593Y4143146D02*
X4643499Y4131815D01*
X4655639D01*
X4651593Y4143146D02*
Y4126150D01*
X5241940Y4137849D02*
X5243608Y4138683D01*
X5246111Y4141187D01*
Y4123664D01*
X5265636Y4135345D02*
X5264802Y4132842D01*
X5263133Y4131174D01*
X5260630Y4130339D01*
X5259796D01*
X5257292Y4131174D01*
X5255624Y4132842D01*
X5254789Y4135345D01*
Y4136180D01*
X5255624Y4138683D01*
X5257292Y4140352D01*
X5259796Y4141187D01*
X5260630D01*
X5263133Y4140352D01*
X5264802Y4138683D01*
X5265636Y4135345D01*
Y4131174D01*
X5264802Y4127002D01*
X5263133Y4124499D01*
X5260630Y4123664D01*
X5258961D01*
X5256458Y4124499D01*
X5255624Y4126167D01*
X5280405Y4138683D02*
X5279570Y4140352D01*
X5277067Y4141187D01*
X5275399D01*
X5272896Y4140352D01*
X5271227Y4137849D01*
X5270392Y4133677D01*
Y4129505D01*
X5271227Y4126167D01*
X5272896Y4124499D01*
X5275399Y4123664D01*
X5276233D01*
X5278736Y4124499D01*
X5280405Y4126167D01*
X5281240Y4128670D01*
Y4129505D01*
X5280405Y4132008D01*
X5278736Y4133677D01*
X5276233Y4134511D01*
X5275399D01*
X5272896Y4133677D01*
X5271227Y4132008D01*
X5270392Y4129505D01*
X5285912Y4125333D02*
X5285078Y4124499D01*
X5285912Y4123664D01*
X5286746Y4124499D01*
X5285912Y4125333D01*
X5295591Y4141187D02*
X5293088Y4140352D01*
X5291419Y4137849D01*
X5290585Y4133677D01*
Y4131174D01*
X5291419Y4127002D01*
X5293088Y4124499D01*
X5295591Y4123664D01*
X5297260D01*
X5299763Y4124499D01*
X5301432Y4127002D01*
X5302266Y4131174D01*
Y4133677D01*
X5301432Y4137849D01*
X5299763Y4140352D01*
X5297260Y4141187D01*
X5295591D01*
X5311194D02*
X5308691Y4140352D01*
X5307022Y4137849D01*
X5306188Y4133677D01*
Y4131174D01*
X5307022Y4127002D01*
X5308691Y4124499D01*
X5311194Y4123664D01*
X5312863D01*
X5315366Y4124499D01*
X5317035Y4127002D01*
X5317869Y4131174D01*
Y4133677D01*
X5317035Y4137849D01*
X5315366Y4140352D01*
X5312863Y4141187D01*
X5311194D01*
X5321791D02*
Y4123664D01*
Y4141187D02*
X5328466Y4123664D01*
X5335141Y4141187D02*
X5328466Y4123664D01*
X5335141Y4141187D02*
Y4123664D01*
X5340148Y4141187D02*
Y4123664D01*
Y4141187D02*
X5346823Y4123664D01*
X5353498Y4141187D02*
X5346823Y4123664D01*
X5353498Y4141187D02*
Y4123664D01*
X5642833Y811803D02*
X5650343D01*
X5652846Y812637D01*
X5653680Y813471D01*
X5654515Y815140D01*
Y817643D01*
X5653680Y819312D01*
X5652846Y820146D01*
X5650343Y820981D01*
X5642833D01*
Y803459D01*
X5669283Y820981D02*
X5658436D01*
Y803459D01*
X5669283D01*
X5658436Y812637D02*
X5665112D01*
X5672204Y820981D02*
Y803459D01*
Y820981D02*
X5679713D01*
X5682217Y820146D01*
X5683051Y819312D01*
X5683885Y817643D01*
Y815975D01*
X5683051Y814306D01*
X5682217Y813471D01*
X5679713Y812637D01*
X5672204D01*
X5678044D02*
X5683885Y803459D01*
X5706581Y820981D02*
X5704912Y820146D01*
X5703243Y818478D01*
X5702409Y816809D01*
X5701575Y814306D01*
Y810134D01*
X5702409Y807631D01*
X5703243Y805962D01*
X5704912Y804293D01*
X5706581Y803459D01*
X5709918D01*
X5711587Y804293D01*
X5713256Y805962D01*
X5714091Y807631D01*
X5714925Y810134D01*
Y814306D01*
X5714091Y816809D01*
X5713256Y818478D01*
X5711587Y820146D01*
X5709918Y820981D01*
X5706581D01*
X5719013D02*
Y803459D01*
Y820981D02*
X5726523D01*
X5729026Y820146D01*
X5729860Y819312D01*
X5730695Y817643D01*
Y815975D01*
X5729860Y814306D01*
X5729026Y813471D01*
X5726523Y812637D01*
X5719013D01*
X5724854D02*
X5730695Y803459D01*
X5734617Y820981D02*
Y803459D01*
Y820981D02*
X5740457D01*
X5742960Y820146D01*
X5744629Y818478D01*
X5745464Y816809D01*
X5746298Y814306D01*
Y810134D01*
X5745464Y807631D01*
X5744629Y805962D01*
X5742960Y804293D01*
X5740457Y803459D01*
X5734617D01*
X5761067Y820981D02*
X5750220D01*
Y803459D01*
X5761067D01*
X5750220Y812637D02*
X5756895D01*
X5763987Y820981D02*
Y803459D01*
Y820981D02*
X5771497D01*
X5774000Y820146D01*
X5774834Y819312D01*
X5775668Y817643D01*
Y815975D01*
X5774834Y814306D01*
X5774000Y813471D01*
X5771497Y812637D01*
X5763987D01*
X5769828D02*
X5775668Y803459D01*
X5532787Y818983D02*
X5531118Y818149D01*
X5529449Y816480D01*
X5528615Y814811D01*
X5527781Y812308D01*
Y808136D01*
X5528615Y805633D01*
X5529449Y803964D01*
X5531118Y802295D01*
X5532787Y801461D01*
X5536125D01*
X5537794Y802295D01*
X5539462Y803964D01*
X5540297Y805633D01*
X5541131Y808136D01*
Y812308D01*
X5540297Y814811D01*
X5539462Y816480D01*
X5537794Y818149D01*
X5536125Y818983D01*
X5532787D01*
X5551060D02*
Y801461D01*
X5545220Y818983D02*
X5556901D01*
X5558987D02*
Y801461D01*
X5570668Y818983D02*
Y801461D01*
X5558987Y810639D02*
X5570668D01*
X5586355Y818983D02*
X5575508D01*
Y801461D01*
X5586355D01*
X5575508Y810639D02*
X5582183D01*
X5589276Y818983D02*
Y801461D01*
Y818983D02*
X5596785D01*
X5599288Y818149D01*
X5600123Y817314D01*
X5600957Y815646D01*
Y813977D01*
X5600123Y812308D01*
X5599288Y811474D01*
X5596785Y810639D01*
X5589276D01*
X5595116D02*
X5600957Y801461D01*
X5480219Y816897D02*
X5491901Y799375D01*
Y816897D02*
X5480219Y799375D01*
X4883830Y1754125D02*
X4895511Y1736602D01*
Y1754125D02*
X4883830Y1736602D01*
X5340583Y1800312D02*
X5352264Y1782789D01*
Y1800312D02*
X5340583Y1782789D01*
X5605759Y1800312D02*
X5617440Y1782789D01*
Y1800312D02*
X5605759Y1782789D01*
X4802611Y3748076D02*
X4814292Y3730553D01*
Y3748076D02*
X4802611Y3730553D01*
X5047975Y3798622D02*
X5059656Y3781100D01*
Y3798622D02*
X5047975Y3781100D01*
X4884219Y908278D02*
X4895900Y890756D01*
Y908278D02*
X4884219Y890756D01*
X4885669Y2036278D02*
X4897350Y2018755D01*
Y2036278D02*
X4885669Y2018755D01*
Y2080982D02*
X4897350Y2063459D01*
Y2080982D02*
X4885669Y2063459D01*
X4884399Y2430994D02*
X4896080Y2413471D01*
Y2430994D02*
X4884399Y2413471D01*
X4884799Y2476012D02*
X4896463Y2458515D01*
Y2476012D02*
X4884799Y2458515D01*
X5469869Y3704134D02*
X5481550Y3686611D01*
Y3704134D02*
X5469869Y3686611D01*
X5095219Y639278D02*
X5106900Y621755D01*
Y639278D02*
X5095219Y621755D01*
X4884781Y1076412D02*
X4896462Y1058889D01*
Y1076412D02*
X4884781Y1058889D01*
X4884399Y1330412D02*
X4896080Y1312889D01*
Y1330412D02*
X4884399Y1312889D01*
X5189199Y1990304D02*
X5200880Y1972781D01*
Y1990304D02*
X5189199Y1972781D01*
X5603219Y2036278D02*
X5614901Y2018755D01*
Y2036278D02*
X5603219Y2018755D01*
X5479600Y771672D02*
X5491282Y754150D01*
Y771672D02*
X5479600Y754150D01*
X5018669Y589748D02*
X5030350Y572225D01*
Y589748D02*
X5018669Y572225D01*
X5309586Y683347D02*
X5321267Y665825D01*
Y683347D02*
X5309586Y665825D01*
X5714461Y863433D02*
X5726143Y845911D01*
Y863433D02*
X5714461Y845911D01*
X5339557Y1703919D02*
X5351239Y1686397D01*
Y1703919D02*
X5339557Y1686397D01*
X5189697Y2339427D02*
X5201379Y2321905D01*
Y2339427D02*
X5189697Y2321905D01*
X5068707Y580315D02*
X5076216D01*
X5078719Y581150D01*
X5079554Y581984D01*
X5080388Y583653D01*
Y586156D01*
X5079554Y587825D01*
X5078719Y588659D01*
X5076216Y589494D01*
X5068707D01*
Y571971D01*
X5095157Y589494D02*
X5084310D01*
Y571971D01*
X5095157D01*
X5084310Y581150D02*
X5090985D01*
X5098077Y589494D02*
Y571971D01*
Y589494D02*
X5105587D01*
X5108090Y588659D01*
X5108925Y587825D01*
X5109759Y586156D01*
Y584487D01*
X5108925Y582818D01*
X5108090Y581984D01*
X5105587Y581150D01*
X5098077D01*
X5103918D02*
X5109759Y571971D01*
X5132454Y589494D02*
X5130786Y588659D01*
X5129117Y586990D01*
X5128282Y585322D01*
X5127448Y582818D01*
Y578647D01*
X5128282Y576143D01*
X5129117Y574474D01*
X5130786Y572806D01*
X5132454Y571971D01*
X5135792D01*
X5137461Y572806D01*
X5139130Y574474D01*
X5139964Y576143D01*
X5140798Y578647D01*
Y582818D01*
X5139964Y585322D01*
X5139130Y586990D01*
X5137461Y588659D01*
X5135792Y589494D01*
X5132454D01*
X5144887D02*
Y571971D01*
Y589494D02*
X5152396D01*
X5154900Y588659D01*
X5155734Y587825D01*
X5156569Y586156D01*
Y584487D01*
X5155734Y582818D01*
X5154900Y581984D01*
X5152396Y581150D01*
X5144887D01*
X5150728D02*
X5156569Y571971D01*
X5160490Y589494D02*
Y571971D01*
Y589494D02*
X5166331D01*
X5168834Y588659D01*
X5170503Y586990D01*
X5171337Y585322D01*
X5172172Y582818D01*
Y578647D01*
X5171337Y576143D01*
X5170503Y574474D01*
X5168834Y572806D01*
X5166331Y571971D01*
X5160490D01*
X5186940Y589494D02*
X5176093D01*
Y571971D01*
X5186940D01*
X5176093Y581150D02*
X5182769D01*
X5189861Y589494D02*
Y571971D01*
Y589494D02*
X5197370D01*
X5199874Y588659D01*
X5200708Y587825D01*
X5201542Y586156D01*
Y584487D01*
X5200708Y582818D01*
X5199874Y581984D01*
X5197370Y581150D01*
X5189861D01*
X5195701D02*
X5201542Y571971D01*
X5664684Y1797300D02*
X5663015Y1798969D01*
X5660512Y1799804D01*
X5657175D01*
X5654672Y1798969D01*
X5653003Y1797300D01*
Y1795632D01*
X5653837Y1793963D01*
X5654672Y1793128D01*
X5656340Y1792294D01*
X5661346Y1790625D01*
X5663015Y1789791D01*
X5663850Y1788956D01*
X5664684Y1787288D01*
Y1784785D01*
X5663015Y1783116D01*
X5660512Y1782281D01*
X5657175D01*
X5654672Y1783116D01*
X5653003Y1784785D01*
X5673612Y1799804D02*
X5671943Y1798969D01*
X5670275Y1797300D01*
X5669440Y1795632D01*
X5668606Y1793128D01*
Y1788956D01*
X5669440Y1786453D01*
X5670275Y1784785D01*
X5671943Y1783116D01*
X5673612Y1782281D01*
X5676949D01*
X5678619Y1783116D01*
X5680287Y1784785D01*
X5681122Y1786453D01*
X5681956Y1788956D01*
Y1793128D01*
X5681122Y1795632D01*
X5680287Y1797300D01*
X5678619Y1798969D01*
X5676949Y1799804D01*
X5673612D01*
X5686044D02*
Y1782281D01*
X5696057D01*
X5697977Y1799804D02*
Y1782281D01*
Y1799804D02*
X5703817D01*
X5706320Y1798969D01*
X5707989Y1797300D01*
X5708823Y1795632D01*
X5709658Y1793128D01*
Y1788956D01*
X5708823Y1786453D01*
X5707989Y1784785D01*
X5706320Y1783116D01*
X5703817Y1782281D01*
X5697977D01*
X5724427Y1799804D02*
X5713580D01*
Y1782281D01*
X5724427D01*
X5713580Y1791460D02*
X5720255D01*
X5727347Y1799804D02*
Y1782281D01*
Y1799804D02*
X5734857D01*
X5737360Y1798969D01*
X5738194Y1798135D01*
X5739028Y1796466D01*
Y1794797D01*
X5738194Y1793128D01*
X5737360Y1792294D01*
X5734857Y1791460D01*
X5727347D01*
X5733188D02*
X5739028Y1782281D01*
X5400342Y1795632D02*
X5399508Y1797300D01*
X5397839Y1798969D01*
X5396171Y1799804D01*
X5392833D01*
X5391164Y1798969D01*
X5389495Y1797300D01*
X5388661Y1795632D01*
X5387827Y1793128D01*
Y1788956D01*
X5388661Y1786453D01*
X5389495Y1784785D01*
X5391164Y1783116D01*
X5392833Y1782281D01*
X5396171D01*
X5397839Y1783116D01*
X5399508Y1784785D01*
X5400342Y1786453D01*
X5410272Y1799804D02*
X5408603Y1798969D01*
X5406934Y1797300D01*
X5406100Y1795632D01*
X5405266Y1793128D01*
Y1788956D01*
X5406100Y1786453D01*
X5406934Y1784785D01*
X5408603Y1783116D01*
X5410272Y1782281D01*
X5413610D01*
X5415278Y1783116D01*
X5416947Y1784785D01*
X5417781Y1786453D01*
X5418616Y1788956D01*
Y1793128D01*
X5417781Y1795632D01*
X5416947Y1797300D01*
X5415278Y1798969D01*
X5413610Y1799804D01*
X5410272D01*
X5422704D02*
Y1782281D01*
Y1799804D02*
X5429379Y1782281D01*
X5436055Y1799804D02*
X5429379Y1782281D01*
X5436055Y1799804D02*
Y1782281D01*
X5441061Y1790625D02*
X5448571D01*
X5451074Y1791460D01*
X5451908Y1792294D01*
X5452742Y1793963D01*
Y1796466D01*
X5451908Y1798135D01*
X5451074Y1798969D01*
X5448571Y1799804D01*
X5441061D01*
Y1782281D01*
X5461671Y1799804D02*
X5460002Y1798969D01*
X5458333Y1797300D01*
X5457498Y1795632D01*
X5456664Y1793128D01*
Y1788956D01*
X5457498Y1786453D01*
X5458333Y1784785D01*
X5460002Y1783116D01*
X5461671Y1782281D01*
X5465008D01*
X5466677Y1783116D01*
X5468345Y1784785D01*
X5469180Y1786453D01*
X5470014Y1788956D01*
Y1793128D01*
X5469180Y1795632D01*
X5468345Y1797300D01*
X5466677Y1798969D01*
X5465008Y1799804D01*
X5461671D01*
X5474103D02*
Y1782281D01*
Y1799804D02*
X5485784Y1782281D01*
Y1799804D02*
Y1782281D01*
X5501471Y1799804D02*
X5490624D01*
Y1782281D01*
X5501471D01*
X5490624Y1791460D02*
X5497299D01*
X5504391Y1799804D02*
Y1782281D01*
Y1799804D02*
X5516073Y1782281D01*
Y1799804D02*
Y1782281D01*
X5526753Y1799804D02*
Y1782281D01*
X5520912Y1799804D02*
X5532594D01*
X5399508Y1702558D02*
X5397839Y1704227D01*
X5395336Y1705062D01*
X5391999D01*
X5389495Y1704227D01*
X5387827Y1702558D01*
Y1700890D01*
X5388661Y1699221D01*
X5389495Y1698386D01*
X5391164Y1697552D01*
X5396171Y1695883D01*
X5397839Y1695049D01*
X5398674Y1694214D01*
X5399508Y1692546D01*
Y1690043D01*
X5397839Y1688374D01*
X5395336Y1687539D01*
X5391999D01*
X5389495Y1688374D01*
X5387827Y1690043D01*
X5415945Y1700890D02*
X5415111Y1702558D01*
X5413442Y1704227D01*
X5411774Y1705062D01*
X5408436D01*
X5406768Y1704227D01*
X5405099Y1702558D01*
X5404264Y1700890D01*
X5403430Y1698386D01*
Y1694214D01*
X5404264Y1691711D01*
X5405099Y1690043D01*
X5406768Y1688374D01*
X5408436Y1687539D01*
X5411774D01*
X5413442Y1688374D01*
X5415111Y1690043D01*
X5415945Y1691711D01*
X5420869Y1705062D02*
Y1687539D01*
Y1705062D02*
X5428378D01*
X5430881Y1704227D01*
X5431716Y1703393D01*
X5432550Y1701724D01*
Y1700055D01*
X5431716Y1698386D01*
X5430881Y1697552D01*
X5428378Y1696718D01*
X5420869D01*
X5426710D02*
X5432550Y1687539D01*
X5447319Y1705062D02*
X5436472D01*
Y1687539D01*
X5447319D01*
X5436472Y1696718D02*
X5443147D01*
X5461086Y1705062D02*
X5450239D01*
Y1687539D01*
X5461086D01*
X5450239Y1696718D02*
X5456915D01*
X5464007Y1705062D02*
Y1687539D01*
Y1705062D02*
X5475688Y1687539D01*
Y1705062D02*
Y1687539D01*
X5494295Y1695883D02*
X5501805D01*
X5504308Y1696718D01*
X5505142Y1697552D01*
X5505977Y1699221D01*
Y1701724D01*
X5505142Y1703393D01*
X5504308Y1704227D01*
X5501805Y1705062D01*
X5494295D01*
Y1687539D01*
X5509898Y1705062D02*
Y1687539D01*
Y1705062D02*
X5517408D01*
X5519911Y1704227D01*
X5520745Y1703393D01*
X5521580Y1701724D01*
Y1700055D01*
X5520745Y1698386D01*
X5519911Y1697552D01*
X5517408Y1696718D01*
X5509898D01*
X5515739D02*
X5521580Y1687539D01*
X5525502Y1705062D02*
Y1687539D01*
X5529173Y1705062D02*
Y1687539D01*
Y1705062D02*
X5540854Y1687539D01*
Y1705062D02*
Y1687539D01*
X5551534Y1705062D02*
Y1687539D01*
X5545694Y1705062D02*
X5557375D01*
X4945429Y1325732D02*
X4944594Y1327400D01*
X4942926Y1329069D01*
X4941257Y1329904D01*
X4937919D01*
X4936251Y1329069D01*
X4934582Y1327400D01*
X4933747Y1325732D01*
X4932913Y1323228D01*
Y1319056D01*
X4933747Y1316553D01*
X4934582Y1314884D01*
X4936251Y1313216D01*
X4937919Y1312381D01*
X4941257D01*
X4942926Y1313216D01*
X4944594Y1314884D01*
X4945429Y1316553D01*
X4950352Y1329904D02*
Y1317388D01*
X4951186Y1314884D01*
X4952855Y1313216D01*
X4955358Y1312381D01*
X4957027D01*
X4959530Y1313216D01*
X4961199Y1314884D01*
X4962033Y1317388D01*
Y1329904D01*
X4972714D02*
Y1312381D01*
X4966873Y1329904D02*
X4978554D01*
X5007758Y1312381D02*
X5001083Y1329904D01*
X4994408Y1312381D01*
X4996911Y1318222D02*
X5005255D01*
X5011847Y1329904D02*
Y1312381D01*
Y1329904D02*
X5023528Y1312381D01*
Y1329904D02*
Y1312381D01*
X5028368Y1329904D02*
Y1312381D01*
Y1329904D02*
X5034208D01*
X5036711Y1329069D01*
X5038380Y1327400D01*
X5039214Y1325732D01*
X5040049Y1323228D01*
Y1319056D01*
X5039214Y1316553D01*
X5038380Y1314884D01*
X5036711Y1313216D01*
X5034208Y1312381D01*
X5028368D01*
X5063579Y1329904D02*
Y1312381D01*
X5057738Y1329904D02*
X5069420D01*
X5071506D02*
Y1312381D01*
Y1329904D02*
X5079015D01*
X5081518Y1329069D01*
X5082353Y1328235D01*
X5083187Y1326566D01*
Y1324897D01*
X5082353Y1323228D01*
X5081518Y1322394D01*
X5079015Y1321560D01*
X5071506D01*
X5077346D02*
X5083187Y1312381D01*
X5087109Y1329904D02*
Y1312381D01*
X5090780Y1329904D02*
Y1312381D01*
Y1329904D02*
X5097455Y1312381D01*
X5104130Y1329904D02*
X5097455Y1312381D01*
X5104130Y1329904D02*
Y1312381D01*
X5136254D02*
X5129579Y1329904D01*
X5122904Y1312381D01*
X5125407Y1318222D02*
X5133751D01*
X5152859Y1325732D02*
X5152025Y1327400D01*
X5150356Y1329069D01*
X5148687Y1329904D01*
X5145349D01*
X5143680Y1329069D01*
X5142012Y1327400D01*
X5141177Y1325732D01*
X5140343Y1323228D01*
Y1319056D01*
X5141177Y1316553D01*
X5142012Y1314884D01*
X5143680Y1313216D01*
X5145349Y1312381D01*
X5148687D01*
X5150356Y1313216D01*
X5152025Y1314884D01*
X5152859Y1316553D01*
X5170298Y1325732D02*
X5169464Y1327400D01*
X5167795Y1329069D01*
X5166125Y1329904D01*
X5162788D01*
X5161119Y1329069D01*
X5159451Y1327400D01*
X5158616Y1325732D01*
X5157782Y1323228D01*
Y1319056D01*
X5158616Y1316553D01*
X5159451Y1314884D01*
X5161119Y1313216D01*
X5162788Y1312381D01*
X5166125D01*
X5167795Y1313216D01*
X5169464Y1314884D01*
X5170298Y1316553D01*
X5180227Y1329904D02*
X5178558Y1329069D01*
X5176890Y1327400D01*
X5176055Y1325732D01*
X5175220Y1323228D01*
Y1319056D01*
X5176055Y1316553D01*
X5176890Y1314884D01*
X5178558Y1313216D01*
X5180227Y1312381D01*
X5183564D01*
X5185233Y1313216D01*
X5186902Y1314884D01*
X5187736Y1316553D01*
X5188571Y1319056D01*
Y1323228D01*
X5187736Y1325732D01*
X5186902Y1327400D01*
X5185233Y1329069D01*
X5183564Y1329904D01*
X5180227D01*
X5192659D02*
Y1312381D01*
Y1329904D02*
X5200169D01*
X5202672Y1329069D01*
X5203506Y1328235D01*
X5204341Y1326566D01*
Y1324897D01*
X5203506Y1323228D01*
X5202672Y1322394D01*
X5200169Y1321560D01*
X5192659D01*
X5198500D02*
X5204341Y1312381D01*
X5208262Y1329904D02*
Y1312381D01*
Y1329904D02*
X5214103D01*
X5216606Y1329069D01*
X5218275Y1327400D01*
X5219109Y1325732D01*
X5219944Y1323228D01*
Y1319056D01*
X5219109Y1316553D01*
X5218275Y1314884D01*
X5216606Y1313216D01*
X5214103Y1312381D01*
X5208262D01*
X5223866Y1329904D02*
Y1312381D01*
X5227537Y1329904D02*
Y1312381D01*
Y1329904D02*
X5239219Y1312381D01*
Y1329904D02*
Y1312381D01*
X5256574Y1325732D02*
X5255740Y1327400D01*
X5254070Y1329069D01*
X5252402Y1329904D01*
X5249064D01*
X5247396Y1329069D01*
X5245727Y1327400D01*
X5244893Y1325732D01*
X5244058Y1323228D01*
Y1319056D01*
X5244893Y1316553D01*
X5245727Y1314884D01*
X5247396Y1313216D01*
X5249064Y1312381D01*
X5252402D01*
X5254070Y1313216D01*
X5255740Y1314884D01*
X5256574Y1316553D01*
Y1319056D01*
X5252402D02*
X5256574D01*
X5280187Y1329904D02*
Y1312381D01*
X5274346Y1329904D02*
X5286028D01*
X5293120D02*
X5291451Y1329069D01*
X5289783Y1327400D01*
X5288948Y1325732D01*
X5288114Y1323228D01*
Y1319056D01*
X5288948Y1316553D01*
X5289783Y1314884D01*
X5291451Y1313216D01*
X5293120Y1312381D01*
X5296458D01*
X5298127Y1313216D01*
X5299796Y1314884D01*
X5300630Y1316553D01*
X5301464Y1319056D01*
Y1323228D01*
X5300630Y1325732D01*
X5299796Y1327400D01*
X5298127Y1329069D01*
X5296458Y1329904D01*
X5293120D01*
X5319320D02*
Y1312381D01*
X5329333D01*
X5344602D02*
X5337927Y1329904D01*
X5331252Y1312381D01*
X5333755Y1318222D02*
X5342099D01*
X5348691Y1329904D02*
X5355366Y1321560D01*
Y1312381D01*
X5362041Y1329904D02*
X5355366Y1321560D01*
X5375141Y1329904D02*
X5364294D01*
Y1312381D01*
X5375141D01*
X5364294Y1321560D02*
X5370969D01*
X5378062Y1329904D02*
Y1312381D01*
Y1329904D02*
X5385571D01*
X5388074Y1329069D01*
X5388909Y1328235D01*
X5389743Y1326566D01*
Y1324897D01*
X5388909Y1323228D01*
X5388074Y1322394D01*
X5385571Y1321560D01*
X5378062D01*
X5383902D02*
X5389743Y1312381D01*
X5407432Y1329904D02*
Y1312381D01*
Y1329904D02*
X5414107Y1312381D01*
X5420782Y1329904D02*
X5414107Y1312381D01*
X5420782Y1329904D02*
Y1312381D01*
X5436636Y1329904D02*
X5425789D01*
Y1312381D01*
X5436636D01*
X5425789Y1321560D02*
X5432464D01*
X5452072Y1325732D02*
X5451238Y1327400D01*
X5449569Y1329069D01*
X5447900Y1329904D01*
X5444562D01*
X5442894Y1329069D01*
X5441225Y1327400D01*
X5440391Y1325732D01*
X5439556Y1323228D01*
Y1319056D01*
X5440391Y1316553D01*
X5441225Y1314884D01*
X5442894Y1313216D01*
X5444562Y1312381D01*
X5447900D01*
X5449569Y1313216D01*
X5451238Y1314884D01*
X5452072Y1316553D01*
X5456995Y1329904D02*
Y1312381D01*
X5468677Y1329904D02*
Y1312381D01*
X5456995Y1321560D02*
X5468677D01*
X5486866Y1312381D02*
X5480191Y1329904D01*
X5473516Y1312381D01*
X5476019Y1318222D02*
X5484363D01*
X5490955Y1329904D02*
Y1312381D01*
Y1329904D02*
X5502636Y1312381D01*
Y1329904D02*
Y1312381D01*
X5507476Y1329904D02*
Y1312381D01*
X5523663Y1325732D02*
X5522828Y1327400D01*
X5521160Y1329069D01*
X5519491Y1329904D01*
X5516154D01*
X5514485Y1329069D01*
X5512816Y1327400D01*
X5511981Y1325732D01*
X5511147Y1323228D01*
Y1319056D01*
X5511981Y1316553D01*
X5512816Y1314884D01*
X5514485Y1313216D01*
X5516154Y1312381D01*
X5519491D01*
X5521160Y1313216D01*
X5522828Y1314884D01*
X5523663Y1316553D01*
X5541936Y1312381D02*
X5535261Y1329904D01*
X5528586Y1312381D01*
X5531089Y1318222D02*
X5539433D01*
X5546025Y1329904D02*
Y1312381D01*
X5556038D01*
X5571724Y1326566D02*
X5573393Y1327400D01*
X5575896Y1329904D01*
Y1312381D01*
X5604182Y1333241D02*
X5602513Y1331572D01*
X5600844Y1329069D01*
X5599175Y1325732D01*
X5598341Y1321560D01*
Y1318222D01*
X5599175Y1314050D01*
X5600844Y1310712D01*
X5602513Y1308209D01*
X5604182Y1306541D01*
X5602513Y1331572D02*
X5600844Y1328235D01*
X5600010Y1325732D01*
X5599175Y1321560D01*
Y1318222D01*
X5600010Y1314050D01*
X5600844Y1311547D01*
X5602513Y1308209D01*
X5607520Y1329904D02*
Y1312381D01*
Y1329904D02*
X5615029D01*
X5617532Y1329069D01*
X5618367Y1328235D01*
X5619201Y1326566D01*
Y1324897D01*
X5618367Y1323228D01*
X5617532Y1322394D01*
X5615029Y1321560D01*
X5607520D02*
X5615029D01*
X5617532Y1320725D01*
X5618367Y1319891D01*
X5619201Y1318222D01*
Y1315719D01*
X5618367Y1314050D01*
X5617532Y1313216D01*
X5615029Y1312381D01*
X5607520D01*
X5628129Y1329904D02*
X5626460Y1329069D01*
X5624791Y1327400D01*
X5623957Y1325732D01*
X5623123Y1323228D01*
Y1319056D01*
X5623957Y1316553D01*
X5624791Y1314884D01*
X5626460Y1313216D01*
X5628129Y1312381D01*
X5631467D01*
X5633135Y1313216D01*
X5634804Y1314884D01*
X5635638Y1316553D01*
X5636473Y1319056D01*
Y1323228D01*
X5635638Y1325732D01*
X5634804Y1327400D01*
X5633135Y1329069D01*
X5631467Y1329904D01*
X5628129D01*
X5653912Y1312381D02*
X5647236Y1329904D01*
X5640562Y1312381D01*
X5643065Y1318222D02*
X5651409D01*
X5658000Y1329904D02*
Y1312381D01*
Y1329904D02*
X5665510D01*
X5668013Y1329069D01*
X5668847Y1328235D01*
X5669681Y1326566D01*
Y1324897D01*
X5668847Y1323228D01*
X5668013Y1322394D01*
X5665510Y1321560D01*
X5658000D01*
X5663841D02*
X5669681Y1312381D01*
X5673604Y1329904D02*
Y1312381D01*
Y1329904D02*
X5679444D01*
X5681947Y1329069D01*
X5683616Y1327400D01*
X5684451Y1325732D01*
X5685285Y1323228D01*
Y1319056D01*
X5684451Y1316553D01*
X5683616Y1314884D01*
X5681947Y1313216D01*
X5679444Y1312381D01*
X5673604D01*
X5707980Y1329904D02*
X5706312Y1329069D01*
X5704643Y1327400D01*
X5703809Y1325732D01*
X5702974Y1323228D01*
Y1319056D01*
X5703809Y1316553D01*
X5704643Y1314884D01*
X5706312Y1313216D01*
X5707980Y1312381D01*
X5711318D01*
X5712986Y1313216D01*
X5714655Y1314884D01*
X5715490Y1316553D01*
X5716324Y1319056D01*
Y1323228D01*
X5715490Y1325732D01*
X5714655Y1327400D01*
X5712986Y1329069D01*
X5711318Y1329904D01*
X5707980D01*
X5720413D02*
Y1317388D01*
X5721247Y1314884D01*
X5722916Y1313216D01*
X5725419Y1312381D01*
X5727088D01*
X5729591Y1313216D01*
X5731260Y1314884D01*
X5732094Y1317388D01*
Y1329904D01*
X5742775D02*
Y1312381D01*
X5736934Y1329904D02*
X5748615D01*
X5750701D02*
Y1312381D01*
X5760714D01*
X5762633Y1329904D02*
Y1312381D01*
X5766304Y1329904D02*
Y1312381D01*
Y1329904D02*
X5777986Y1312381D01*
Y1329904D02*
Y1312381D01*
X5793672Y1329904D02*
X5782825D01*
Y1312381D01*
X5793672D01*
X5782825Y1321560D02*
X5789501D01*
X5796593Y1333241D02*
X5798262Y1331572D01*
X5799930Y1329069D01*
X5801599Y1325732D01*
X5802433Y1321560D01*
Y1318222D01*
X5801599Y1314050D01*
X5799930Y1310712D01*
X5798262Y1308209D01*
X5796593Y1306541D01*
X5798262Y1331572D02*
X5799930Y1328235D01*
X5800765Y1325732D01*
X5801599Y1321560D01*
Y1318222D01*
X5800765Y1314050D01*
X5799930Y1311547D01*
X5798262Y1308209D01*
X4945428Y2076810D02*
X4944594Y2078478D01*
X4942925Y2080147D01*
X4941257Y2080982D01*
X4937919D01*
X4936250Y2080147D01*
X4934581Y2078478D01*
X4933747Y2076810D01*
X4932913Y2074306D01*
Y2070134D01*
X4933747Y2067631D01*
X4934581Y2065963D01*
X4936250Y2064294D01*
X4937919Y2063459D01*
X4941257D01*
X4942925Y2064294D01*
X4944594Y2065963D01*
X4945428Y2067631D01*
X4955358Y2080982D02*
X4953689Y2080147D01*
X4952020Y2078478D01*
X4951186Y2076810D01*
X4950352Y2074306D01*
Y2070134D01*
X4951186Y2067631D01*
X4952020Y2065963D01*
X4953689Y2064294D01*
X4955358Y2063459D01*
X4958695D01*
X4960364Y2064294D01*
X4962033Y2065963D01*
X4962867Y2067631D01*
X4963702Y2070134D01*
Y2074306D01*
X4962867Y2076810D01*
X4962033Y2078478D01*
X4960364Y2080147D01*
X4958695Y2080982D01*
X4955358D01*
X4967790D02*
Y2063459D01*
Y2080982D02*
X4974465Y2063459D01*
X4981141Y2080982D02*
X4974465Y2063459D01*
X4981141Y2080982D02*
Y2063459D01*
X4986147Y2071803D02*
X4993656D01*
X4996160Y2072638D01*
X4996994Y2073472D01*
X4997828Y2075141D01*
Y2077644D01*
X4996994Y2079313D01*
X4996160Y2080147D01*
X4993656Y2080982D01*
X4986147D01*
Y2063459D01*
X5006756Y2080982D02*
X5005088Y2080147D01*
X5003419Y2078478D01*
X5002585Y2076810D01*
X5001750Y2074306D01*
Y2070134D01*
X5002585Y2067631D01*
X5003419Y2065963D01*
X5005088Y2064294D01*
X5006756Y2063459D01*
X5010094D01*
X5011763Y2064294D01*
X5013431Y2065963D01*
X5014266Y2067631D01*
X5015100Y2070134D01*
Y2074306D01*
X5014266Y2076810D01*
X5013431Y2078478D01*
X5011763Y2080147D01*
X5010094Y2080982D01*
X5006756D01*
X5019189D02*
Y2063459D01*
Y2080982D02*
X5030870Y2063459D01*
Y2080982D02*
Y2063459D01*
X5046557Y2080982D02*
X5035710D01*
Y2063459D01*
X5046557D01*
X5035710Y2072638D02*
X5042385D01*
X5049477Y2080982D02*
Y2063459D01*
Y2080982D02*
X5061159Y2063459D01*
Y2080982D02*
Y2063459D01*
X5071839Y2080982D02*
Y2063459D01*
X5065998Y2080982D02*
X5077680D01*
X5105215Y2078478D02*
X5103546Y2080147D01*
X5101043Y2080982D01*
X5097705D01*
X5095202Y2080147D01*
X5093533Y2078478D01*
Y2076810D01*
X5094368Y2075141D01*
X5095202Y2074306D01*
X5096871Y2073472D01*
X5101877Y2071803D01*
X5103546Y2070969D01*
X5104380Y2070134D01*
X5105215Y2068466D01*
Y2065963D01*
X5103546Y2064294D01*
X5101043Y2063459D01*
X5097705D01*
X5095202Y2064294D01*
X5093533Y2065963D01*
X5109136Y2080982D02*
Y2063459D01*
X5112808Y2080982D02*
Y2063459D01*
Y2080982D02*
X5118648D01*
X5121152Y2080147D01*
X5122820Y2078478D01*
X5123655Y2076810D01*
X5124489Y2074306D01*
Y2070134D01*
X5123655Y2067631D01*
X5122820Y2065963D01*
X5121152Y2064294D01*
X5118648Y2063459D01*
X5112808D01*
X5139258Y2080982D02*
X5128411D01*
Y2063459D01*
X5139258D01*
X5128411Y2072638D02*
X5135086D01*
X4946263Y2018247D02*
X4939588Y2035770D01*
X4932913Y2018247D01*
X4935416Y2024088D02*
X4943760D01*
X4962033Y2033266D02*
X4960364Y2034935D01*
X4957861Y2035770D01*
X4954523D01*
X4952020Y2034935D01*
X4950352Y2033266D01*
Y2031598D01*
X4951186Y2029929D01*
X4952020Y2029094D01*
X4953689Y2028260D01*
X4958695Y2026591D01*
X4960364Y2025757D01*
X4961199Y2024922D01*
X4962033Y2023254D01*
Y2020750D01*
X4960364Y2019082D01*
X4957861Y2018247D01*
X4954523D01*
X4952020Y2019082D01*
X4950352Y2020750D01*
X4991404Y2033266D02*
X4989735Y2034935D01*
X4987232Y2035770D01*
X4983894D01*
X4981391Y2034935D01*
X4979722Y2033266D01*
Y2031598D01*
X4980557Y2029929D01*
X4981391Y2029094D01*
X4983060Y2028260D01*
X4988066Y2026591D01*
X4989735Y2025757D01*
X4990569Y2024922D01*
X4991404Y2023254D01*
Y2020750D01*
X4989735Y2019082D01*
X4987232Y2018247D01*
X4983894D01*
X4981391Y2019082D01*
X4979722Y2020750D01*
X4995325Y2035770D02*
Y2018247D01*
X5007007Y2035770D02*
Y2018247D01*
X4995325Y2027426D02*
X5007007D01*
X5016853Y2035770D02*
X5015184Y2034935D01*
X5013515Y2033266D01*
X5012681Y2031598D01*
X5011846Y2029094D01*
Y2024922D01*
X5012681Y2022419D01*
X5013515Y2020750D01*
X5015184Y2019082D01*
X5016853Y2018247D01*
X5020190D01*
X5021859Y2019082D01*
X5023528Y2020750D01*
X5024362Y2022419D01*
X5025197Y2024922D01*
Y2029094D01*
X5024362Y2031598D01*
X5023528Y2033266D01*
X5021859Y2034935D01*
X5020190Y2035770D01*
X5016853D01*
X5029285D02*
X5033457Y2018247D01*
X5037629Y2035770D02*
X5033457Y2018247D01*
X5037629Y2035770D02*
X5041801Y2018247D01*
X5045973Y2035770D02*
X5041801Y2018247D01*
X5049477Y2035770D02*
Y2018247D01*
Y2035770D02*
X5061159Y2018247D01*
Y2035770D02*
Y2018247D01*
X4850917Y3749091D02*
Y3736576D01*
X4851751Y3734072D01*
X4853420Y3732404D01*
X4855923Y3731569D01*
X4857592D01*
X4860095Y3732404D01*
X4861764Y3734072D01*
X4862598Y3736576D01*
Y3749091D01*
X4867438D02*
Y3731569D01*
Y3749091D02*
X4879119Y3731569D01*
Y3749091D02*
Y3731569D01*
X4883959Y3749091D02*
Y3731569D01*
X4892636Y3749091D02*
X4890967Y3748257D01*
X4889299Y3746588D01*
X4888464Y3744920D01*
X4887630Y3742416D01*
Y3738244D01*
X4888464Y3735741D01*
X4889299Y3734072D01*
X4890967Y3732404D01*
X4892636Y3731569D01*
X4895974D01*
X4897643Y3732404D01*
X4899312Y3734072D01*
X4900146Y3735741D01*
X4900980Y3738244D01*
Y3742416D01*
X4900146Y3744920D01*
X4899312Y3746588D01*
X4897643Y3748257D01*
X4895974Y3749091D01*
X4892636D01*
X4895139Y3734907D02*
X4900146Y3729901D01*
X4905069Y3749091D02*
Y3736576D01*
X4905903Y3734072D01*
X4907572Y3732404D01*
X4910075Y3731569D01*
X4911744D01*
X4914247Y3732404D01*
X4915916Y3734072D01*
X4916750Y3736576D01*
Y3749091D01*
X4932437D02*
X4921590D01*
Y3731569D01*
X4932437D01*
X4921590Y3740748D02*
X4928265D01*
X4949124Y3749091D02*
Y3731569D01*
Y3749091D02*
X4954966D01*
X4957469Y3748257D01*
X4959137Y3746588D01*
X4959972Y3744920D01*
X4960806Y3742416D01*
Y3738244D01*
X4959972Y3735741D01*
X4959137Y3734072D01*
X4957469Y3732404D01*
X4954966Y3731569D01*
X4949124D01*
X4964728Y3749091D02*
Y3731569D01*
Y3749091D02*
X4972237D01*
X4974741Y3748257D01*
X4975575Y3747423D01*
X4976409Y3745754D01*
Y3744085D01*
X4975575Y3742416D01*
X4974741Y3741582D01*
X4972237Y3740748D01*
X4964728D01*
X4970569D02*
X4976409Y3731569D01*
X4980331Y3749091D02*
Y3731569D01*
X4984002Y3749091D02*
Y3731569D01*
X4994015D01*
X4995934Y3749091D02*
Y3731569D01*
X5005947D01*
X4850917Y3799130D02*
Y3781607D01*
Y3799130D02*
X4861764D01*
X4850917Y3790786D02*
X4857592D01*
X4874613Y3799130D02*
X4863766D01*
Y3781607D01*
X4874613D01*
X4863766Y3790786D02*
X4870441D01*
X4888381Y3799130D02*
X4877534D01*
Y3781607D01*
X4888381D01*
X4877534Y3790786D02*
X4884209D01*
X4891301Y3799130D02*
Y3781607D01*
Y3799130D02*
X4897142D01*
X4899645Y3798295D01*
X4901314Y3796626D01*
X4902148Y3794958D01*
X4902983Y3792455D01*
Y3788282D01*
X4902148Y3785779D01*
X4901314Y3784110D01*
X4899645Y3782442D01*
X4897142Y3781607D01*
X4891301D01*
X4926513Y3799130D02*
Y3781607D01*
X4920672Y3799130D02*
X4932354D01*
X4934439D02*
Y3781607D01*
X4946121Y3799130D02*
Y3781607D01*
X4934439Y3790786D02*
X4946121D01*
X4950960Y3799130D02*
Y3781607D01*
Y3799130D02*
X4958470D01*
X4960973Y3798295D01*
X4961808Y3797461D01*
X4962642Y3795792D01*
Y3794123D01*
X4961808Y3792455D01*
X4960973Y3791620D01*
X4958470Y3790786D01*
X4950960D01*
X4956801D02*
X4962642Y3781607D01*
X4966563Y3799130D02*
Y3786613D01*
X4967398Y3784110D01*
X4969067Y3782442D01*
X4971570Y3781607D01*
X4973239D01*
X4975742Y3782442D01*
X4977411Y3784110D01*
X4978245Y3786613D01*
Y3799130D01*
X4983919Y3797461D02*
X4983084Y3798295D01*
X4983919Y3799130D01*
X4984753Y3798295D01*
Y3796626D01*
X4983919Y3794958D01*
X4983084Y3794123D01*
X5238801Y1986386D02*
Y1987220D01*
X5239636Y1988889D01*
X5240470Y1989723D01*
X5242139Y1990558D01*
X5245476D01*
X5247145Y1989723D01*
X5247979Y1988889D01*
X5248814Y1987220D01*
Y1985551D01*
X5247979Y1983882D01*
X5246310Y1981379D01*
X5237967Y1973035D01*
X5249648D01*
X5258576Y1990558D02*
X5256073Y1989723D01*
X5254404Y1987220D01*
X5253570Y1983048D01*
Y1980545D01*
X5254404Y1976373D01*
X5256073Y1973870D01*
X5258576Y1973035D01*
X5260245D01*
X5262748Y1973870D01*
X5264417Y1976373D01*
X5265251Y1980545D01*
Y1983048D01*
X5264417Y1987220D01*
X5262748Y1989723D01*
X5260245Y1990558D01*
X5258576D01*
X5269173Y1984717D02*
Y1976373D01*
X5270007Y1973870D01*
X5271676Y1973035D01*
X5274179D01*
X5275848Y1973870D01*
X5278351Y1976373D01*
Y1984717D02*
Y1973035D01*
X5282941Y1984717D02*
Y1973035D01*
Y1981379D02*
X5285444Y1983882D01*
X5287112Y1984717D01*
X5289615D01*
X5291284Y1983882D01*
X5292119Y1981379D01*
Y1973035D01*
Y1981379D02*
X5294622Y1983882D01*
X5296291Y1984717D01*
X5298794D01*
X5300463Y1983882D01*
X5301297Y1981379D01*
Y1973035D01*
X5142717Y639278D02*
Y621755D01*
X5158069Y636774D02*
X5156401Y638443D01*
X5153898Y639278D01*
X5150560D01*
X5148057Y638443D01*
X5146388Y636774D01*
Y635106D01*
X5147222Y633437D01*
X5148057Y632602D01*
X5149725Y631768D01*
X5154732Y630099D01*
X5156401Y629265D01*
X5157235Y628430D01*
X5158069Y626762D01*
Y624258D01*
X5156401Y622590D01*
X5153898Y621755D01*
X5150560D01*
X5148057Y622590D01*
X5146388Y624258D01*
X5166998Y639278D02*
X5164494Y638443D01*
X5162825Y635940D01*
X5161991Y631768D01*
Y629265D01*
X5162825Y625093D01*
X5164494Y622590D01*
X5166998Y621755D01*
X5168666D01*
X5171169Y622590D01*
X5172838Y625093D01*
X5173672Y629265D01*
Y631768D01*
X5172838Y635940D01*
X5171169Y638443D01*
X5168666Y639278D01*
X5166998D01*
X5188441Y633437D02*
X5187607Y630934D01*
X5185938Y629265D01*
X5183435Y628430D01*
X5182601D01*
X5180098Y629265D01*
X5178429Y630934D01*
X5177595Y633437D01*
Y634271D01*
X5178429Y636774D01*
X5180098Y638443D01*
X5182601Y639278D01*
X5183435D01*
X5185938Y638443D01*
X5187607Y636774D01*
X5188441Y633437D01*
Y629265D01*
X5187607Y625093D01*
X5185938Y622590D01*
X5183435Y621755D01*
X5181766D01*
X5179263Y622590D01*
X5178429Y624258D01*
X5198204Y639278D02*
X5195701Y638443D01*
X5194032Y635940D01*
X5193198Y631768D01*
Y629265D01*
X5194032Y625093D01*
X5195701Y622590D01*
X5198204Y621755D01*
X5199872D01*
X5202375Y622590D01*
X5204045Y625093D01*
X5204879Y629265D01*
Y631768D01*
X5204045Y635940D01*
X5202375Y638443D01*
X5199872Y639278D01*
X5198204D01*
X5213807D02*
X5211304Y638443D01*
X5209635Y635940D01*
X5208801Y631768D01*
Y629265D01*
X5209635Y625093D01*
X5211304Y622590D01*
X5213807Y621755D01*
X5215475D01*
X5217979Y622590D01*
X5219648Y625093D01*
X5220482Y629265D01*
Y631768D01*
X5219648Y635940D01*
X5217979Y638443D01*
X5215475Y639278D01*
X5213807D01*
X5224404Y635940D02*
X5226072Y636774D01*
X5228575Y639278D01*
Y621755D01*
X5237253Y619252D02*
X5248935Y639278D01*
X5263453Y621755D02*
X5256778Y639278D01*
X5250103Y621755D01*
X5252606Y627596D02*
X5260950D01*
X5279223Y636774D02*
X5277554Y638443D01*
X5275051Y639278D01*
X5271714D01*
X5269211Y638443D01*
X5267542Y636774D01*
Y635106D01*
X5268376Y633437D01*
X5269211Y632602D01*
X5270880Y631768D01*
X5275886Y630099D01*
X5277554Y629265D01*
X5278389Y628430D01*
X5279223Y626762D01*
Y624258D01*
X5277554Y622590D01*
X5275051Y621755D01*
X5271714D01*
X5269211Y622590D01*
X5267542Y624258D01*
X5284814Y639278D02*
X5293992D01*
X5288986Y632602D01*
X5291489D01*
X5293158Y631768D01*
X5293992Y630934D01*
X5294827Y628430D01*
Y626762D01*
X5293992Y624258D01*
X5292323Y622590D01*
X5289820Y621755D01*
X5287317D01*
X5284814Y622590D01*
X5283979Y623424D01*
X5283145Y625093D01*
X5309595Y633437D02*
X5308761Y630934D01*
X5307092Y629265D01*
X5304589Y628430D01*
X5303754D01*
X5301251Y629265D01*
X5299583Y630934D01*
X5298748Y633437D01*
Y634271D01*
X5299583Y636774D01*
X5301251Y638443D01*
X5303754Y639278D01*
X5304589D01*
X5307092Y638443D01*
X5308761Y636774D01*
X5309595Y633437D01*
Y629265D01*
X5308761Y625093D01*
X5307092Y622590D01*
X5304589Y621755D01*
X5302920D01*
X5300417Y622590D01*
X5299583Y624258D01*
X5319357Y639278D02*
X5316854Y638443D01*
X5315186Y635940D01*
X5314351Y631768D01*
Y629265D01*
X5315186Y625093D01*
X5316854Y622590D01*
X5319357Y621755D01*
X5321027D01*
X5323530Y622590D01*
X5325198Y625093D01*
X5326033Y629265D01*
Y631768D01*
X5325198Y635940D01*
X5323530Y638443D01*
X5321027Y639278D01*
X5319357D01*
X5329954Y635940D02*
X5331623Y636774D01*
X5334127Y639278D01*
Y621755D01*
X5763565Y860404D02*
Y861238D01*
X5764399Y862907D01*
X5765234Y863741D01*
X5766902Y864576D01*
X5770240D01*
X5771909Y863741D01*
X5772744Y862907D01*
X5773578Y861238D01*
Y859569D01*
X5772744Y857900D01*
X5771075Y855397D01*
X5762731Y847053D01*
X5774412D01*
X4932787Y909788D02*
Y892265D01*
Y909788D02*
X4944468Y892265D01*
Y909788D02*
Y892265D01*
X4954314Y909788D02*
X4952645Y908953D01*
X4950976Y907284D01*
X4950142Y905616D01*
X4949308Y903112D01*
Y898941D01*
X4950142Y896437D01*
X4950976Y894769D01*
X4952645Y893100D01*
X4954314Y892265D01*
X4957652D01*
X4959320Y893100D01*
X4960989Y894769D01*
X4961824Y896437D01*
X4962658Y898941D01*
Y903112D01*
X4961824Y905616D01*
X4960989Y907284D01*
X4959320Y908953D01*
X4957652Y909788D01*
X4954314D01*
X4966747D02*
Y892265D01*
Y909788D02*
X4978428Y892265D01*
Y909788D02*
Y892265D01*
X4994114Y909788D02*
X4983268D01*
Y892265D01*
X4994114D01*
X4983268Y901444D02*
X4989943D01*
X5653003Y2035770D02*
Y2018247D01*
Y2035770D02*
X5664684Y2018247D01*
Y2035770D02*
Y2018247D01*
X5682040Y2031598D02*
X5681205Y2033266D01*
X5679536Y2034935D01*
X5677867Y2035770D01*
X5674530D01*
X5672861Y2034935D01*
X5671193Y2033266D01*
X5670358Y2031598D01*
X5669523Y2029094D01*
Y2024922D01*
X5670358Y2022419D01*
X5671193Y2020750D01*
X5672861Y2019082D01*
X5674530Y2018247D01*
X5677867D01*
X5679536Y2019082D01*
X5681205Y2020750D01*
X5682040Y2022419D01*
X5686962Y2012407D02*
X5700312D01*
X5716333Y2035770D02*
Y2018247D01*
Y2035770D02*
X5722174D01*
X5724677Y2034935D01*
X5726346Y2033266D01*
X5727180Y2031598D01*
X5728015Y2029094D01*
Y2024922D01*
X5727180Y2022419D01*
X5726346Y2020750D01*
X5724677Y2019082D01*
X5722174Y2018247D01*
X5716333D01*
X5731936Y2035770D02*
Y2018247D01*
Y2035770D02*
X5739446D01*
X5741949Y2034935D01*
X5742783Y2034101D01*
X5743618Y2032432D01*
Y2030763D01*
X5742783Y2029094D01*
X5741949Y2028260D01*
X5739446Y2027426D01*
X5731936D01*
X5737777D02*
X5743618Y2018247D01*
X5747540Y2035770D02*
Y2018247D01*
X5751211Y2035770D02*
Y2018247D01*
X5761223D01*
X5763143Y2035770D02*
Y2018247D01*
X5773155D01*
X5788842Y2035770D02*
Y2018247D01*
Y2035770D02*
X5799689D01*
X5788842Y2027426D02*
X5795517D01*
X5801691Y2035770D02*
Y2018247D01*
X5805363Y2035770D02*
Y2018247D01*
X5815375D01*
X5828141Y2035770D02*
X5817294D01*
Y2018247D01*
X5828141D01*
X5817294Y2027426D02*
X5823970D01*
X5842744Y2033266D02*
X5841075Y2034935D01*
X5838572Y2035770D01*
X5835234D01*
X5832731Y2034935D01*
X5831062Y2033266D01*
Y2031598D01*
X5831896Y2029929D01*
X5832731Y2029094D01*
X5834399Y2028260D01*
X5839406Y2026591D01*
X5841075Y2025757D01*
X5841909Y2024922D01*
X5842744Y2023254D01*
Y2020750D01*
X5841075Y2019082D01*
X5838572Y2018247D01*
X5835234D01*
X5832731Y2019082D01*
X5831062Y2020750D01*
X5357855Y684490D02*
Y666967D01*
X5367867D01*
X5380634Y684490D02*
X5369786D01*
Y666967D01*
X5380634D01*
X5369786Y676146D02*
X5376462D01*
X5396070Y680318D02*
X5395236Y681986D01*
X5393567Y683655D01*
X5391898Y684490D01*
X5388560D01*
X5386891Y683655D01*
X5385223Y681986D01*
X5384388Y680318D01*
X5383554Y677814D01*
Y673643D01*
X5384388Y671139D01*
X5385223Y669471D01*
X5386891Y667802D01*
X5388560Y666967D01*
X5391898D01*
X5393567Y667802D01*
X5395236Y669471D01*
X5396070Y671139D01*
Y673643D01*
X5391898D02*
X5396070D01*
X5410922Y684490D02*
X5400075D01*
Y666967D01*
X5410922D01*
X5400075Y676146D02*
X5406750D01*
X5413842Y684490D02*
Y666967D01*
Y684490D02*
X5425524Y666967D01*
Y684490D02*
Y666967D01*
X5430363Y684490D02*
Y666967D01*
Y684490D02*
X5436204D01*
X5438707Y683655D01*
X5440376Y681986D01*
X5441210Y680318D01*
X5442045Y677814D01*
Y673643D01*
X5441210Y671139D01*
X5440376Y669471D01*
X5438707Y667802D01*
X5436204Y666967D01*
X5430363D01*
X4932913Y1754846D02*
X4937085Y1737323D01*
X4941257Y1754846D02*
X4937085Y1737323D01*
X4941257Y1754846D02*
X4945428Y1737323D01*
X4949601Y1754846D02*
X4945428Y1737323D01*
X4953105Y1754846D02*
Y1737323D01*
X4964786Y1754846D02*
Y1737323D01*
X4953105Y1746502D02*
X4964786D01*
X4969626Y1754846D02*
Y1737323D01*
X4979138Y1754846D02*
Y1737323D01*
X4973297Y1754846D02*
X4984979D01*
X4997912D02*
X4987065D01*
Y1737323D01*
X4997912D01*
X4987065Y1746502D02*
X4993740D01*
X5250483Y3650178D02*
X5249648Y3651846D01*
X5247979Y3653515D01*
X5246310Y3654349D01*
X5242973D01*
X5241304Y3653515D01*
X5239636Y3651846D01*
X5238801Y3650178D01*
X5237967Y3647674D01*
Y3643503D01*
X5238801Y3640999D01*
X5239636Y3639330D01*
X5241304Y3637662D01*
X5242973Y3636827D01*
X5246310D01*
X5247979Y3637662D01*
X5249648Y3639330D01*
X5250483Y3640999D01*
X5268756Y3636827D02*
X5262081Y3654349D01*
X5255405Y3636827D01*
X5257908Y3642668D02*
X5266252D01*
X5272844Y3654349D02*
Y3636827D01*
Y3654349D02*
X5278685D01*
X5281188Y3653515D01*
X5282857Y3651846D01*
X5283691Y3650178D01*
X5284526Y3647674D01*
Y3643503D01*
X5283691Y3640999D01*
X5282857Y3639330D01*
X5281188Y3637662D01*
X5278685Y3636827D01*
X5272844D01*
X5198089Y3654604D02*
X5209770Y3637081D01*
Y3654604D02*
X5198089Y3637081D01*
X5536305Y2138389D02*
X5529630Y2155912D01*
X5522955Y2138389D01*
X5525458Y2144230D02*
X5533802D01*
X5552075Y2153408D02*
X5550406Y2155077D01*
X5547903Y2155912D01*
X5544565D01*
X5542062Y2155077D01*
X5540394Y2153408D01*
Y2151740D01*
X5541228Y2150071D01*
X5542062Y2149236D01*
X5543731Y2148402D01*
X5548737Y2146733D01*
X5550406Y2145899D01*
X5551241Y2145065D01*
X5552075Y2143396D01*
Y2140892D01*
X5550406Y2139224D01*
X5547903Y2138389D01*
X5544565D01*
X5542062Y2139224D01*
X5540394Y2140892D01*
X5581445Y2153408D02*
X5579777Y2155077D01*
X5577274Y2155912D01*
X5573936D01*
X5571433Y2155077D01*
X5569764Y2153408D01*
Y2151740D01*
X5570599Y2150071D01*
X5571433Y2149236D01*
X5573102Y2148402D01*
X5578108Y2146733D01*
X5579777Y2145899D01*
X5580611Y2145065D01*
X5581445Y2143396D01*
Y2140892D01*
X5579777Y2139224D01*
X5577274Y2138389D01*
X5573936D01*
X5571433Y2139224D01*
X5569764Y2140892D01*
X5585367Y2155912D02*
Y2138389D01*
X5597049Y2155912D02*
Y2138389D01*
X5585367Y2147568D02*
X5597049D01*
X5606895Y2155912D02*
X5605226Y2155077D01*
X5603557Y2153408D01*
X5602723Y2151740D01*
X5601888Y2149236D01*
Y2145065D01*
X5602723Y2142561D01*
X5603557Y2140892D01*
X5605226Y2139224D01*
X5606895Y2138389D01*
X5610232D01*
X5611901Y2139224D01*
X5613570Y2140892D01*
X5614404Y2142561D01*
X5615239Y2145065D01*
Y2149236D01*
X5614404Y2151740D01*
X5613570Y2153408D01*
X5611901Y2155077D01*
X5610232Y2155912D01*
X5606895D01*
X5619327D02*
X5623499Y2138389D01*
X5627671Y2155912D02*
X5623499Y2138389D01*
X5627671Y2155912D02*
X5631843Y2138389D01*
X5636015Y2155912D02*
X5631843Y2138389D01*
X5639519Y2155912D02*
Y2138389D01*
Y2155912D02*
X5651201Y2138389D01*
Y2155912D02*
Y2138389D01*
X5473679Y2155658D02*
X5485360Y2138135D01*
Y2155658D02*
X5473679Y2138135D01*
X4802647Y3798241D02*
X4814329Y3780719D01*
Y3798241D02*
X4802647Y3780719D01*
X5098773Y3799130D02*
Y3781607D01*
X5092933Y3799130D02*
X5104614D01*
X5117547D02*
X5106700D01*
Y3781607D01*
X5117547D01*
X5106700Y3790786D02*
X5113375D01*
X5120468Y3799130D02*
Y3781607D01*
Y3799130D02*
X5132149Y3781607D01*
Y3799130D02*
Y3781607D01*
X5142830Y3799130D02*
Y3781607D01*
X5136989Y3799130D02*
X5148670D01*
X5161603D02*
X5150756D01*
Y3781607D01*
X5161603D01*
X5150756Y3790786D02*
X5157431D01*
X5164523Y3799130D02*
Y3781607D01*
Y3799130D02*
X5170364D01*
X5172867Y3798295D01*
X5174536Y3796626D01*
X5175370Y3794958D01*
X5176205Y3792455D01*
Y3788282D01*
X5175370Y3785779D01*
X5174536Y3784110D01*
X5172867Y3782442D01*
X5170364Y3781607D01*
X5164523D01*
X5521319Y3686611D02*
X5514644Y3704134D01*
X5507969Y3686611D01*
X5510472Y3692452D02*
X5518816D01*
X5537089Y3701630D02*
X5535420Y3703299D01*
X5532917Y3704134D01*
X5529579D01*
X5527076Y3703299D01*
X5525408Y3701630D01*
Y3699962D01*
X5526242Y3698293D01*
X5527076Y3697458D01*
X5528745Y3696624D01*
X5533751Y3694955D01*
X5535420Y3694121D01*
X5536255Y3693286D01*
X5537089Y3691618D01*
Y3689114D01*
X5535420Y3687446D01*
X5532917Y3686611D01*
X5529579D01*
X5527076Y3687446D01*
X5525408Y3689114D01*
X5566459Y3701630D02*
X5564791Y3703299D01*
X5562288Y3704134D01*
X5558950D01*
X5556447Y3703299D01*
X5554778Y3701630D01*
Y3699962D01*
X5555613Y3698293D01*
X5556447Y3697458D01*
X5558116Y3696624D01*
X5563122Y3694955D01*
X5564791Y3694121D01*
X5565625Y3693286D01*
X5566459Y3691618D01*
Y3689114D01*
X5564791Y3687446D01*
X5562288Y3686611D01*
X5558950D01*
X5556447Y3687446D01*
X5554778Y3689114D01*
X5570381Y3704134D02*
Y3686611D01*
X5582063Y3704134D02*
Y3686611D01*
X5570381Y3695789D02*
X5582063D01*
X5591909Y3704134D02*
X5590240Y3703299D01*
X5588571Y3701630D01*
X5587737Y3699962D01*
X5586902Y3697458D01*
Y3693286D01*
X5587737Y3690783D01*
X5588571Y3689114D01*
X5590240Y3687446D01*
X5591909Y3686611D01*
X5595246D01*
X5596915Y3687446D01*
X5598584Y3689114D01*
X5599418Y3690783D01*
X5600253Y3693286D01*
Y3697458D01*
X5599418Y3699962D01*
X5598584Y3701630D01*
X5596915Y3703299D01*
X5595246Y3704134D01*
X5591909D01*
X5604341D02*
X5608513Y3686611D01*
X5612685Y3704134D02*
X5608513Y3686611D01*
X5612685Y3704134D02*
X5616857Y3686611D01*
X5621029Y3704134D02*
X5616857Y3686611D01*
X5624533Y3704134D02*
Y3686611D01*
Y3704134D02*
X5636215Y3686611D01*
Y3704134D02*
Y3686611D01*
X5178022Y1194649D02*
Y1177127D01*
Y1194649D02*
X5189704Y1177127D01*
Y1194649D02*
Y1177127D01*
X5195378Y1178796D02*
X5194543Y1177961D01*
X5195378Y1177127D01*
X5196212Y1177961D01*
X5195378Y1178796D01*
X5212567Y1190477D02*
X5211732Y1192146D01*
X5210063Y1193815D01*
X5208395Y1194649D01*
X5205057D01*
X5203388Y1193815D01*
X5201719Y1192146D01*
X5200885Y1190477D01*
X5200051Y1187974D01*
Y1183802D01*
X5200885Y1181299D01*
X5201719Y1179630D01*
X5203388Y1177961D01*
X5205057Y1177127D01*
X5208395D01*
X5210063Y1177961D01*
X5211732Y1179630D01*
X5212567Y1181299D01*
X5218324Y1178796D02*
X5217490Y1177961D01*
X5218324Y1177127D01*
X5219158Y1177961D01*
X5218324Y1178796D01*
X5236764Y1194649D02*
Y1177127D01*
Y1194649D02*
X5244274D01*
X5246777Y1193815D01*
X5247611Y1192980D01*
X5248445Y1191312D01*
Y1189643D01*
X5247611Y1187974D01*
X5246777Y1187140D01*
X5244274Y1186305D01*
X5236764D01*
X5242605D02*
X5248445Y1177127D01*
X5257374Y1194649D02*
X5255704Y1193815D01*
X5254036Y1192146D01*
X5253201Y1190477D01*
X5252367Y1187974D01*
Y1183802D01*
X5253201Y1181299D01*
X5254036Y1179630D01*
X5255704Y1177961D01*
X5257374Y1177127D01*
X5260711D01*
X5262380Y1177961D01*
X5264048Y1179630D01*
X5264883Y1181299D01*
X5265717Y1183802D01*
Y1187974D01*
X5264883Y1190477D01*
X5264048Y1192146D01*
X5262380Y1193815D01*
X5260711Y1194649D01*
X5257374D01*
X5269806D02*
Y1182133D01*
X5270640Y1179630D01*
X5272309Y1177961D01*
X5274812Y1177127D01*
X5276481D01*
X5278984Y1177961D01*
X5280653Y1179630D01*
X5281487Y1182133D01*
Y1194649D01*
X5292167D02*
Y1177127D01*
X5286327Y1194649D02*
X5298008D01*
X5310941D02*
X5300095D01*
Y1177127D01*
X5310941D01*
X5300095Y1186305D02*
X5306769D01*
X5129753Y1194487D02*
X5141435Y1176965D01*
Y1194487D02*
X5129753Y1176965D01*
X5401305Y1882231D02*
X5394630Y1899753D01*
X5387955Y1882231D01*
X5390458Y1888072D02*
X5398802D01*
X5417075Y1897250D02*
X5415406Y1898919D01*
X5412903Y1899753D01*
X5409565D01*
X5407062Y1898919D01*
X5405394Y1897250D01*
Y1895581D01*
X5406228Y1893913D01*
X5407062Y1893078D01*
X5408731Y1892244D01*
X5413737Y1890575D01*
X5415406Y1889740D01*
X5416241Y1888906D01*
X5417075Y1887237D01*
Y1884734D01*
X5415406Y1883065D01*
X5412903Y1882231D01*
X5409565D01*
X5407062Y1883065D01*
X5405394Y1884734D01*
X5446445Y1897250D02*
X5444777Y1898919D01*
X5442274Y1899753D01*
X5438936D01*
X5436433Y1898919D01*
X5434764Y1897250D01*
Y1895581D01*
X5435599Y1893913D01*
X5436433Y1893078D01*
X5438102Y1892244D01*
X5443108Y1890575D01*
X5444777Y1889740D01*
X5445611Y1888906D01*
X5446445Y1887237D01*
Y1884734D01*
X5444777Y1883065D01*
X5442274Y1882231D01*
X5438936D01*
X5436433Y1883065D01*
X5434764Y1884734D01*
X5450367Y1899753D02*
Y1882231D01*
X5462049Y1899753D02*
Y1882231D01*
X5450367Y1891409D02*
X5462049D01*
X5471895Y1899753D02*
X5470226Y1898919D01*
X5468557Y1897250D01*
X5467723Y1895581D01*
X5466888Y1893078D01*
Y1888906D01*
X5467723Y1886403D01*
X5468557Y1884734D01*
X5470226Y1883065D01*
X5471895Y1882231D01*
X5475232D01*
X5476901Y1883065D01*
X5478570Y1884734D01*
X5479404Y1886403D01*
X5480239Y1888906D01*
Y1893078D01*
X5479404Y1895581D01*
X5478570Y1897250D01*
X5476901Y1898919D01*
X5475232Y1899753D01*
X5471895D01*
X5484327D02*
X5488499Y1882231D01*
X5492671Y1899753D02*
X5488499Y1882231D01*
X5492671Y1899753D02*
X5496843Y1882231D01*
X5501015Y1899753D02*
X5496843Y1882231D01*
X5504519Y1899753D02*
Y1882231D01*
Y1899753D02*
X5516201Y1882231D01*
Y1899753D02*
Y1882231D01*
X5339685Y1899591D02*
X5351367Y1882069D01*
Y1899591D02*
X5339685Y1882069D01*
X5239636Y2340189D02*
X5248813D01*
X5243807Y2333514D01*
X5246310D01*
X5247979Y2332680D01*
X5248813Y2331845D01*
X5249648Y2329342D01*
Y2327673D01*
X5248813Y2325170D01*
X5247145Y2323501D01*
X5244642Y2322667D01*
X5242139D01*
X5239636Y2323501D01*
X5238801Y2324336D01*
X5237966Y2326005D01*
X5263583Y2340189D02*
X5255239D01*
X5254404Y2332680D01*
X5255239Y2333514D01*
X5257742Y2334349D01*
X5260245D01*
X5262748Y2333514D01*
X5264417Y2331845D01*
X5265251Y2329342D01*
Y2327673D01*
X5264417Y2325170D01*
X5262748Y2323501D01*
X5260245Y2322667D01*
X5257742D01*
X5255239Y2323501D01*
X5254404Y2324336D01*
X5253570Y2326005D01*
X5269173Y2334349D02*
Y2326005D01*
X5270007Y2323501D01*
X5271676Y2322667D01*
X5274179D01*
X5275848Y2323501D01*
X5278351Y2326005D01*
Y2334349D02*
Y2322667D01*
X5282941Y2334349D02*
Y2322667D01*
Y2331011D02*
X5285444Y2333514D01*
X5287112Y2334349D01*
X5289615D01*
X5291284Y2333514D01*
X5292119Y2331011D01*
Y2322667D01*
Y2331011D02*
X5294622Y2333514D01*
X5296291Y2334349D01*
X5298794D01*
X5300463Y2333514D01*
X5301297Y2331011D01*
Y2322667D01*
X5326412Y2343527D02*
X5324744Y2341858D01*
X5323075Y2339355D01*
X5321406Y2336017D01*
X5320571Y2331845D01*
Y2328508D01*
X5321406Y2324336D01*
X5323075Y2320998D01*
X5324744Y2318495D01*
X5326412Y2316826D01*
X5324744Y2341858D02*
X5323075Y2338521D01*
X5322241Y2336017D01*
X5321406Y2331845D01*
Y2328508D01*
X5322241Y2324336D01*
X5323075Y2321833D01*
X5324744Y2318495D01*
X5329750Y2336852D02*
X5331418Y2337686D01*
X5333922Y2340189D01*
Y2322667D01*
X5346771Y2334349D02*
X5345103Y2333514D01*
X5343434Y2331845D01*
X5342599Y2329342D01*
Y2327673D01*
X5343434Y2325170D01*
X5345103Y2323501D01*
X5346771Y2322667D01*
X5349275D01*
X5350944Y2323501D01*
X5352612Y2325170D01*
X5353447Y2327673D01*
Y2329342D01*
X5352612Y2331845D01*
X5350944Y2333514D01*
X5349275Y2334349D01*
X5346771D01*
X5366463D02*
X5357285Y2322667D01*
Y2334349D02*
X5366463D01*
X5357285Y2322667D02*
X5366463D01*
X5370134Y2343527D02*
X5371804Y2341858D01*
X5373472Y2339355D01*
X5375141Y2336017D01*
X5375975Y2331845D01*
Y2328508D01*
X5375141Y2324336D01*
X5373472Y2320998D01*
X5371804Y2318495D01*
X5370134Y2316826D01*
X5371804Y2341858D02*
X5373472Y2338521D01*
X5374307Y2336017D01*
X5375141Y2331845D01*
Y2328508D01*
X5374307Y2324336D01*
X5373472Y2321833D01*
X5371804Y2318495D01*
X4932787Y1074887D02*
Y1057365D01*
X4936458Y1074887D02*
Y1057365D01*
Y1074887D02*
X4948140Y1057365D01*
Y1074887D02*
Y1057365D01*
X4980097D02*
X4973422Y1074887D01*
X4966747Y1057365D01*
X4969250Y1063206D02*
X4977593D01*
X4984185Y1054862D02*
X4995867Y1074887D01*
X4997035D02*
X5001207Y1057365D01*
X5005379Y1074887D02*
X5001207Y1057365D01*
X5005379Y1074887D02*
X5009551Y1057365D01*
X5013723Y1074887D02*
X5009551Y1057365D01*
X5044345D02*
X5037670Y1074887D01*
X5030995Y1057365D01*
X5033498Y1063206D02*
X5041842D01*
X5048434Y1074887D02*
Y1057365D01*
Y1074887D02*
X5060115Y1057365D01*
Y1074887D02*
Y1057365D01*
X5076636Y1072384D02*
X5074967Y1074053D01*
X5072464Y1074887D01*
X5069126D01*
X5066623Y1074053D01*
X5064955Y1072384D01*
Y1070715D01*
X5065789Y1069047D01*
X5066623Y1068212D01*
X5068292Y1067378D01*
X5073298Y1065709D01*
X5074967Y1064875D01*
X5075802Y1064040D01*
X5076636Y1062372D01*
Y1059868D01*
X5074967Y1058200D01*
X5072464Y1057365D01*
X5069126D01*
X5066623Y1058200D01*
X5064955Y1059868D01*
X5080558Y1074887D02*
Y1057365D01*
X5097997Y1074887D02*
Y1057365D01*
X5101668Y1065709D02*
X5109177D01*
X5111680Y1066544D01*
X5112515Y1067378D01*
X5113349Y1069047D01*
Y1071550D01*
X5112515Y1073219D01*
X5111680Y1074053D01*
X5109177Y1074887D01*
X5101668D01*
Y1057365D01*
X5129787Y1070715D02*
X5128953Y1072384D01*
X5127283Y1074053D01*
X5125615Y1074887D01*
X5122277D01*
X5120609Y1074053D01*
X5118940Y1072384D01*
X5118105Y1070715D01*
X5117271Y1068212D01*
Y1064040D01*
X5118105Y1061537D01*
X5118940Y1059868D01*
X5120609Y1058200D01*
X5122277Y1057365D01*
X5125615D01*
X5127283Y1058200D01*
X5128953Y1059868D01*
X5129787Y1061537D01*
X5134709Y1064875D02*
X5149729D01*
X5168253Y1057365D02*
X5161577Y1074887D01*
X5154902Y1057365D01*
X5157405Y1063206D02*
X5165749D01*
X5172341Y1064875D02*
X5187360D01*
X5202546Y1072384D02*
X5201711Y1074053D01*
X5199208Y1074887D01*
X5197540D01*
X5195036Y1074053D01*
X5193367Y1071550D01*
X5192533Y1067378D01*
Y1063206D01*
X5193367Y1059868D01*
X5195036Y1058200D01*
X5197540Y1057365D01*
X5198374D01*
X5200877Y1058200D01*
X5202546Y1059868D01*
X5203380Y1062372D01*
Y1063206D01*
X5202546Y1065709D01*
X5200877Y1067378D01*
X5198374Y1068212D01*
X5197540D01*
X5195036Y1067378D01*
X5193367Y1065709D01*
X5192533Y1063206D01*
X5212225Y1074887D02*
X5209722Y1074053D01*
X5208053Y1071550D01*
X5207219Y1067378D01*
Y1064875D01*
X5208053Y1060703D01*
X5209722Y1058200D01*
X5212225Y1057365D01*
X5213893D01*
X5216396Y1058200D01*
X5218066Y1060703D01*
X5218900Y1064875D01*
Y1067378D01*
X5218066Y1071550D01*
X5216396Y1074053D01*
X5213893Y1074887D01*
X5212225D01*
X5227828D02*
X5225325Y1074053D01*
X5223656Y1071550D01*
X5222822Y1067378D01*
Y1064875D01*
X5223656Y1060703D01*
X5225325Y1058200D01*
X5227828Y1057365D01*
X5229496D01*
X5232000Y1058200D01*
X5233669Y1060703D01*
X5234503Y1064875D01*
Y1067378D01*
X5233669Y1071550D01*
X5232000Y1074053D01*
X5229496Y1074887D01*
X5227828D01*
X5238425D02*
Y1057365D01*
Y1074887D02*
X5249272D01*
X5238425Y1066544D02*
X5245100D01*
X4932913Y2430739D02*
Y2413217D01*
X4936584Y2430739D02*
Y2413217D01*
Y2430739D02*
X4948265Y2413217D01*
Y2430739D02*
Y2413217D01*
X4980223D02*
X4973548Y2430739D01*
X4966872Y2413217D01*
X4969376Y2419058D02*
X4977719D01*
X4984311Y2410714D02*
X4995993Y2430739D01*
X4997161D02*
X5001333Y2413217D01*
X5005505Y2430739D02*
X5001333Y2413217D01*
X5005505Y2430739D02*
X5009677Y2413217D01*
X5013849Y2430739D02*
X5009677Y2413217D01*
X5044471D02*
X5037796Y2430739D01*
X5031121Y2413217D01*
X5033624Y2419058D02*
X5041968D01*
X5048560Y2430739D02*
Y2413217D01*
Y2430739D02*
X5060241Y2413217D01*
Y2430739D02*
Y2413217D01*
X5076762Y2428236D02*
X5075093Y2429905D01*
X5072590Y2430739D01*
X5069252D01*
X5066749Y2429905D01*
X5065081Y2428236D01*
Y2426568D01*
X5065915Y2424899D01*
X5066749Y2424064D01*
X5068418Y2423230D01*
X5073424Y2421561D01*
X5075093Y2420727D01*
X5075928Y2419892D01*
X5076762Y2418224D01*
Y2415720D01*
X5075093Y2414052D01*
X5072590Y2413217D01*
X5069252D01*
X5066749Y2414052D01*
X5065081Y2415720D01*
X5080684Y2430739D02*
Y2413217D01*
X5098122Y2430739D02*
Y2413217D01*
X5101794Y2421561D02*
X5109303D01*
X5111806Y2422395D01*
X5112641Y2423230D01*
X5113475Y2424899D01*
Y2427402D01*
X5112641Y2429071D01*
X5111806Y2429905D01*
X5109303Y2430739D01*
X5101794D01*
Y2413217D01*
X5129913Y2426568D02*
X5129078Y2428236D01*
X5127410Y2429905D01*
X5125741Y2430739D01*
X5122403D01*
X5120734Y2429905D01*
X5119066Y2428236D01*
X5118231Y2426568D01*
X5117397Y2424064D01*
Y2419892D01*
X5118231Y2417389D01*
X5119066Y2415720D01*
X5120734Y2414052D01*
X5122403Y2413217D01*
X5125741D01*
X5127410Y2414052D01*
X5129078Y2415720D01*
X5129913Y2417389D01*
X5134836Y2420727D02*
X5149855D01*
X5165041Y2428236D02*
X5164207Y2429905D01*
X5161703Y2430739D01*
X5160034D01*
X5157531Y2429905D01*
X5155862Y2427402D01*
X5155028Y2423230D01*
Y2419058D01*
X5155862Y2415720D01*
X5157531Y2414052D01*
X5160034Y2413217D01*
X5160869D01*
X5163372Y2414052D01*
X5165041Y2415720D01*
X5165875Y2418224D01*
Y2419058D01*
X5165041Y2421561D01*
X5163372Y2423230D01*
X5160869Y2424064D01*
X5160034D01*
X5157531Y2423230D01*
X5155862Y2421561D01*
X5155028Y2419058D01*
X5174720Y2430739D02*
X5172217Y2429905D01*
X5170547Y2427402D01*
X5169713Y2423230D01*
Y2420727D01*
X5170547Y2416555D01*
X5172217Y2414052D01*
X5174720Y2413217D01*
X5176389D01*
X5178892Y2414052D01*
X5180560Y2416555D01*
X5181395Y2420727D01*
Y2423230D01*
X5180560Y2427402D01*
X5178892Y2429905D01*
X5176389Y2430739D01*
X5174720D01*
X5185317Y2427402D02*
X5186985Y2428236D01*
X5189489Y2430739D01*
Y2413217D01*
X5199000Y2426568D02*
Y2427402D01*
X5199835Y2429071D01*
X5200670Y2429905D01*
X5202338Y2430739D01*
X5205676D01*
X5207344Y2429905D01*
X5208179Y2429071D01*
X5209013Y2427402D01*
Y2425733D01*
X5208179Y2424064D01*
X5206510Y2421561D01*
X5198166Y2413217D01*
X5209847D01*
X5233378Y2430739D02*
Y2413217D01*
X5227537Y2430739D02*
X5239218D01*
X5241304D02*
X5247979Y2422395D01*
Y2413217D01*
X5254655Y2430739D02*
X5247979Y2422395D01*
X5256907Y2421561D02*
X5264417D01*
X5266920Y2422395D01*
X5267755Y2423230D01*
X5268589Y2424899D01*
Y2427402D01*
X5267755Y2429071D01*
X5266920Y2429905D01*
X5264417Y2430739D01*
X5256907D01*
Y2413217D01*
X5283358Y2430739D02*
X5272510D01*
Y2413217D01*
X5283358D01*
X5272510Y2422395D02*
X5279186D01*
X5300880Y2426568D02*
Y2427402D01*
X5301714Y2429071D01*
X5302549Y2429905D01*
X5304218Y2430739D01*
X5307555D01*
X5309224Y2429905D01*
X5310058Y2429071D01*
X5310892Y2427402D01*
Y2425733D01*
X5310058Y2424064D01*
X5308389Y2421561D01*
X5300046Y2413217D01*
X5311727D01*
X5341932Y2426568D02*
X5341097Y2428236D01*
X5339429Y2429905D01*
X5337760Y2430739D01*
X5334423D01*
X5332754Y2429905D01*
X5331085Y2428236D01*
X5330250Y2426568D01*
X5329416Y2424064D01*
Y2419892D01*
X5330250Y2417389D01*
X5331085Y2415720D01*
X5332754Y2414052D01*
X5334423Y2413217D01*
X5337760D01*
X5339429Y2414052D01*
X5341097Y2415720D01*
X5341932Y2417389D01*
X5346855Y2430739D02*
Y2413217D01*
X5356868D01*
X5372137D02*
X5365462Y2430739D01*
X5358787Y2413217D01*
X5361290Y2419058D02*
X5369634D01*
X5387907Y2428236D02*
X5386238Y2429905D01*
X5383735Y2430739D01*
X5380397D01*
X5377894Y2429905D01*
X5376226Y2428236D01*
Y2426568D01*
X5377060Y2424899D01*
X5377894Y2424064D01*
X5379563Y2423230D01*
X5384570Y2421561D01*
X5386238Y2420727D01*
X5387073Y2419892D01*
X5387907Y2418224D01*
Y2415720D01*
X5386238Y2414052D01*
X5383735Y2413217D01*
X5380397D01*
X5377894Y2414052D01*
X5376226Y2415720D01*
X5403510Y2428236D02*
X5401841Y2429905D01*
X5399338Y2430739D01*
X5396001D01*
X5393497Y2429905D01*
X5391829Y2428236D01*
Y2426568D01*
X5392663Y2424899D01*
X5393497Y2424064D01*
X5395166Y2423230D01*
X5400173Y2421561D01*
X5401841Y2420727D01*
X5402676Y2419892D01*
X5403510Y2418224D01*
Y2415720D01*
X5401841Y2414052D01*
X5399338Y2413217D01*
X5396001D01*
X5393497Y2414052D01*
X5391829Y2415720D01*
X5422034Y2426568D02*
Y2427402D01*
X5422868Y2429071D01*
X5423702Y2429905D01*
X5425371Y2430739D01*
X5428709D01*
X5430378Y2429905D01*
X5431212Y2429071D01*
X5432047Y2427402D01*
Y2425733D01*
X5431212Y2424064D01*
X5429543Y2421561D01*
X5421199Y2413217D01*
X5432881D01*
X5308569Y726873D02*
X5320251Y709351D01*
Y726873D02*
X5308569Y709351D01*
X4932913Y2475697D02*
Y2458175D01*
X4936584Y2475697D02*
Y2458175D01*
Y2475697D02*
X4948265Y2458175D01*
Y2475697D02*
Y2458175D01*
X4980223D02*
X4973548Y2475697D01*
X4966872Y2458175D01*
X4969376Y2464016D02*
X4977719D01*
X4984311Y2455672D02*
X4995993Y2475697D01*
X4997161D02*
X5001333Y2458175D01*
X5005505Y2475697D02*
X5001333Y2458175D01*
X5005505Y2475697D02*
X5009677Y2458175D01*
X5013849Y2475697D02*
X5009677Y2458175D01*
X5044471D02*
X5037796Y2475697D01*
X5031121Y2458175D01*
X5033624Y2464016D02*
X5041968D01*
X5048560Y2475697D02*
Y2458175D01*
Y2475697D02*
X5060241Y2458175D01*
Y2475697D02*
Y2458175D01*
X5076762Y2473194D02*
X5075093Y2474863D01*
X5072590Y2475697D01*
X5069252D01*
X5066749Y2474863D01*
X5065081Y2473194D01*
Y2471526D01*
X5065915Y2469857D01*
X5066749Y2469022D01*
X5068418Y2468188D01*
X5073424Y2466519D01*
X5075093Y2465685D01*
X5075928Y2464850D01*
X5076762Y2463182D01*
Y2460678D01*
X5075093Y2459010D01*
X5072590Y2458175D01*
X5069252D01*
X5066749Y2459010D01*
X5065081Y2460678D01*
X5080684Y2475697D02*
Y2458175D01*
X5098122Y2475697D02*
Y2458175D01*
X5101794Y2466519D02*
X5109303D01*
X5111806Y2467354D01*
X5112641Y2468188D01*
X5113475Y2469857D01*
Y2472360D01*
X5112641Y2474029D01*
X5111806Y2474863D01*
X5109303Y2475697D01*
X5101794D01*
Y2458175D01*
X5129913Y2471526D02*
X5129078Y2473194D01*
X5127410Y2474863D01*
X5125741Y2475697D01*
X5122403D01*
X5120734Y2474863D01*
X5119066Y2473194D01*
X5118231Y2471526D01*
X5117397Y2469022D01*
Y2464850D01*
X5118231Y2462347D01*
X5119066Y2460678D01*
X5120734Y2459010D01*
X5122403Y2458175D01*
X5125741D01*
X5127410Y2459010D01*
X5129078Y2460678D01*
X5129913Y2462347D01*
X5134836Y2465685D02*
X5149855D01*
X5165041Y2473194D02*
X5164207Y2474863D01*
X5161703Y2475697D01*
X5160034D01*
X5157531Y2474863D01*
X5155862Y2472360D01*
X5155028Y2468188D01*
Y2464016D01*
X5155862Y2460678D01*
X5157531Y2459010D01*
X5160034Y2458175D01*
X5160869D01*
X5163372Y2459010D01*
X5165041Y2460678D01*
X5165875Y2463182D01*
Y2464016D01*
X5165041Y2466519D01*
X5163372Y2468188D01*
X5160869Y2469022D01*
X5160034D01*
X5157531Y2468188D01*
X5155862Y2466519D01*
X5155028Y2464016D01*
X5174720Y2475697D02*
X5172217Y2474863D01*
X5170547Y2472360D01*
X5169713Y2468188D01*
Y2465685D01*
X5170547Y2461513D01*
X5172217Y2459010D01*
X5174720Y2458175D01*
X5176389D01*
X5178892Y2459010D01*
X5180560Y2461513D01*
X5181395Y2465685D01*
Y2468188D01*
X5180560Y2472360D01*
X5178892Y2474863D01*
X5176389Y2475697D01*
X5174720D01*
X5185317Y2472360D02*
X5186985Y2473194D01*
X5189489Y2475697D01*
Y2458175D01*
X5199000Y2471526D02*
Y2472360D01*
X5199835Y2474029D01*
X5200670Y2474863D01*
X5202338Y2475697D01*
X5205676D01*
X5207344Y2474863D01*
X5208179Y2474029D01*
X5209013Y2472360D01*
Y2470691D01*
X5208179Y2469022D01*
X5206510Y2466519D01*
X5198166Y2458175D01*
X5209847D01*
X5233378Y2475697D02*
Y2458175D01*
X5227537Y2475697D02*
X5239218D01*
X5241304D02*
X5247979Y2467354D01*
Y2458175D01*
X5254655Y2475697D02*
X5247979Y2467354D01*
X5256907Y2466519D02*
X5264417D01*
X5266920Y2467354D01*
X5267755Y2468188D01*
X5268589Y2469857D01*
Y2472360D01*
X5267755Y2474029D01*
X5266920Y2474863D01*
X5264417Y2475697D01*
X5256907D01*
Y2458175D01*
X5283358Y2475697D02*
X5272510D01*
Y2458175D01*
X5283358D01*
X5272510Y2467354D02*
X5279186D01*
X5300880Y2471526D02*
Y2472360D01*
X5301714Y2474029D01*
X5302549Y2474863D01*
X5304218Y2475697D01*
X5307555D01*
X5309224Y2474863D01*
X5310058Y2474029D01*
X5310892Y2472360D01*
Y2470691D01*
X5310058Y2469022D01*
X5308389Y2466519D01*
X5300046Y2458175D01*
X5311727D01*
X5341932Y2471526D02*
X5341097Y2473194D01*
X5339429Y2474863D01*
X5337760Y2475697D01*
X5334423D01*
X5332754Y2474863D01*
X5331085Y2473194D01*
X5330250Y2471526D01*
X5329416Y2469022D01*
Y2464850D01*
X5330250Y2462347D01*
X5331085Y2460678D01*
X5332754Y2459010D01*
X5334423Y2458175D01*
X5337760D01*
X5339429Y2459010D01*
X5341097Y2460678D01*
X5341932Y2462347D01*
X5346855Y2475697D02*
Y2458175D01*
X5356868D01*
X5372137D02*
X5365462Y2475697D01*
X5358787Y2458175D01*
X5361290Y2464016D02*
X5369634D01*
X5387907Y2473194D02*
X5386238Y2474863D01*
X5383735Y2475697D01*
X5380397D01*
X5377894Y2474863D01*
X5376226Y2473194D01*
Y2471526D01*
X5377060Y2469857D01*
X5377894Y2469022D01*
X5379563Y2468188D01*
X5384570Y2466519D01*
X5386238Y2465685D01*
X5387073Y2464850D01*
X5387907Y2463182D01*
Y2460678D01*
X5386238Y2459010D01*
X5383735Y2458175D01*
X5380397D01*
X5377894Y2459010D01*
X5376226Y2460678D01*
X5403510Y2473194D02*
X5401841Y2474863D01*
X5399338Y2475697D01*
X5396001D01*
X5393497Y2474863D01*
X5391829Y2473194D01*
Y2471526D01*
X5392663Y2469857D01*
X5393497Y2469022D01*
X5395166Y2468188D01*
X5400173Y2466519D01*
X5401841Y2465685D01*
X5402676Y2464850D01*
X5403510Y2463182D01*
Y2460678D01*
X5401841Y2459010D01*
X5399338Y2458175D01*
X5396001D01*
X5393497Y2459010D01*
X5391829Y2460678D01*
X5422034Y2471526D02*
Y2472360D01*
X5422868Y2474029D01*
X5423702Y2474863D01*
X5425371Y2475697D01*
X5428709D01*
X5430378Y2474863D01*
X5431212Y2474029D01*
X5432047Y2472360D01*
Y2470691D01*
X5431212Y2469022D01*
X5429543Y2466519D01*
X5421199Y2458175D01*
X5432881D01*
X5358615Y725022D02*
Y725856D01*
X5359449Y727525D01*
X5360284Y728359D01*
X5361953Y729193D01*
X5365291D01*
X5366959Y728359D01*
X5367794Y727525D01*
X5368628Y725856D01*
Y724187D01*
X5367794Y722518D01*
X5366125Y720015D01*
X5357781Y711671D01*
X5369462D01*
X5398833Y726690D02*
X5397164Y728359D01*
X5394661Y729193D01*
X5391323D01*
X5388820Y728359D01*
X5387151Y726690D01*
Y725022D01*
X5387986Y723353D01*
X5388820Y722518D01*
X5390489Y721684D01*
X5395495Y720015D01*
X5397164Y719181D01*
X5397999Y718346D01*
X5398833Y716678D01*
Y714174D01*
X5397164Y712506D01*
X5394661Y711671D01*
X5391323D01*
X5388820Y712506D01*
X5387151Y714174D01*
X5402755Y729193D02*
Y711671D01*
X5406426Y729193D02*
Y711671D01*
Y729193D02*
X5412267D01*
X5414770Y728359D01*
X5416439Y726690D01*
X5417273Y725022D01*
X5418107Y722518D01*
Y718346D01*
X5417273Y715843D01*
X5416439Y714174D01*
X5414770Y712506D01*
X5412267Y711671D01*
X5406426D01*
X5432876Y729193D02*
X5422029D01*
Y711671D01*
X5432876D01*
X5422029Y720850D02*
X5428704D01*
X5447478Y726690D02*
X5445809Y728359D01*
X5443306Y729193D01*
X5439968D01*
X5437465Y728359D01*
X5435797Y726690D01*
Y725022D01*
X5436631Y723353D01*
X5437465Y722518D01*
X5439134Y721684D01*
X5444141Y720015D01*
X5445809Y719181D01*
X5446644Y718346D01*
X5447478Y716678D01*
Y714174D01*
X5445809Y712506D01*
X5443306Y711671D01*
X5439968D01*
X5437465Y712506D01*
X5435797Y714174D01*
X5069562Y2622781D02*
X5062887Y2640303D01*
X5056212Y2622781D01*
X5058715Y2628622D02*
X5067059D01*
X5073651Y2631125D02*
X5081161D01*
X5083664Y2631959D01*
X5084498Y2632794D01*
X5085332Y2634462D01*
Y2636966D01*
X5084498Y2638634D01*
X5083664Y2639469D01*
X5081161Y2640303D01*
X5073651D01*
Y2622781D01*
X5100101Y2640303D02*
X5089254D01*
Y2622781D01*
X5100101D01*
X5089254Y2631959D02*
X5095929D01*
X5103022Y2640303D02*
Y2622781D01*
Y2640303D02*
X5110531D01*
X5113034Y2639469D01*
X5113869Y2638634D01*
X5114703Y2636966D01*
Y2635297D01*
X5113869Y2633628D01*
X5113034Y2632794D01*
X5110531Y2631959D01*
X5103022D01*
X5108862D02*
X5114703Y2622781D01*
X5124465Y2640303D02*
Y2622781D01*
X5118625Y2640303D02*
X5130306D01*
X5132392D02*
Y2627787D01*
X5133226Y2625284D01*
X5134896Y2623615D01*
X5137399Y2622781D01*
X5139067D01*
X5141570Y2623615D01*
X5143239Y2625284D01*
X5144073Y2627787D01*
Y2640303D01*
X5148913D02*
Y2622781D01*
Y2640303D02*
X5156423D01*
X5158926Y2639469D01*
X5159760Y2638634D01*
X5160594Y2636966D01*
Y2635297D01*
X5159760Y2633628D01*
X5158926Y2632794D01*
X5156423Y2631959D01*
X5148913D01*
X5154754D02*
X5160594Y2622781D01*
X5175363Y2640303D02*
X5164517D01*
Y2622781D01*
X5175363D01*
X5164517Y2631959D02*
X5171191D01*
X5197892Y2640303D02*
Y2622781D01*
X5192051Y2640303D02*
X5203733D01*
X5219169Y2622781D02*
X5212494Y2640303D01*
X5205819Y2622781D01*
X5208322Y2628622D02*
X5216666D01*
X5223257Y2640303D02*
Y2622781D01*
Y2640303D02*
X5230767D01*
X5233270Y2639469D01*
X5234105Y2638634D01*
X5234939Y2636966D01*
Y2635297D01*
X5234105Y2633628D01*
X5233270Y2632794D01*
X5230767Y2631959D01*
X5223257D02*
X5230767D01*
X5233270Y2631125D01*
X5234105Y2630291D01*
X5234939Y2628622D01*
Y2626118D01*
X5234105Y2624450D01*
X5233270Y2623615D01*
X5230767Y2622781D01*
X5223257D01*
X5238860Y2640303D02*
Y2622781D01*
X5248873D01*
X5261639Y2640303D02*
X5250792D01*
Y2622781D01*
X5261639D01*
X5250792Y2631959D02*
X5257468D01*
X5276241Y2637800D02*
X5274573Y2639469D01*
X5272070Y2640303D01*
X5268732D01*
X5266229Y2639469D01*
X5264560Y2637800D01*
Y2636131D01*
X5265394Y2634462D01*
X5266229Y2633628D01*
X5267897Y2632794D01*
X5272904Y2631125D01*
X5274573Y2630291D01*
X5275407Y2629456D01*
X5276241Y2627787D01*
Y2625284D01*
X5274573Y2623615D01*
X5272070Y2622781D01*
X5268732D01*
X5266229Y2623615D01*
X5264560Y2625284D01*
X5280163Y2640303D02*
X5291844Y2620278D01*
X5293013Y2640303D02*
Y2622781D01*
Y2640303D02*
X5303860D01*
X5293013Y2631959D02*
X5299688D01*
X5305862Y2640303D02*
Y2622781D01*
X5309534Y2640303D02*
Y2622781D01*
X5319547D01*
X5332313Y2640303D02*
X5321465D01*
Y2622781D01*
X5332313D01*
X5321465Y2631959D02*
X5328141D01*
X5346915Y2637800D02*
X5345246Y2639469D01*
X5342743Y2640303D01*
X5339405D01*
X5336902Y2639469D01*
X5335233Y2637800D01*
Y2636131D01*
X5336068Y2634462D01*
X5336902Y2633628D01*
X5338571Y2632794D01*
X5343577Y2631125D01*
X5345246Y2630291D01*
X5346080Y2629456D01*
X5346915Y2627787D01*
Y2625284D01*
X5345246Y2623615D01*
X5342743Y2622781D01*
X5339405D01*
X5336902Y2623615D01*
X5335233Y2625284D01*
X5377954Y2622781D02*
X5371279Y2640303D01*
X5364604Y2622781D01*
X5367107Y2628622D02*
X5375451D01*
X5382043Y2640303D02*
Y2622781D01*
Y2640303D02*
X5389552D01*
X5392055Y2639469D01*
X5392889Y2638634D01*
X5393724Y2636966D01*
Y2635297D01*
X5392889Y2633628D01*
X5392055Y2632794D01*
X5389552Y2631959D01*
X5382043D01*
X5387883D02*
X5393724Y2622781D01*
X5408493Y2640303D02*
X5397646D01*
Y2622781D01*
X5408493D01*
X5397646Y2631959D02*
X5404321D01*
X5436028Y2640303D02*
X5425181D01*
Y2622781D01*
X5436028D01*
X5425181Y2631959D02*
X5431856D01*
X5438948Y2640303D02*
Y2622781D01*
Y2640303D02*
X5445623Y2622781D01*
X5452299Y2640303D02*
X5445623Y2622781D01*
X5452299Y2640303D02*
Y2622781D01*
X5457305Y2640303D02*
Y2622781D01*
Y2640303D02*
X5464814D01*
X5467318Y2639469D01*
X5468152Y2638634D01*
X5468986Y2636966D01*
Y2635297D01*
X5468152Y2633628D01*
X5467318Y2632794D01*
X5464814Y2631959D01*
X5457305D02*
X5464814D01*
X5467318Y2631125D01*
X5468152Y2630291D01*
X5468986Y2628622D01*
Y2626118D01*
X5468152Y2624450D01*
X5467318Y2623615D01*
X5464814Y2622781D01*
X5457305D01*
X5483755Y2640303D02*
X5472908D01*
Y2622781D01*
X5483755D01*
X5472908Y2631959D02*
X5479583D01*
X5486675Y2640303D02*
Y2622781D01*
Y2640303D02*
X5492516D01*
X5495020Y2639469D01*
X5496688Y2637800D01*
X5497523Y2636131D01*
X5498357Y2633628D01*
Y2629456D01*
X5497523Y2626953D01*
X5496688Y2625284D01*
X5495020Y2623615D01*
X5492516Y2622781D01*
X5486675D01*
X5502278Y2640303D02*
Y2622781D01*
Y2640303D02*
X5508120D01*
X5510623Y2639469D01*
X5512291Y2637800D01*
X5513126Y2636131D01*
X5513960Y2633628D01*
Y2629456D01*
X5513126Y2626953D01*
X5512291Y2625284D01*
X5510623Y2623615D01*
X5508120Y2622781D01*
X5502278D01*
X5528729Y2640303D02*
X5517881D01*
Y2622781D01*
X5528729D01*
X5517881Y2631959D02*
X5524557D01*
X5531649Y2640303D02*
Y2622781D01*
Y2640303D02*
X5537490D01*
X5539993Y2639469D01*
X5541662Y2637800D01*
X5542496Y2636131D01*
X5543331Y2633628D01*
Y2629456D01*
X5542496Y2626953D01*
X5541662Y2625284D01*
X5539993Y2623615D01*
X5537490Y2622781D01*
X5531649D01*
X4647526Y2640303D02*
Y2622781D01*
Y2640303D02*
X4653367D01*
X4655870Y2639469D01*
X4657539Y2637800D01*
X4658373Y2636131D01*
X4659207Y2633628D01*
Y2629456D01*
X4658373Y2626953D01*
X4657539Y2625284D01*
X4655870Y2623615D01*
X4653367Y2622781D01*
X4647526D01*
X4663129Y2640303D02*
Y2622781D01*
Y2640303D02*
X4670639D01*
X4673142Y2639469D01*
X4673976Y2638634D01*
X4674810Y2636966D01*
Y2635297D01*
X4673976Y2633628D01*
X4673142Y2632794D01*
X4670639Y2631959D01*
X4663129D01*
X4668970D02*
X4674810Y2622781D01*
X4678732Y2640303D02*
Y2622781D01*
X4682404Y2640303D02*
Y2622781D01*
X4692416D01*
X4694335Y2640303D02*
Y2622781D01*
X4704348D01*
X4720035Y2640303D02*
Y2622781D01*
Y2640303D02*
X4725876D01*
X4728379Y2639469D01*
X4730048Y2637800D01*
X4730882Y2636131D01*
X4731716Y2633628D01*
Y2629456D01*
X4730882Y2626953D01*
X4730048Y2625284D01*
X4728379Y2623615D01*
X4725876Y2622781D01*
X4720035D01*
X4735638Y2640303D02*
Y2622781D01*
Y2640303D02*
X4743147D01*
X4745651Y2639469D01*
X4746485Y2638634D01*
X4747319Y2636966D01*
Y2635297D01*
X4746485Y2633628D01*
X4745651Y2632794D01*
X4743147Y2631959D01*
X4735638D01*
X4741479D02*
X4747319Y2622781D01*
X4764591D02*
X4757916Y2640303D01*
X4751241Y2622781D01*
X4753744Y2628622D02*
X4762088D01*
X4768680Y2640303D02*
X4772852Y2622781D01*
X4777024Y2640303D02*
X4772852Y2622781D01*
X4777024Y2640303D02*
X4781196Y2622781D01*
X4785368Y2640303D02*
X4781196Y2622781D01*
X4788872Y2640303D02*
Y2622781D01*
X4792544Y2640303D02*
Y2622781D01*
Y2640303D02*
X4804225Y2622781D01*
Y2640303D02*
Y2622781D01*
X4821580Y2636131D02*
X4820746Y2637800D01*
X4819077Y2639469D01*
X4817408Y2640303D01*
X4814071D01*
X4812402Y2639469D01*
X4810733Y2637800D01*
X4809899Y2636131D01*
X4809064Y2633628D01*
Y2629456D01*
X4809899Y2626953D01*
X4810733Y2625284D01*
X4812402Y2623615D01*
X4814071Y2622781D01*
X4817408D01*
X4819077Y2623615D01*
X4820746Y2625284D01*
X4821580Y2626953D01*
Y2629456D01*
X4817408D02*
X4821580D01*
X5763823Y2636402D02*
X5765492Y2637237D01*
X5767995Y2639740D01*
Y2622218D01*
X5709740Y728577D02*
X5707237Y727742D01*
X5705568Y725239D01*
X5704734Y721067D01*
Y718564D01*
X5705568Y714392D01*
X5707237Y711889D01*
X5709740Y711054D01*
X5711409D01*
X5713912Y711889D01*
X5715580Y714392D01*
X5716415Y718564D01*
Y721067D01*
X5715580Y725239D01*
X5713912Y727742D01*
X5711409Y728577D01*
X5709740D01*
X5721171Y712723D02*
X5720337Y711889D01*
X5721171Y711054D01*
X5722006Y711889D01*
X5721171Y712723D01*
X5735856Y728577D02*
X5727512D01*
X5726678Y721067D01*
X5727512Y721901D01*
X5730016Y722736D01*
X5732519D01*
X5735022Y721901D01*
X5736691Y720233D01*
X5737525Y717729D01*
Y716061D01*
X5736691Y713557D01*
X5735022Y711889D01*
X5732519Y711054D01*
X5730016D01*
X5727512Y711889D01*
X5726678Y712723D01*
X5725844Y714392D01*
X5746453Y728577D02*
X5743950Y727742D01*
X5742281Y725239D01*
X5741447Y721067D01*
Y718564D01*
X5742281Y714392D01*
X5743950Y711889D01*
X5746453Y711054D01*
X5748122D01*
X5750625Y711889D01*
X5752294Y714392D01*
X5753128Y718564D01*
Y721067D01*
X5752294Y725239D01*
X5750625Y727742D01*
X5748122Y728577D01*
X5746453D01*
X5757050D02*
Y711054D01*
Y728577D02*
X5763725Y711054D01*
X5770400Y728577D02*
X5763725Y711054D01*
X5770400Y728577D02*
Y711054D01*
X5775406Y728577D02*
Y711054D01*
Y728577D02*
X5782082Y711054D01*
X5788757Y728577D02*
X5782082Y711054D01*
X5788757Y728577D02*
Y711054D01*
X5715693Y2568027D02*
Y2550505D01*
Y2568027D02*
X5726540D01*
X5715693Y2559683D02*
X5722368D01*
X5728542Y2568027D02*
Y2550505D01*
Y2568027D02*
X5736052D01*
X5738555Y2567193D01*
X5739390Y2566358D01*
X5740224Y2564690D01*
Y2563021D01*
X5739390Y2561352D01*
X5738555Y2560518D01*
X5736052Y2559683D01*
X5728542D01*
X5734384D02*
X5740224Y2550505D01*
X5752490Y2568027D02*
X5744146Y2556346D01*
X5756661D01*
X5752490Y2568027D02*
Y2550505D01*
X5759749Y2558014D02*
X5774768D01*
X5784948Y2568027D02*
X5782444Y2567193D01*
X5780776Y2564690D01*
X5779941Y2560518D01*
Y2558014D01*
X5780776Y2553842D01*
X5782444Y2551339D01*
X5784948Y2550505D01*
X5786616D01*
X5789119Y2551339D01*
X5790788Y2553842D01*
X5791622Y2558014D01*
Y2560518D01*
X5790788Y2564690D01*
X5789119Y2567193D01*
X5786616Y2568027D01*
X5784948D01*
X5795544Y2564690D02*
X5797213Y2565524D01*
X5799716Y2568027D01*
Y2550505D01*
X5667423Y2567265D02*
X5679105Y2549743D01*
Y2567265D02*
X5667423Y2549743D01*
X4994371Y3938449D02*
X5006053Y3920927D01*
Y3938449D02*
X4994371Y3920927D01*
X5064729Y2519767D02*
X5076411Y2502245D01*
Y2519767D02*
X5064729Y2502245D01*
X5112999Y2517191D02*
X5114668Y2518026D01*
X5117171Y2520529D01*
Y2503007D01*
X5126683Y2504675D02*
X5125848Y2503841D01*
X5126683Y2503007D01*
X5127518Y2503841D01*
X5126683Y2504675D01*
X5141368Y2520529D02*
X5133024D01*
X5132190Y2513019D01*
X5133024Y2513854D01*
X5135527Y2514688D01*
X5138030D01*
X5140534Y2513854D01*
X5142203Y2512185D01*
X5143037Y2509682D01*
Y2508013D01*
X5142203Y2505510D01*
X5140534Y2503841D01*
X5138030Y2503007D01*
X5135527D01*
X5133024Y2503841D01*
X5132190Y2504675D01*
X5131356Y2506344D01*
X5151965Y2520529D02*
X5149462Y2519695D01*
X5147793Y2517191D01*
X5146959Y2513019D01*
Y2510516D01*
X5147793Y2506344D01*
X5149462Y2503841D01*
X5151965Y2503007D01*
X5153634D01*
X5156137Y2503841D01*
X5157806Y2506344D01*
X5158640Y2510516D01*
Y2513019D01*
X5157806Y2517191D01*
X5156137Y2519695D01*
X5153634Y2520529D01*
X5151965D01*
X5162562Y2517191D02*
X5164230Y2518026D01*
X5166734Y2520529D01*
Y2503007D01*
X5175411Y2514688D02*
Y2503007D01*
Y2511351D02*
X5177914Y2513854D01*
X5179584Y2514688D01*
X5182087D01*
X5183755Y2513854D01*
X5184590Y2511351D01*
Y2503007D01*
Y2511351D02*
X5187093Y2513854D01*
X5188762Y2514688D01*
X5191265D01*
X5192934Y2513854D01*
X5193768Y2511351D01*
Y2503007D01*
X5199275Y2514688D02*
Y2503007D01*
Y2511351D02*
X5201779Y2513854D01*
X5203447Y2514688D01*
X5205950D01*
X5207619Y2513854D01*
X5208453Y2511351D01*
Y2503007D01*
Y2511351D02*
X5210956Y2513854D01*
X5212625Y2514688D01*
X5215129D01*
X5216797Y2513854D01*
X5217632Y2511351D01*
Y2503007D01*
X5032735Y3938957D02*
Y3921435D01*
Y3938957D02*
X5038576D01*
X5041079Y3938123D01*
X5042747Y3936454D01*
X5043582Y3934785D01*
X5044417Y3932282D01*
Y3928110D01*
X5043582Y3925607D01*
X5042747Y3923938D01*
X5041079Y3922269D01*
X5038576Y3921435D01*
X5032735D01*
X5060020Y3936454D02*
X5058351Y3938123D01*
X5055847Y3938957D01*
X5052510D01*
X5050007Y3938123D01*
X5048338Y3936454D01*
Y3934785D01*
X5049172Y3933116D01*
X5050007Y3932282D01*
X5051676Y3931447D01*
X5056682Y3929779D01*
X5058351Y3928944D01*
X5059185Y3928110D01*
X5060020Y3926441D01*
Y3923938D01*
X5058351Y3922269D01*
X5055847Y3921435D01*
X5052510D01*
X5050007Y3922269D01*
X5048338Y3923938D01*
D48*
X5607791Y796381D02*
X5842741D01*
D50*
X2955150Y1978836D02*
X3150730D01*
X2906890Y1436038D02*
X3193910D01*
Y2034716D01*
X2906890D02*
X3193910D01*
X2906890Y1436038D02*
Y2034716D01*
D54*
X2955920Y1619088D02*
D03*
D117*
X1486000Y746960D02*
Y789000D01*
D118*
X2955150Y2006263D02*
Y1985948D01*
X2966759D01*
X2984463D02*
X2976724Y2006263D01*
X2968984Y1985948D01*
X2971887Y1992720D02*
X2981561D01*
X2989203Y2006263D02*
X2996943Y1996589D01*
Y1985948D01*
X3004682Y2006263D02*
X2996943Y1996589D01*
X3019870Y2006263D02*
X3007294D01*
Y1985948D01*
X3019870D01*
X3007294Y1996589D02*
X3015033D01*
X3023256Y2006263D02*
Y1985948D01*
Y2006263D02*
X3031963D01*
X3034865Y2005296D01*
X3035833Y2004328D01*
X3036800Y2002394D01*
Y2000459D01*
X3035833Y1998524D01*
X3034865Y1997557D01*
X3031963Y1996589D01*
X3023256D01*
X3030028D02*
X3036800Y1985948D01*
X3057309Y2006263D02*
Y1991752D01*
X3058276Y1988850D01*
X3060211Y1986915D01*
X3063113Y1985948D01*
X3065049D01*
X3067951Y1986915D01*
X3069885Y1988850D01*
X3070853Y1991752D01*
Y2006263D01*
X3090008Y2003361D02*
X3088073Y2005296D01*
X3085171Y2006263D01*
X3081301D01*
X3078399Y2005296D01*
X3076464Y2003361D01*
Y2001426D01*
X3077431Y1999491D01*
X3078399Y1998524D01*
X3080334Y1997557D01*
X3086138Y1995622D01*
X3088073Y1994654D01*
X3089040Y1993687D01*
X3090008Y1991752D01*
Y1988850D01*
X3088073Y1986915D01*
X3085171Y1985948D01*
X3081301D01*
X3078399Y1986915D01*
X3076464Y1988850D01*
X3110033Y1985948D02*
X3102294Y2006263D01*
X3094554Y1985948D01*
X3097457Y1992720D02*
X3107131D01*
X3129284Y2001426D02*
X3128317Y2003361D01*
X3126382Y2005296D01*
X3124447Y2006263D01*
X3120578D01*
X3118643Y2005296D01*
X3116708Y2003361D01*
X3115741Y2001426D01*
X3114773Y1998524D01*
Y1993687D01*
X3115741Y1990785D01*
X3116708Y1988850D01*
X3118643Y1986915D01*
X3120578Y1985948D01*
X3124447D01*
X3126382Y1986915D01*
X3128317Y1988850D01*
X3129284Y1990785D01*
Y1993687D01*
X3124447D02*
X3129284D01*
X3146505Y2006263D02*
X3133928D01*
Y1985948D01*
X3146505D01*
X3133928Y1996589D02*
X3141667D01*
D119*
X5527781Y764847D02*
X5535291D01*
X5537794Y765681D01*
X5538628Y766516D01*
X5539462Y768185D01*
Y770688D01*
X5538628Y772356D01*
X5537794Y773191D01*
X5535291Y774025D01*
X5527781D01*
Y756503D01*
X5554231Y774025D02*
X5543384D01*
Y756503D01*
X5554231D01*
X5543384Y765681D02*
X5550059D01*
X5557151Y774025D02*
Y756503D01*
Y774025D02*
X5564661D01*
X5567164Y773191D01*
X5567999Y772356D01*
X5568833Y770688D01*
Y769019D01*
X5567999Y767350D01*
X5567164Y766516D01*
X5564661Y765681D01*
X5557151D01*
X5562992D02*
X5568833Y756503D01*
X5591528Y774025D02*
X5589860Y773191D01*
X5588191Y771522D01*
X5587357Y769853D01*
X5586522Y767350D01*
Y763178D01*
X5587357Y760675D01*
X5588191Y759006D01*
X5589860Y757337D01*
X5591528Y756503D01*
X5594866D01*
X5596535Y757337D01*
X5598204Y759006D01*
X5599038Y760675D01*
X5599872Y763178D01*
Y767350D01*
X5599038Y769853D01*
X5598204Y771522D01*
X5596535Y773191D01*
X5594866Y774025D01*
X5591528D01*
X5603961D02*
Y756503D01*
Y774025D02*
X5611470D01*
X5613973Y773191D01*
X5614808Y772356D01*
X5615642Y770688D01*
Y769019D01*
X5614808Y767350D01*
X5613973Y766516D01*
X5611470Y765681D01*
X5603961D01*
X5609802D02*
X5615642Y756503D01*
X5619564Y774025D02*
Y756503D01*
Y774025D02*
X5625405D01*
X5627908Y773191D01*
X5629576Y771522D01*
X5630411Y769853D01*
X5631246Y767350D01*
Y763178D01*
X5630411Y760675D01*
X5629576Y759006D01*
X5627908Y757337D01*
X5625405Y756503D01*
X5619564D01*
X5646014Y774025D02*
X5635167D01*
Y756503D01*
X5646014D01*
X5635167Y765681D02*
X5641842D01*
X5648934Y774025D02*
Y756503D01*
Y774025D02*
X5656444D01*
X5658947Y773191D01*
X5659781Y772356D01*
X5660616Y770688D01*
Y769019D01*
X5659781Y767350D01*
X5658947Y766516D01*
X5656444Y765681D01*
X5648934D01*
X5654775D02*
X5660616Y756503D01*
X4932787Y1029295D02*
Y1016779D01*
X4933621Y1014276D01*
X4935290Y1012607D01*
X4937793Y1011773D01*
X4939462D01*
X4941965Y1012607D01*
X4943634Y1014276D01*
X4944468Y1016779D01*
Y1029295D01*
X4949308D02*
Y1011773D01*
X4959320D01*
X4987523Y1025123D02*
X4986689Y1026792D01*
X4985020Y1028461D01*
X4983351Y1029295D01*
X4980013D01*
X4978345Y1028461D01*
X4976676Y1026792D01*
X4975841Y1025123D01*
X4975007Y1022620D01*
Y1018448D01*
X4975841Y1015945D01*
X4976676Y1014276D01*
X4978345Y1012607D01*
X4980013Y1011773D01*
X4983351D01*
X4985020Y1012607D01*
X4986689Y1014276D01*
X4987523Y1015945D01*
X5003293Y1029295D02*
X4992446D01*
Y1011773D01*
X5003293D01*
X4992446Y1020951D02*
X4999121D01*
X5006213Y1029295D02*
Y1011773D01*
Y1029295D02*
X5013723D01*
X5016226Y1028461D01*
X5017061Y1027626D01*
X5017895Y1025958D01*
Y1024289D01*
X5017061Y1022620D01*
X5016226Y1021786D01*
X5013723Y1020951D01*
X5006213D01*
X5012054D02*
X5017895Y1011773D01*
X5027657Y1029295D02*
Y1011773D01*
X5021816Y1029295D02*
X5033498D01*
X5035584D02*
Y1011773D01*
X5039255Y1029295D02*
Y1011773D01*
Y1029295D02*
X5050103D01*
X5039255Y1020951D02*
X5045930D01*
X5052105Y1029295D02*
Y1011773D01*
X5068292Y1025123D02*
X5067458Y1026792D01*
X5065789Y1028461D01*
X5064120Y1029295D01*
X5060783D01*
X5059114Y1028461D01*
X5057445Y1026792D01*
X5056611Y1025123D01*
X5055776Y1022620D01*
Y1018448D01*
X5056611Y1015945D01*
X5057445Y1014276D01*
X5059114Y1012607D01*
X5060783Y1011773D01*
X5064120D01*
X5065789Y1012607D01*
X5067458Y1014276D01*
X5068292Y1015945D01*
X5086566Y1011773D02*
X5079890Y1029295D01*
X5073215Y1011773D01*
X5075718Y1017614D02*
X5084062D01*
X5096495Y1029295D02*
Y1011773D01*
X5090654Y1029295D02*
X5102336D01*
X5104421D02*
Y1011773D01*
X5113099Y1029295D02*
X5111430Y1028461D01*
X5109761Y1026792D01*
X5108927Y1025123D01*
X5108093Y1022620D01*
Y1018448D01*
X5108927Y1015945D01*
X5109761Y1014276D01*
X5111430Y1012607D01*
X5113099Y1011773D01*
X5116436D01*
X5118105Y1012607D01*
X5119774Y1014276D01*
X5120609Y1015945D01*
X5121443Y1018448D01*
Y1022620D01*
X5120609Y1025123D01*
X5119774Y1026792D01*
X5118105Y1028461D01*
X5116436Y1029295D01*
X5113099D01*
X5125532D02*
Y1011773D01*
Y1029295D02*
X5137213Y1011773D01*
Y1029295D02*
Y1011773D01*
X5400342Y1655297D02*
X5399508Y1656966D01*
X5397839Y1658635D01*
X5396171Y1659469D01*
X5392833D01*
X5391165Y1658635D01*
X5389496Y1656966D01*
X5388661Y1655297D01*
X5387827Y1652794D01*
Y1648622D01*
X5388661Y1646119D01*
X5389496Y1644450D01*
X5391165Y1642782D01*
X5392833Y1641947D01*
X5396171D01*
X5397839Y1642782D01*
X5399508Y1644450D01*
X5400342Y1646119D01*
Y1648622D01*
X5396171D02*
X5400342D01*
X5404348Y1659469D02*
Y1641947D01*
Y1659469D02*
X5411857D01*
X5414360Y1658635D01*
X5415195Y1657800D01*
X5416029Y1656132D01*
Y1654463D01*
X5415195Y1652794D01*
X5414360Y1651960D01*
X5411857Y1651125D01*
X5404348D01*
X5410189D02*
X5416029Y1641947D01*
X5430798Y1659469D02*
X5419951D01*
Y1641947D01*
X5430798D01*
X5419951Y1651125D02*
X5426626D01*
X5444565Y1659469D02*
X5433718D01*
Y1641947D01*
X5444565D01*
X5433718Y1651125D02*
X5440394D01*
X5447486Y1659469D02*
Y1641947D01*
Y1659469D02*
X5459167Y1641947D01*
Y1659469D02*
Y1641947D01*
M02*
