G04 Layer_Color=128*
%FSLAX44Y44*%
%MOMM*%
G71*
G01*
G75*
%ADD10R,1.2700X1.5240*%
%ADD34R,1.5240X1.2700*%
%ADD44C,0.1270*%
%ADD54R,4.8260X2.4130*%
%ADD80R,0.8600X0.9100*%
G36*
X2342561Y1229518D02*
X2343884Y1228634D01*
X2344768Y1227311D01*
X2345078Y1225750D01*
Y1221250D01*
X2344768Y1219689D01*
X2343884Y1218366D01*
X2342561Y1217482D01*
X2341000Y1217172D01*
X2339439Y1217482D01*
X2338116Y1218366D01*
X2337232Y1219689D01*
X2336922Y1221250D01*
Y1225750D01*
X2337232Y1227311D01*
X2338116Y1228634D01*
X2339439Y1229518D01*
X2341000Y1229828D01*
X2342561Y1229518D01*
D02*
G37*
G36*
X2332561D02*
X2333884Y1228634D01*
X2334768Y1227311D01*
X2335078Y1225750D01*
Y1221250D01*
X2334768Y1219689D01*
X2333884Y1218366D01*
X2332561Y1217482D01*
X2331000Y1217172D01*
X2329439Y1217482D01*
X2328116Y1218366D01*
X2327232Y1219689D01*
X2326922Y1221250D01*
Y1225750D01*
X2327232Y1227311D01*
X2328116Y1228634D01*
X2329439Y1229518D01*
X2331000Y1229828D01*
X2332561Y1229518D01*
D02*
G37*
G36*
X2322561D02*
X2323884Y1228634D01*
X2324768Y1227311D01*
X2325078Y1225750D01*
Y1221250D01*
X2324768Y1219689D01*
X2323884Y1218366D01*
X2322561Y1217482D01*
X2321000Y1217172D01*
X2319439Y1217482D01*
X2318116Y1218366D01*
X2317232Y1219689D01*
X2316922Y1221250D01*
Y1225750D01*
X2317232Y1227311D01*
X2318116Y1228634D01*
X2319439Y1229518D01*
X2321000Y1229828D01*
X2322561Y1229518D01*
D02*
G37*
G36*
X673561Y1229518D02*
X674884Y1228634D01*
X675768Y1227311D01*
X676078Y1225750D01*
Y1221250D01*
X675768Y1219689D01*
X674884Y1218366D01*
X673561Y1217482D01*
X672000Y1217172D01*
X670439Y1217482D01*
X669116Y1218366D01*
X668232Y1219689D01*
X667922Y1221250D01*
Y1225750D01*
X668232Y1227311D01*
X669116Y1228634D01*
X670439Y1229518D01*
X672000Y1229828D01*
X673561Y1229518D01*
D02*
G37*
G36*
X663561D02*
X664884Y1228634D01*
X665768Y1227311D01*
X666078Y1225750D01*
Y1221250D01*
X665768Y1219689D01*
X664884Y1218366D01*
X663561Y1217482D01*
X662000Y1217172D01*
X660439Y1217482D01*
X659116Y1218366D01*
X658232Y1219689D01*
X657922Y1221250D01*
Y1225750D01*
X658232Y1227311D01*
X659116Y1228634D01*
X660439Y1229518D01*
X662000Y1229828D01*
X663561Y1229518D01*
D02*
G37*
G36*
X653561D02*
X654884Y1228634D01*
X655768Y1227311D01*
X656078Y1225750D01*
Y1221250D01*
X655768Y1219689D01*
X654884Y1218366D01*
X653561Y1217482D01*
X652000Y1217172D01*
X650439Y1217482D01*
X649116Y1218366D01*
X648232Y1219689D01*
X647922Y1221250D01*
Y1225750D01*
X648232Y1227311D01*
X649116Y1228634D01*
X650439Y1229518D01*
X652000Y1229828D01*
X653561Y1229518D01*
D02*
G37*
G36*
X2127561Y1229518D02*
X2128884Y1228634D01*
X2129768Y1227311D01*
X2130078Y1225750D01*
Y1221250D01*
X2129768Y1219689D01*
X2128884Y1218366D01*
X2127561Y1217482D01*
X2126000Y1217172D01*
X2124439Y1217482D01*
X2123116Y1218366D01*
X2122232Y1219689D01*
X2121922Y1221250D01*
Y1225750D01*
X2122232Y1227311D01*
X2123116Y1228634D01*
X2124439Y1229518D01*
X2126000Y1229828D01*
X2127561Y1229518D01*
D02*
G37*
G36*
X2117561D02*
X2118884Y1228634D01*
X2119768Y1227311D01*
X2120078Y1225750D01*
Y1221250D01*
X2119768Y1219689D01*
X2118884Y1218366D01*
X2117561Y1217482D01*
X2116000Y1217172D01*
X2114439Y1217482D01*
X2113116Y1218366D01*
X2112232Y1219689D01*
X2111922Y1221250D01*
Y1225750D01*
X2112232Y1227311D01*
X2113116Y1228634D01*
X2114439Y1229518D01*
X2116000Y1229828D01*
X2117561Y1229518D01*
D02*
G37*
G36*
X2107561D02*
X2108884Y1228634D01*
X2109768Y1227311D01*
X2110078Y1225750D01*
Y1221250D01*
X2109768Y1219689D01*
X2108884Y1218366D01*
X2107561Y1217482D01*
X2106000Y1217172D01*
X2104439Y1217482D01*
X2103116Y1218366D01*
X2102232Y1219689D01*
X2101922Y1221250D01*
Y1225750D01*
X2102232Y1227311D01*
X2103116Y1228634D01*
X2104439Y1229518D01*
X2106000Y1229828D01*
X2107561Y1229518D01*
D02*
G37*
G36*
X2233561D02*
X2234884Y1228634D01*
X2235768Y1227311D01*
X2236078Y1225750D01*
Y1221250D01*
X2235768Y1219689D01*
X2234884Y1218366D01*
X2233561Y1217482D01*
X2232000Y1217172D01*
X2230439Y1217482D01*
X2229116Y1218366D01*
X2228232Y1219689D01*
X2227922Y1221250D01*
Y1225750D01*
X2228232Y1227311D01*
X2229116Y1228634D01*
X2230439Y1229518D01*
X2232000Y1229828D01*
X2233561Y1229518D01*
D02*
G37*
G36*
X2223561D02*
X2224884Y1228634D01*
X2225768Y1227311D01*
X2226078Y1225750D01*
Y1221250D01*
X2225768Y1219689D01*
X2224884Y1218366D01*
X2223561Y1217482D01*
X2222000Y1217172D01*
X2220439Y1217482D01*
X2219116Y1218366D01*
X2218232Y1219689D01*
X2217922Y1221250D01*
Y1225750D01*
X2218232Y1227311D01*
X2219116Y1228634D01*
X2220439Y1229518D01*
X2222000Y1229828D01*
X2223561Y1229518D01*
D02*
G37*
G36*
X2213561D02*
X2214884Y1228634D01*
X2215768Y1227311D01*
X2216078Y1225750D01*
Y1221250D01*
X2215768Y1219689D01*
X2214884Y1218366D01*
X2213561Y1217482D01*
X2212000Y1217172D01*
X2210439Y1217482D01*
X2209116Y1218366D01*
X2208232Y1219689D01*
X2207922Y1221250D01*
Y1225750D01*
X2208232Y1227311D01*
X2209116Y1228634D01*
X2210439Y1229518D01*
X2212000Y1229828D01*
X2213561Y1229518D01*
D02*
G37*
G36*
X687311Y1593768D02*
X688634Y1592884D01*
X689518Y1591561D01*
X689828Y1590000D01*
X689518Y1588439D01*
X688634Y1587116D01*
X687311Y1586232D01*
X685750Y1585922D01*
X681250D01*
X679689Y1586232D01*
X678366Y1587116D01*
X677482Y1588439D01*
X677172Y1590000D01*
X677482Y1591561D01*
X678366Y1592884D01*
X679689Y1593768D01*
X681250Y1594078D01*
X685750D01*
X687311Y1593768D01*
D02*
G37*
G36*
X2285311Y1583768D02*
X2286634Y1582884D01*
X2287518Y1581561D01*
X2287828Y1580000D01*
X2287518Y1578439D01*
X2286634Y1577116D01*
X2285311Y1576232D01*
X2283750Y1575922D01*
X2279250D01*
X2277689Y1576232D01*
X2276366Y1577116D01*
X2275482Y1578439D01*
X2275172Y1580000D01*
X2275482Y1581561D01*
X2276366Y1582884D01*
X2277689Y1583768D01*
X2279250Y1584078D01*
X2283750D01*
X2285311Y1583768D01*
D02*
G37*
G36*
X2254311D02*
X2255634Y1582884D01*
X2256518Y1581561D01*
X2256828Y1580000D01*
X2256518Y1578439D01*
X2255634Y1577116D01*
X2254311Y1576232D01*
X2252750Y1575922D01*
X2248250D01*
X2246689Y1576232D01*
X2245366Y1577116D01*
X2244482Y1578439D01*
X2244172Y1580000D01*
X2244482Y1581561D01*
X2245366Y1582884D01*
X2246689Y1583768D01*
X2248250Y1584078D01*
X2252750D01*
X2254311Y1583768D01*
D02*
G37*
G36*
X2285311Y1593768D02*
X2286634Y1592884D01*
X2287518Y1591561D01*
X2287828Y1590000D01*
X2287518Y1588439D01*
X2286634Y1587116D01*
X2285311Y1586232D01*
X2283750Y1585922D01*
X2279250D01*
X2277689Y1586232D01*
X2276366Y1587116D01*
X2275482Y1588439D01*
X2275172Y1590000D01*
X2275482Y1591561D01*
X2276366Y1592884D01*
X2277689Y1593768D01*
X2279250Y1594078D01*
X2283750D01*
X2285311Y1593768D01*
D02*
G37*
G36*
X2254311D02*
X2255634Y1592884D01*
X2256518Y1591561D01*
X2256828Y1590000D01*
X2256518Y1588439D01*
X2255634Y1587116D01*
X2254311Y1586232D01*
X2252750Y1585922D01*
X2248250D01*
X2246689Y1586232D01*
X2245366Y1587116D01*
X2244482Y1588439D01*
X2244172Y1590000D01*
X2244482Y1591561D01*
X2245366Y1592884D01*
X2246689Y1593768D01*
X2248250Y1594078D01*
X2252750D01*
X2254311Y1593768D01*
D02*
G37*
G36*
X718311Y1593768D02*
X719634Y1592884D01*
X720518Y1591561D01*
X720828Y1590000D01*
X720518Y1588439D01*
X719634Y1587116D01*
X718311Y1586232D01*
X716750Y1585922D01*
X712250D01*
X710689Y1586232D01*
X709366Y1587116D01*
X708482Y1588439D01*
X708172Y1590000D01*
X708482Y1591561D01*
X709366Y1592884D01*
X710689Y1593768D01*
X712250Y1594078D01*
X716750D01*
X718311Y1593768D01*
D02*
G37*
G36*
X2254311Y1573768D02*
X2255634Y1572884D01*
X2256518Y1571561D01*
X2256828Y1570000D01*
X2256518Y1568439D01*
X2255634Y1567116D01*
X2254311Y1566232D01*
X2252750Y1565922D01*
X2248250D01*
X2246689Y1566232D01*
X2245366Y1567116D01*
X2244482Y1568439D01*
X2244172Y1570000D01*
X2244482Y1571561D01*
X2245366Y1572884D01*
X2246689Y1573768D01*
X2248250Y1574078D01*
X2252750D01*
X2254311Y1573768D01*
D02*
G37*
G36*
X718311Y1573768D02*
X719634Y1572884D01*
X720518Y1571561D01*
X720828Y1570000D01*
X720518Y1568439D01*
X719634Y1567116D01*
X718311Y1566232D01*
X716750Y1565922D01*
X712250D01*
X710689Y1566232D01*
X709366Y1567116D01*
X708482Y1568439D01*
X708172Y1570000D01*
X708482Y1571561D01*
X709366Y1572884D01*
X710689Y1573768D01*
X712250Y1574078D01*
X716750D01*
X718311Y1573768D01*
D02*
G37*
G36*
X687311D02*
X688634Y1572884D01*
X689518Y1571561D01*
X689828Y1570000D01*
X689518Y1568439D01*
X688634Y1567116D01*
X687311Y1566232D01*
X685750Y1565922D01*
X681250D01*
X679689Y1566232D01*
X678366Y1567116D01*
X677482Y1568439D01*
X677172Y1570000D01*
X677482Y1571561D01*
X678366Y1572884D01*
X679689Y1573768D01*
X681250Y1574078D01*
X685750D01*
X687311Y1573768D01*
D02*
G37*
G36*
X718311Y1583768D02*
X719634Y1582884D01*
X720518Y1581561D01*
X720828Y1580000D01*
X720518Y1578439D01*
X719634Y1577116D01*
X718311Y1576232D01*
X716750Y1575922D01*
X712250D01*
X710689Y1576232D01*
X709366Y1577116D01*
X708482Y1578439D01*
X708172Y1580000D01*
X708482Y1581561D01*
X709366Y1582884D01*
X710689Y1583768D01*
X712250Y1584078D01*
X716750D01*
X718311Y1583768D01*
D02*
G37*
G36*
X687311D02*
X688634Y1582884D01*
X689518Y1581561D01*
X689828Y1580000D01*
X689518Y1578439D01*
X688634Y1577116D01*
X687311Y1576232D01*
X685750Y1575922D01*
X681250D01*
X679689Y1576232D01*
X678366Y1577116D01*
X677482Y1578439D01*
X677172Y1580000D01*
X677482Y1581561D01*
X678366Y1582884D01*
X679689Y1583768D01*
X681250Y1584078D01*
X685750D01*
X687311Y1583768D01*
D02*
G37*
G36*
X2285311Y1573768D02*
X2286634Y1572884D01*
X2287518Y1571561D01*
X2287828Y1570000D01*
X2287518Y1568439D01*
X2286634Y1567116D01*
X2285311Y1566232D01*
X2283750Y1565922D01*
X2279250D01*
X2277689Y1566232D01*
X2276366Y1567116D01*
X2275482Y1568439D01*
X2275172Y1570000D01*
X2275482Y1571561D01*
X2276366Y1572884D01*
X2277689Y1573768D01*
X2279250Y1574078D01*
X2283750D01*
X2285311Y1573768D01*
D02*
G37*
G36*
X2127561Y1198518D02*
X2128884Y1197634D01*
X2129768Y1196311D01*
X2130078Y1194750D01*
Y1190250D01*
X2129768Y1188689D01*
X2128884Y1187366D01*
X2127561Y1186482D01*
X2126000Y1186172D01*
X2124439Y1186482D01*
X2123116Y1187366D01*
X2122232Y1188689D01*
X2121922Y1190250D01*
Y1194750D01*
X2122232Y1196311D01*
X2123116Y1197634D01*
X2124439Y1198518D01*
X2126000Y1198828D01*
X2127561Y1198518D01*
D02*
G37*
G36*
X2117561D02*
X2118884Y1197634D01*
X2119768Y1196311D01*
X2120078Y1194750D01*
Y1190250D01*
X2119768Y1188689D01*
X2118884Y1187366D01*
X2117561Y1186482D01*
X2116000Y1186172D01*
X2114439Y1186482D01*
X2113116Y1187366D01*
X2112232Y1188689D01*
X2111922Y1190250D01*
Y1194750D01*
X2112232Y1196311D01*
X2113116Y1197634D01*
X2114439Y1198518D01*
X2116000Y1198828D01*
X2117561Y1198518D01*
D02*
G37*
G36*
X2107561D02*
X2108884Y1197634D01*
X2109768Y1196311D01*
X2110078Y1194750D01*
Y1190250D01*
X2109768Y1188689D01*
X2108884Y1187366D01*
X2107561Y1186482D01*
X2106000Y1186172D01*
X2104439Y1186482D01*
X2103116Y1187366D01*
X2102232Y1188689D01*
X2101922Y1190250D01*
Y1194750D01*
X2102232Y1196311D01*
X2103116Y1197634D01*
X2104439Y1198518D01*
X2106000Y1198828D01*
X2107561Y1198518D01*
D02*
G37*
G36*
X2233561D02*
X2234884Y1197634D01*
X2235768Y1196311D01*
X2236078Y1194750D01*
Y1190250D01*
X2235768Y1188689D01*
X2234884Y1187366D01*
X2233561Y1186482D01*
X2232000Y1186172D01*
X2230439Y1186482D01*
X2229116Y1187366D01*
X2228232Y1188689D01*
X2227922Y1190250D01*
Y1194750D01*
X2228232Y1196311D01*
X2229116Y1197634D01*
X2230439Y1198518D01*
X2232000Y1198828D01*
X2233561Y1198518D01*
D02*
G37*
G36*
X2223561D02*
X2224884Y1197634D01*
X2225768Y1196311D01*
X2226078Y1194750D01*
Y1190250D01*
X2225768Y1188689D01*
X2224884Y1187366D01*
X2223561Y1186482D01*
X2222000Y1186172D01*
X2220439Y1186482D01*
X2219116Y1187366D01*
X2218232Y1188689D01*
X2217922Y1190250D01*
Y1194750D01*
X2218232Y1196311D01*
X2219116Y1197634D01*
X2220439Y1198518D01*
X2222000Y1198828D01*
X2223561Y1198518D01*
D02*
G37*
G36*
X2213561D02*
X2214884Y1197634D01*
X2215768Y1196311D01*
X2216078Y1194750D01*
Y1190250D01*
X2215768Y1188689D01*
X2214884Y1187366D01*
X2213561Y1186482D01*
X2212000Y1186172D01*
X2210439Y1186482D01*
X2209116Y1187366D01*
X2208232Y1188689D01*
X2207922Y1190250D01*
Y1194750D01*
X2208232Y1196311D01*
X2209116Y1197634D01*
X2210439Y1198518D01*
X2212000Y1198828D01*
X2213561Y1198518D01*
D02*
G37*
G36*
X782561D02*
X783884Y1197634D01*
X784768Y1196311D01*
X785078Y1194750D01*
Y1190250D01*
X784768Y1188689D01*
X783884Y1187366D01*
X782561Y1186482D01*
X781000Y1186172D01*
X779439Y1186482D01*
X778116Y1187366D01*
X777232Y1188689D01*
X776922Y1190250D01*
Y1194750D01*
X777232Y1196311D01*
X778116Y1197634D01*
X779439Y1198518D01*
X781000Y1198828D01*
X782561Y1198518D01*
D02*
G37*
G36*
X772561D02*
X773884Y1197634D01*
X774768Y1196311D01*
X775078Y1194750D01*
Y1190250D01*
X774768Y1188689D01*
X773884Y1187366D01*
X772561Y1186482D01*
X771000Y1186172D01*
X769439Y1186482D01*
X768116Y1187366D01*
X767232Y1188689D01*
X766922Y1190250D01*
Y1194750D01*
X767232Y1196311D01*
X768116Y1197634D01*
X769439Y1198518D01*
X771000Y1198828D01*
X772561Y1198518D01*
D02*
G37*
G36*
X762561D02*
X763884Y1197634D01*
X764768Y1196311D01*
X765078Y1194750D01*
Y1190250D01*
X764768Y1188689D01*
X763884Y1187366D01*
X762561Y1186482D01*
X761000Y1186172D01*
X759439Y1186482D01*
X758116Y1187366D01*
X757232Y1188689D01*
X756922Y1190250D01*
Y1194750D01*
X757232Y1196311D01*
X758116Y1197634D01*
X759439Y1198518D01*
X761000Y1198828D01*
X762561Y1198518D01*
D02*
G37*
G36*
X884561D02*
X885884Y1197634D01*
X886768Y1196311D01*
X887078Y1194750D01*
Y1190250D01*
X886768Y1188689D01*
X885884Y1187366D01*
X884561Y1186482D01*
X883000Y1186172D01*
X881439Y1186482D01*
X880116Y1187366D01*
X879232Y1188689D01*
X878922Y1190250D01*
Y1194750D01*
X879232Y1196311D01*
X880116Y1197634D01*
X881439Y1198518D01*
X883000Y1198828D01*
X884561Y1198518D01*
D02*
G37*
G36*
X874561D02*
X875884Y1197634D01*
X876768Y1196311D01*
X877078Y1194750D01*
Y1190250D01*
X876768Y1188689D01*
X875884Y1187366D01*
X874561Y1186482D01*
X873000Y1186172D01*
X871439Y1186482D01*
X870116Y1187366D01*
X869232Y1188689D01*
X868922Y1190250D01*
Y1194750D01*
X869232Y1196311D01*
X870116Y1197634D01*
X871439Y1198518D01*
X873000Y1198828D01*
X874561Y1198518D01*
D02*
G37*
G36*
X864561D02*
X865884Y1197634D01*
X866768Y1196311D01*
X867078Y1194750D01*
Y1190250D01*
X866768Y1188689D01*
X865884Y1187366D01*
X864561Y1186482D01*
X863000Y1186172D01*
X861439Y1186482D01*
X860116Y1187366D01*
X859232Y1188689D01*
X858922Y1190250D01*
Y1194750D01*
X859232Y1196311D01*
X860116Y1197634D01*
X861439Y1198518D01*
X863000Y1198828D01*
X864561Y1198518D01*
D02*
G37*
G36*
X782561Y1229518D02*
X783884Y1228634D01*
X784768Y1227311D01*
X785078Y1225750D01*
Y1221250D01*
X784768Y1219689D01*
X783884Y1218366D01*
X782561Y1217482D01*
X781000Y1217172D01*
X779439Y1217482D01*
X778116Y1218366D01*
X777232Y1219689D01*
X776922Y1221250D01*
Y1225750D01*
X777232Y1227311D01*
X778116Y1228634D01*
X779439Y1229518D01*
X781000Y1229828D01*
X782561Y1229518D01*
D02*
G37*
G36*
X772561D02*
X773884Y1228634D01*
X774768Y1227311D01*
X775078Y1225750D01*
Y1221250D01*
X774768Y1219689D01*
X773884Y1218366D01*
X772561Y1217482D01*
X771000Y1217172D01*
X769439Y1217482D01*
X768116Y1218366D01*
X767232Y1219689D01*
X766922Y1221250D01*
Y1225750D01*
X767232Y1227311D01*
X768116Y1228634D01*
X769439Y1229518D01*
X771000Y1229828D01*
X772561Y1229518D01*
D02*
G37*
G36*
X762561D02*
X763884Y1228634D01*
X764768Y1227311D01*
X765078Y1225750D01*
Y1221250D01*
X764768Y1219689D01*
X763884Y1218366D01*
X762561Y1217482D01*
X761000Y1217172D01*
X759439Y1217482D01*
X758116Y1218366D01*
X757232Y1219689D01*
X756922Y1221250D01*
Y1225750D01*
X757232Y1227311D01*
X758116Y1228634D01*
X759439Y1229518D01*
X761000Y1229828D01*
X762561Y1229518D01*
D02*
G37*
G36*
X884561D02*
X885884Y1228634D01*
X886768Y1227311D01*
X887078Y1225750D01*
Y1221250D01*
X886768Y1219689D01*
X885884Y1218366D01*
X884561Y1217482D01*
X883000Y1217172D01*
X881439Y1217482D01*
X880116Y1218366D01*
X879232Y1219689D01*
X878922Y1221250D01*
Y1225750D01*
X879232Y1227311D01*
X880116Y1228634D01*
X881439Y1229518D01*
X883000Y1229828D01*
X884561Y1229518D01*
D02*
G37*
G36*
X874561D02*
X875884Y1228634D01*
X876768Y1227311D01*
X877078Y1225750D01*
Y1221250D01*
X876768Y1219689D01*
X875884Y1218366D01*
X874561Y1217482D01*
X873000Y1217172D01*
X871439Y1217482D01*
X870116Y1218366D01*
X869232Y1219689D01*
X868922Y1221250D01*
Y1225750D01*
X869232Y1227311D01*
X870116Y1228634D01*
X871439Y1229518D01*
X873000Y1229828D01*
X874561Y1229518D01*
D02*
G37*
G36*
X864561D02*
X865884Y1228634D01*
X866768Y1227311D01*
X867078Y1225750D01*
Y1221250D01*
X866768Y1219689D01*
X865884Y1218366D01*
X864561Y1217482D01*
X863000Y1217172D01*
X861439Y1217482D01*
X860116Y1218366D01*
X859232Y1219689D01*
X858922Y1221250D01*
Y1225750D01*
X859232Y1227311D01*
X860116Y1228634D01*
X861439Y1229518D01*
X863000Y1229828D01*
X864561Y1229518D01*
D02*
G37*
G36*
X2342561Y1198518D02*
X2343884Y1197634D01*
X2344768Y1196311D01*
X2345078Y1194750D01*
Y1190250D01*
X2344768Y1188689D01*
X2343884Y1187366D01*
X2342561Y1186482D01*
X2341000Y1186172D01*
X2339439Y1186482D01*
X2338116Y1187366D01*
X2337232Y1188689D01*
X2336922Y1190250D01*
Y1194750D01*
X2337232Y1196311D01*
X2338116Y1197634D01*
X2339439Y1198518D01*
X2341000Y1198828D01*
X2342561Y1198518D01*
D02*
G37*
G36*
X2332561D02*
X2333884Y1197634D01*
X2334768Y1196311D01*
X2335078Y1194750D01*
Y1190250D01*
X2334768Y1188689D01*
X2333884Y1187366D01*
X2332561Y1186482D01*
X2331000Y1186172D01*
X2329439Y1186482D01*
X2328116Y1187366D01*
X2327232Y1188689D01*
X2326922Y1190250D01*
Y1194750D01*
X2327232Y1196311D01*
X2328116Y1197634D01*
X2329439Y1198518D01*
X2331000Y1198828D01*
X2332561Y1198518D01*
D02*
G37*
G36*
X2322561D02*
X2323884Y1197634D01*
X2324768Y1196311D01*
X2325078Y1194750D01*
Y1190250D01*
X2324768Y1188689D01*
X2323884Y1187366D01*
X2322561Y1186482D01*
X2321000Y1186172D01*
X2319439Y1186482D01*
X2318116Y1187366D01*
X2317232Y1188689D01*
X2316922Y1190250D01*
Y1194750D01*
X2317232Y1196311D01*
X2318116Y1197634D01*
X2319439Y1198518D01*
X2321000Y1198828D01*
X2322561Y1198518D01*
D02*
G37*
G36*
X673561Y1198518D02*
X674884Y1197634D01*
X675768Y1196311D01*
X676078Y1194750D01*
Y1190250D01*
X675768Y1188689D01*
X674884Y1187366D01*
X673561Y1186482D01*
X672000Y1186172D01*
X670439Y1186482D01*
X669116Y1187366D01*
X668232Y1188689D01*
X667922Y1190250D01*
Y1194750D01*
X668232Y1196311D01*
X669116Y1197634D01*
X670439Y1198518D01*
X672000Y1198828D01*
X673561Y1198518D01*
D02*
G37*
G36*
X663561D02*
X664884Y1197634D01*
X665768Y1196311D01*
X666078Y1194750D01*
Y1190250D01*
X665768Y1188689D01*
X664884Y1187366D01*
X663561Y1186482D01*
X662000Y1186172D01*
X660439Y1186482D01*
X659116Y1187366D01*
X658232Y1188689D01*
X657922Y1190250D01*
Y1194750D01*
X658232Y1196311D01*
X659116Y1197634D01*
X660439Y1198518D01*
X662000Y1198828D01*
X663561Y1198518D01*
D02*
G37*
G36*
X653561D02*
X654884Y1197634D01*
X655768Y1196311D01*
X656078Y1194750D01*
Y1190250D01*
X655768Y1188689D01*
X654884Y1187366D01*
X653561Y1186482D01*
X652000Y1186172D01*
X650439Y1186482D01*
X649116Y1187366D01*
X648232Y1188689D01*
X647922Y1190250D01*
Y1194750D01*
X648232Y1196311D01*
X649116Y1197634D01*
X650439Y1198518D01*
X652000Y1198828D01*
X653561Y1198518D01*
D02*
G37*
G36*
X1156311Y2314768D02*
X1157634Y2313884D01*
X1158518Y2312561D01*
X1158828Y2311000D01*
X1158518Y2309439D01*
X1157634Y2308116D01*
X1156311Y2307232D01*
X1154750Y2306922D01*
X1150250D01*
X1148689Y2307232D01*
X1147366Y2308116D01*
X1146482Y2309439D01*
X1146172Y2311000D01*
X1146482Y2312561D01*
X1147366Y2313884D01*
X1148689Y2314768D01*
X1150250Y2315078D01*
X1154750D01*
X1156311Y2314768D01*
D02*
G37*
G36*
X1796811Y2308768D02*
X1798134Y2307884D01*
X1799018Y2306561D01*
X1799328Y2305000D01*
X1799018Y2303439D01*
X1798134Y2302116D01*
X1796811Y2301232D01*
X1795250Y2300922D01*
X1790750D01*
X1789189Y2301232D01*
X1787866Y2302116D01*
X1786982Y2303439D01*
X1786672Y2305000D01*
X1786982Y2306561D01*
X1787866Y2307884D01*
X1789189Y2308768D01*
X1790750Y2309078D01*
X1795250D01*
X1796811Y2308768D01*
D02*
G37*
G36*
X1765811D02*
X1767134Y2307884D01*
X1768018Y2306561D01*
X1768328Y2305000D01*
X1768018Y2303439D01*
X1767134Y2302116D01*
X1765811Y2301232D01*
X1764250Y2300922D01*
X1759750D01*
X1758189Y2301232D01*
X1756866Y2302116D01*
X1755982Y2303439D01*
X1755672Y2305000D01*
X1755982Y2306561D01*
X1756866Y2307884D01*
X1758189Y2308768D01*
X1759750Y2309078D01*
X1764250D01*
X1765811Y2308768D01*
D02*
G37*
G36*
X1796811Y2318768D02*
X1798134Y2317884D01*
X1799018Y2316561D01*
X1799328Y2315000D01*
X1799018Y2313439D01*
X1798134Y2312116D01*
X1796811Y2311232D01*
X1795250Y2310922D01*
X1790750D01*
X1789189Y2311232D01*
X1787866Y2312116D01*
X1786982Y2313439D01*
X1786672Y2315000D01*
X1786982Y2316561D01*
X1787866Y2317884D01*
X1789189Y2318768D01*
X1790750Y2319078D01*
X1795250D01*
X1796811Y2318768D01*
D02*
G37*
G36*
X1765811D02*
X1767134Y2317884D01*
X1768018Y2316561D01*
X1768328Y2315000D01*
X1768018Y2313439D01*
X1767134Y2312116D01*
X1765811Y2311232D01*
X1764250Y2310922D01*
X1759750D01*
X1758189Y2311232D01*
X1756866Y2312116D01*
X1755982Y2313439D01*
X1755672Y2315000D01*
X1755982Y2316561D01*
X1756866Y2317884D01*
X1758189Y2318768D01*
X1759750Y2319078D01*
X1764250D01*
X1765811Y2318768D01*
D02*
G37*
G36*
X1187311Y2314768D02*
X1188634Y2313884D01*
X1189518Y2312561D01*
X1189828Y2311000D01*
X1189518Y2309439D01*
X1188634Y2308116D01*
X1187311Y2307232D01*
X1185750Y2306922D01*
X1181250D01*
X1179689Y2307232D01*
X1178366Y2308116D01*
X1177482Y2309439D01*
X1177172Y2311000D01*
X1177482Y2312561D01*
X1178366Y2313884D01*
X1179689Y2314768D01*
X1181250Y2315078D01*
X1185750D01*
X1187311Y2314768D01*
D02*
G37*
G36*
X1765811Y2298768D02*
X1767134Y2297884D01*
X1768018Y2296561D01*
X1768328Y2295000D01*
X1768018Y2293439D01*
X1767134Y2292116D01*
X1765811Y2291232D01*
X1764250Y2290922D01*
X1759750D01*
X1758189Y2291232D01*
X1756866Y2292116D01*
X1755982Y2293439D01*
X1755672Y2295000D01*
X1755982Y2296561D01*
X1756866Y2297884D01*
X1758189Y2298768D01*
X1759750Y2299078D01*
X1764250D01*
X1765811Y2298768D01*
D02*
G37*
G36*
X1187311Y2294768D02*
X1188634Y2293884D01*
X1189518Y2292561D01*
X1189828Y2291000D01*
X1189518Y2289439D01*
X1188634Y2288116D01*
X1187311Y2287232D01*
X1185750Y2286922D01*
X1181250D01*
X1179689Y2287232D01*
X1178366Y2288116D01*
X1177482Y2289439D01*
X1177172Y2291000D01*
X1177482Y2292561D01*
X1178366Y2293884D01*
X1179689Y2294768D01*
X1181250Y2295078D01*
X1185750D01*
X1187311Y2294768D01*
D02*
G37*
G36*
X1156311D02*
X1157634Y2293884D01*
X1158518Y2292561D01*
X1158828Y2291000D01*
X1158518Y2289439D01*
X1157634Y2288116D01*
X1156311Y2287232D01*
X1154750Y2286922D01*
X1150250D01*
X1148689Y2287232D01*
X1147366Y2288116D01*
X1146482Y2289439D01*
X1146172Y2291000D01*
X1146482Y2292561D01*
X1147366Y2293884D01*
X1148689Y2294768D01*
X1150250Y2295078D01*
X1154750D01*
X1156311Y2294768D01*
D02*
G37*
G36*
X1187311Y2304768D02*
X1188634Y2303884D01*
X1189518Y2302561D01*
X1189828Y2301000D01*
X1189518Y2299439D01*
X1188634Y2298116D01*
X1187311Y2297232D01*
X1185750Y2296922D01*
X1181250D01*
X1179689Y2297232D01*
X1178366Y2298116D01*
X1177482Y2299439D01*
X1177172Y2301000D01*
X1177482Y2302561D01*
X1178366Y2303884D01*
X1179689Y2304768D01*
X1181250Y2305078D01*
X1185750D01*
X1187311Y2304768D01*
D02*
G37*
G36*
X1156311D02*
X1157634Y2303884D01*
X1158518Y2302561D01*
X1158828Y2301000D01*
X1158518Y2299439D01*
X1157634Y2298116D01*
X1156311Y2297232D01*
X1154750Y2296922D01*
X1150250D01*
X1148689Y2297232D01*
X1147366Y2298116D01*
X1146482Y2299439D01*
X1146172Y2301000D01*
X1146482Y2302561D01*
X1147366Y2303884D01*
X1148689Y2304768D01*
X1150250Y2305078D01*
X1154750D01*
X1156311Y2304768D01*
D02*
G37*
G36*
X1796811Y2298768D02*
X1798134Y2297884D01*
X1799018Y2296561D01*
X1799328Y2295000D01*
X1799018Y2293439D01*
X1798134Y2292116D01*
X1796811Y2291232D01*
X1795250Y2290922D01*
X1790750D01*
X1789189Y2291232D01*
X1787866Y2292116D01*
X1786982Y2293439D01*
X1786672Y2295000D01*
X1786982Y2296561D01*
X1787866Y2297884D01*
X1789189Y2298768D01*
X1790750Y2299078D01*
X1795250D01*
X1796811Y2298768D01*
D02*
G37*
G36*
X1496561Y2609518D02*
X1497884Y2608634D01*
X1498768Y2607311D01*
X1499078Y2605750D01*
Y2601250D01*
X1498768Y2599689D01*
X1497884Y2598366D01*
X1496561Y2597482D01*
X1495000Y2597172D01*
X1493439Y2597482D01*
X1492116Y2598366D01*
X1491232Y2599689D01*
X1490922Y2601250D01*
Y2605750D01*
X1491232Y2607311D01*
X1492116Y2608634D01*
X1493439Y2609518D01*
X1495000Y2609828D01*
X1496561Y2609518D01*
D02*
G37*
G36*
X1486561D02*
X1487884Y2608634D01*
X1488768Y2607311D01*
X1489078Y2605750D01*
Y2601250D01*
X1488768Y2599689D01*
X1487884Y2598366D01*
X1486561Y2597482D01*
X1485000Y2597172D01*
X1483439Y2597482D01*
X1482116Y2598366D01*
X1481232Y2599689D01*
X1480922Y2601250D01*
Y2605750D01*
X1481232Y2607311D01*
X1482116Y2608634D01*
X1483439Y2609518D01*
X1485000Y2609828D01*
X1486561Y2609518D01*
D02*
G37*
G36*
X1476561D02*
X1477884Y2608634D01*
X1478768Y2607311D01*
X1479078Y2605750D01*
Y2601250D01*
X1478768Y2599689D01*
X1477884Y2598366D01*
X1476561Y2597482D01*
X1475000Y2597172D01*
X1473439Y2597482D01*
X1472116Y2598366D01*
X1471232Y2599689D01*
X1470922Y2601250D01*
Y2605750D01*
X1471232Y2607311D01*
X1472116Y2608634D01*
X1473439Y2609518D01*
X1475000Y2609828D01*
X1476561Y2609518D01*
D02*
G37*
G36*
X1496561Y2640518D02*
X1497884Y2639634D01*
X1498768Y2638311D01*
X1499078Y2636750D01*
Y2632250D01*
X1498768Y2630689D01*
X1497884Y2629366D01*
X1496561Y2628482D01*
X1495000Y2628172D01*
X1493439Y2628482D01*
X1492116Y2629366D01*
X1491232Y2630689D01*
X1490922Y2632250D01*
Y2636750D01*
X1491232Y2638311D01*
X1492116Y2639634D01*
X1493439Y2640518D01*
X1495000Y2640829D01*
X1496561Y2640518D01*
D02*
G37*
G36*
X1486561D02*
X1487884Y2639634D01*
X1488768Y2638311D01*
X1489078Y2636750D01*
Y2632250D01*
X1488768Y2630689D01*
X1487884Y2629366D01*
X1486561Y2628482D01*
X1485000Y2628172D01*
X1483439Y2628482D01*
X1482116Y2629366D01*
X1481232Y2630689D01*
X1480922Y2632250D01*
Y2636750D01*
X1481232Y2638311D01*
X1482116Y2639634D01*
X1483439Y2640518D01*
X1485000Y2640829D01*
X1486561Y2640518D01*
D02*
G37*
G36*
X1476561D02*
X1477884Y2639634D01*
X1478768Y2638311D01*
X1479078Y2636750D01*
Y2632250D01*
X1478768Y2630689D01*
X1477884Y2629366D01*
X1476561Y2628482D01*
X1475000Y2628172D01*
X1473439Y2628482D01*
X1472116Y2629366D01*
X1471232Y2630689D01*
X1470922Y2632250D01*
Y2636750D01*
X1471232Y2638311D01*
X1472116Y2639634D01*
X1473439Y2640518D01*
X1475000Y2640829D01*
X1476561Y2640518D01*
D02*
G37*
G36*
X1496561Y2400018D02*
X1497884Y2399134D01*
X1498768Y2397811D01*
X1499078Y2396250D01*
Y2391750D01*
X1498768Y2390189D01*
X1497884Y2388866D01*
X1496561Y2387982D01*
X1495000Y2387672D01*
X1493439Y2387982D01*
X1492116Y2388866D01*
X1491232Y2390189D01*
X1490922Y2391750D01*
Y2396250D01*
X1491232Y2397811D01*
X1492116Y2399134D01*
X1493439Y2400018D01*
X1495000Y2400328D01*
X1496561Y2400018D01*
D02*
G37*
G36*
X1486561D02*
X1487884Y2399134D01*
X1488768Y2397811D01*
X1489078Y2396250D01*
Y2391750D01*
X1488768Y2390189D01*
X1487884Y2388866D01*
X1486561Y2387982D01*
X1485000Y2387672D01*
X1483439Y2387982D01*
X1482116Y2388866D01*
X1481232Y2390189D01*
X1480922Y2391750D01*
Y2396250D01*
X1481232Y2397811D01*
X1482116Y2399134D01*
X1483439Y2400018D01*
X1485000Y2400328D01*
X1486561Y2400018D01*
D02*
G37*
G36*
X1476561D02*
X1477884Y2399134D01*
X1478768Y2397811D01*
X1479078Y2396250D01*
Y2391750D01*
X1478768Y2390189D01*
X1477884Y2388866D01*
X1476561Y2387982D01*
X1475000Y2387672D01*
X1473439Y2387982D01*
X1472116Y2388866D01*
X1471232Y2390189D01*
X1470922Y2391750D01*
Y2396250D01*
X1471232Y2397811D01*
X1472116Y2399134D01*
X1473439Y2400018D01*
X1475000Y2400328D01*
X1476561Y2400018D01*
D02*
G37*
G36*
X1496561Y2431018D02*
X1497884Y2430134D01*
X1498768Y2428811D01*
X1499078Y2427250D01*
Y2422750D01*
X1498768Y2421189D01*
X1497884Y2419866D01*
X1496561Y2418982D01*
X1495000Y2418672D01*
X1493439Y2418982D01*
X1492116Y2419866D01*
X1491232Y2421189D01*
X1490922Y2422750D01*
Y2427250D01*
X1491232Y2428811D01*
X1492116Y2430134D01*
X1493439Y2431018D01*
X1495000Y2431328D01*
X1496561Y2431018D01*
D02*
G37*
G36*
X1486561D02*
X1487884Y2430134D01*
X1488768Y2428811D01*
X1489078Y2427250D01*
Y2422750D01*
X1488768Y2421189D01*
X1487884Y2419866D01*
X1486561Y2418982D01*
X1485000Y2418672D01*
X1483439Y2418982D01*
X1482116Y2419866D01*
X1481232Y2421189D01*
X1480922Y2422750D01*
Y2427250D01*
X1481232Y2428811D01*
X1482116Y2430134D01*
X1483439Y2431018D01*
X1485000Y2431328D01*
X1486561Y2431018D01*
D02*
G37*
G36*
X1476561D02*
X1477884Y2430134D01*
X1478768Y2428811D01*
X1479078Y2427250D01*
Y2422750D01*
X1478768Y2421189D01*
X1477884Y2419866D01*
X1476561Y2418982D01*
X1475000Y2418672D01*
X1473439Y2418982D01*
X1472116Y2419866D01*
X1471232Y2421189D01*
X1470922Y2422750D01*
Y2427250D01*
X1471232Y2428811D01*
X1472116Y2430134D01*
X1473439Y2431018D01*
X1475000Y2431328D01*
X1476561Y2431018D01*
D02*
G37*
G36*
X1902561Y1943518D02*
X1903884Y1942634D01*
X1904768Y1941311D01*
X1905078Y1939750D01*
Y1935250D01*
X1904768Y1933689D01*
X1903884Y1932366D01*
X1902561Y1931482D01*
X1901000Y1931172D01*
X1899439Y1931482D01*
X1898116Y1932366D01*
X1897232Y1933689D01*
X1896922Y1935250D01*
Y1939750D01*
X1897232Y1941311D01*
X1898116Y1942634D01*
X1899439Y1943518D01*
X1901000Y1943828D01*
X1902561Y1943518D01*
D02*
G37*
G36*
X1892561D02*
X1893884Y1942634D01*
X1894768Y1941311D01*
X1895078Y1939750D01*
Y1935250D01*
X1894768Y1933689D01*
X1893884Y1932366D01*
X1892561Y1931482D01*
X1891000Y1931172D01*
X1889439Y1931482D01*
X1888116Y1932366D01*
X1887232Y1933689D01*
X1886922Y1935250D01*
Y1939750D01*
X1887232Y1941311D01*
X1888116Y1942634D01*
X1889439Y1943518D01*
X1891000Y1943828D01*
X1892561Y1943518D01*
D02*
G37*
G36*
X1882561D02*
X1883884Y1942634D01*
X1884768Y1941311D01*
X1885078Y1939750D01*
Y1935250D01*
X1884768Y1933689D01*
X1883884Y1932366D01*
X1882561Y1931482D01*
X1881000Y1931172D01*
X1879439Y1931482D01*
X1878116Y1932366D01*
X1877232Y1933689D01*
X1876922Y1935250D01*
Y1939750D01*
X1877232Y1941311D01*
X1878116Y1942634D01*
X1879439Y1943518D01*
X1881000Y1943828D01*
X1882561Y1943518D01*
D02*
G37*
G36*
X2023561Y1943518D02*
X2024884Y1942634D01*
X2025768Y1941311D01*
X2026078Y1939750D01*
Y1935250D01*
X2025768Y1933689D01*
X2024884Y1932366D01*
X2023561Y1931482D01*
X2022000Y1931172D01*
X2020439Y1931482D01*
X2019116Y1932366D01*
X2018232Y1933689D01*
X2017922Y1935250D01*
Y1939750D01*
X2018232Y1941311D01*
X2019116Y1942634D01*
X2020439Y1943518D01*
X2022000Y1943828D01*
X2023561Y1943518D01*
D02*
G37*
G36*
X2013561D02*
X2014884Y1942634D01*
X2015768Y1941311D01*
X2016078Y1939750D01*
Y1935250D01*
X2015768Y1933689D01*
X2014884Y1932366D01*
X2013561Y1931482D01*
X2012000Y1931172D01*
X2010439Y1931482D01*
X2009116Y1932366D01*
X2008232Y1933689D01*
X2007922Y1935250D01*
Y1939750D01*
X2008232Y1941311D01*
X2009116Y1942634D01*
X2010439Y1943518D01*
X2012000Y1943828D01*
X2013561Y1943518D01*
D02*
G37*
G36*
X2003561D02*
X2004884Y1942634D01*
X2005768Y1941311D01*
X2006078Y1939750D01*
Y1935250D01*
X2005768Y1933689D01*
X2004884Y1932366D01*
X2003561Y1931482D01*
X2002000Y1931172D01*
X2000439Y1931482D01*
X1999116Y1932366D01*
X1998232Y1933689D01*
X1997922Y1935250D01*
Y1939750D01*
X1998232Y1941311D01*
X1999116Y1942634D01*
X2000439Y1943518D01*
X2002000Y1943828D01*
X2003561Y1943518D01*
D02*
G37*
G36*
X966561Y1943518D02*
X967884Y1942634D01*
X968768Y1941311D01*
X969078Y1939750D01*
Y1935250D01*
X968768Y1933689D01*
X967884Y1932366D01*
X966561Y1931482D01*
X965000Y1931172D01*
X963439Y1931482D01*
X962116Y1932366D01*
X961232Y1933689D01*
X960922Y1935250D01*
Y1939750D01*
X961232Y1941311D01*
X962116Y1942634D01*
X963439Y1943518D01*
X965000Y1943828D01*
X966561Y1943518D01*
D02*
G37*
G36*
X956561D02*
X957884Y1942634D01*
X958768Y1941311D01*
X959078Y1939750D01*
Y1935250D01*
X958768Y1933689D01*
X957884Y1932366D01*
X956561Y1931482D01*
X955000Y1931172D01*
X953439Y1931482D01*
X952116Y1932366D01*
X951232Y1933689D01*
X950922Y1935250D01*
Y1939750D01*
X951232Y1941311D01*
X952116Y1942634D01*
X953439Y1943518D01*
X955000Y1943828D01*
X956561Y1943518D01*
D02*
G37*
G36*
X946561D02*
X947884Y1942634D01*
X948768Y1941311D01*
X949078Y1939750D01*
Y1935250D01*
X948768Y1933689D01*
X947884Y1932366D01*
X946561Y1931482D01*
X945000Y1931172D01*
X943439Y1931482D01*
X942116Y1932366D01*
X941232Y1933689D01*
X940922Y1935250D01*
Y1939750D01*
X941232Y1941311D01*
X942116Y1942634D01*
X943439Y1943518D01*
X945000Y1943828D01*
X946561Y1943518D01*
D02*
G37*
G36*
X1081561D02*
X1082884Y1942634D01*
X1083768Y1941311D01*
X1084078Y1939750D01*
Y1935250D01*
X1083768Y1933689D01*
X1082884Y1932366D01*
X1081561Y1931482D01*
X1080000Y1931172D01*
X1078439Y1931482D01*
X1077116Y1932366D01*
X1076232Y1933689D01*
X1075922Y1935250D01*
Y1939750D01*
X1076232Y1941311D01*
X1077116Y1942634D01*
X1078439Y1943518D01*
X1080000Y1943828D01*
X1081561Y1943518D01*
D02*
G37*
G36*
X1071561D02*
X1072884Y1942634D01*
X1073768Y1941311D01*
X1074078Y1939750D01*
Y1935250D01*
X1073768Y1933689D01*
X1072884Y1932366D01*
X1071561Y1931482D01*
X1070000Y1931172D01*
X1068439Y1931482D01*
X1067116Y1932366D01*
X1066232Y1933689D01*
X1065922Y1935250D01*
Y1939750D01*
X1066232Y1941311D01*
X1067116Y1942634D01*
X1068439Y1943518D01*
X1070000Y1943828D01*
X1071561Y1943518D01*
D02*
G37*
G36*
X1061561D02*
X1062884Y1942634D01*
X1063768Y1941311D01*
X1064078Y1939750D01*
Y1935250D01*
X1063768Y1933689D01*
X1062884Y1932366D01*
X1061561Y1931482D01*
X1060000Y1931172D01*
X1058439Y1931482D01*
X1057116Y1932366D01*
X1056232Y1933689D01*
X1055922Y1935250D01*
Y1939750D01*
X1056232Y1941311D01*
X1057116Y1942634D01*
X1058439Y1943518D01*
X1060000Y1943828D01*
X1061561Y1943518D01*
D02*
G37*
G36*
X1902561Y1974518D02*
X1903884Y1973634D01*
X1904768Y1972311D01*
X1905078Y1970750D01*
Y1966250D01*
X1904768Y1964689D01*
X1903884Y1963366D01*
X1902561Y1962482D01*
X1901000Y1962172D01*
X1899439Y1962482D01*
X1898116Y1963366D01*
X1897232Y1964689D01*
X1896922Y1966250D01*
Y1970750D01*
X1897232Y1972311D01*
X1898116Y1973634D01*
X1899439Y1974518D01*
X1901000Y1974828D01*
X1902561Y1974518D01*
D02*
G37*
G36*
X1892561D02*
X1893884Y1973634D01*
X1894768Y1972311D01*
X1895078Y1970750D01*
Y1966250D01*
X1894768Y1964689D01*
X1893884Y1963366D01*
X1892561Y1962482D01*
X1891000Y1962172D01*
X1889439Y1962482D01*
X1888116Y1963366D01*
X1887232Y1964689D01*
X1886922Y1966250D01*
Y1970750D01*
X1887232Y1972311D01*
X1888116Y1973634D01*
X1889439Y1974518D01*
X1891000Y1974828D01*
X1892561Y1974518D01*
D02*
G37*
G36*
X1882561D02*
X1883884Y1973634D01*
X1884768Y1972311D01*
X1885078Y1970750D01*
Y1966250D01*
X1884768Y1964689D01*
X1883884Y1963366D01*
X1882561Y1962482D01*
X1881000Y1962172D01*
X1879439Y1962482D01*
X1878116Y1963366D01*
X1877232Y1964689D01*
X1876922Y1966250D01*
Y1970750D01*
X1877232Y1972311D01*
X1878116Y1973634D01*
X1879439Y1974518D01*
X1881000Y1974828D01*
X1882561Y1974518D01*
D02*
G37*
G36*
X2023561Y1974518D02*
X2024884Y1973634D01*
X2025768Y1972311D01*
X2026078Y1970750D01*
Y1966250D01*
X2025768Y1964689D01*
X2024884Y1963366D01*
X2023561Y1962482D01*
X2022000Y1962172D01*
X2020439Y1962482D01*
X2019116Y1963366D01*
X2018232Y1964689D01*
X2017922Y1966250D01*
Y1970750D01*
X2018232Y1972311D01*
X2019116Y1973634D01*
X2020439Y1974518D01*
X2022000Y1974828D01*
X2023561Y1974518D01*
D02*
G37*
G36*
X2013561D02*
X2014884Y1973634D01*
X2015768Y1972311D01*
X2016078Y1970750D01*
Y1966250D01*
X2015768Y1964689D01*
X2014884Y1963366D01*
X2013561Y1962482D01*
X2012000Y1962172D01*
X2010439Y1962482D01*
X2009116Y1963366D01*
X2008232Y1964689D01*
X2007922Y1966250D01*
Y1970750D01*
X2008232Y1972311D01*
X2009116Y1973634D01*
X2010439Y1974518D01*
X2012000Y1974828D01*
X2013561Y1974518D01*
D02*
G37*
G36*
X2003561D02*
X2004884Y1973634D01*
X2005768Y1972311D01*
X2006078Y1970750D01*
Y1966250D01*
X2005768Y1964689D01*
X2004884Y1963366D01*
X2003561Y1962482D01*
X2002000Y1962172D01*
X2000439Y1962482D01*
X1999116Y1963366D01*
X1998232Y1964689D01*
X1997922Y1966250D01*
Y1970750D01*
X1998232Y1972311D01*
X1999116Y1973634D01*
X2000439Y1974518D01*
X2002000Y1974828D01*
X2003561Y1974518D01*
D02*
G37*
G36*
X966561Y1974518D02*
X967884Y1973634D01*
X968768Y1972311D01*
X969078Y1970750D01*
Y1966250D01*
X968768Y1964689D01*
X967884Y1963366D01*
X966561Y1962482D01*
X965000Y1962172D01*
X963439Y1962482D01*
X962116Y1963366D01*
X961232Y1964689D01*
X960922Y1966250D01*
Y1970750D01*
X961232Y1972311D01*
X962116Y1973634D01*
X963439Y1974518D01*
X965000Y1974828D01*
X966561Y1974518D01*
D02*
G37*
G36*
X956561D02*
X957884Y1973634D01*
X958768Y1972311D01*
X959078Y1970750D01*
Y1966250D01*
X958768Y1964689D01*
X957884Y1963366D01*
X956561Y1962482D01*
X955000Y1962172D01*
X953439Y1962482D01*
X952116Y1963366D01*
X951232Y1964689D01*
X950922Y1966250D01*
Y1970750D01*
X951232Y1972311D01*
X952116Y1973634D01*
X953439Y1974518D01*
X955000Y1974828D01*
X956561Y1974518D01*
D02*
G37*
G36*
X946561D02*
X947884Y1973634D01*
X948768Y1972311D01*
X949078Y1970750D01*
Y1966250D01*
X948768Y1964689D01*
X947884Y1963366D01*
X946561Y1962482D01*
X945000Y1962172D01*
X943439Y1962482D01*
X942116Y1963366D01*
X941232Y1964689D01*
X940922Y1966250D01*
Y1970750D01*
X941232Y1972311D01*
X942116Y1973634D01*
X943439Y1974518D01*
X945000Y1974828D01*
X946561Y1974518D01*
D02*
G37*
G36*
X1081561D02*
X1082884Y1973634D01*
X1083768Y1972311D01*
X1084078Y1970750D01*
Y1966250D01*
X1083768Y1964689D01*
X1082884Y1963366D01*
X1081561Y1962482D01*
X1080000Y1962172D01*
X1078439Y1962482D01*
X1077116Y1963366D01*
X1076232Y1964689D01*
X1075922Y1966250D01*
Y1970750D01*
X1076232Y1972311D01*
X1077116Y1973634D01*
X1078439Y1974518D01*
X1080000Y1974828D01*
X1081561Y1974518D01*
D02*
G37*
G36*
X1071561D02*
X1072884Y1973634D01*
X1073768Y1972311D01*
X1074078Y1970750D01*
Y1966250D01*
X1073768Y1964689D01*
X1072884Y1963366D01*
X1071561Y1962482D01*
X1070000Y1962172D01*
X1068439Y1962482D01*
X1067116Y1963366D01*
X1066232Y1964689D01*
X1065922Y1966250D01*
Y1970750D01*
X1066232Y1972311D01*
X1067116Y1973634D01*
X1068439Y1974518D01*
X1070000Y1974828D01*
X1071561Y1974518D01*
D02*
G37*
G36*
X1061561D02*
X1062884Y1973634D01*
X1063768Y1972311D01*
X1064078Y1970750D01*
Y1966250D01*
X1063768Y1964689D01*
X1062884Y1963366D01*
X1061561Y1962482D01*
X1060000Y1962172D01*
X1058439Y1962482D01*
X1057116Y1963366D01*
X1056232Y1964689D01*
X1055922Y1966250D01*
Y1970750D01*
X1056232Y1972311D01*
X1057116Y1973634D01*
X1058439Y1974518D01*
X1060000Y1974828D01*
X1061561Y1974518D01*
D02*
G37*
D10*
X2069430Y1154000D02*
D03*
X2046570D02*
D03*
X888000Y1115000D02*
D03*
X910860D02*
D03*
X2211570Y1292000D02*
D03*
X2234430D02*
D03*
X2147570Y1599000D02*
D03*
X2170430D02*
D03*
X911430Y1269000D02*
D03*
X888570D02*
D03*
X701430Y1268000D02*
D03*
X678570D02*
D03*
X808430Y1267000D02*
D03*
X785570D02*
D03*
X795430Y1556000D02*
D03*
X772570D02*
D03*
X1997570Y2036000D02*
D03*
X2020430D02*
D03*
X1880000Y2033000D02*
D03*
X1902860D02*
D03*
X1016430Y1970000D02*
D03*
X993570D02*
D03*
X1260430Y2289000D02*
D03*
X1237570D02*
D03*
X1678570Y2370000D02*
D03*
X1701430D02*
D03*
X2106570Y1294000D02*
D03*
X2129430D02*
D03*
D34*
X1736000Y2240000D02*
D03*
Y2262860D02*
D03*
X1231000Y2231570D02*
D03*
Y2254430D02*
D03*
X1558000Y2537430D02*
D03*
Y2514570D02*
D03*
X1022000Y1893570D02*
D03*
Y1916430D02*
D03*
X2346000Y1291430D02*
D03*
Y1268570D02*
D03*
X1114000Y1994000D02*
D03*
Y1971140D02*
D03*
X1447000Y2369570D02*
D03*
Y2392430D02*
D03*
X1462000Y2527000D02*
D03*
Y2549860D02*
D03*
D44*
X2932290Y1752014D02*
X3165970D01*
X2932290Y1727884D02*
Y1752014D01*
Y1727884D02*
X3165970D01*
Y1752014D01*
X2998330Y1744899D02*
Y1734742D01*
Y1744899D02*
X3002684D01*
X3004135Y1744416D01*
X3004619Y1743932D01*
X3005102Y1742965D01*
Y1741997D01*
X3004619Y1741030D01*
X3004135Y1740546D01*
X3002684Y1740062D01*
X2998330D02*
X3002684D01*
X3004135Y1739579D01*
X3004619Y1739095D01*
X3005102Y1738128D01*
Y1736676D01*
X3004619Y1735709D01*
X3004135Y1735225D01*
X3002684Y1734742D01*
X2998330D01*
X3010278Y1744899D02*
X3009311Y1744416D01*
X3008343Y1743448D01*
X3007859Y1742481D01*
X3007376Y1741030D01*
Y1738611D01*
X3007859Y1737160D01*
X3008343Y1736193D01*
X3009311Y1735225D01*
X3010278Y1734742D01*
X3012213D01*
X3013180Y1735225D01*
X3014148Y1736193D01*
X3014631Y1737160D01*
X3015115Y1738611D01*
Y1741030D01*
X3014631Y1742481D01*
X3014148Y1743448D01*
X3013180Y1744416D01*
X3012213Y1744899D01*
X3010278D01*
X3020871D02*
Y1734742D01*
X3017485Y1744899D02*
X3024257D01*
X3028852D02*
Y1734742D01*
X3025466Y1744899D02*
X3032238D01*
X3036350D02*
X3035382Y1744416D01*
X3034415Y1743448D01*
X3033931Y1742481D01*
X3033447Y1741030D01*
Y1738611D01*
X3033931Y1737160D01*
X3034415Y1736193D01*
X3035382Y1735225D01*
X3036350Y1734742D01*
X3038285D01*
X3039252Y1735225D01*
X3040219Y1736193D01*
X3040703Y1737160D01*
X3041187Y1738611D01*
Y1741030D01*
X3040703Y1742481D01*
X3040219Y1743448D01*
X3039252Y1744416D01*
X3038285Y1744899D01*
X3036350D01*
X3043557D02*
Y1734742D01*
Y1744899D02*
X3047426Y1734742D01*
X3051296Y1744899D02*
X3047426Y1734742D01*
X3051296Y1744899D02*
Y1734742D01*
X3062180Y1739579D02*
X3066533D01*
X3067984Y1740062D01*
X3068468Y1740546D01*
X3068951Y1741514D01*
Y1742965D01*
X3068468Y1743932D01*
X3067984Y1744416D01*
X3066533Y1744899D01*
X3062180D01*
Y1734742D01*
X3078964D02*
X3075095Y1744899D01*
X3071225Y1734742D01*
X3072676Y1738128D02*
X3077513D01*
X3088106Y1743448D02*
X3087139Y1744416D01*
X3085688Y1744899D01*
X3083753D01*
X3082302Y1744416D01*
X3081334Y1743448D01*
Y1742481D01*
X3081818Y1741514D01*
X3082302Y1741030D01*
X3083269Y1740546D01*
X3086171Y1739579D01*
X3087139Y1739095D01*
X3087622Y1738611D01*
X3088106Y1737644D01*
Y1736193D01*
X3087139Y1735225D01*
X3085688Y1734742D01*
X3083753D01*
X3082302Y1735225D01*
X3081334Y1736193D01*
X3093766Y1744899D02*
Y1734742D01*
X3090380Y1744899D02*
X3097151D01*
X3104649D02*
X3098361D01*
Y1734742D01*
X3104649D01*
X3098361Y1740062D02*
X3102231D01*
D54*
X2956420Y1739949D02*
D03*
D80*
X1758000Y2262000D02*
D03*
X1774000D02*
D03*
X1204965Y2255000D02*
D03*
X1188965D02*
D03*
M02*
