M48
;Layer_Color=9474304
;FILE_FORMAT=4:4
METRIC,LZ
;TYPE=PLATED
T1F00S00C0.2000
T2F00S00C0.4000
T3F00S00C0.6000
T4F00S00C0.9652
T5F00S00C1.0000
T6F00S00C1.0160
;TYPE=NON_PLATED
T7F00S00C0.9000
%
T01
X01953Y012785
Y012955
X019445Y01287
X019615
T02
X00821Y01169
X00932Y01153
X01789Y01173
X01656Y00907
X01643Y00818
X01988Y01105
X02018
X02047
X02052Y01185
X02059Y01207
X02068Y01223
X02063Y01248
X02087Y01322
X02016Y01319
X02178Y01297
X02183Y0124
X02293Y01244
X02283Y01344
X02367Y01287
X02233Y01537
X02147Y01572
X01946Y01334
X01902Y0134
X01893Y01367
X0186Y01345
X01844Y0141214
X01797Y01462
X0174Y01325
X01704
X01713Y01227
X01751Y0124
X01789Y01199
X01886Y01198
X01915Y01218
X0189Y01247
X01577Y01482
X01486Y01518
X01506Y01564
X0144Y01482
X01124Y01511
X00972Y01574
X00948Y01561
X00861Y01512
X00895Y01464
X00896Y01415
X00937Y01268
X00808Y01243
X00725Y01267
X00683Y01295
X00632Y01335
X00896998Y01604997
X00919Y01603
X00937Y01612
X00956
X00975Y0161
X00995Y01609
X01012
X01041
X01015Y01939
X009Y01921
X01256Y01929
X01269Y01947
X01282Y01963
Y0198
X01317Y01896
X01357Y01892
X01377Y01884
X01364Y0183
X01336Y0183
X0141Y01844
X01435Y01841
X01511
X01509Y01818
X01525Y01786
X01566Y01788
X01473Y01775
X0146Y01784
X01401Y0172
X013795Y017185
X01376Y01699
X01366Y01664
X01363Y017395
X01283Y01702
X01433Y01676
X01448Y01636
X01492Y01646
X01502Y01631
X0148723Y0160877
X01519Y01675
X01551Y01676
X01208Y01832
X0122Y01848
X01231Y01864
X0159Y01846
X01661Y01847
Y01866
X0166Y01885
X01658Y01909
X01676Y01816
X01717Y01786
X01759Y01757
X01682Y01729
X01675Y01671
X01617Y01676
X01592Y01715
X01893Y01711
X01898Y01803
X01828Y01943
X01809Y01945
X0179Y01949
X01779Y01935
X01902Y01594
X01991Y01592
X02024Y01603
X02033Y01621
X02046Y01635
X0206Y01658
X02072Y01676
X02059Y01925
X01732Y01991
X01719Y02001
X0171Y02014
X01652Y02034
X0159Y02066
X01597Y02081
X01602Y02097
X01652Y02198
X01642Y02211
X01669Y02189
X01686Y02178
X01707Y02143
X01727
X01737Y02129
X01745Y02116
X01765Y02244
X01628Y02267
X01612Y02285
X01587Y02297
X01569Y02314
X01522Y02309
Y02328
X01554Y0236
X0148646Y0235654
X01399Y02356
X01398Y02376
X01378Y02316
X01423Y02314
X01381Y02262
X01387Y02234
X01378Y02191
X01363Y02182
X01352Y02172
X01350997Y02153996
X01325Y02148
X01327Y02163
X0131Y0217
X01264Y02121
X01243Y02126
X01239Y02108
X01208Y02037
X01194Y02024
X01295Y02008
X0131Y01996
X01363Y0205
X01386Y0206
X01398Y02069
X01411Y02078
X01408Y02095
X01414997Y02113996
X01441Y0207873
X01393Y02038
X01506Y02036
X01563Y02047
X01577Y02056
X01585Y02023
X0158Y02208
X01581Y02237
X01501Y02272
X01472Y0225
X0147Y02201
X01483997Y02190996
X01487Y0221
X01496Y02174
X0149Y02155
X01506
X01469Y02163
Y02146
X01436Y02204
X0144Y02227
X01167Y02267
X0118Y02012
X01165Y01997
X01423Y0247
X01463Y02495
X01484Y02497
X0156Y02433
X01616Y02462
T03
X014743Y01373
X014997
T04
X017336Y014796
Y01505
Y015304
Y015558
Y015812
X01759
Y015558
Y015304
Y01505
Y014796
Y016066
Y01632
Y016574
Y016828
Y017082
X017336
Y016828
Y016574
Y01632
Y016066
T05
X02412Y012473
Y012727
X00558Y012684
Y01243
X00862Y019723
X02101Y019763
Y020017
X00862Y019977
T06
X016104Y00763
X016358
X01585
X013874
X01362
X013366
X00989Y011816
X01884Y01564
X019094
X019348
X00989Y012324
Y01207
X01141Y019286
Y01954
Y019794
X021326Y01626
X02158
X021834
X01121Y02025
X010956
X010702
X01006Y02041
X009806
X009552
X013362Y02399
X013616
X01387
X013868Y02441
X013614
X01336
X014866Y02463
X01512
X015374
T07
X01313Y00889
Y00933
X01655Y0093
Y00886
X01996Y01059
X02026
M30
