G04 Layer_Color=255*
%FSLAX44Y44*%
%MOMM*%
G71*
G01*
G75*
%ADD10R,1.2700X1.5240*%
%ADD11R,1.5240X1.2700*%
%ADD15R,0.9000X0.9500*%
%ADD55C,1.7780*%
%ADD56R,1.7780X1.7780*%
%ADD57R,1.7780X1.7780*%
%ADD58C,1.6000*%
%ADD59C,0.9000*%
%ADD60C,1.1080*%
%ADD61C,1.4732*%
%ADD62R,1.4732X1.4732*%
%ADD65O,1.2500X0.8000*%
%ADD66O,0.8000X1.2500*%
D10*
X910860Y1115000D02*
D03*
X888000D02*
D03*
X2046570Y1154000D02*
D03*
X2069430D02*
D03*
X1237570Y2289000D02*
D03*
X1260430D02*
D03*
X993570Y1970000D02*
D03*
X1016430D02*
D03*
X785570Y1267000D02*
D03*
X808430D02*
D03*
X678570Y1268000D02*
D03*
X701430D02*
D03*
X888570Y1269000D02*
D03*
X911430D02*
D03*
X772570Y1556000D02*
D03*
X795430D02*
D03*
X2170430Y1599000D02*
D03*
X2147570D02*
D03*
X2234430Y1292000D02*
D03*
X2211570D02*
D03*
X2129430Y1294000D02*
D03*
X2106570D02*
D03*
X1701430Y2370000D02*
D03*
X1678570D02*
D03*
X1902860Y2033000D02*
D03*
X1880000D02*
D03*
X2020430Y2036000D02*
D03*
X1997570D02*
D03*
D11*
X1022000Y1916430D02*
D03*
Y1893570D02*
D03*
X1558000Y2514570D02*
D03*
Y2537430D02*
D03*
X1114000Y1971140D02*
D03*
Y1994000D02*
D03*
X1462000Y2549860D02*
D03*
Y2527000D02*
D03*
X2346000Y1268570D02*
D03*
Y1291430D02*
D03*
X1447000Y2392430D02*
D03*
Y2369570D02*
D03*
X1736000Y2262860D02*
D03*
Y2240000D02*
D03*
X1231000Y2254430D02*
D03*
Y2231570D02*
D03*
D15*
X1774000Y2262000D02*
D03*
X1758000D02*
D03*
X1188965Y2255000D02*
D03*
X1204965D02*
D03*
D55*
X1336600Y763000D02*
D03*
X1362000D02*
D03*
X1121000Y2025000D02*
D03*
X1095600D02*
D03*
X955200Y2041000D02*
D03*
X980600D02*
D03*
X1336000Y2441000D02*
D03*
X1361400D02*
D03*
X2132600Y1626000D02*
D03*
X2158000D02*
D03*
X1486600Y2463000D02*
D03*
X1512000D02*
D03*
X1336200Y2399000D02*
D03*
X1361600D02*
D03*
X1141000Y1979400D02*
D03*
Y1954000D02*
D03*
X989000Y1232400D02*
D03*
Y1207000D02*
D03*
X1585000Y763000D02*
D03*
X1610400D02*
D03*
X1884000Y1564000D02*
D03*
X1909400D02*
D03*
D56*
X1387400Y763000D02*
D03*
X1070200Y2025000D02*
D03*
X1006000Y2041000D02*
D03*
X1386800Y2441000D02*
D03*
X2183400Y1626000D02*
D03*
X1537400Y2463000D02*
D03*
X1387000Y2399000D02*
D03*
X1635800Y763000D02*
D03*
X1934800Y1564000D02*
D03*
D57*
X1141000Y1928600D02*
D03*
X989000Y1181600D02*
D03*
D58*
X2101000Y1976300D02*
D03*
Y2001700D02*
D03*
X558000Y1268400D02*
D03*
Y1243000D02*
D03*
X862000Y1972300D02*
D03*
Y1997700D02*
D03*
X2412000Y1272700D02*
D03*
Y1247300D02*
D03*
D59*
X1313000Y889000D02*
D03*
Y933000D02*
D03*
X1655000Y930000D02*
D03*
Y886000D02*
D03*
D60*
X1499700Y1373000D02*
D03*
X1474300D02*
D03*
D61*
X1759000Y1479600D02*
D03*
X1733600D02*
D03*
X1759000Y1505000D02*
D03*
X1733600D02*
D03*
X1759000Y1530400D02*
D03*
X1733600D02*
D03*
X1759000Y1555800D02*
D03*
X1733600D02*
D03*
X1759000Y1581200D02*
D03*
X1733600D02*
D03*
X1759000Y1606600D02*
D03*
X1733600D02*
D03*
X1759000Y1632000D02*
D03*
X1733600D02*
D03*
X1759000Y1657400D02*
D03*
X1733600D02*
D03*
X1759000Y1682800D02*
D03*
X1733600D02*
D03*
X1759000Y1708200D02*
D03*
D62*
X1733600D02*
D03*
D65*
X1183500Y2311000D02*
D03*
Y2301000D02*
D03*
Y2291000D02*
D03*
X1152500D02*
D03*
Y2301000D02*
D03*
Y2311000D02*
D03*
X714500Y1590000D02*
D03*
Y1580000D02*
D03*
Y1570000D02*
D03*
X683500D02*
D03*
Y1580000D02*
D03*
Y1590000D02*
D03*
X2250500Y1570000D02*
D03*
Y1580000D02*
D03*
Y1590000D02*
D03*
X2281500D02*
D03*
Y1580000D02*
D03*
Y1570000D02*
D03*
X1762000Y2295000D02*
D03*
Y2305000D02*
D03*
Y2315000D02*
D03*
X1793000D02*
D03*
Y2305000D02*
D03*
Y2295000D02*
D03*
D66*
X945000Y1968500D02*
D03*
X955000D02*
D03*
X965000D02*
D03*
Y1937500D02*
D03*
X955000D02*
D03*
X945000D02*
D03*
X1060000Y1968500D02*
D03*
X1070000D02*
D03*
X1080000D02*
D03*
Y1937500D02*
D03*
X1070000D02*
D03*
X1060000D02*
D03*
X652000Y1223500D02*
D03*
X662000D02*
D03*
X672000D02*
D03*
Y1192500D02*
D03*
X662000D02*
D03*
X652000D02*
D03*
X761000Y1223500D02*
D03*
X771000D02*
D03*
X781000D02*
D03*
Y1192500D02*
D03*
X771000D02*
D03*
X761000D02*
D03*
X863000Y1223500D02*
D03*
X873000D02*
D03*
X883000D02*
D03*
Y1192500D02*
D03*
X873000D02*
D03*
X863000D02*
D03*
X2106000Y1223500D02*
D03*
X2116000D02*
D03*
X2126000D02*
D03*
Y1192500D02*
D03*
X2116000D02*
D03*
X2106000D02*
D03*
X2212000Y1223500D02*
D03*
X2222000D02*
D03*
X2232000D02*
D03*
Y1192500D02*
D03*
X2222000D02*
D03*
X2212000D02*
D03*
X2321000Y1223500D02*
D03*
X2331000D02*
D03*
X2341000D02*
D03*
Y1192500D02*
D03*
X2331000D02*
D03*
X2321000D02*
D03*
X2002000Y1968500D02*
D03*
X2012000D02*
D03*
X2022000D02*
D03*
Y1937500D02*
D03*
X2012000D02*
D03*
X2002000D02*
D03*
X1881000Y1968500D02*
D03*
X1891000D02*
D03*
X1901000D02*
D03*
Y1937500D02*
D03*
X1891000D02*
D03*
X1881000D02*
D03*
X1495000Y2394000D02*
D03*
X1485000D02*
D03*
X1475000D02*
D03*
Y2425000D02*
D03*
X1485000D02*
D03*
X1495000D02*
D03*
X1495000Y2603500D02*
D03*
X1485000D02*
D03*
X1475000D02*
D03*
Y2634500D02*
D03*
X1485000D02*
D03*
X1495000D02*
D03*
M02*
