G04 Layer_Color=16711935*
%FSLAX44Y44*%
%MOMM*%
G71*
G01*
G75*
%ADD127C,0.0010*%
D127*
X1757000Y2257500D02*
X1775000D01*
X1757000D02*
Y2266500D01*
X1775000D01*
Y2257500D02*
Y2266500D01*
X1187965Y2259500D02*
X1205965D01*
Y2250500D02*
Y2259500D01*
X1187965Y2250500D02*
X1205965D01*
X1187965D02*
Y2259500D01*
X1443000Y1914500D02*
X1461000D01*
X1443000Y1905500D02*
Y1914500D01*
Y1905500D02*
X1461000D01*
Y1914500D01*
X820558Y1708636D02*
X826635Y1674168D01*
X779364Y1665833D02*
X826635Y1674168D01*
X773287Y1700301D02*
X779364Y1665833D01*
X773287Y1700301D02*
X820558Y1708636D01*
X892801Y1744504D02*
X910302Y1714193D01*
X868732Y1690193D02*
X910302Y1714193D01*
X851232Y1720504D02*
X868732Y1690193D01*
X851232Y1720504D02*
X892801Y1744504D01*
X980582Y1780098D02*
X992553Y1747209D01*
X947447Y1730791D02*
X992553Y1747209D01*
X935477Y1763681D02*
X947447Y1730791D01*
X935477Y1763681D02*
X980582Y1780098D01*
X728582Y1685098D02*
X740553Y1652209D01*
X695447Y1635791D02*
X740553Y1652209D01*
X683477Y1668681D02*
X695447Y1635791D01*
X683477Y1668681D02*
X728582Y1685098D01*
X1535000Y1905500D02*
X1553000D01*
Y1914500D01*
X1535000D02*
X1553000D01*
X1535000Y1905500D02*
Y1914500D01*
X1977500Y1045950D02*
Y1071950D01*
X2044500D01*
Y1045950D02*
Y1071950D01*
X2024000Y1045950D02*
X2044500D01*
X2024000Y1031000D02*
Y1045950D01*
X2002500Y1031000D02*
X2024000D01*
X2002500D02*
Y1046000D01*
X1977500Y1045950D02*
X2002500Y1046000D01*
M02*
