G04 Layer_Color=32768*
%FSLAX44Y44*%
%MOMM*%
G71*
G01*
G75*
%ADD53C,0.1270*%
%ADD54R,4.8260X2.4130*%
%ADD68C,0.2000*%
%ADD70C,0.1000*%
%ADD71C,0.1524*%
%ADD73C,0.0500*%
D53*
X2932040Y1544358D02*
X3165721D01*
X2932040D02*
Y1568488D01*
X3165721Y1544358D02*
Y1568488D01*
X2932040D02*
X3165721D01*
X2998080Y1561374D02*
Y1551216D01*
Y1561374D02*
X3001466D01*
X3002917Y1560890D01*
X3003885Y1559922D01*
X3004369Y1558955D01*
X3004852Y1557504D01*
Y1555085D01*
X3004369Y1553634D01*
X3003885Y1552667D01*
X3002917Y1551700D01*
X3001466Y1551216D01*
X2998080D01*
X3007126Y1561374D02*
Y1551216D01*
X3009254Y1561374D02*
Y1551216D01*
Y1561374D02*
X3013123Y1551216D01*
X3016993Y1561374D02*
X3013123Y1551216D01*
X3016993Y1561374D02*
Y1551216D01*
X3026183Y1561374D02*
X3019896D01*
Y1551216D01*
X3026183D01*
X3019896Y1556537D02*
X3023765D01*
X3027877Y1561374D02*
Y1551216D01*
Y1561374D02*
X3034648Y1551216D01*
Y1561374D02*
Y1551216D01*
X3044226Y1559922D02*
X3043258Y1560890D01*
X3041807Y1561374D01*
X3039872D01*
X3038421Y1560890D01*
X3037454Y1559922D01*
Y1558955D01*
X3037938Y1557988D01*
X3038421Y1557504D01*
X3039389Y1557020D01*
X3042291Y1556053D01*
X3043258Y1555569D01*
X3043742Y1555085D01*
X3044226Y1554118D01*
Y1552667D01*
X3043258Y1551700D01*
X3041807Y1551216D01*
X3039872D01*
X3038421Y1551700D01*
X3037454Y1552667D01*
X3046499Y1561374D02*
Y1551216D01*
X3051530Y1561374D02*
X3050562Y1560890D01*
X3049595Y1559922D01*
X3049111Y1558955D01*
X3048628Y1557504D01*
Y1555085D01*
X3049111Y1553634D01*
X3049595Y1552667D01*
X3050562Y1551700D01*
X3051530Y1551216D01*
X3053465D01*
X3054432Y1551700D01*
X3055399Y1552667D01*
X3055883Y1553634D01*
X3056367Y1555085D01*
Y1557504D01*
X3055883Y1558955D01*
X3055399Y1559922D01*
X3054432Y1560890D01*
X3053465Y1561374D01*
X3051530D01*
X3058737D02*
Y1551216D01*
Y1561374D02*
X3065509Y1551216D01*
Y1561374D02*
Y1551216D01*
X3075086Y1559922D02*
X3074119Y1560890D01*
X3072668Y1561374D01*
X3070733D01*
X3069282Y1560890D01*
X3068315Y1559922D01*
Y1558955D01*
X3068798Y1557988D01*
X3069282Y1557504D01*
X3070249Y1557020D01*
X3073152Y1556053D01*
X3074119Y1555569D01*
X3074603Y1555085D01*
X3075086Y1554118D01*
Y1552667D01*
X3074119Y1551700D01*
X3072668Y1551216D01*
X3070733D01*
X3069282Y1551700D01*
X3068315Y1552667D01*
D54*
X2956170Y1556423D02*
D03*
D68*
X2087424Y2010590D02*
G03*
X2114803Y2010394I13546J-20161D01*
G01*
X575780Y1229030D02*
G03*
X539540Y1229535I-17754J26526D01*
G01*
X848424Y2006590D02*
G03*
X875803Y2006394I13546J-20161D01*
G01*
X2429780Y1233330D02*
G03*
X2393540Y1233835I-17754J26526D01*
G01*
X2087424Y2010590D02*
X2114789D01*
X555460Y1255700D02*
X560540D01*
X558000Y1253160D02*
Y1258240D01*
X540220Y1229030D02*
X575780D01*
X848424Y2006590D02*
X875789D01*
X2409460Y1260000D02*
X2414540D01*
X2412000Y1257460D02*
Y1262540D01*
X2394220Y1233330D02*
X2429780D01*
D70*
X1492000Y1823000D02*
X1498000D01*
X1495000Y1820000D02*
Y1826000D01*
X1491500Y1814000D02*
Y1832000D01*
X1498500Y1814000D02*
Y1832000D01*
X1491500Y1814000D02*
X1498500D01*
X1491500Y1832000D02*
X1498500D01*
X1464000Y1835000D02*
Y1841000D01*
X1461000Y1838000D02*
X1467000D01*
X1455000Y1834500D02*
X1473000D01*
X1455000Y1841500D02*
X1473000D01*
Y1834500D02*
Y1841500D01*
X1455000Y1834500D02*
Y1841500D01*
X1432000Y1818000D02*
X1438000D01*
X1435000Y1815000D02*
Y1821000D01*
X1431500Y1809000D02*
Y1827000D01*
X1438500Y1809000D02*
Y1827000D01*
X1431500Y1809000D02*
X1438500D01*
X1431500Y1827000D02*
X1438500D01*
X1758000Y2258000D02*
X1774000D01*
X1758000D02*
Y2266000D01*
X1774000D01*
Y2258000D02*
Y2266000D01*
Y2258000D02*
Y2266000D01*
X1773000Y2258000D02*
Y2266000D01*
X1772000Y2258000D02*
Y2266000D01*
X1771000Y2258000D02*
Y2266000D01*
X1770000Y2258000D02*
Y2266000D01*
X1769000Y2258000D02*
Y2266000D01*
X1768000Y2258000D02*
Y2266000D01*
X1767000Y2258000D02*
Y2266000D01*
X1188965Y2259000D02*
X1204965D01*
Y2251000D02*
Y2259000D01*
X1188965Y2251000D02*
X1204965D01*
X1188965D02*
Y2259000D01*
Y2251000D02*
Y2259000D01*
X1189965Y2251000D02*
Y2259000D01*
X1190965Y2251000D02*
Y2259000D01*
X1191965Y2251000D02*
Y2259000D01*
X1192965Y2251000D02*
Y2259000D01*
X1193965Y2251000D02*
Y2259000D01*
X1194965Y2251000D02*
Y2259000D01*
X1195965Y2251000D02*
Y2259000D01*
X1444000Y1914000D02*
X1460000D01*
X1444000Y1906000D02*
Y1914000D01*
Y1906000D02*
X1460000D01*
Y1914000D01*
Y1906000D02*
Y1914000D01*
X1459000Y1906000D02*
Y1914000D01*
X1458000Y1906000D02*
Y1914000D01*
X1457000Y1906000D02*
Y1914000D01*
X1456000Y1906000D02*
Y1914000D01*
X1455000Y1906000D02*
Y1914000D01*
X1454000Y1906000D02*
Y1914000D01*
X1453000Y1906000D02*
Y1914000D01*
X1627000Y823000D02*
X1633000D01*
X1630000Y820000D02*
Y826000D01*
X1626500Y814000D02*
Y832000D01*
X1633500Y814000D02*
Y832000D01*
X1626500Y814000D02*
X1633500D01*
X1626500Y832000D02*
X1633500D01*
X1334000Y829000D02*
X1340000D01*
X1337000Y826000D02*
Y832000D01*
X1333500Y820000D02*
Y838000D01*
X1340500Y820000D02*
Y838000D01*
X1333500Y820000D02*
X1340500D01*
X1333500Y838000D02*
X1340500D01*
X820558Y1708636D02*
X826635Y1674168D01*
X779364Y1665833D02*
X826635Y1674168D01*
X773287Y1700301D02*
X779364Y1665833D01*
X773287Y1700301D02*
X820558Y1708636D01*
X892801Y1744504D02*
X910302Y1714193D01*
X868732Y1690193D02*
X910302Y1714193D01*
X851232Y1720504D02*
X868732Y1690193D01*
X851232Y1720504D02*
X892801Y1744504D01*
X980582Y1780098D02*
X992553Y1747209D01*
X947447Y1730791D02*
X992553Y1747209D01*
X935477Y1763681D02*
X947447Y1730791D01*
X935477Y1763681D02*
X980582Y1780098D01*
X1521000Y1823000D02*
X1527000D01*
X1524000Y1820000D02*
Y1826000D01*
X1520500Y1814000D02*
Y1832000D01*
X1527500Y1814000D02*
Y1832000D01*
X1520500Y1814000D02*
X1527500D01*
X1520500Y1832000D02*
X1527500D01*
X1965000Y1440750D02*
X1975000D01*
X1970000Y1435750D02*
Y1445750D01*
X728582Y1685098D02*
X740553Y1652209D01*
X695447Y1635791D02*
X740553Y1652209D01*
X683477Y1668681D02*
X695447Y1635791D01*
X683477Y1668681D02*
X728582Y1685098D01*
X1948000Y1287000D02*
X1958000D01*
X1953000Y1282000D02*
Y1292000D01*
X1536000Y1906000D02*
X1552000D01*
Y1914000D01*
X1536000D02*
X1552000D01*
X1536000Y1906000D02*
Y1914000D01*
Y1906000D02*
Y1914000D01*
X1537000Y1906000D02*
Y1914000D01*
X1538000Y1906000D02*
Y1914000D01*
X1539000Y1906000D02*
Y1914000D01*
X1540000Y1906000D02*
Y1914000D01*
X1541000Y1906000D02*
Y1914000D01*
X1542000Y1906000D02*
Y1914000D01*
X1543000Y1906000D02*
Y1914000D01*
X1724000Y1282000D02*
Y1292000D01*
X1719000Y1287000D02*
X1729000D01*
X1977500Y1045950D02*
Y1071950D01*
X2044500D01*
Y1045950D02*
Y1071950D01*
X2024000Y1045950D02*
X2044500D01*
X2024000Y1031000D02*
Y1045950D01*
X2002500Y1031000D02*
X2024000D01*
X2002500D02*
Y1046000D01*
X1977500Y1045950D02*
X2002500Y1046000D01*
X1921500Y1610500D02*
X1976500D01*
X1921500Y1685500D02*
X1976500D01*
X1921500Y1610500D02*
Y1685500D01*
X1976500Y1610500D02*
Y1685500D01*
X1949000Y1643000D02*
Y1653000D01*
X1944000Y1648000D02*
X1954000D01*
X1473000Y1717000D02*
X1483000D01*
X1478000Y1712000D02*
Y1722000D01*
D71*
X2106082Y2014400D02*
X2113700D01*
X2111161D01*
X2106082Y2019478D01*
X2109891Y2015670D01*
X2113700Y2019478D01*
X2093383Y1989000D02*
X2101000D01*
Y1994078D01*
X2093383Y2001696D02*
Y1996618D01*
X2101000D01*
Y2001696D01*
X2097191Y1996618D02*
Y1999157D01*
X2093383Y2004235D02*
X2101000D01*
Y2008044D01*
X2099731Y2009314D01*
X2094652D01*
X2093383Y2008044D01*
Y2004235D01*
X2101000Y2016931D02*
Y2011853D01*
X2095922Y2016931D01*
X2094652D01*
X2093383Y2015661D01*
Y2013122D01*
X2094652Y2011853D01*
X561808Y1225220D02*
X554190D01*
X556729D01*
X561808Y1220142D01*
X557999Y1223950D01*
X554190Y1220142D01*
X565618Y1255700D02*
X558000D01*
Y1250622D01*
X565618Y1243004D02*
Y1248083D01*
X558000D01*
Y1243004D01*
X561809Y1248083D02*
Y1245543D01*
X565618Y1240465D02*
X558000D01*
Y1236656D01*
X559270Y1235387D01*
X564348D01*
X565618Y1236656D01*
Y1240465D01*
X558000Y1229039D02*
X565618D01*
X561809Y1232847D01*
Y1227769D01*
X867083Y2010400D02*
X874700D01*
X872161D01*
X867083Y2015478D01*
X870891Y2011670D01*
X874700Y2015478D01*
X854382Y1985000D02*
X862000D01*
Y1990078D01*
X854382Y1997696D02*
Y1992618D01*
X862000D01*
Y1997696D01*
X858191Y1992618D02*
Y1995157D01*
X854382Y2000235D02*
X862000D01*
Y2004044D01*
X860730Y2005314D01*
X855652D01*
X854382Y2004044D01*
Y2000235D01*
X862000Y2007853D02*
Y2010392D01*
Y2009122D01*
X854382D01*
X855652Y2007853D01*
X2415808Y1229520D02*
X2408190D01*
X2410729D01*
X2415808Y1224442D01*
X2411999Y1228251D01*
X2408190Y1224442D01*
X2419618Y1260000D02*
X2412000D01*
Y1254922D01*
X2419618Y1247304D02*
Y1252383D01*
X2412000D01*
Y1247304D01*
X2415809Y1252383D02*
Y1249843D01*
X2419618Y1244765D02*
X2412000D01*
Y1240956D01*
X2413270Y1239687D01*
X2418348D01*
X2419618Y1240956D01*
Y1244765D01*
X2418348Y1237147D02*
X2419618Y1235878D01*
Y1233339D01*
X2418348Y1232069D01*
X2417078D01*
X2415809Y1233339D01*
Y1234608D01*
Y1233339D01*
X2414539Y1232069D01*
X2413270D01*
X2412000Y1233339D01*
Y1235878D01*
X2413270Y1237147D01*
D73*
X2011500Y1391000D02*
Y1490500D01*
X1928500Y1391000D02*
Y1490500D01*
X2011500D01*
X1928500Y1391000D02*
X2011500D01*
X1925500Y1249500D02*
Y1324500D01*
X1980500Y1249500D02*
Y1324500D01*
X1925500Y1249500D02*
X1980500D01*
X1925500Y1324500D02*
X1980500D01*
X1707000Y1266000D02*
X1741000D01*
X1707000Y1308000D02*
X1741000D01*
X1707000Y1266000D02*
Y1308000D01*
X1741000Y1266000D02*
Y1308000D01*
X1426000Y1665000D02*
Y1769000D01*
X1530000Y1665000D02*
Y1769000D01*
X1426000Y1665000D02*
X1530000D01*
X1426000Y1769000D02*
X1530000D01*
M02*
